<svg width="45" height="42" viewBox="0 0 45 42" fill="none" xmlns="http://www.w3.org/2000/svg">
<g clip-path="url(#clip0_3814_10000)">
<path d="M35.5236 36.7914C35.2477 36.3891 35.0161 36.0797 34.9551 35.6915C34.8896 35.276 34.8808 34.8498 35.1151 34.49C35.3653 34.1045 35.0974 33.9347 34.8781 33.7243C34.6217 33.4785 34.4803 33.742 34.3247 33.8631C30.3972 36.9099 24.5636 36.7083 20.8572 33.406C19.844 32.5033 19.0093 31.4679 18.3931 30.2602C18.294 30.0657 18.2047 30.0055 17.9554 30.0391C16.9024 30.1797 15.8361 30.1717 14.7848 30.0586C13.9732 29.971 13.4471 29.2628 13.4409 28.4379C13.4321 27.3619 13.4356 26.2868 13.44 25.2108C13.4436 24.2187 14.1571 23.4831 15.1535 23.4557C15.7273 23.4398 16.3029 23.4389 16.8776 23.4557C17.2092 23.4654 17.4223 23.3761 17.4506 23.0127C17.4576 22.9261 17.4842 22.8386 17.5133 22.7555C17.6999 22.2347 17.8352 21.7572 17.2888 21.3134C17.0041 21.0826 16.9926 20.6521 16.9917 20.2781C16.989 19.2463 16.982 18.2153 16.9926 17.1835C17.0032 16.134 17.5664 15.4798 18.6035 15.3701C19.5124 15.2737 20.4284 15.3126 21.34 15.3569C21.7803 15.3781 22.1799 15.5337 22.4779 15.8723C22.6361 16.0518 22.7776 16.0483 22.9783 15.9457C24.6803 15.0713 26.4893 14.6752 28.3999 14.7786C31.2354 14.9325 33.6509 16.0341 35.6058 18.0889C37.7676 20.3612 38.6915 23.1029 38.4908 26.2125C38.3573 28.2788 37.6137 30.1364 36.3794 31.7986C36.2486 31.9745 36.0125 32.1355 36.2548 32.4051C36.4723 32.6474 36.6518 32.8065 37.0355 32.6377C37.8294 32.2884 38.5854 32.4706 39.1955 33.0656C40.8082 34.6412 42.4067 36.2309 43.9929 37.8329C44.7294 38.5765 44.7205 39.7303 44.0106 40.5181C43.7347 40.824 43.4394 41.114 43.1388 41.3961C42.282 42.2033 41.13 42.2042 40.2847 41.3846C39.5235 40.6463 38.7622 39.9045 38.0381 39.13C37.7083 38.7772 37.3776 38.6596 36.8905 38.6632C33.2513 38.6906 29.6112 38.6782 25.972 38.6782C17.8378 38.6782 9.70448 38.6782 1.57026 38.6782C1.45267 38.6782 1.33419 38.6791 1.2166 38.6782C0.397873 38.6658 0.0247595 38.3033 0.022107 37.4864C0.0159179 35.4086 0.0185704 33.3308 0.0185704 31.2531C0.0185704 24.2983 0.0185704 17.3427 0.0185704 10.3879C0.0185704 9.28625 0.336866 8.96353 1.44118 8.96353C12.5515 8.96265 23.6617 8.96176 34.772 8.96441C35.0355 8.96441 35.3043 8.9821 35.5616 9.03692C35.9789 9.12533 36.2627 9.50198 36.2813 9.93433C36.2999 10.3499 36.0205 10.7248 35.5996 10.86C35.3688 10.9343 35.1328 10.9175 34.8985 10.9175C24.1268 10.9184 13.3552 10.9193 2.58439 10.9193C2.13111 10.9193 1.90418 11.1427 1.90359 11.5895C1.90359 19.7679 1.90359 27.9454 1.90359 36.1239C1.90359 36.7923 1.90536 36.7932 2.58439 36.7932C13.2676 36.7932 23.9509 36.7932 34.6332 36.7932H35.5227L35.5236 36.7914ZM25.3452 33.7358C28.506 34.818 32.6421 33.7694 35.0435 30.4547C37.1982 27.4813 36.8693 23.5813 35.7632 21.7696C35.7632 22.3187 35.7809 22.835 35.7579 23.3487C35.7375 23.797 35.4086 24.1215 34.978 24.1745C34.5457 24.2285 34.1487 23.9968 33.9931 23.5892C33.902 23.3523 33.8905 23.1012 33.8905 22.8492C33.8923 21.7148 33.8914 20.5804 33.8905 19.4461C33.8905 19.2409 33.9082 19.0296 33.734 18.8696C33.1779 18.3612 32.5484 17.966 31.8685 17.6176C31.8685 19.1508 31.8702 20.6485 31.8685 22.1463C31.8667 23.4495 31.0816 24.247 29.7828 24.2576C28.8252 24.2656 27.8677 24.2629 26.9101 24.2576C25.6564 24.2506 24.8377 23.5539 24.8129 22.2975C24.7802 20.5999 24.66 18.8935 24.9296 17.2039C20.3709 18.0093 17.3144 25.9269 20.2507 29.5422C20.2507 28.857 20.248 28.231 20.2507 27.6042C20.256 26.4274 20.9624 25.6396 22.1384 25.5918C23.2117 25.5476 24.2895 25.5485 25.3637 25.5892C26.5556 25.6343 27.2744 26.4291 27.2771 27.628C27.2806 29.0277 27.2859 30.4273 27.2735 31.8269C27.2656 32.7676 26.652 33.4741 25.7254 33.6527C25.6131 33.6748 25.5008 33.7013 25.3461 33.7349L25.3452 33.7358ZM25.3752 29.6669C25.3752 29.1072 25.3637 28.5467 25.3797 27.987C25.3885 27.6775 25.3019 27.5255 24.9597 27.5325C24.1648 27.5485 23.3682 27.544 22.5734 27.5325C22.2825 27.529 22.1428 27.6174 22.1463 27.9348C22.1578 29.0692 22.1578 30.2036 22.1463 31.3379C22.1428 31.6509 22.2701 31.7473 22.5681 31.7429C23.3638 31.7305 24.1595 31.7279 24.9544 31.7455C25.2904 31.7526 25.3912 31.6173 25.3805 31.3008C25.3629 30.7562 25.3761 30.2107 25.3761 29.6651L25.3752 29.6669ZM29.911 20.2515C29.911 19.6777 29.9021 19.1039 29.9145 18.531C29.9207 18.2242 29.8261 18.0686 29.4883 18.0756C28.7386 18.0907 27.9879 18.088 27.2382 18.0774C26.9446 18.073 26.8076 18.1747 26.8093 18.485C26.8173 19.6176 26.8173 20.7502 26.8093 21.8819C26.8076 22.1887 26.9393 22.2939 27.2364 22.2886C27.9861 22.2762 28.7368 22.2736 29.4866 22.2895C29.8234 22.2966 29.9233 22.1498 29.9154 21.8395C29.9021 21.3108 29.9118 20.7811 29.9118 20.2515H29.911ZM42.5809 39.2149C42.5561 39.0283 42.4226 38.9461 42.3218 38.8453C41.0327 37.5536 39.7436 36.2609 38.451 34.9736C37.7569 34.2822 37.9214 34.2963 37.2097 34.963C36.9515 35.2052 36.9639 35.3538 37.2097 35.596C38.5934 36.9594 39.9603 38.3405 41.3404 39.7082C41.4722 39.8391 41.5933 40.1326 41.8249 39.9797C42.1255 39.7816 42.382 39.5084 42.5818 39.2149H42.5809ZM16.5072 28.2036C16.7565 28.2036 17.0067 28.1983 17.2561 28.2054C17.5337 28.2133 17.6177 28.1037 17.5514 27.827C17.3825 27.1276 17.2649 26.4176 17.2534 25.6962C17.249 25.4079 17.1199 25.3054 16.8485 25.3116C16.5107 25.3204 16.173 25.3222 15.8352 25.3098C15.5284 25.2983 15.4197 25.4371 15.4276 25.7342C15.4409 26.2037 15.4312 26.674 15.4303 27.1435C15.4303 27.852 15.7889 28.2054 16.5063 28.2036H16.5072ZM20.9262 17.2145C20.3877 17.2145 19.8502 17.2127 19.3117 17.2153C19.1826 17.2153 19.0633 17.2693 19.0615 17.4099C19.0535 18.0535 19.058 18.6972 19.058 19.3417C19.6707 18.6035 20.2869 17.9386 20.9253 17.2145H20.9262Z" fill="#66C6EB"/>
<path d="M20.5769 0C27.0295 0 33.482 0 39.9346 0C40.8718 0 41.1565 0.279393 41.1565 1.20422C41.1565 10.7062 41.1565 20.2082 41.1565 29.7102C41.1565 29.8278 41.16 29.9463 41.1494 30.0639C41.107 30.5378 40.7586 30.9021 40.3086 30.9498C39.8674 30.9958 39.4395 30.6987 39.3263 30.2328C39.275 30.0215 39.2741 29.7951 39.2741 29.5759C39.2715 20.5752 39.2715 11.5736 39.2706 2.57289C39.2706 2.12669 39.0419 1.90359 38.5845 1.90359C26.5777 1.90359 14.5717 1.90359 2.56492 1.90359C2.12225 1.90359 1.90121 2.13229 1.9018 2.58969C1.9018 3.79744 1.90445 5.00608 1.90092 6.21384C1.89915 6.91939 1.56936 7.2987 0.969019 7.30312C0.347458 7.30842 0.00352179 6.92205 0.00175348 6.20058C-1.48312e-05 4.52068 -1.48312e-05 2.84079 0.00175348 1.16178C0.00263763 0.291771 0.296177 0.000884155 1.17591 0C7.64262 0 14.1102 0 20.5769 0Z" fill="#66C6EB"/>
<path d="M6.10863 18.6424C6.10863 18.1119 6.10156 17.5814 6.10952 17.0509C6.12543 16.0306 6.82303 15.3215 7.83273 15.3091C8.67268 15.2985 9.51263 15.2985 10.3526 15.3091C11.2801 15.3206 12.0254 16.0094 12.0519 16.9421C12.0855 18.1048 12.0855 19.271 12.051 20.4337C12.0245 21.3258 11.3145 22.0163 10.4198 22.0464C9.52235 22.0764 8.6214 22.08 7.72398 22.0446C6.82038 22.0092 6.1325 21.271 6.11128 20.3665C6.09802 19.7918 6.10863 19.2171 6.10863 18.6424ZM8.08737 18.615C8.08737 18.9677 8.0971 19.3205 8.08472 19.6724C8.07411 19.9633 8.17402 20.1136 8.48612 20.1048C8.89726 20.0924 9.30839 20.0959 9.71952 20.1021C10.0024 20.1065 10.1121 19.9704 10.1103 19.6972C10.1041 19.0066 10.1015 18.317 10.1112 17.6265C10.1156 17.3312 10.0086 17.1941 9.70007 17.2056C9.28982 17.2206 8.8778 17.2198 8.46667 17.2056C8.17579 17.1959 8.07411 17.325 8.08472 17.6017C8.0971 17.9386 8.08737 18.2772 8.08825 18.615H8.08737Z" fill="#66C6EB"/>
<path d="M15.3392 18.6839C15.3392 19.4354 15.3445 20.1861 15.3383 20.9376C15.333 21.5848 15.005 21.9606 14.4471 21.9792C13.875 21.9977 13.4727 21.6158 13.4648 20.9686C13.4462 19.4372 13.448 17.905 13.4621 16.3736C13.4683 15.7503 13.8556 15.3701 14.4099 15.3772C14.9705 15.3842 15.3295 15.7653 15.3374 16.3878C15.3462 17.1534 15.3392 17.9191 15.3401 18.6857L15.3392 18.6839Z" fill="#66C6EB"/>
<path d="M8.00957 26.6837C8.00957 27.4636 8.01576 28.2425 8.0078 29.0223C8.00161 29.6289 7.66475 30.0152 7.13956 30.0435C6.61879 30.0718 6.20678 29.7279 6.17495 29.1196C6.09007 27.5343 6.09272 25.9455 6.17318 24.3593C6.20501 23.7368 6.59404 23.4177 7.13779 23.4371C7.64088 23.4548 7.99719 23.7943 8.00515 24.3009C8.01753 25.0949 8.00868 25.8889 8.00868 26.6829H8.01045L8.00957 26.6837Z" fill="#66C6EB"/>
<path d="M11.6894 26.7616C11.6894 27.3787 11.6956 27.9959 11.6868 28.6139C11.6832 28.8482 11.6664 29.0851 11.6222 29.315C11.5329 29.7783 11.1315 30.0719 10.6611 30.0427C10.212 30.0153 9.83269 29.6899 9.82738 29.2275C9.80793 27.5671 9.80793 25.9057 9.8265 24.2453C9.8318 23.7829 10.2076 23.4628 10.6629 23.438C11.1483 23.4115 11.5188 23.6847 11.6231 24.1648C11.7433 24.7165 11.6744 25.278 11.6868 25.8359C11.6938 26.1444 11.6876 26.453 11.6885 26.7616H11.6894Z" fill="#66C6EB"/>
<path d="M14.0359 6.32081C13.5399 6.31197 13.1076 5.86459 13.1191 5.37388C13.1306 4.89202 13.5974 4.44552 14.0748 4.45878C14.5726 4.47293 14.9935 4.91589 14.9811 5.41367C14.9687 5.9256 14.547 6.32966 14.0359 6.32081Z" fill="#66C6EB"/>
<path d="M6.67272 5.40666C6.66918 5.91682 6.25451 6.32176 5.7364 6.32088C5.24481 6.31999 4.80185 5.86819 4.81511 5.38013C4.82837 4.88678 5.28194 4.44382 5.76027 4.45708C6.25982 4.47122 6.67626 4.90446 6.67272 5.40666Z" fill="#66C6EB"/>
<path d="M10.8371 5.40843C10.83 5.9407 10.4401 6.32707 9.9167 6.32088C9.39328 6.31469 9.01663 5.92213 9.02017 5.38456C9.02282 4.87175 9.44191 4.45443 9.94322 4.46327C10.464 4.473 10.8442 4.8744 10.8371 5.40843Z" fill="#66C6EB"/>
<path d="M30.9932 29.6219C30.9932 30.6219 30.9985 31.621 30.9914 32.6209C30.987 33.223 30.6439 33.6094 30.1161 33.6351C29.613 33.6589 29.2346 33.3176 29.1435 32.7474C29.1205 32.6033 29.1161 32.4547 29.1152 32.3079C29.1135 30.529 29.1152 28.7501 29.1135 26.9721C29.1135 26.7351 29.1276 26.4999 29.2081 26.2762C29.3637 25.843 29.8102 25.5901 30.2638 25.6697C30.6961 25.7449 30.9843 26.0676 30.9896 26.5353C31.0003 27.5645 30.9932 28.5936 30.9932 29.6219Z" fill="#66C6EB"/>
</g>
<defs>
<clipPath id="clip0_3814_10000">
<rect width="44.5437" height="42" fill="white"/>
</clipPath>
</defs>
</svg>
