<svg width="42" height="43" viewBox="0 0 42 43" fill="none" xmlns="http://www.w3.org/2000/svg">
<g clip-path="url(#clip0_3815_10260)">
<path d="M22.5586 42.8475H19.4414C19.1067 42.7277 18.9189 42.4816 18.7991 42.1535C18.448 41.1913 18.0329 40.2487 17.7376 39.2701C17.5202 38.5482 17.1503 38.1397 16.3874 38.0339C16.0609 37.9888 15.8255 37.9929 15.5679 38.2111C14.6286 39.0051 13.6697 39.7762 12.7247 40.5629C12.3802 40.85 12.0323 40.891 11.6271 40.6892C10.8552 40.3045 10.1136 39.8722 9.3893 39.4038C8.99145 39.1462 8.85609 38.8107 8.93402 38.3571C9.10957 37.3342 9.2359 36.3014 9.4623 35.2908C9.61734 34.5968 9.54762 34.0701 8.95863 33.5968C8.66168 33.3581 8.42051 33.2457 8.04727 33.313C6.8652 33.5279 5.6782 33.7125 4.49449 33.9151C4.04086 33.993 3.70207 33.8569 3.44695 33.459C2.98102 32.7338 2.54461 31.9939 2.1607 31.222C1.95891 30.8168 2.00156 30.4722 2.29113 30.1269C2.94984 29.3419 3.55441 28.5068 4.25742 27.7644C4.79883 27.1926 4.97602 26.643 4.66348 25.9023C4.54043 25.6111 4.41246 25.4273 4.11305 25.319C2.96953 24.9056 1.83586 24.4659 0.694805 24.0467C0.3675 23.9262 0.117305 23.744 0 23.4061V20.2889C0.118125 19.9526 0.3675 19.7672 0.694805 19.6466C1.68246 19.2848 2.65125 18.8648 3.65531 18.5572C4.32223 18.3529 4.66512 18.0076 4.79555 17.3153C4.87266 16.9035 4.82754 16.6295 4.56258 16.3194C3.79148 15.4146 3.0532 14.4819 2.29113 13.5697C2.00156 13.2235 1.95973 12.8798 2.1607 12.4746C2.54543 11.7027 2.97691 10.9603 3.44777 10.2376C3.70535 9.84221 4.03922 9.70275 4.49449 9.7815C5.50348 9.95541 6.52395 10.076 7.52145 10.3008C8.22363 10.4591 8.76996 10.4271 9.25313 9.80611C9.48609 9.5067 9.60258 9.26799 9.53531 8.89557C9.32121 7.7135 9.13746 6.5265 8.93402 5.34197C8.85609 4.88752 8.99309 4.55283 9.39012 4.29525C10.1021 3.83424 10.8347 3.4126 11.5902 3.02623C12.0258 2.80393 12.3859 2.84986 12.7559 3.16322C13.5384 3.82521 14.3711 4.43143 15.1167 5.13197C15.6671 5.64877 16.1897 5.82268 16.9058 5.52244C17.2069 5.39611 17.4136 5.28373 17.5284 4.96299C17.9329 3.83096 18.3693 2.71041 18.7835 1.58166C18.9074 1.24369 19.0879 0.972168 19.4422 0.849121H22.5594C22.8957 0.967246 23.082 1.2158 23.2017 1.54311C23.5487 2.49221 23.9654 3.4208 24.2476 4.38877C24.4691 5.14838 24.8653 5.56264 25.6536 5.67338C25.9703 5.71768 26.1909 5.68814 26.4329 5.48553C27.3746 4.69475 28.3328 3.92283 29.2778 3.13615C29.6231 2.84904 29.9693 2.80557 30.3745 3.00654C31.1473 3.38963 31.8888 3.82357 32.6123 4.29197C33.0077 4.54791 33.1464 4.88588 33.0684 5.34033C32.8929 6.36326 32.769 7.39686 32.5377 8.40666C32.3736 9.12279 32.4721 9.65518 33.0734 10.126C33.3613 10.3516 33.5992 10.4492 33.9552 10.3844C35.1373 10.1703 36.3243 9.98576 37.5088 9.78314C37.9624 9.70522 38.2988 9.84139 38.5555 10.2392C39.0223 10.9644 39.4579 11.7043 39.8418 12.4762C40.0436 12.8815 40.0017 13.2268 39.7121 13.5722C39.0534 14.3572 38.4456 15.189 37.7442 15.9338C37.2192 16.4908 37.0199 17.0199 37.3283 17.7558C37.4546 18.0576 37.5695 18.2627 37.8894 18.3776C39.0214 18.7828 40.142 19.2184 41.2699 19.6335C41.6071 19.7573 41.8819 19.9345 42.0016 20.2913V23.4085C41.8843 23.7457 41.6341 23.9319 41.3077 24.0517C40.3586 24.3995 39.43 24.8121 38.462 25.0959C37.7032 25.3182 37.2848 25.7161 37.1798 26.5052C37.1405 26.8005 37.1421 27.0155 37.3414 27.2517C38.1339 28.1918 38.9033 29.1524 39.6925 30.0949C40.0017 30.4649 40.046 30.8274 39.827 31.263C39.4455 32.021 39.0173 32.7494 38.5571 33.4623C38.3004 33.8593 37.9632 33.9963 37.5104 33.9184C36.4883 33.742 35.4564 33.6116 34.4449 33.3868C33.7526 33.2326 33.2227 33.2999 32.7526 33.8946C32.5188 34.1907 32.3982 34.4286 32.4663 34.8043C32.6829 35.9856 32.8666 37.1726 33.0693 38.3571C33.1464 38.8107 33.0102 39.1487 32.6132 39.4038C31.8995 39.8624 31.1727 40.2922 30.4147 40.6745C29.9791 40.8943 29.6182 40.8492 29.2491 40.5367C28.4665 39.8747 27.6355 39.2676 26.8882 38.5687C26.3386 38.0552 25.8136 37.8813 25.0991 38.1783C24.798 38.3038 24.5905 38.4178 24.4757 38.7385C24.0704 39.8697 23.634 40.9903 23.2198 42.1182C23.0959 42.4562 22.9163 42.7277 22.5619 42.8508L22.5586 42.8475ZM31.5074 5.529C31.5386 5.41826 31.4286 5.29768 31.2572 5.2017C30.9947 5.05486 30.7256 4.91623 30.4812 4.74314C30.1506 4.51018 29.8946 4.54299 29.5821 4.81287C28.6929 5.5815 27.7692 6.30994 26.8685 7.06545C26.5445 7.33697 26.2155 7.4067 25.8062 7.27627C25.2476 7.09744 24.6791 6.94322 24.1065 6.81772C23.7029 6.72912 23.4593 6.51912 23.3198 6.13357C22.9901 5.22139 22.6423 4.31576 22.2969 3.40932C21.8408 2.21166 21.84 2.22561 20.5628 2.30764C20.201 2.33061 20.037 2.48318 19.9205 2.80639C19.5169 3.92447 19.0837 5.03107 18.6744 6.14752C18.5391 6.51666 18.3036 6.7242 17.9181 6.81197C17.3463 6.9424 16.7762 7.09006 16.2176 7.26971C15.7959 7.40506 15.4539 7.34107 15.1175 7.05643C14.3981 6.44611 13.6623 5.85631 12.9371 5.25338C11.9823 4.45932 11.993 4.4749 10.8987 5.09916C10.5468 5.30014 10.4738 5.52736 10.5394 5.89404C10.7518 7.07611 10.9372 8.26393 11.1448 9.44682C11.2046 9.78643 11.1275 10.0645 10.8839 10.3057C10.4081 10.7765 9.93316 11.249 9.46395 11.7256C9.22359 11.9693 8.94879 12.0579 8.60836 11.9988C7.42465 11.7913 6.23766 11.6075 5.05641 11.3869C4.6602 11.313 4.4059 11.3975 4.23855 11.7765C4.12863 12.0251 3.98426 12.2613 3.8325 12.4877C3.65777 12.7469 3.70371 12.9446 3.90059 13.1784C4.6848 14.1087 5.4477 15.0561 6.22535 15.9913C6.48375 16.3013 6.5584 16.6213 6.43453 17.0167C6.25816 17.5761 6.1023 18.1438 5.97844 18.7172C5.88492 19.1544 5.64621 19.4054 5.23359 19.5531C4.32059 19.8796 3.41414 20.2265 2.50688 20.5703C1.36254 21.0042 1.37895 21.005 1.4577 22.2601C1.48148 22.6366 1.62832 22.8122 1.97203 22.9336C3.0532 23.3175 4.11961 23.7432 5.20078 24.1296C5.64457 24.2879 5.89559 24.5562 5.99156 25.0237C6.10395 25.5709 6.25406 26.1131 6.42469 26.6455C6.5543 27.0515 6.49852 27.3838 6.22371 27.7094C5.60602 28.4403 5.00637 29.186 4.39605 29.9226C3.61184 30.8685 3.62578 30.8578 4.23773 31.9267C4.44199 32.2843 4.66922 32.3803 5.06215 32.3073C6.2434 32.0883 7.43121 31.9053 8.61492 31.6994C8.93894 31.6428 9.20801 31.7191 9.43852 31.9496C9.92168 32.4328 10.404 32.9168 10.8888 33.3983C11.1316 33.6395 11.2038 33.9176 11.1431 34.2588C10.9758 35.1997 10.8289 36.1439 10.6747 37.0872C10.4623 38.385 10.4672 38.3751 11.6164 39.0092C11.9011 39.1667 12.0955 39.1503 12.3441 38.9403C13.2727 38.1553 14.2242 37.3957 15.1577 36.6164C15.4727 36.3539 15.7935 36.2981 16.1839 36.4212C16.7171 36.5893 17.2594 36.737 17.8065 36.8526C18.2667 36.9494 18.553 37.1816 18.7121 37.6319C19.0477 38.5851 19.4184 39.5269 19.7712 40.4743C20.1313 41.4415 20.1928 41.4817 21.2272 41.398C21.2814 41.3939 21.3371 41.3799 21.3905 41.3849C21.7891 41.4242 21.9671 41.2093 22.0943 40.8558C22.4954 39.7369 22.9277 38.6294 23.3412 37.5146C23.4659 37.1775 23.6841 36.9822 24.0401 36.8986C24.625 36.7616 25.2082 36.6106 25.7791 36.4277C26.2 36.2932 26.542 36.3522 26.8792 36.6385C27.5978 37.2488 28.3336 37.8395 29.0596 38.4408C30.021 39.2365 30.0103 39.2209 31.0964 38.5966C31.4459 38.3956 31.5246 38.1692 31.459 37.8017C31.2465 36.6197 31.062 35.4319 30.8528 34.249C30.7929 33.9077 30.8725 33.6321 31.1161 33.3917C31.5919 32.9209 32.066 32.4476 32.5369 31.9718C32.7764 31.729 33.0496 31.6412 33.3925 31.7019C34.5754 31.9103 35.764 32.0915 36.9452 32.3089C37.3398 32.3819 37.5966 32.2991 37.7631 31.9185C37.8714 31.6691 38.0174 31.4337 38.17 31.2072C38.3447 30.9472 38.2947 30.7479 38.0994 30.5157C37.3086 29.574 36.5375 28.6151 35.7517 27.6684C35.513 27.3805 35.4465 27.0835 35.5581 26.7177C35.7336 26.1435 35.8977 25.5635 36.0232 24.977C36.1175 24.5389 36.3579 24.292 36.7697 24.1444C37.6573 23.8277 38.5366 23.4856 39.4185 23.1534C40.6137 22.7039 40.6022 22.7047 40.5349 21.4283C40.5161 21.0756 40.3881 20.8918 40.0542 20.7721C38.923 20.366 37.8033 19.9271 36.6745 19.5112C36.3202 19.3808 36.1233 19.1511 36.0371 18.7812C35.9018 18.1963 35.75 17.6138 35.5696 17.0413C35.4408 16.6336 35.5064 16.303 35.7804 15.979C36.3809 15.2694 36.9616 14.5442 37.5572 13.8297C38.389 12.8306 38.3791 12.8396 37.7327 11.7265C37.5514 11.4147 37.3546 11.3204 37.0092 11.3811C35.8263 11.5911 34.6377 11.7667 33.4556 11.9832C33.0438 12.0587 32.7444 11.9471 32.4655 11.6543C32.0513 11.2187 31.6255 10.7938 31.1899 10.3795C30.8971 10.1006 30.7888 9.79873 30.8626 9.38857C31.0882 8.13924 31.2826 6.88416 31.5066 5.529H31.5074Z" fill="#66C6EB"/>
<path d="M32.9297 21.8883C32.9248 28.4771 27.592 33.7591 20.9999 33.7861C14.4448 33.8132 9.00698 28.368 9.06194 21.8046C9.11772 15.2044 14.3956 9.94539 21.0008 9.90766C27.5436 9.87074 33.0257 15.3201 32.9297 21.8875V21.8883ZM20.9975 11.3809C15.1683 11.4712 10.5426 15.9944 10.5541 21.8686C10.5647 27.7068 15.1716 32.294 21.0024 32.2915C26.8562 32.2891 31.4368 27.6863 31.4458 21.8645C31.4548 15.9985 26.8373 11.4671 20.9983 11.3801L20.9975 11.3809Z" fill="#66C6EB"/>
<path d="M18.8442 18.3193C18.8442 17.4309 18.8376 16.5425 18.8458 15.6541C18.8581 14.3621 19.7949 13.386 21.0049 13.3909C22.2197 13.3958 23.1492 14.3712 23.1549 15.6648C23.1615 17.4416 23.1623 19.2176 23.1549 20.9944C23.1492 22.3454 22.2599 23.2757 20.9958 23.274C19.7383 23.2732 18.8532 22.3323 18.845 20.9829C18.8401 20.0945 18.8442 19.2061 18.845 18.3177L18.8442 18.3193ZM20.3642 18.3193C20.3642 19.2208 20.3601 20.1224 20.3658 21.0239C20.3691 21.4874 20.6169 21.7835 20.9852 21.7942C21.3658 21.8048 21.6332 21.4956 21.6349 21.0132C21.639 19.2373 21.639 17.4613 21.6349 15.6853C21.6332 15.1759 21.3978 14.9035 20.995 14.9068C20.5963 14.9101 20.3691 15.1866 20.3658 15.696C20.3609 16.5704 20.3642 17.4449 20.365 18.3185L20.3642 18.3193Z" fill="#66C6EB"/>
<path d="M23.8293 27.4542C23.8277 29.0292 22.5471 30.3155 20.9927 30.304C19.4177 30.2933 18.1716 29.0276 18.1708 27.4395C18.1708 25.8538 19.4226 24.6028 21.0074 24.6069C22.5947 24.611 23.8318 25.8587 23.8293 27.4534V27.4542ZM20.9402 28.7905C21.6858 28.8168 22.3142 28.2376 22.356 27.4862C22.3954 26.7799 21.79 26.1442 21.0583 26.1237C20.2814 26.1016 19.6785 26.6503 19.6424 27.4116C19.6096 28.1072 20.2289 28.7659 20.9402 28.7914V28.7905Z" fill="#66C6EB"/>
</g>
<defs>
<clipPath id="clip0_3815_10260">
<rect width="42" height="42" fill="white" transform="translate(0 0.847412)"/>
</clipPath>
</defs>
</svg>
