<svg width="32" height="43" viewBox="0 0 32 43" fill="none" xmlns="http://www.w3.org/2000/svg">
<path d="M22.995 13.8674V10.9799C22.89 6.9899 19.53 3.7874 15.54 3.8924C11.7075 3.9974 8.60998 7.0949 8.50498 10.9799V13.8674H2.72998V40.0124H28.875V13.8674H22.995ZM10.0275 10.9799C10.1325 7.8299 12.7575 5.3624 15.9075 5.4674C18.9 5.5724 21.315 7.9874 21.42 10.9799V13.8674H10.0275V10.9799ZM27.2475 38.4374H4.25248V15.4424H27.2475V38.4374Z" fill="#66C6EB"/>
<path d="M15.5925 26.9399C14.1225 26.9399 12.915 28.1474 12.915 29.6174C12.915 30.7724 13.65 31.7699 14.7525 32.1374V35.0774C14.7525 35.5499 15.12 35.9174 15.5925 35.9174C16.065 35.9174 16.4325 35.5499 16.4325 35.0774V32.1374C17.85 31.6649 18.585 30.1424 18.1125 28.7774C17.745 27.6749 16.7475 26.9399 15.5925 26.9399Z" fill="#66C6EB"/>
<path d="M16.485 19.7999H22.89V26.4674H24.465V18.2249H16.485V19.7999Z" fill="#66C6EB"/>
</svg>
