<svg width="43" height="43" viewBox="0 0 43 43" fill="none" xmlns="http://www.w3.org/2000/svg">
<g clip-path="url(#clip0_3830_10300)">
<path d="M26.0602 38.1093C26.0602 37.2221 26.056 36.3349 26.0628 35.4486C26.0645 35.2039 26.0391 35.0676 25.736 35.1811C24.5695 35.6213 23.3538 35.849 22.117 35.9565C21.7741 35.9862 21.692 36.1284 21.7013 36.434C21.7166 36.9546 21.7208 37.4761 21.6996 37.9967C21.6861 38.326 21.7919 38.5317 22.0806 38.7188C22.7519 39.1531 23.0643 39.8033 22.9475 40.5999C22.8264 41.4252 22.3396 41.9857 21.5346 42.2227C20.6067 42.4961 19.6171 42.0229 19.2142 41.1459C18.8188 40.2858 19.0956 39.2488 19.916 38.7281C20.2376 38.5241 20.3435 38.3032 20.3265 37.9434C20.3011 37.4092 20.313 36.8733 20.3223 36.3383C20.3265 36.0937 20.2385 35.9921 19.9837 35.9709C18.8586 35.8795 17.7522 35.6789 16.6796 35.3208C16.3909 35.2243 16.3063 35.2979 16.3088 35.595C16.319 36.6786 16.3147 37.7631 16.3113 38.8475C16.3088 39.4866 16.0853 39.7076 15.4453 39.711C14.741 39.7144 14.0367 39.7296 13.334 39.7042C12.959 39.6907 12.7253 39.7906 12.5171 40.1343C12.0879 40.8445 11.2769 41.1391 10.4667 40.9605C9.70823 40.7929 9.11395 40.147 8.98612 39.352C8.83713 38.4234 9.35691 37.5336 10.2432 37.2035C11.0805 36.8911 12.0735 37.2035 12.5349 37.9832C12.7203 38.2955 12.9192 38.4132 13.2705 38.3895C13.7048 38.3607 14.1433 38.3743 14.5793 38.3844C14.8349 38.3904 14.9315 38.2803 14.9298 38.0323C14.9247 36.9902 14.9247 35.9489 14.9289 34.9068C14.9289 34.6935 14.8256 34.5758 14.6453 34.4835C11.8551 33.0664 9.76495 30.9466 8.33681 28.1699C8.22338 27.9498 8.07692 27.8703 7.83735 27.8719C6.85196 27.8804 5.86657 27.8855 4.88119 27.8694C4.55527 27.8643 4.45876 27.9972 4.47908 28.2969C4.49516 28.5348 4.49431 28.7761 4.48077 29.0148C4.44606 29.6125 4.49347 30.0772 5.09537 30.5064C6.0325 31.1752 5.97155 32.5618 5.11568 33.361C4.28776 34.1339 2.98745 34.0365 2.26619 33.1468C1.55424 32.2689 1.72778 30.9458 2.68269 30.3312C3.02131 30.1136 3.11697 29.8791 3.10427 29.5075C3.08057 28.8184 3.09327 28.1276 3.0992 27.4385C3.10512 26.7697 3.34724 26.5107 4.01601 26.5022C5.07166 26.4887 6.12816 26.4853 7.18381 26.5022C7.55206 26.5082 7.61047 26.4083 7.49703 26.0646C7.15841 25.0318 6.94 23.9719 6.88921 22.8832C6.87736 22.6352 6.78847 22.5243 6.53704 22.5268C5.90382 22.5327 5.26976 22.5395 4.63653 22.5234C4.32585 22.5158 4.24627 22.7503 4.11167 22.9391C3.45051 23.8635 2.25603 24.0684 1.3536 23.4132C0.469804 22.7723 0.288642 21.5296 0.94726 20.6348C1.74133 19.5571 3.40819 19.6147 4.1413 20.7719C4.32754 21.0665 4.5214 21.1673 4.85156 21.1529C5.40012 21.13 5.94954 21.1393 6.4981 21.1495C6.75122 21.1546 6.87736 21.0894 6.89683 20.8015C6.97894 19.5749 7.21344 18.3745 7.63333 17.2172C7.77047 16.838 7.63079 16.7863 7.30233 16.788C5.64139 16.7965 3.97961 16.7931 2.31867 16.7914C1.49413 16.7906 1.30535 16.5984 1.3045 15.7688C1.30366 14.9239 1.29519 14.0791 1.30874 13.2351C1.31382 12.9523 1.23509 12.7779 0.974349 12.6264C0.174357 12.1608 -0.163417 11.2821 0.0820832 10.4143C0.315732 9.58896 1.10641 8.98875 1.96736 8.98537C2.81475 8.98198 3.5885 9.5551 3.83739 10.3695C4.09897 11.227 3.7739 12.1125 2.97814 12.5976C2.71317 12.7593 2.61497 12.9337 2.62597 13.2376C2.64798 13.842 2.63952 14.4482 2.63021 15.0535C2.62597 15.3066 2.72333 15.4048 2.97729 15.4039C4.68055 15.398 6.38467 15.3972 8.08793 15.4056C8.32412 15.4065 8.44263 15.2981 8.54083 15.1051C8.78972 14.6149 9.08686 14.1527 9.40347 13.704C9.7531 13.208 10.1264 13.0801 10.4938 13.3273C10.868 13.5788 10.8968 13.969 10.5438 14.4702C9.46358 16.0007 8.75078 17.6845 8.41724 19.5275C7.16349 26.4658 11.7019 33.1011 18.6114 34.3972C22.194 35.0685 25.5201 34.3438 28.5085 32.2088C28.5889 32.1513 28.6685 32.092 28.7557 32.0471C29.0977 31.8719 29.4651 31.9489 29.6615 32.2308C29.8731 32.5348 29.8181 32.914 29.4998 33.1671C28.9698 33.5887 28.4009 33.9561 27.7999 34.2668C27.5366 34.4031 27.441 34.5766 27.4427 34.8653C27.452 36.4839 27.4545 38.1034 27.4427 39.7228C27.4401 40.0742 27.5679 40.1977 27.9125 40.1859C28.4467 40.1673 28.9825 40.1656 29.5167 40.1859C29.8579 40.1994 30.0763 40.1072 30.2735 39.7948C30.7383 39.0566 31.6458 38.7603 32.4542 39.016C33.2729 39.275 33.8527 40.0572 33.8434 40.8877C33.8333 41.7673 33.2508 42.5342 32.4145 42.7704C31.562 43.0108 30.6951 42.6892 30.2227 41.9103C30.0602 41.6428 29.8824 41.5505 29.581 41.5565C28.6947 41.5725 27.8075 41.5658 26.9203 41.5607C26.2871 41.5573 26.0662 41.3304 26.0636 40.6862C26.0602 39.8278 26.0636 38.9686 26.0628 38.1102L26.0602 38.1093ZM11.4911 39.0701C11.5004 38.7654 11.2168 38.4589 10.918 38.4505C10.6081 38.442 10.3262 38.7171 10.3186 39.0371C10.311 39.3563 10.5709 39.6331 10.89 39.6458C11.2109 39.6585 11.4809 39.4003 11.4911 39.0701ZM3.08396 21.8386C3.08819 21.4839 2.86216 21.2544 2.50407 21.2621C2.1536 21.2697 1.95127 21.4449 1.93688 21.8047C1.92249 22.1611 2.14767 22.4066 2.48798 22.4142C2.81983 22.421 3.07888 22.1704 3.08311 21.8386H3.08396ZM4.3631 31.9312C4.36564 31.5782 4.13368 31.3377 3.79252 31.3386C3.46237 31.3403 3.20332 31.5985 3.21517 31.9312C3.22702 32.2825 3.41242 32.4763 3.76882 32.4899C4.1286 32.5034 4.3614 32.2825 4.3631 31.9312ZM31.8667 41.471C32.1698 41.4727 32.4695 41.1814 32.4695 40.8843C32.4695 40.5702 32.1943 40.3002 31.8744 40.2985C31.5535 40.2968 31.2725 40.5694 31.2758 40.8767C31.2792 41.1916 31.5544 41.4684 31.8667 41.471ZM21.019 39.7702C20.6762 39.7609 20.4535 39.9616 20.4366 40.2959C20.418 40.6532 20.6321 40.9038 20.9708 40.9199C21.3009 40.9351 21.571 40.6904 21.5845 40.3637C21.5989 40.0174 21.3729 39.7804 21.019 39.7711V39.7702ZM1.9682 10.3822C1.64228 10.3796 1.36292 10.6488 1.36715 10.9612C1.37054 11.277 1.64736 11.5326 1.97836 11.5276C2.28904 11.5225 2.55486 11.2702 2.55994 10.9756C2.56502 10.6607 2.29074 10.3839 1.96905 10.3822H1.9682Z" fill="#66C6EB"/>
<path d="M26.0586 5.56865C26.0586 4.75172 26.0586 3.93565 26.0586 3.11872C26.0594 2.31281 26.238 2.13842 27.0609 2.13672C27.9201 2.13588 28.7785 2.1291 29.6378 2.14011C29.8901 2.14349 30.0433 2.06561 30.1813 1.84212C30.7087 0.987104 31.6153 0.654409 32.5084 0.956628C33.3762 1.25038 33.8866 2.07238 33.8045 3.04507C33.7309 3.9111 33.035 4.63913 32.0902 4.75595C31.2945 4.85416 30.6536 4.52231 30.2253 3.8493C30.0661 3.59872 29.8892 3.51068 29.609 3.5166C29.0181 3.5293 28.4264 3.52845 27.8355 3.5183C27.5443 3.51322 27.4359 3.63766 27.4367 3.92295C27.4427 5.58473 27.4418 7.24567 27.4367 8.90745C27.4367 9.14956 27.54 9.29094 27.7483 9.40522C30.1931 10.7479 32.0911 12.6433 33.4363 15.0856C33.5709 15.3302 33.7351 15.4166 34.006 15.4149C35.6678 15.4064 37.3287 15.4056 38.9905 15.4149C39.2936 15.4166 39.4231 15.326 39.4121 15.0052C39.3926 14.4287 39.3884 13.8496 39.4138 13.274C39.4282 12.9489 39.3105 12.7728 39.0354 12.6035C38.3192 12.1624 38.0127 11.4903 38.1431 10.6598C38.2709 9.84797 38.7619 9.31633 39.5467 9.08099C40.4711 8.80332 41.4472 9.27147 41.8578 10.1654C42.2565 11.0357 41.9763 12.0736 41.1526 12.5739C40.8292 12.7703 40.7175 12.9811 40.7276 13.3476C40.753 14.206 40.7378 15.0653 40.7344 15.9237C40.7318 16.5552 40.5016 16.7914 39.8675 16.7931C38.1778 16.7982 36.4881 16.7956 34.7992 16.7956C34.2396 16.7956 34.2379 16.7956 34.4157 17.3052C34.8034 18.4142 35.0202 19.5605 35.1234 20.7262C35.1522 21.0495 35.2563 21.1689 35.584 21.1554C36.1461 21.1334 36.7107 21.1384 37.2728 21.1545C37.5412 21.1621 37.702 21.0783 37.8476 20.8388C38.3556 20.0057 39.2597 19.6781 40.1435 19.971C40.9816 20.2487 41.5335 21.0682 41.4827 21.9596C41.4319 22.851 40.7742 23.5884 39.8624 23.7754C39.1242 23.927 38.287 23.5672 37.8739 22.8739C37.7224 22.6191 37.5505 22.5259 37.2661 22.5336C36.7031 22.5496 36.1393 22.5488 35.5763 22.5336C35.2851 22.5259 35.1471 22.6106 35.1192 22.9272C35.021 24.0506 34.8331 25.1596 34.4614 26.2296C34.3488 26.5538 34.5452 26.5479 34.7603 26.5479C35.8303 26.5471 36.9004 26.5462 37.9704 26.5479C38.7323 26.5496 38.9346 26.7553 38.938 27.5333C38.9405 28.1953 38.9566 28.8573 38.9321 29.5185C38.9185 29.8918 39.0218 30.1297 39.3554 30.3447C40.0157 30.7705 40.2967 31.43 40.1816 32.2037C40.0614 33.0079 39.5898 33.5599 38.8 33.8037C37.8857 34.0865 36.9164 33.6598 36.4855 32.7988C36.0631 31.9531 36.3061 30.8797 37.1035 30.3625C37.4616 30.1305 37.5903 29.8808 37.5598 29.4744C37.5285 29.0545 37.5471 28.6304 37.5539 28.208C37.5573 27.9786 37.4675 27.8761 37.2305 27.877C36.1749 27.8829 35.1184 27.8846 34.0627 27.877C33.8333 27.8753 33.7436 28.0141 33.6614 28.186C33.344 28.848 32.9563 29.4685 32.5338 30.0679C32.2316 30.4971 31.838 30.6156 31.4968 30.387C31.1565 30.1585 31.1074 29.7326 31.4088 29.306C32.5406 27.706 33.3194 25.9536 33.6115 24.0133C34.2032 20.0819 33.2915 16.5459 30.6867 13.5076C28.7201 11.2135 26.2304 9.78532 23.2489 9.26131C19.9295 8.67719 16.8447 9.3121 14.0053 11.1305C13.8394 11.2372 13.682 11.3557 13.5143 11.4598C13.0919 11.7239 12.7033 11.6706 12.4765 11.3244C12.2657 11.0027 12.3664 10.6166 12.7406 10.3381C13.2959 9.92585 13.8843 9.56353 14.5065 9.26554C14.8206 9.1157 14.934 8.92523 14.9264 8.58153C14.9061 7.63847 14.9103 6.69456 14.9255 5.7515C14.9306 5.42304 14.8214 5.28505 14.4862 5.31383C14.2483 5.33415 14.007 5.33076 13.7683 5.31383C13.1774 5.27235 12.7287 5.33838 12.3232 5.93436C11.7095 6.83593 10.3051 6.81731 9.522 6.0334C8.70085 5.2114 8.75418 3.91787 9.64052 3.1492C10.4837 2.41778 11.7984 2.53376 12.4316 3.45988C12.7042 3.85861 12.9929 3.97035 13.4356 3.94919C14.0536 3.91956 14.6741 3.93565 15.2938 3.94411C16.0828 3.95427 16.3029 4.17607 16.3046 4.95236C16.3071 5.99446 16.313 7.03657 16.3003 8.07783C16.2961 8.39528 16.3867 8.46893 16.6915 8.36735C17.7505 8.01434 18.8442 7.81963 19.9549 7.72989C20.2284 7.70788 20.3215 7.60545 20.3155 7.34048C20.3037 6.76313 20.3012 6.18578 20.3172 5.60928C20.3249 5.33923 20.2343 5.18092 19.9964 5.03532C19.1592 4.52231 18.8324 3.58179 19.1473 2.69375C19.4377 1.87598 20.3376 1.30118 21.1697 1.40107C22.139 1.51789 22.8738 2.229 22.9509 3.19999C23.0127 3.97628 22.691 4.6095 22.0188 5.015C21.7598 5.17161 21.6836 5.35108 21.6903 5.63044C21.7047 6.20779 21.7005 6.78514 21.6937 7.36249C21.6912 7.60968 21.7902 7.7045 22.0417 7.72312C23.2827 7.81286 24.4958 8.04989 25.6632 8.48417C26.0103 8.61369 26.0645 8.51549 26.0577 8.18872C26.0399 7.31593 26.0518 6.44313 26.0518 5.57034L26.0586 5.56865ZM11.4919 4.63659C11.4869 4.30644 11.221 4.04485 10.8993 4.05247C10.5802 4.06009 10.3161 4.33268 10.3186 4.65268C10.3203 4.97267 10.5971 5.25034 10.9095 5.2478C11.2049 5.24526 11.4979 4.93796 11.4928 4.63744L11.4919 4.63659ZM31.2759 2.80465C31.2649 3.1111 31.5417 3.39131 31.8617 3.39893C32.1817 3.40655 32.4602 3.14327 32.4687 2.82497C32.4771 2.51598 32.1994 2.23238 31.8837 2.22646C31.5713 2.22053 31.2869 2.49143 31.2759 2.80381V2.80465ZM21.5854 3.3693C21.5913 3.03576 21.3407 2.77926 21.0097 2.77756C20.666 2.77587 20.4366 3.01206 20.4366 3.36507C20.4366 3.70369 20.6465 3.91956 20.9835 3.92633C21.3416 3.93311 21.5794 3.71385 21.5854 3.3693ZM40.0885 11.5275C40.4118 11.5191 40.6794 11.2482 40.6692 10.9392C40.6599 10.6293 40.3771 10.3737 40.0546 10.383C39.7338 10.3923 39.462 10.6683 39.473 10.9747C39.484 11.288 39.76 11.536 40.0885 11.5275ZM38.8195 31.9032C38.8102 31.5807 38.541 31.3309 38.2125 31.3385C37.8807 31.347 37.6589 31.6001 37.6741 31.9565C37.6876 32.2909 37.9069 32.4941 38.2472 32.4882C38.5994 32.4822 38.8296 32.246 38.8203 31.9032H38.8195ZM39.534 22.4133C39.8582 22.4057 40.1046 22.1382 40.0944 21.8064C40.0834 21.4593 39.8438 21.24 39.4883 21.2612C39.1336 21.2823 38.9575 21.4864 38.9499 21.8326C38.9422 22.1628 39.2081 22.421 39.534 22.4125V22.4133Z" fill="#66C6EB"/>
<path d="M21.0047 20.0109C19.2168 20.0109 17.4289 20.0202 15.6409 20.0033C15.2346 19.9991 15.1017 20.1371 15.1059 20.5392C15.1228 22.228 15.0991 23.9178 15.1178 25.6066C15.1482 28.4417 17.4416 30.7486 20.2809 30.7969C21.3179 30.8146 22.3583 30.879 23.3716 30.5141C25.4228 29.7751 26.8891 27.7501 26.9077 25.5702C26.9111 25.1901 26.8992 24.8092 26.9153 24.4299C26.9322 24.021 27.1955 23.7451 27.5595 23.7205C27.9049 23.6968 28.2334 23.9635 28.2715 24.3631C28.6651 28.4858 26.1094 31.5291 22.7037 32.0726C20.9158 32.3579 19.0949 32.3655 17.4255 31.4673C15.0737 30.2026 13.8065 28.225 13.737 25.544C13.6922 23.8136 13.726 22.0807 13.7294 20.3495C13.7311 19.3582 14.1908 18.7961 15.1711 18.6378C15.4606 18.5913 15.4962 18.4558 15.5013 18.2162C15.5199 17.3612 15.442 16.5062 15.6553 15.6546C16.2225 13.3909 18.4261 11.3143 21.4855 11.5115C23.9016 11.6673 26.0645 13.6643 26.4675 16.1684C26.5733 16.8287 26.5225 17.4882 26.5301 18.1485C26.5335 18.438 26.575 18.5955 26.9246 18.648C27.7653 18.7733 28.2512 19.3574 28.2876 20.2234C28.3087 20.7153 28.302 21.2088 28.2876 21.7015C28.2732 22.1866 27.9887 22.4998 27.5934 22.5032C27.1769 22.5066 26.9162 22.1891 26.9094 21.6634C26.9043 21.2977 26.9094 20.9311 26.9085 20.5654C26.906 20.0279 26.8933 20.0118 26.3684 20.0118C24.5805 20.0101 22.7926 20.0118 21.0047 20.0118V20.0109ZM25.1511 17.3824C25.1562 17.3824 25.1604 17.3824 25.1655 17.3824C25.1486 17.0311 25.1655 16.6747 25.1088 16.3293C24.7956 14.4211 23.1592 13.004 21.2654 12.8897C18.8849 12.7458 17.2875 14.5303 16.9768 16.0406C16.8574 16.6213 16.8126 17.2097 16.8244 17.8014C16.8413 18.6903 16.661 18.6006 17.6769 18.6133C17.9486 18.6167 18.0604 18.5159 18.0528 18.2433C18.0418 17.8353 18.0409 17.4264 18.0528 17.0184C18.1044 15.2939 19.4005 14.0317 21.0851 14.0495C22.6038 14.0656 24.015 15.4065 23.9253 17.0539C23.9117 17.3062 23.9211 17.561 23.9253 17.8141C23.938 18.6827 23.778 18.6006 24.749 18.6133C25.0334 18.6167 25.168 18.5235 25.1545 18.2264C25.1409 17.9453 25.1519 17.6634 25.1519 17.3815L25.1511 17.3824ZM20.9878 18.609C21.4102 18.609 21.8318 18.604 22.2542 18.6116C22.4752 18.6158 22.6013 18.5498 22.5962 18.3026C22.5869 17.8387 22.6191 17.3722 22.5827 16.91C22.5116 15.9847 21.825 15.393 20.9116 15.4311C20.0642 15.4666 19.4555 16.1193 19.4394 17.0201C19.4318 17.4425 19.4436 17.8641 19.436 18.2865C19.4318 18.5202 19.5291 18.6167 19.7628 18.6116C20.1708 18.6023 20.5789 18.609 20.9869 18.6099L20.9878 18.609Z" fill="#66C6EB"/>
<path d="M20.9606 27.9406C20.567 27.9406 20.1716 27.9575 19.7788 27.9363C19.2294 27.9067 18.9653 27.5859 19.0423 27.0373C19.127 26.4388 19.2303 25.8428 19.3437 25.2494C19.3826 25.0437 19.3623 24.8735 19.265 24.6856C18.8087 23.8051 19 22.791 19.7187 22.2001C20.434 21.6117 21.4745 21.5779 22.1847 22.1205C22.9754 22.7241 23.2201 23.6985 22.7832 24.6094C22.6596 24.8667 22.6317 25.1063 22.6884 25.3814C22.7934 25.8902 22.8814 26.4032 22.9652 26.9171C23.077 27.5994 22.8002 27.927 22.1009 27.9422C21.7208 27.9507 21.3407 27.9439 20.9615 27.9439C20.9615 27.9431 20.9615 27.9414 20.9615 27.9406H20.9606ZM21.069 26.5581C21.3983 26.6157 21.5422 26.4946 21.4321 26.0942C21.3399 25.7565 21.317 25.4009 21.2434 25.058C21.1706 24.7186 21.2281 24.4299 21.4516 24.1531C21.6836 23.8653 21.6886 23.5359 21.4127 23.2794C21.1714 23.0543 20.8683 23.0559 20.6025 23.2642C20.3164 23.4885 20.28 23.8415 20.5526 24.1615C20.8023 24.4553 20.8209 24.7643 20.7591 25.1088C20.7016 25.4271 20.6465 25.7454 20.5898 26.0637C20.5052 26.5412 20.5212 26.5598 21.069 26.5598V26.5581Z" fill="#66C6EB"/>
</g>
<defs>
<clipPath id="clip0_3830_10300">
<rect width="42.0372" height="42" fill="white" transform="translate(0 0.847412)"/>
</clipPath>
</defs>
</svg>
