<svg width="65" height="43" viewBox="0 0 65 43" fill="none" xmlns="http://www.w3.org/2000/svg">
<g clip-path="url(#clip0_3832_10363)">
<path d="M50.0674 11.2869C50.0674 13.7954 50.0767 16.3038 50.066 18.8123C50.0353 26.2001 47.0316 32.1768 41.3406 36.7919C38.5424 39.0613 35.3118 40.702 32.2854 42.6404C31.8995 42.8874 31.4897 42.9288 31.0932 42.6711C27.7597 40.5165 24.1593 38.7489 21.1569 36.1137C16.6553 32.1621 13.9226 27.216 13.3806 21.2019C13.0215 17.2196 13.2978 13.216 13.2484 9.22172C13.2191 6.91353 13.2391 4.604 13.2471 2.29581C13.2511 1.03158 13.8892 0.613728 15.0574 1.08231C16.4978 1.66169 17.8635 2.4253 19.3694 2.83781C22.9404 3.81502 26.334 3.32375 29.6341 1.6924C32.1051 0.470884 31.3375 0.660452 33.7605 1.67771C35.1329 2.25309 36.4785 2.8792 37.963 3.13151C40.9454 3.63614 43.7916 3.2303 46.5083 1.90065C47.0663 1.62698 47.6337 1.37467 48.2011 1.12102C49.4186 0.577683 50.0647 1.00488 50.066 2.36122C50.07 5.33557 50.066 8.31126 50.0674 11.2856V11.2869ZM47.9007 12.5458C47.9007 12.5458 47.906 12.5458 47.9087 12.5458C47.9087 9.81579 47.91 7.08574 47.9087 4.35436C47.9087 3.61344 47.8913 3.60143 47.2198 3.91648C45.2267 4.85231 43.1428 5.38497 40.9334 5.4664C38.1339 5.57053 35.5147 4.91639 33.041 3.65883C32.1278 3.19426 31.3522 3.1462 30.379 3.64415C25.7439 6.01375 21.0221 6.11254 16.2722 3.93651C15.4178 3.54536 15.4111 3.55203 15.4098 4.47718C15.4085 9.38325 15.4125 14.2893 15.4071 19.1941C15.4071 20.1953 15.4458 21.1925 15.6167 22.1778C16.5832 27.758 19.3774 32.2209 23.903 35.5957C25.9161 37.0962 28.1629 38.2457 30.2228 39.6714C31.2654 40.3923 32.0304 40.4417 33.0957 39.6901C35.6482 37.8892 38.5211 36.5529 40.86 34.4383C45.2494 30.4707 47.7525 25.5846 47.8927 19.6052C47.9474 17.253 47.902 14.8994 47.902 12.5458H47.9007Z" fill="#66C6EB"/>
<path d="M64.0473 13.2266C64.0473 15.0689 64.0353 16.9112 64.05 18.7535C64.1087 25.9971 60.9955 31.5106 54.9587 35.4221C53.282 36.5075 51.5665 37.5327 49.8804 38.6034C49.3077 38.9678 48.7831 38.9785 48.209 38.6061C47.2785 38.0013 46.3227 37.4379 45.3869 36.8399C44.6994 36.4007 44.5325 35.8333 44.8943 35.2793C45.2587 34.7212 45.8341 34.6331 46.5203 35.0497C47.2225 35.4755 47.9167 35.9134 48.6109 36.3513C48.8458 36.4994 49.0634 36.6102 49.3424 36.4247C51.6693 34.8814 54.2165 33.6586 56.3111 31.7736C59.794 28.639 61.7725 24.7529 61.8633 20.0297C61.938 16.1249 61.882 12.216 61.8793 8.30988C61.8793 7.55561 61.8352 7.53558 61.1224 7.8453C58.6233 8.93198 56.0387 9.18696 53.3728 8.63027C53.2206 8.59823 53.0684 8.56219 52.9229 8.50879C52.3515 8.29919 52.0485 7.78923 52.1713 7.26325C52.2954 6.73459 52.7814 6.39817 53.3901 6.4756C54.0923 6.56638 54.7838 6.71457 55.4981 6.75195C57.4311 6.85474 59.244 6.44623 60.9715 5.59718C61.4294 5.37157 61.8913 5.1513 62.3612 4.95639C63.3024 4.56657 64.0099 5.00979 64.038 6.03372C64.0673 7.1431 64.046 8.25381 64.046 9.36318C64.046 10.6501 64.046 11.9384 64.046 13.2253L64.0473 13.2266Z" fill="#66C6EB"/>
<path d="M0.0360656 14.0812C0.0360656 11.1229 0.0347306 8.67986 0.0360656 6.23817C0.0374006 4.91921 0.662174 4.51604 1.86633 5.03134C3.35217 5.66813 4.79262 6.43575 6.42932 6.65068C7.51332 6.79353 8.596 6.80154 9.68001 6.65602C9.83353 6.636 9.98705 6.60663 10.1419 6.60129C10.8321 6.57592 11.326 6.94571 11.3941 7.53177C11.4555 8.06977 11.0751 8.55037 10.4236 8.6812C7.93518 9.18182 5.52019 8.89479 3.1853 7.92693C2.10262 7.47837 2.11197 7.45835 2.11197 8.65984C2.11197 12.0347 2.13333 15.4095 2.10663 18.7844C2.05724 25.2898 4.86471 30.2119 10.3075 33.6855C11.6918 34.5692 13.1002 35.4156 14.4833 36.3021C14.8504 36.5384 15.1481 36.5664 15.5099 36.3047C15.905 36.0204 16.3269 35.7681 16.7528 35.5304C17.3588 35.1927 17.9516 35.3222 18.2747 35.8348C18.5964 36.3448 18.4535 36.9348 17.8661 37.3233C17.1439 37.8013 16.4003 38.2431 15.6661 38.7024C15.2496 38.9627 14.813 38.9894 14.4072 38.7264C11.6318 36.9348 8.64139 35.461 6.16766 33.2249C2.85022 30.2279 0.798343 26.5206 0.193594 22.0805C-0.190882 19.2556 0.134855 16.4028 0.0360656 14.0812Z" fill="#66C6EB"/>
<path d="M40.8386 13.6046C40.8253 13.9584 40.6544 14.236 40.4114 14.479C36.6481 18.2437 32.8874 22.011 29.1161 25.7677C28.5087 26.3737 27.988 26.3684 27.3833 25.773C26.1351 24.5435 24.8962 23.3046 23.6667 22.0564C23.13 21.5117 23.102 20.9163 23.5412 20.4678C23.9657 20.0352 24.6132 20.0499 25.1418 20.5599C26.0363 21.4209 26.9227 22.294 27.7758 23.1951C28.1376 23.5769 28.3538 23.5663 28.7236 23.1925C32.0504 19.8376 35.3972 16.5042 38.736 13.1614C39.0551 12.841 39.3688 12.5393 39.8774 12.5913C40.4034 12.6447 40.8346 13.088 40.8399 13.6059L40.8386 13.6046Z" fill="#66C6EB"/>
</g>
<defs>
<clipPath id="clip0_3832_10363">
<rect width="64.054" height="42" fill="white" transform="translate(0 0.847412)"/>
</clipPath>
</defs>
</svg>
