<svg width="42" height="43" viewBox="0 0 42 43" fill="none" xmlns="http://www.w3.org/2000/svg">
<g clip-path="url(#clip0_3832_10396)">
<path d="M21.0055 42.8471C14.1169 42.8471 7.22782 42.8471 0.339204 42.8471C0.116444 42.8471 0.0050635 42.7364 0.0050635 42.5151C0.0050635 41.4008 0.0109925 40.287 -1.84725e-05 39.1728C-0.00213596 38.9517 0.0745172 38.8687 0.283302 38.8222C0.895257 38.6858 1.50552 38.5401 2.10985 38.3737C2.60704 38.2369 2.92042 37.8998 3.01402 37.3869C3.12455 36.78 2.81709 36.2299 2.24367 35.9885C1.75665 35.7831 1.26921 35.5777 0.777101 35.3859C0.599655 35.3169 0.56154 35.2398 0.63777 35.0585C1.28064 33.5246 1.91673 31.9873 2.54859 30.4492C2.61424 30.2899 2.68496 30.2514 2.84801 30.3221C3.385 30.5546 3.9275 30.7727 4.46746 30.998C4.83125 31.1501 5.18445 31.1454 5.51266 30.9125C6.03737 30.5402 6.11106 29.805 5.66258 29.3362C5.24374 28.8983 4.81177 28.4719 4.37683 28.0492C4.24597 27.9222 4.24004 27.8413 4.37387 27.7087C5.55501 26.5365 6.73191 25.36 7.9033 24.1784C8.04348 24.037 8.1286 24.0488 8.25947 24.1839C8.67534 24.6146 9.09333 25.0445 9.52784 25.4561C9.92889 25.8356 10.4303 25.8707 10.8398 25.5819C11.2727 25.277 11.4069 24.7921 11.196 24.272C10.9758 23.73 10.7556 23.1879 10.5231 22.6513C10.4532 22.49 10.4824 22.4167 10.6446 22.3502C12.1895 21.7154 13.7328 21.0763 15.2743 20.4326C15.431 20.367 15.5068 20.3822 15.5741 20.5524C15.7943 21.1093 16.0252 21.6624 16.2649 22.2117C16.4711 22.6843 16.8349 22.8885 17.3427 22.8588C17.5353 22.8474 17.6086 22.7779 17.6078 22.5734C17.601 20.4089 17.604 18.244 17.604 16.0795C17.604 15.8533 17.7201 15.7402 17.9525 15.7402C18.6576 15.7402 19.3627 15.733 20.0679 15.7445C20.2694 15.7479 20.3156 15.6771 20.3152 15.4887C20.3101 12.9786 20.3114 10.4685 20.3118 7.95846C20.3118 7.73119 20.4276 7.61726 20.6591 7.6167C20.9127 7.6167 21.1668 7.6167 21.4205 7.6167C21.6954 7.61755 21.6962 7.61755 21.6966 7.90171C21.6966 10.0383 21.6966 12.1744 21.6966 14.3109C21.6966 15.1571 21.6907 16.0032 21.7009 16.8494C21.7034 17.0569 21.6505 17.1323 21.4303 17.1285C20.7044 17.1153 19.9777 17.1297 19.2518 17.1196C19.0549 17.1166 18.9807 17.1645 18.9841 17.3762C18.9964 18.1021 18.9951 18.8288 18.985 19.5547C18.982 19.7503 19.0413 19.8062 19.2361 19.8054C20.8577 19.7982 22.4797 19.8012 24.1013 19.8016C24.3031 19.8016 24.4042 19.9017 24.4045 20.1018C24.4045 20.9268 24.4117 21.7518 24.3998 22.5768C24.3969 22.7872 24.482 22.8474 24.6696 22.858C25.1697 22.8855 25.5437 22.6712 25.7461 22.2041C25.9812 21.6607 26.2073 21.1136 26.4246 20.563C26.4928 20.3907 26.5686 20.3606 26.7397 20.4322C28.2803 21.0767 29.824 21.7154 31.3689 22.3506C31.5209 22.4129 31.5523 22.4861 31.4875 22.6373C31.2516 23.1879 31.0161 23.7393 30.7993 24.2974C30.5164 25.0263 31.0288 25.7877 31.7789 25.7678C32.0601 25.7602 32.2947 25.6442 32.4925 25.4451C32.9151 25.0199 33.3445 24.6019 33.7604 24.1704C33.8921 24.0336 33.9738 24.0463 34.1013 24.1751C35.274 25.3558 36.4505 26.5322 37.6316 27.7045C37.7612 27.8332 37.7709 27.9141 37.635 28.045C37.214 28.4511 36.8037 28.8687 36.3912 29.2841C35.9914 29.6865 35.9266 30.198 36.2171 30.6266C36.5144 31.0654 37.0226 31.2085 37.5435 30.9951C38.0784 30.7761 38.6133 30.5576 39.1439 30.3285C39.3057 30.2586 39.3887 30.2709 39.4624 30.4504C40.093 31.9899 40.7295 33.5263 41.3728 35.0602C41.4503 35.2449 41.4033 35.319 41.2292 35.3872C40.7439 35.5773 40.2628 35.7798 39.7825 35.983C39.2566 36.2054 38.922 36.7157 38.9618 37.223C39.0075 37.8028 39.3781 38.2428 39.9613 38.3923C40.555 38.5443 41.1492 38.6968 41.7476 38.8268C41.9598 38.873 42.0114 38.9695 42.0097 39.1715C42.0013 40.2997 42.0059 41.4279 42.0055 42.5561C42.0055 42.8462 42.0046 42.8471 41.715 42.8471C37.8654 42.8471 34.0154 42.8471 30.1658 42.8471C27.1128 42.8471 24.0598 42.8471 21.0068 42.8471H21.0055ZM18.9888 31.3246C18.9888 34.6172 18.9905 37.9104 18.985 41.2031C18.985 41.4034 19.0375 41.4694 19.2446 41.4677C20.4219 41.4589 21.5997 41.4589 22.777 41.4677C22.9777 41.4694 23.0243 41.4025 23.0239 41.2132C23.0196 34.6202 23.0192 28.0276 23.0239 21.4346C23.0239 21.2436 22.9752 21.1792 22.7761 21.1809C21.6128 21.1898 20.4494 21.1852 19.2857 21.1852C19.088 21.1852 18.9891 21.2861 18.9888 21.488C18.9888 24.7667 18.9888 28.0454 18.9888 31.3241V31.3246ZM24.4045 30.8396C24.4045 32.0309 24.4045 33.2227 24.4045 34.414C24.4045 34.6003 24.4968 34.6936 24.6814 34.6939C26.289 34.6939 27.8962 34.6939 29.5038 34.6939C29.7142 34.6939 29.8195 34.7967 29.8198 35.0022C29.8198 37.0608 29.8198 39.1195 29.8198 41.1781C29.8198 41.4618 29.8202 41.4627 30.0921 41.4627C31.6925 41.4627 33.2929 41.4627 34.8933 41.4627C34.9356 41.4627 34.978 41.4606 35.0203 41.4618C35.1147 41.4648 35.1639 41.4233 35.1681 41.3259C35.1783 41.0938 35.2083 40.8613 35.2011 40.6297C35.1668 39.5002 35.0415 38.3821 34.7544 37.2861C34.0251 34.5029 32.5987 32.1423 30.4542 30.2209C28.7754 28.7171 26.8404 27.6837 24.6649 27.098C24.4049 27.0282 24.4045 27.0299 24.4045 27.3068C24.4045 28.4841 24.4045 29.6615 24.4045 30.8388V30.8396ZM3.38331 41.4631C3.97536 41.4631 4.56783 41.4631 5.15988 41.4631C5.42753 41.4631 5.43092 41.4622 5.42372 41.1921C5.39619 40.1964 5.45252 39.2063 5.62785 38.2246C6.4092 33.8524 8.63807 30.4072 12.2844 27.8845C13.8306 26.8147 15.5369 26.0863 17.3664 25.6526C17.5586 25.6069 17.6175 25.5273 17.6086 25.3388C17.5946 25.0432 17.5959 24.7464 17.6086 24.4508C17.6154 24.286 17.5612 24.2513 17.4028 24.2614C16.8751 24.2949 16.3847 24.1691 15.9311 23.8909C15.3586 23.5398 15.0354 23.0058 14.8224 22.393C14.7602 22.2143 14.681 22.191 14.5107 22.2642C13.8632 22.5425 13.2097 22.8067 12.5588 23.0761C12.2738 23.1942 12.27 23.1959 12.3928 23.4805C12.6007 23.9637 12.7557 24.4508 12.6905 24.9933C12.5063 26.5352 10.9559 27.5245 9.48168 27.0375C8.96501 26.8668 8.58259 26.5204 8.22431 26.1371C8.11675 26.0219 8.04772 26.0219 7.93676 26.1363C7.49929 26.586 7.04995 27.0243 6.60909 27.4707C6.48162 27.5999 6.26225 27.7083 6.25801 27.8722C6.25378 28.0382 6.47696 28.1458 6.60316 28.2754C7.22909 28.9182 7.47133 29.6805 7.30575 30.5618C7.07918 31.7654 5.91879 32.609 4.69912 32.4883C4.31035 32.4498 3.96223 32.3049 3.61454 32.1533C3.44302 32.0784 3.36976 32.1169 3.302 32.2884C3.06399 32.8915 2.81116 33.4886 2.56214 34.0875C2.44357 34.3729 2.52544 34.5779 2.80777 34.7024C3.91649 35.1907 4.52633 36.227 4.42977 37.4585C4.34592 38.5278 3.504 39.4727 2.38343 39.7543C2.11705 39.8212 1.85194 39.8949 1.58344 39.9508C1.4403 39.9809 1.38228 40.0435 1.38609 40.193C1.39456 40.5454 1.39668 40.8981 1.38609 41.2505C1.38059 41.422 1.44411 41.4682 1.60716 41.4661C2.19921 41.4584 2.79168 41.4631 3.38373 41.4631H3.38331ZM38.5883 41.4631C39.1947 41.4631 39.8008 41.458 40.4072 41.4665C40.5753 41.4686 40.6291 41.4123 40.624 41.2471C40.6139 40.902 40.6147 40.556 40.6236 40.2108C40.6274 40.0575 40.58 39.9813 40.4229 39.9482C40.1129 39.8826 39.8058 39.8026 39.5001 39.7187C38.075 39.3278 37.2352 37.7956 37.6795 36.3883C37.9577 35.5057 38.5582 34.9281 39.4188 34.6156C39.5839 34.5554 39.6153 34.4822 39.5458 34.32C39.2663 33.6652 38.9986 33.0058 38.7263 32.3481C38.612 32.0716 38.6111 32.0686 38.3363 32.1847C37.859 32.3863 37.3792 32.5417 36.8443 32.4858C35.2981 32.3244 34.2872 30.7859 34.7577 29.3062C34.925 28.7797 35.2706 28.3884 35.6615 28.0272C35.7856 27.9124 35.7792 27.84 35.6606 27.7248C35.216 27.2924 34.7823 26.8482 34.341 26.4124C34.2114 26.2845 34.103 26.0668 33.9417 26.0558C33.7604 26.0435 33.6558 26.2773 33.5228 26.4073C32.9443 26.9744 32.2629 27.2344 31.4502 27.1493C30.3161 27.0303 29.3569 25.9838 29.3204 24.8476C29.3039 24.3292 29.4416 23.8591 29.6537 23.4013C29.7207 23.2573 29.7024 23.1769 29.5428 23.1125C28.8436 22.8304 28.1474 22.5399 27.4532 22.2464C27.3126 22.1872 27.2521 22.2312 27.2004 22.3608C27.1119 22.5831 27.0289 22.8114 26.9078 23.0164C26.3953 23.8828 25.6229 24.2945 24.6213 24.2614C24.4371 24.2555 24.393 24.3046 24.4007 24.4783C24.4138 24.7811 24.4121 25.0847 24.4011 25.3875C24.3952 25.5468 24.4578 25.6082 24.6073 25.6437C27.0145 26.218 29.1731 27.292 31.061 28.8945C33.4648 30.9345 35.1118 33.4704 35.9922 36.4993C36.4361 38.026 36.6351 39.5853 36.586 41.176C36.5771 41.4622 36.5813 41.4631 36.8748 41.4635C37.4457 41.4639 38.017 41.4635 38.5879 41.4635L38.5883 41.4631ZM12.19 36.0576C12.19 34.3725 12.1895 32.6874 12.1904 31.0027C12.1904 30.6004 12.1552 30.633 12.5495 30.633C14.1499 30.6321 15.7503 30.6287 17.3507 30.6368C17.5586 30.6376 17.6112 30.5716 17.6095 30.3721C17.6006 29.343 17.6056 28.3135 17.6052 27.284C17.6052 27.0315 17.604 27.029 17.363 27.0946C14.4447 27.8857 11.9956 29.4247 10.0767 31.7624C7.82919 34.5004 6.73318 37.6491 6.8327 41.2026C6.83821 41.3983 6.88903 41.4686 7.09739 41.4677C8.70499 41.4597 10.3122 41.4597 11.9198 41.4677C12.1311 41.469 12.1963 41.4152 12.195 41.1971C12.1861 39.4841 12.19 37.7706 12.1904 36.0576H12.19ZM13.5735 36.7394C13.5735 38.2343 13.5765 39.7293 13.5701 41.2238C13.5693 41.4063 13.618 41.4678 13.8073 41.4665C14.9918 41.4584 16.1763 41.458 17.3609 41.4665C17.5608 41.4678 17.609 41.4038 17.6086 41.2128C17.6035 38.2301 17.6035 35.2474 17.6086 32.2647C17.6086 32.0737 17.5595 32.0098 17.3604 32.011C16.1831 32.0195 15.0054 32.0199 13.828 32.0106C13.6201 32.0089 13.5684 32.0754 13.5693 32.2753C13.5769 33.7631 13.5735 35.2508 13.5735 36.7385V36.7394ZM28.4358 38.7857C28.4358 37.9608 28.4303 37.1358 28.4396 36.3108C28.4417 36.1215 28.3794 36.0724 28.1969 36.0732C27.0124 36.0804 25.8279 36.0804 24.6433 36.0732C24.4608 36.072 24.3994 36.1215 24.4002 36.3108C24.407 37.9536 24.4066 39.5963 24.4007 41.2391C24.4002 41.4178 24.46 41.4665 24.6319 41.4656C25.8164 41.4597 27.0009 41.4589 28.1855 41.4661C28.376 41.4673 28.4425 41.4174 28.44 41.2179C28.4294 40.4073 28.4358 39.5963 28.4353 38.7853L28.4358 38.7857Z" fill="#66C6EB"/>
<path d="M40.6512 10.978C40.6512 12.4441 40.6473 13.9103 40.6554 15.376C40.6567 15.5818 40.6024 15.6712 40.3903 15.7127C38.3177 16.1188 36.2472 16.5368 34.1759 16.9502C33.8832 17.0086 33.882 17.0061 33.882 17.3131C33.882 18.5112 33.882 19.7097 33.8815 20.9077C33.8815 21.1839 33.8803 21.1843 33.5986 21.1851C33.3026 21.186 33.0066 21.1801 32.7106 21.1873C32.5615 21.1911 32.4958 21.147 32.4958 20.9852C32.5001 19.3361 32.4997 17.6866 32.4954 16.0375C32.495 15.8762 32.5772 15.8406 32.7101 15.8143C34.2436 15.5107 35.7758 15.2024 37.3085 14.8958C37.8882 14.7797 38.4676 14.6595 39.0491 14.5519C39.2231 14.5197 39.2714 14.4422 39.271 14.2686C39.2655 11.703 39.2672 9.13747 39.2672 6.57191C39.2672 6.36666 39.3723 6.26375 39.5827 6.26318C39.8363 6.26318 40.09 6.26318 40.3437 6.26318C40.5478 6.26347 40.65 6.3692 40.6503 6.58038C40.6503 8.04653 40.6503 9.51268 40.6503 10.9784L40.6512 10.978Z" fill="#66C6EB"/>
<path d="M1.359 10.975C1.359 9.49485 1.36281 8.01472 1.35476 6.53459C1.35349 6.32411 1.40982 6.24534 1.62749 6.25847C1.91547 6.27584 2.20557 6.27287 2.49397 6.25932C2.68836 6.25 2.74722 6.31776 2.74638 6.5113C2.74002 8.0973 2.74299 9.68288 2.74299 11.2689C2.74299 12.2696 2.74765 13.2708 2.73833 14.2715C2.73663 14.4498 2.79592 14.5175 2.9649 14.551C5.02988 14.9588 7.09401 15.373 9.15856 15.7838C9.51218 15.8541 9.5126 15.8516 9.5126 16.2094C9.5126 17.7742 9.5126 19.3391 9.51218 20.9035C9.51218 21.1838 9.51091 21.1842 9.23352 21.1851C8.94469 21.1859 8.65502 21.1758 8.36662 21.1885C8.1807 21.1969 8.12395 21.1321 8.12523 20.9471C8.132 19.7278 8.12353 18.5082 8.13369 17.2889C8.13539 17.0712 8.07398 16.9891 7.85461 16.9463C5.78159 16.5419 3.71153 16.1217 1.63893 15.7148C1.42803 15.6733 1.35264 15.5975 1.35434 15.373C1.36492 13.9068 1.35984 12.4411 1.35984 10.975H1.359Z" fill="#66C6EB"/>
<path d="M17.6353 10.3447C17.6353 11.5995 17.6353 12.8548 17.6353 14.1096C17.6353 14.4145 17.6341 14.4154 17.338 14.4158C16.6257 14.4162 15.9138 14.4158 15.2015 14.4158C15.0191 14.4158 14.9278 14.5101 14.9275 14.6987C14.9275 15.8692 14.922 17.0394 14.9321 18.2099C14.9338 18.4276 14.8661 18.4928 14.6552 18.4814C14.36 18.4653 14.0631 18.4716 13.7671 18.4793C13.61 18.4835 13.5405 18.4394 13.541 18.2662C13.546 16.5883 13.5456 14.91 13.5418 13.2321C13.5418 13.0703 13.607 13.0288 13.7561 13.0297C14.4964 13.0343 15.2366 13.0322 15.9769 13.0314C16.2505 13.0314 16.2513 13.0305 16.2513 12.7481C16.2513 10.6894 16.2513 8.63038 16.2513 6.57176C16.2513 6.36594 16.3562 6.26289 16.566 6.26261C16.8409 6.26261 17.1166 6.27404 17.3906 6.25879C17.5921 6.24778 17.6391 6.3291 17.6379 6.51586C17.6315 7.79186 17.6345 9.06828 17.6345 10.3443L17.6353 10.3447Z" fill="#66C6EB"/>
<path d="M24.3744 10.3392C24.3744 9.07002 24.3791 7.80079 24.3698 6.53199C24.3681 6.31728 24.4316 6.24613 24.6455 6.25841C24.9335 6.27493 25.224 6.27324 25.5124 6.25884C25.711 6.2491 25.7627 6.3249 25.7618 6.51421C25.7559 8.0443 25.7584 9.5744 25.7584 11.1041C25.7584 11.6754 25.7635 12.2463 25.7555 12.8176C25.7529 12.9848 25.8088 13.0365 25.9744 13.0352C26.7219 13.0285 27.4694 13.0378 28.2164 13.0285C28.4087 13.0259 28.4709 13.0848 28.4701 13.28C28.4637 14.93 28.4633 16.5799 28.4701 18.2294C28.4709 18.4238 28.4104 18.4895 28.2173 18.481C27.9145 18.4674 27.6108 18.4691 27.308 18.4806C27.1301 18.4873 27.0793 18.4187 27.0802 18.2476C27.0857 17.0631 27.0831 15.8786 27.0827 14.6941C27.0827 14.5091 26.9897 14.4165 26.8036 14.4163C26.0773 14.4163 25.351 14.4108 24.6252 14.4196C24.4329 14.4222 24.3702 14.3629 24.3715 14.1681C24.3787 12.8921 24.3753 11.6157 24.3753 10.3397L24.3744 10.3392Z" fill="#66C6EB"/>
<path d="M12.22 13.7467C12.22 15.6782 12.22 17.6094 12.22 19.541C12.22 19.8298 12.2188 19.8302 11.9282 19.8311C11.6462 19.8319 11.3637 19.82 11.0825 19.8349C10.8839 19.845 10.8322 19.7688 10.8331 19.5799C10.839 18.043 10.836 16.5066 10.836 14.9697C10.836 12.6155 10.836 10.2608 10.8365 7.90662C10.8365 7.6178 10.8377 7.61737 11.1278 7.61653C11.4099 7.6161 11.6924 7.62754 11.9736 7.61272C12.1722 7.60255 12.2238 7.67794 12.223 7.86766C12.2171 9.50321 12.2196 11.1383 12.22 12.7739C12.22 13.0983 12.22 13.4223 12.22 13.7467Z" fill="#66C6EB"/>
<path d="M31.1741 13.7384C31.1741 15.6699 31.1741 17.6011 31.1741 19.5327C31.1741 19.8304 31.1733 19.8304 30.8696 19.8312C30.5948 19.8312 30.3191 19.8194 30.0451 19.835C29.835 19.8473 29.7859 19.7647 29.7868 19.5674C29.7931 17.6502 29.7901 15.7326 29.7901 13.8154C29.7901 11.8487 29.7901 9.88199 29.7901 7.91527C29.7901 7.71622 29.8916 7.6167 30.0946 7.6167C30.3483 7.6167 30.602 7.6167 30.8561 7.6167C31.0676 7.6167 31.1734 7.72596 31.1737 7.94449C31.1737 9.87606 31.1737 11.8072 31.1737 13.7388L31.1741 13.7384Z" fill="#66C6EB"/>
<path d="M39.9583 0.847413C41.0984 0.846143 42.0021 1.74438 42.0043 2.88105C42.0064 4.03381 41.1077 4.93798 39.96 4.93798C38.8191 4.93798 37.9145 4.0389 37.9137 2.90434C37.9128 1.75031 38.809 0.849107 39.9579 0.847837L39.9583 0.847413ZM39.9677 2.23437C39.6267 2.22717 39.3007 2.54945 39.3011 2.89291C39.3011 3.22959 39.6081 3.53874 39.949 3.54594C40.2899 3.55314 40.5961 3.26008 40.6118 2.91154C40.6275 2.56893 40.3162 2.24157 39.9677 2.23437Z" fill="#66C6EB"/>
<path d="M2.05904 0.847412C3.20375 0.847836 4.09733 1.75327 4.09649 2.91154C4.09521 4.03381 3.18851 4.93798 2.06412 4.9384C0.908815 4.93883 0.00464676 4.04144 0.00549376 2.89545C0.00591726 1.74396 0.905851 0.846989 2.05904 0.847412ZM2.70741 2.89587C2.70148 2.5431 2.38555 2.22844 2.04294 2.23479C1.7033 2.24114 1.39626 2.5503 1.3933 2.8891C1.39033 3.23255 1.70796 3.54764 2.05861 3.54975C2.39021 3.55145 2.71292 3.2262 2.70741 2.8963V2.89587Z" fill="#66C6EB"/>
<path d="M7.46289 0.847412C8.60591 0.847412 9.5105 1.74396 9.51177 2.87809C9.51304 4.04228 8.61438 4.93967 7.44934 4.93798C6.31733 4.93629 5.42078 4.02915 5.4212 2.88571C5.42205 1.74946 6.32453 0.847836 7.46289 0.847412ZM7.45823 2.23649C7.12197 2.23649 6.8124 2.5486 6.80901 2.88952C6.80604 3.23128 7.13341 3.55695 7.4739 3.5506C7.81058 3.54425 8.12185 3.23086 8.12397 2.89545C8.12651 2.55157 7.80762 2.23606 7.45781 2.23649H7.45823Z" fill="#66C6EB"/>
<path d="M16.9438 4.93798C15.7948 4.93798 14.8966 4.03508 14.8983 2.88232C14.9 1.74692 15.8037 0.847412 16.9433 0.847412C18.0931 0.847412 18.9905 1.74946 18.9884 2.90265C18.9867 4.03847 18.0834 4.93756 16.9433 4.93756L16.9438 4.93798ZM17.6014 2.90011C17.6078 2.56766 17.302 2.24961 16.9624 2.23479C16.6249 2.21997 16.2928 2.53886 16.2861 2.88486C16.2793 3.21646 16.5859 3.53578 16.9255 3.5506C17.2622 3.56542 17.5951 3.24526 17.6019 2.90011H17.6014Z" fill="#66C6EB"/>
<path d="M27.1124 2.88486C27.1124 4.03847 26.2158 4.93798 25.0647 4.9384C23.9188 4.93925 23.0214 4.03508 23.0218 2.87978C23.0218 1.75539 23.9264 0.848684 25.0487 0.847413C26.2069 0.846143 27.1124 1.74015 27.1128 2.88444L27.1124 2.88486ZM25.7246 2.89249C25.7241 2.54733 25.4048 2.23479 25.055 2.23649C24.7204 2.23818 24.4079 2.5558 24.4087 2.89333C24.41 3.23764 24.7378 3.55992 25.0775 3.55145C25.4162 3.54256 25.725 3.22832 25.7241 2.89291L25.7246 2.89249Z" fill="#66C6EB"/>
<path d="M34.5409 0.847412C35.6835 0.847412 36.5877 1.7448 36.589 2.87893C36.5898 4.04271 35.6912 4.93967 34.5257 4.93756C33.3941 4.93586 32.498 4.02788 32.4988 2.88444C32.4997 1.74862 33.403 0.847412 34.5409 0.847412ZM35.2012 2.89079C35.1995 2.54522 34.8785 2.23225 34.5304 2.23649C34.1928 2.24072 33.8854 2.55453 33.8858 2.89418C33.8866 3.22959 34.1966 3.5434 34.5346 3.5506C34.8751 3.5578 35.2029 3.2334 35.2012 2.89079Z" fill="#66C6EB"/>
<path d="M6.77467 9.64093C6.77467 8.60506 6.78018 7.56876 6.77001 6.53288C6.76789 6.31986 6.82803 6.24575 7.04359 6.25845C7.33157 6.27539 7.62167 6.27285 7.91007 6.2593C8.1053 6.24998 8.1629 6.31986 8.16205 6.51213C8.1557 7.98506 8.15866 9.45798 8.15824 10.9309C8.15824 11.5653 8.15316 12.1997 8.1612 12.8337C8.16332 13.0073 8.107 13.0708 7.93124 13.0645C7.62167 13.0535 7.31082 13.0535 7.00124 13.0645C6.82549 13.0708 6.77086 13.0065 6.77171 12.8333C6.77763 11.769 6.77467 10.7048 6.77467 9.64051V9.64093Z" fill="#66C6EB"/>
<path d="M35.2355 9.6613C35.2355 10.7044 35.23 11.7475 35.2397 12.7905C35.2418 13.0019 35.1838 13.0789 34.967 13.0662C34.679 13.0489 34.3889 13.0518 34.1005 13.0654C33.9061 13.0747 33.8472 13.0069 33.8481 12.8134C33.8549 11.4603 33.8515 10.1072 33.8515 8.75417C33.8515 8.00712 33.857 7.26007 33.8481 6.51302C33.846 6.3216 33.9019 6.25003 34.0988 6.25934C34.4012 6.27332 34.7048 6.27078 35.0076 6.26019C35.1821 6.25384 35.2393 6.31609 35.2384 6.49015C35.2325 7.5472 35.2355 8.60425 35.2355 9.66173V9.6613Z" fill="#66C6EB"/>
<path d="M21.0051 4.91012C21.1812 4.91012 21.357 4.91266 21.5332 4.90927C21.6488 4.90673 21.6979 4.9567 21.6971 5.07274C21.6941 5.42467 21.6941 5.7766 21.6971 6.12852C21.6979 6.24414 21.6492 6.29326 21.5336 6.29242C21.1817 6.28945 20.8297 6.28945 20.4778 6.29242C20.3622 6.29326 20.3131 6.24456 20.3139 6.12895C20.3169 5.77702 20.3169 5.42509 20.3139 5.07317C20.3131 4.95755 20.3618 4.90715 20.4774 4.90927C20.6531 4.91266 20.8293 4.91012 21.0055 4.91012H21.0051Z" fill="#66C6EB"/>
<path d="M12.2188 5.60119C12.2188 5.77736 12.2158 5.95311 12.2196 6.12929C12.2221 6.24533 12.1709 6.29361 12.0557 6.29276C11.7038 6.29022 11.3519 6.29022 10.9999 6.29276C10.8839 6.29361 10.8356 6.24363 10.8369 6.12844C10.8394 5.77651 10.8398 5.42459 10.8369 5.07266C10.836 4.95662 10.8856 4.90834 11.0012 4.90919C11.3531 4.91216 11.705 4.91216 12.057 4.90919C12.173 4.90834 12.223 4.95747 12.2204 5.07308C12.2171 5.24884 12.2196 5.42501 12.2192 5.60119H12.2188Z" fill="#66C6EB"/>
<path d="M30.483 4.91006C30.6591 4.91006 30.8349 4.9126 31.0111 4.90878C31.1275 4.90624 31.175 4.95791 31.1741 5.0731C31.1716 5.42503 31.1711 5.77696 31.1741 6.12888C31.175 6.24534 31.125 6.29278 31.0098 6.29193C30.6579 6.28896 30.3059 6.28896 29.954 6.29193C29.838 6.29278 29.7897 6.24323 29.7905 6.12761C29.7935 5.77569 29.7935 5.42376 29.7905 5.07183C29.7897 4.95537 29.8397 4.90624 29.9549 4.90878C30.1306 4.91217 30.3068 4.90963 30.483 4.90963V4.91006Z" fill="#66C6EB"/>
</g>
<defs>
<clipPath id="clip0_3832_10396">
<rect width="42.0089" height="42" fill="white" transform="translate(0 0.847412)"/>
</clipPath>
</defs>
</svg>
