<svg width="43" height="42" viewBox="0 0 43 42" fill="none" xmlns="http://www.w3.org/2000/svg">
<g clip-path="url(#clip0_3814_9975)">
<path d="M20.953 1.44788C16.8354 1.47455 13.0806 2.64788 9.70665 5.02034C9.50381 5.16286 9.30709 5.31849 9.03736 5.30318C8.73222 5.28614 8.46119 5.0728 8.37769 4.78165C8.29507 4.49357 8.40436 4.17663 8.66228 3.98952C9.81681 3.15411 11.0422 2.44111 12.341 1.85313C14.1985 1.01204 16.139 0.456409 18.1582 0.185808C19.4588 0.0113814 20.765 -0.0406404 22.0795 0.0297421C24.6247 0.165698 27.0583 0.748868 29.3936 1.75827C29.5274 1.81597 29.6586 1.8798 29.791 1.94012C30.2767 2.16133 30.4218 2.55477 30.1853 3.02952C29.6135 4.17706 29.0391 5.32329 28.4656 6.46996C28.0288 7.34297 27.593 8.21641 27.1554 9.08898C26.9062 9.58559 26.5508 9.70756 26.0367 9.48461C24.6129 8.8669 23.1305 8.50668 21.5751 8.44373C18.2824 8.31083 15.3648 9.29838 12.8634 11.4304C10.4258 13.5082 8.95955 16.1535 8.55212 19.3403C8.08173 23.0203 9.05091 26.3095 11.4492 29.1353C13.5217 31.5773 16.1753 33.0383 19.3622 33.4391C23.0898 33.9082 26.3965 32.9027 29.2581 30.4595C29.4627 30.2846 29.6538 30.094 29.8513 29.9104C30.1967 29.5891 30.6098 29.579 30.9429 29.9104C32.5744 31.5349 34.2024 33.1629 35.8269 34.7948C36.1574 35.127 36.1399 35.5589 35.7958 35.8999C34.358 37.3242 32.7519 38.5229 30.9722 39.4868C28.9495 40.5823 26.8009 41.3137 24.5355 41.7032C23.0151 41.9646 21.4811 42.0503 19.9432 41.9712C17.0111 41.8208 14.2203 41.1012 11.5939 39.7819C9.80632 38.8839 8.1814 37.7486 6.7143 36.3843C4.73222 34.5408 3.15802 32.4009 2.00479 29.9537C1.06009 27.9489 0.451569 25.8453 0.173099 23.6446C0.0253394 22.4783 -0.0354256 21.308 0.0174706 20.1355C0.171788 16.7384 1.06796 13.5493 2.75015 10.5871C3.66206 8.981 4.77856 7.53094 6.06862 6.2116C6.31299 5.96198 6.5919 5.86406 6.91933 5.97947C7.39233 6.14646 7.52785 6.74931 7.17813 7.13313C6.70687 7.64985 6.21944 8.15084 5.78053 8.69685C3.61485 11.3902 2.26272 14.4459 1.69616 17.8518C1.46315 19.2516 1.39321 20.6645 1.47933 22.0765C1.7425 26.3921 3.2319 30.237 6.01485 33.5572C8.21288 36.1788 10.9171 38.1027 14.1224 39.3097C15.6835 39.8977 17.2957 40.2711 18.9574 40.442C20.2514 40.5753 21.5462 40.5915 22.838 40.4669C26.6164 40.1027 30.014 38.762 33.0138 36.4293C33.3928 36.1342 33.7486 35.8094 34.1215 35.506C34.2745 35.3819 34.2863 35.2936 34.1359 35.1449C32.9399 33.9607 31.7495 32.7712 30.5661 31.5742C30.414 31.4203 30.3235 31.4378 30.177 31.5685C29.384 32.2732 28.5128 32.8669 27.5764 33.3661C26.122 34.1417 24.5788 34.6409 22.9456 34.8643C20.7886 35.1594 18.6645 35.0042 16.6081 34.2894C12.3939 32.8245 9.4719 29.9952 7.85747 25.8339C7.14621 23.9996 6.88654 22.084 7.01419 20.1281C7.21922 16.9801 8.35146 14.1932 10.4293 11.8133C12.6811 9.23324 15.5121 7.66646 18.8953 7.13881C21.2717 6.76854 23.6004 7.01029 25.857 7.85969C26.0555 7.93444 26.1412 7.90865 26.2378 7.71237C26.9779 6.20941 27.7289 4.71127 28.4844 3.21575C28.5727 3.04133 28.5696 2.96745 28.3681 2.88657C26.6754 2.20504 24.9241 1.75739 23.1117 1.55543C22.3956 1.47543 21.6756 1.42821 20.9512 1.44701L20.953 1.44788Z" fill="#66C6EB"/>
<path d="M21.0015 31.4959C20.6081 31.4959 20.2146 31.4977 19.8212 31.4959C19.3683 31.4933 19.1248 31.2983 19.0225 30.8489C18.9027 30.3239 18.7842 29.7984 18.6763 29.2708C18.6448 29.116 18.5753 29.033 18.4227 28.9862C17.9834 28.8516 17.5571 28.6815 17.1558 28.4551C17.0299 28.3838 16.9307 28.4004 16.814 28.4765C16.3689 28.7672 15.9182 29.0496 15.4701 29.3355C15.029 29.6166 14.744 29.5899 14.3794 29.2266C13.8373 28.6867 13.2966 28.146 12.7571 27.6039C12.4061 27.2516 12.3785 26.9556 12.6509 26.5302C12.9412 26.076 13.2284 25.6201 13.523 25.1685C13.5947 25.0583 13.6061 24.9657 13.5401 24.8467C13.3162 24.4446 13.1453 24.0183 13.0089 23.5799C12.9595 23.4212 12.8804 23.3429 12.7138 23.3101C12.1853 23.2052 11.6603 23.085 11.1344 22.9674C10.7025 22.8708 10.4988 22.6194 10.4975 22.1823C10.4957 21.3884 10.4953 20.5941 10.4975 19.8002C10.4988 19.36 10.6972 19.1125 11.1322 19.0137C11.6647 18.8926 12.1976 18.7729 12.7322 18.6631C12.89 18.6308 12.963 18.5499 13.0076 18.4C13.1392 17.9593 13.3202 17.537 13.5366 17.1318C13.6004 17.012 13.593 16.9211 13.5213 16.8109C13.2231 16.3532 12.9324 15.8907 12.6382 15.4304C12.3829 15.0304 12.4109 14.7239 12.7418 14.3908C13.2966 13.833 13.8526 13.276 14.4105 12.7213C14.73 12.4035 15.0303 12.3689 15.4129 12.6085C15.8758 12.8983 16.3366 13.1921 16.7938 13.4911C16.9158 13.5707 17.0172 13.5912 17.1541 13.5178C17.5654 13.2966 17.9969 13.1191 18.4446 12.9853C18.584 12.9438 18.6426 12.8629 18.671 12.7287C18.7842 12.1945 18.9014 11.6612 19.0229 11.1292C19.1252 10.6798 19.3678 10.487 19.8234 10.4861C20.6172 10.4848 21.4116 10.4848 22.2054 10.4861C22.6312 10.487 22.8878 10.6951 22.9788 11.1077C23.0977 11.6481 23.2179 12.1879 23.3316 12.7296C23.36 12.8651 23.422 12.9425 23.5606 12.984C24.0083 13.1178 24.4393 13.2961 24.8511 13.5165C24.9871 13.5895 25.0885 13.5729 25.2113 13.492C25.6677 13.1921 26.1281 12.8979 26.591 12.6076C26.9722 12.3689 27.2752 12.4052 27.5938 12.7213C28.1473 13.2699 28.6994 13.8194 29.2494 14.3716C29.593 14.716 29.624 15.0225 29.3652 15.4295C29.0758 15.8841 28.7899 16.3414 28.4931 16.7912C28.4091 16.9184 28.4105 17.0212 28.48 17.1523C28.6964 17.558 28.8721 17.9825 29.0028 18.4231C29.0465 18.5709 29.1309 18.6312 29.2743 18.6614C29.8085 18.7733 30.3418 18.8909 30.8734 19.0142C31.3101 19.1156 31.5042 19.3604 31.5051 19.8024C31.5073 20.5963 31.5069 21.3906 31.5051 22.1845C31.5042 22.6133 31.3075 22.8651 30.8874 22.9622C30.3554 23.085 29.8229 23.2052 29.287 23.3106C29.1187 23.3438 29.0417 23.4238 28.9928 23.5807C28.8555 24.0192 28.6872 24.4463 28.4616 24.8476C28.3947 24.967 28.41 25.0596 28.4813 25.1689C28.7834 25.6328 29.0828 26.0983 29.3757 26.5683C29.6218 26.963 29.5855 27.2603 29.259 27.5886C28.7095 28.1412 28.1587 28.6929 27.6061 29.2428C27.2695 29.5777 26.9656 29.61 26.5674 29.356C26.1193 29.0701 25.6699 28.7851 25.2271 28.4913C25.0824 28.3956 24.9604 28.3855 24.8056 28.4734C24.431 28.6863 24.031 28.8467 23.6188 28.9696C23.4312 29.0255 23.3525 29.1274 23.3158 29.3141C23.2157 29.8212 23.0985 30.3248 22.9836 30.8284C22.8721 31.3171 22.6435 31.4946 22.1368 31.4959C21.7582 31.4968 21.3792 31.4959 21.0006 31.4959H21.0015ZM27.8675 15.0776C27.8544 15.0011 27.8037 14.967 27.7635 14.9263C27.5326 14.6937 27.2953 14.4669 27.0706 14.2286C26.9705 14.1219 26.8931 14.1211 26.7737 14.1998C26.3479 14.4804 25.9138 14.7479 25.4854 15.0242C25.1991 15.2092 24.9171 15.217 24.6242 15.0387C24.0105 14.6649 23.3543 14.3895 22.6544 14.222C22.302 14.1377 22.1101 13.9139 22.0384 13.565C21.9388 13.0802 21.8269 12.598 21.7267 12.1132C21.697 11.9702 21.6371 11.902 21.4789 11.9077C21.1659 11.9191 20.852 11.9204 20.5394 11.9073C20.3711 11.9003 20.3095 11.9702 20.278 12.1224C20.1783 12.6072 20.0651 13.0894 19.965 13.5742C19.8924 13.9252 19.6918 14.1394 19.342 14.2247C18.6509 14.3934 18.0004 14.6636 17.3936 15.0356C17.0942 15.2192 16.807 15.2135 16.5132 15.022C16.0922 14.7475 15.6616 14.4878 15.245 14.2072C15.1051 14.1128 15.0229 14.1311 14.9149 14.2474C14.7016 14.4765 14.48 14.6985 14.2505 14.9119C14.1381 15.0164 14.1276 15.0946 14.215 15.2253C14.4992 15.6485 14.7681 16.0822 15.0439 16.5106C15.2227 16.7882 15.2358 17.0679 15.0631 17.3534C14.6872 17.9746 14.4039 18.6343 14.2343 19.3416C14.1499 19.6926 13.9222 19.8828 13.5729 19.9541C13.0881 20.0533 12.6063 20.1687 12.1219 20.2697C11.9764 20.2999 11.9147 20.3637 11.9204 20.5202C11.9318 20.8332 11.9313 21.1466 11.9204 21.4596C11.9147 21.6148 11.9733 21.6804 12.1206 21.7106C12.57 21.8019 13.0146 21.9187 13.4662 21.996C13.9169 22.0734 14.1731 22.3112 14.2736 22.7606C14.4175 23.4054 14.6854 24.0048 15.0308 24.5661C15.2349 24.8975 15.2266 25.203 15.0129 25.5235C14.7379 25.9353 14.48 26.3584 14.2063 26.7716C14.1324 26.8835 14.1337 26.9565 14.2334 27.0509C14.4717 27.276 14.706 27.506 14.9285 27.7464C15.0373 27.8645 15.1182 27.8557 15.2428 27.7726C15.6607 27.4937 16.0887 27.2297 16.5093 26.9547C16.7943 26.7685 17.0784 26.7541 17.3713 26.9311C17.9864 27.3031 18.6413 27.5807 19.3399 27.7517C19.6979 27.8391 19.8977 28.0625 19.9694 28.4231C20.0647 28.9014 20.1809 29.3753 20.2771 29.8535C20.3108 30.0201 20.3855 30.0804 20.5569 30.073C20.855 30.0599 21.1545 30.0599 21.4526 30.073C21.6249 30.0804 21.6988 30.0179 21.7311 29.8509C21.8168 29.4081 21.9305 28.97 22.0078 28.5259C22.0856 28.0774 22.323 27.8172 22.7733 27.7176C23.4185 27.5751 24.0166 27.3027 24.5788 26.9595C24.9106 26.7571 25.2157 26.7637 25.5361 26.9788C25.9475 27.2546 26.3707 27.5125 26.7834 27.7862C26.8957 27.8605 26.9687 27.857 27.0627 27.7578C27.2883 27.52 27.5182 27.2857 27.7587 27.0631C27.8762 26.9543 27.8697 26.8717 27.7875 26.7475C27.5103 26.3283 27.2467 25.9003 26.9718 25.4798C26.7851 25.1952 26.7672 24.9114 26.9447 24.6186C27.3176 24.0039 27.6 23.3517 27.7652 22.6509C27.8478 22.302 28.0625 22.0983 28.4144 22.0258C28.8922 21.9274 29.3661 21.8116 29.8448 21.7193C30.0336 21.683 30.0935 21.5987 30.0843 21.4111C30.0695 21.1134 30.0725 20.8135 30.0835 20.5154C30.0891 20.3598 30.0288 20.2942 29.8819 20.264C29.4041 20.1657 28.9298 20.0511 28.4516 19.9567C28.0738 19.8819 27.8496 19.6725 27.7582 19.2948C27.5978 18.6325 27.3416 18.0057 26.9814 17.4264C26.7676 17.0828 26.7768 16.765 27.0063 16.4306C27.2782 16.0345 27.5287 15.6236 27.7875 15.2183C27.8185 15.1698 27.8439 15.1182 27.8671 15.0771L27.8675 15.0776Z" fill="#66C6EB"/>
<path d="M41.975 20.8323C41.9549 24.3628 41.2131 27.5252 39.7206 30.5067C39.2144 31.5183 38.6242 32.4796 37.9536 33.3915C37.7521 33.6651 37.4902 33.7928 37.1562 33.7106C36.859 33.6376 36.6867 33.4295 36.6277 33.1318C36.5818 32.9001 36.6719 32.7047 36.8052 32.5224C37.8146 31.137 38.6268 29.6442 39.2349 28.0411C39.8343 26.4608 40.2299 24.8315 40.4091 23.1493C40.5053 22.2501 40.5573 21.3491 40.5267 20.4459C40.4594 18.4398 40.1197 16.4817 39.4596 14.5823C39.4107 14.4411 39.356 14.4236 39.2231 14.4804C37.6428 15.1558 36.0607 15.8273 34.4764 16.4936C34.3252 16.5569 34.3046 16.6313 34.3514 16.7764C34.8725 18.3878 35.0863 20.0433 34.9927 21.7311C34.8577 24.1648 34.1363 26.4179 32.8284 28.4782C32.5892 28.8551 32.1569 28.9556 31.805 28.7322C31.4688 28.5189 31.3779 28.0857 31.6122 27.7115C32.4834 26.3183 33.0793 24.8192 33.3683 23.2C33.7713 20.9395 33.5593 18.7353 32.7628 16.5845C32.5481 16.0048 32.6767 15.697 33.2445 15.4544C35.314 14.5705 37.3853 13.6905 39.4566 12.8114C39.9243 12.6129 40.3108 12.7703 40.5005 13.2472C41.1256 14.817 41.5449 16.4415 41.7787 18.115C41.9138 19.0828 41.9562 20.0564 41.9755 20.8323H41.975Z" fill="#66C6EB"/>
<path d="M29.2499 8.66925C29.2381 8.51843 29.294 8.37679 29.3631 8.23865C30.64 5.68477 31.9157 3.13089 33.1948 0.578325C33.4239 0.121057 33.8527 -0.0022219 34.2929 0.26051C36.9377 1.84215 39.1515 3.88674 40.9085 6.4227C41.4151 7.15406 41.8785 7.91166 42.2907 8.69985C42.5753 9.24324 42.4319 9.63231 41.8654 9.87319C39.2582 10.9801 36.6505 12.0874 34.0424 13.1921C33.5882 13.3844 33.2778 13.2909 33.0138 12.8787C32.1154 11.4754 30.9976 10.2819 29.6346 9.32149C29.4094 9.1628 29.2403 8.97483 29.2507 8.66969L29.2499 8.66925ZM33.9992 11.6393C34.0625 11.6148 34.1312 11.5903 34.1981 11.5619C36.2759 10.6793 38.3537 9.79669 40.4315 8.91319C40.7034 8.79734 40.703 8.79559 40.5544 8.54379C39.979 7.5698 39.3303 6.64783 38.6038 5.77964C37.3697 4.3051 35.9393 3.05308 34.3428 1.98597C34.2068 1.89505 34.1356 1.89679 34.063 2.05548C33.9174 2.3733 33.7574 2.68455 33.6009 2.99712C32.7235 4.74925 31.8475 6.50138 30.9648 8.25045C30.8897 8.39953 30.9172 8.47953 31.0409 8.57789C31.3203 8.79953 31.5961 9.02685 31.8584 9.26816C32.5902 9.94051 33.2451 10.6819 33.8204 11.4933C33.8641 11.5549 33.8916 11.6428 33.9992 11.6393Z" fill="#66C6EB"/>
<path d="M16.0923 21.0452C16.0944 18.5342 17.9021 16.4551 20.3095 16.1241C23.0885 15.7421 25.6074 17.7145 25.8982 20.5032C25.9156 20.6693 25.9126 20.838 25.9091 21.0055C25.9008 21.4002 25.6026 21.697 25.2162 21.7027C24.8166 21.7088 24.5032 21.4212 24.487 21.0181C24.4547 20.202 24.2225 19.4614 23.7102 18.8122C22.856 17.7307 21.3535 17.2573 20.014 17.6603C18.6523 18.0699 17.6831 19.2664 17.548 20.6435C17.3618 22.5425 18.713 24.1307 20.3987 24.4087C20.6064 24.4428 20.8175 24.4594 21.0278 24.4739C21.4352 24.5018 21.7185 24.7991 21.7132 25.203C21.7084 25.5982 21.4064 25.892 20.9967 25.8999C18.6225 25.9467 16.4577 24.0809 16.136 21.7154C16.1023 21.4688 16.0879 21.2232 16.0918 21.0452H16.0923Z" fill="#66C6EB"/>
<path d="M24.511 23.7849C24.5123 24.1862 24.2115 24.4952 23.8133 24.5005C23.4067 24.5062 23.0872 24.194 23.0872 23.791C23.0872 23.3761 23.3897 23.0749 23.8054 23.0767C24.1989 23.0784 24.5097 23.3905 24.511 23.7849Z" fill="#66C6EB"/>
</g>
<defs>
<clipPath id="clip0_3814_9975">
<rect width="42.4324" height="42" fill="white"/>
</clipPath>
</defs>
</svg>
