<svg width="42" height="42" viewBox="0 0 42 42" fill="none" xmlns="http://www.w3.org/2000/svg">
<g clip-path="url(#clip0_3814_10037)">
<path d="M31.1675 7.8225C31.0275 7.8225 30.8962 7.7875 30.765 7.72625C27.4137 5.99375 24.5 5.25 21.0175 5.25C17.5437 5.25 14.2712 6.08125 11.27 7.7175C10.8412 7.945 10.3162 7.79625 10.08 7.3675C9.85248 6.93875 10.0012 6.41375 10.43 6.1775C13.6937 4.40125 17.255 3.5 21.0175 3.5C24.745 3.5 28 4.3225 31.57 6.16875C31.9987 6.3875 32.165 6.92125 31.9462 7.35C31.7887 7.6475 31.4825 7.8225 31.1675 7.8225ZM6.12498 17.01C5.94998 17.01 5.77498 16.9575 5.61748 16.8525C5.22373 16.5725 5.12748 16.03 5.40748 15.6363C7.13998 13.1863 9.35373 11.2612 11.9787 9.905C17.4825 7.06125 24.5175 7.0525 30.03 9.8875C32.6462 11.235 34.8512 13.1425 36.5925 15.575C36.8725 15.9687 36.785 16.5113 36.3912 16.7913C35.9975 17.0713 35.4462 16.9837 35.1662 16.59C33.5912 14.385 31.5962 12.6525 29.2337 11.445C24.2112 8.86375 17.7975 8.8725 12.7837 11.4625C10.4125 12.6875 8.40873 14.4288 6.84248 16.6513C6.66748 16.8875 6.39623 17.01 6.12498 17.01ZM17.0712 38.1237C16.8437 38.1237 16.625 38.0363 16.45 37.8613C14.9362 36.33 14.1137 35.3587 12.9325 33.25C11.725 31.0975 11.0862 28.4637 11.0862 25.6462C11.0862 20.4487 15.5312 16.2138 21 16.2138C26.4687 16.2138 30.9137 20.44 30.9137 25.6462C30.9137 26.1275 30.52 26.5212 30.0387 26.5212C29.5575 26.5212 29.1637 26.1275 29.1637 25.6462C29.1637 21.4112 25.5062 17.9638 21 17.9638C16.5025 17.9638 12.8362 21.4112 12.8362 25.6462C12.8362 28.1663 13.3962 30.4937 14.455 32.3925C15.5837 34.405 16.3362 35.2712 17.6837 36.6275C18.025 36.9688 18.025 37.5288 17.675 37.8613C17.5175 38.045 17.29 38.1237 17.0712 38.1237ZM29.61 34.8862C27.5275 34.8862 25.6987 34.3612 24.185 33.3375C21.5862 31.57 20.0287 28.7 20.0287 25.655C20.0287 25.1737 20.4225 24.78 20.9037 24.78C21.385 24.78 21.7787 25.1737 21.7787 25.655C21.7787 28.1138 23.0475 30.4412 25.1737 31.885C26.4075 32.725 27.86 33.1362 29.61 33.1362C30.03 33.1362 30.7387 33.0925 31.4387 32.97C31.9112 32.8825 32.3662 33.2063 32.4537 33.6788C32.5412 34.1513 32.2175 34.6063 31.745 34.6938C30.7212 34.8775 29.855 34.8862 29.61 34.8862ZM26.0837 38.5C26.005 38.5 25.9262 38.4912 25.8562 38.465C23.065 37.7038 21.245 36.6712 19.355 34.79C16.9137 32.3575 15.5662 29.1112 15.5662 25.655C15.5662 22.8112 17.9812 20.5013 20.9562 20.5013C23.9312 20.5013 26.3462 22.8112 26.3462 25.655C26.3462 27.5275 27.9825 29.0588 29.9862 29.0588C31.99 29.0588 33.6262 27.5362 33.6262 25.655C33.6262 19.0575 27.9387 13.6937 20.9475 13.6937C15.9687 13.6937 11.4275 16.4587 9.37998 20.7463C8.69748 22.1637 8.35623 23.8175 8.35623 25.655C8.35623 27.02 8.47873 29.1725 9.51998 31.9637C9.68623 32.4187 9.45873 32.9175 9.00373 33.0925C8.54873 33.2587 8.04998 33.0312 7.87498 32.5763C7.01748 30.275 6.59748 28.0175 6.59748 25.655C6.59748 23.555 6.99998 21.6475 7.79623 19.9937C10.1325 15.1112 15.295 11.9525 20.9387 11.9525C28.8925 11.9525 35.3675 18.1037 35.3675 25.6637C35.3675 28.5075 32.9437 30.8175 29.9775 30.8175C27.0112 30.8175 24.5875 28.5075 24.5875 25.6637C24.5875 23.7913 22.9512 22.26 20.9475 22.26C18.9437 22.26 17.3075 23.7825 17.3075 25.6637C17.3075 28.6475 18.4712 31.4562 20.58 33.5562C22.2337 35.2012 23.8437 36.1113 26.3112 36.785C26.775 36.9163 27.055 37.3975 26.9237 37.8613C26.8187 38.2463 26.4687 38.5 26.0837 38.5Z" fill="#66C6EB"/>
</g>
<defs>
<clipPath id="clip0_3814_10037">
<rect width="42" height="42" fill="white"/>
</clipPath>
</defs>
</svg>
