<svg width="42" height="42" viewBox="0 0 42 42" fill="none" xmlns="http://www.w3.org/2000/svg">
<path fill-rule="evenodd" clip-rule="evenodd" d="M6.5625 25.5938V38.0625C6.5625 39.1499 7.44384 40.0312 8.53125 40.0312C11.6091 40.0312 19.0312 40.0312 19.0312 40.0312C19.3935 40.0312 19.6875 39.7373 19.6875 39.375C19.6875 39.0127 19.3935 38.7188 19.0312 38.7188C19.0312 38.7188 11.6091 38.7188 8.53125 38.7188C8.169 38.7188 7.875 38.4248 7.875 38.0625V25.5938C7.875 25.2315 7.581 24.9375 7.21875 24.9375C6.8565 24.9375 6.5625 25.2315 6.5625 25.5938ZM21.6562 40.0312H33.4688C33.9911 40.0312 34.4918 39.8239 34.8607 39.4544C35.2301 39.0856 35.4375 38.5849 35.4375 38.0625V26.9062C35.4375 26.544 35.1435 26.25 34.7812 26.25C34.419 26.25 34.125 26.544 34.125 26.9062V38.0625C34.125 38.2364 34.0561 38.4038 33.9327 38.5265C33.81 38.6498 33.6427 38.7188 33.4688 38.7188H21.6562C21.294 38.7188 21 39.0127 21 39.375C21 39.7373 21.294 40.0312 21.6562 40.0312ZM19.0312 38.0625H23.2969C23.6591 38.0625 23.9531 37.7685 23.9531 37.4062C23.9531 37.044 23.6591 36.75 23.2969 36.75H19.0312C18.669 36.75 18.375 37.044 18.375 37.4062C18.375 37.7685 18.669 38.0625 19.0312 38.0625ZM18.0469 36.0938H24.2812C24.6435 36.0938 24.9375 35.7998 24.9375 35.4375C24.9375 35.0752 24.6435 34.7812 24.2812 34.7812H18.0469C17.6846 34.7812 17.3906 35.0752 17.3906 35.4375C17.3906 35.7998 17.6846 36.0938 18.0469 36.0938ZM16.9949 33.9386C17.1176 34.0581 17.2817 34.125 17.453 34.125H24.547C24.7183 34.125 24.8824 34.0581 25.0051 33.9386C27.1996 31.8012 29.5312 28.5101 29.5312 24.255C29.5312 19.5615 25.7092 15.75 21 15.75C16.2907 15.75 12.4688 19.5615 12.4688 24.255C12.4688 28.5101 14.8004 31.8012 16.9949 33.9386ZM22.9688 32.8125C23.7385 32.8125 24.278 32.8125 24.278 32.8125C26.208 30.8772 28.2188 27.9825 28.2188 24.255C28.2188 20.2847 24.9834 17.0625 21 17.0625C17.0166 17.0625 13.7812 20.2847 13.7812 24.255C13.7812 27.9825 15.792 30.8772 17.722 32.8125H19.0312V26.25H17.7188C16.2697 26.25 15.0938 25.074 15.0938 23.625C15.0938 22.176 16.2697 21 17.7188 21C19.1678 21 20.3438 22.176 20.3438 23.625V24.9375H21.6562V23.625C21.6562 22.176 22.8323 21 24.2812 21C25.7302 21 26.9062 22.176 26.9062 23.625C26.9062 25.074 25.7302 26.25 24.2812 26.25H22.9688V32.8125ZM20.3438 26.25V32.8125H21.6562V26.25H20.3438ZM22.9688 24.9375H24.2812C25.0058 24.9375 25.5938 24.3495 25.5938 23.625C25.5938 22.9005 25.0058 22.3125 24.2812 22.3125C23.5567 22.3125 22.9688 22.9005 22.9688 23.625V24.9375ZM19.0312 24.9375V23.625C19.0312 22.9005 18.4432 22.3125 17.7188 22.3125C16.9943 22.3125 16.4062 22.9005 16.4062 23.625C16.4062 24.3495 16.9943 24.9375 17.7188 24.9375H19.0312ZM6.5625 6.5625V22.9688C6.5625 23.331 6.8565 23.625 7.21875 23.625C7.581 23.625 7.875 23.331 7.875 22.9688V9.98747C7.88616 9.99862 7.89666 10.0098 7.90781 10.0209C8.76947 10.8826 9.93759 11.3663 11.1562 11.3663C14.3673 11.3663 18.375 11.3663 18.375 11.3663C18.7373 11.3663 19.0312 11.0722 19.0312 10.71C19.0312 10.3477 18.7373 10.0538 18.375 10.0538C18.375 10.0538 14.3673 10.0538 11.1562 10.0538C10.2861 10.0538 9.45131 9.70791 8.83575 9.093C8.22084 8.47744 7.875 7.64269 7.875 6.7725C7.875 6.70228 7.875 6.63272 7.875 6.5625C7.875 5.69231 8.22084 4.85756 8.83575 4.242C9.45131 3.62709 10.2861 3.28125 11.1562 3.28125H31.4698V6.01125H11.1562C10.794 6.01125 10.5 6.30525 10.5 6.6675C10.5 7.02975 10.794 7.32375 11.1562 7.32375H31.4698V10.0538H25.3135H25.3122H21C20.6377 10.0538 20.3438 10.3477 20.3438 10.71C20.3438 11.0722 20.6377 11.3663 21 11.3663H33.4688C33.831 11.3663 34.125 11.6602 34.125 12.0225V23.9531C34.125 24.3154 34.419 24.6094 34.7812 24.6094C35.1435 24.6094 35.4375 24.3154 35.4375 23.9531V12.0225C35.4375 10.9351 34.5562 10.0538 33.4688 10.0538H32.7823V2.625C32.7823 2.26275 32.4883 1.96875 32.1261 1.96875H11.1562C9.93759 1.96875 8.76947 2.45241 7.90781 3.31406C7.04616 4.17572 6.5625 5.34384 6.5625 6.5625ZM17.3847 15.2303L16.7285 14.0936C16.5473 13.7799 16.1457 13.6723 15.832 13.8534C15.5183 14.0346 15.4107 14.4362 15.5918 14.7499L16.2481 15.8865C16.4292 16.2002 16.8308 16.3078 17.1445 16.1267C17.4582 15.9456 17.5658 15.5439 17.3847 15.2303ZM25.7519 15.8865L26.4082 14.7499C26.5893 14.4362 26.4817 14.0346 26.168 13.8534C25.8543 13.6723 25.4527 13.7799 25.2715 14.0936L24.6153 15.2303C24.4342 15.5439 24.5418 15.9456 24.8555 16.1267C25.1692 16.3078 25.5708 16.2002 25.7519 15.8865ZM21.6562 14.4375V13.125C21.6562 12.7627 21.3623 12.4688 21 12.4688C20.6377 12.4688 20.3438 12.7627 20.3438 13.125V14.4375C20.3438 14.7998 20.6377 15.0938 21 15.0938C21.3623 15.0938 21.6562 14.7998 21.6562 14.4375Z" fill="#66C6EB"/>
</svg>
