<svg width="35" height="43" viewBox="0 0 35 43" fill="none" xmlns="http://www.w3.org/2000/svg">
<g clip-path="url(#clip0_3815_10242)">
<path d="M27.7994 33.9723C28.5224 32.6882 28.9572 31.4178 29.254 30.0954C29.3759 29.554 29.6709 29.3033 30.0802 29.3894C30.4988 29.4781 30.6941 29.8242 30.579 30.3563C29.8738 33.6244 28.2947 36.3921 25.8144 38.632C24.1458 40.1394 22.2206 41.1984 20.083 41.8831C19.2056 42.1644 18.3317 42.4577 17.462 42.763C17.1516 42.8721 16.8669 42.8764 16.5539 42.7655C15.0576 42.2344 13.5109 41.8362 12.0716 41.1558C7.61662 39.0498 4.7816 35.5881 3.53931 30.8133C3.46001 30.5081 3.44808 30.2182 3.69705 29.9828C4.10461 29.5966 4.68952 29.8183 4.84299 30.4398C5.13033 31.6045 5.54045 32.7206 6.10574 33.7779C6.17055 33.8981 6.20124 34.0439 6.382 34.1624C6.382 33.6202 6.382 33.1163 6.382 32.6132C6.382 31.6608 6.37432 30.7093 6.38541 29.7569C6.38882 29.4764 6.30356 29.2777 6.07761 29.1021C5.29233 28.4933 4.51558 27.8743 3.74821 27.2433C3.52993 27.0634 3.35173 27.0438 3.09764 27.1691C2.26206 27.5801 1.45291 27.4846 0.757159 26.8818C0.0784603 26.2935 -0.167099 25.5218 0.115124 24.6462C0.405873 23.7466 1.05388 23.2496 1.98751 23.1362C3.25197 22.9827 4.43202 24.1951 4.25979 25.5022C4.21971 25.8083 4.30412 25.9678 4.52752 26.1417C5.42278 26.84 6.29077 27.5733 7.19797 28.2545C7.61917 28.5717 7.77265 28.9426 7.76924 29.4542C7.75389 31.5568 7.76924 33.6602 7.75645 35.7637C7.75389 36.1175 7.86132 36.3767 8.10262 36.6342C9.11043 37.7094 10.2351 38.632 11.5174 39.3584C11.9472 39.6023 11.9889 39.5775 11.9898 39.0949C11.9915 37.3189 11.9838 35.542 11.9966 33.766C11.9992 33.4445 11.8798 33.2339 11.6402 33.0438C11.0843 32.603 10.5557 32.1272 9.98694 31.7034C9.54698 31.376 9.36793 30.9796 9.37049 30.4322C9.38584 27.2348 9.37219 24.0374 9.38584 20.84C9.38754 20.4435 9.2929 20.2056 8.91859 19.9976C8.04293 19.5108 7.6746 18.5208 7.93976 17.5855C8.19129 16.6979 9.08656 16.0243 10.0066 16.0286C10.9555 16.0337 11.7792 16.6732 12.0435 17.6102C12.3001 18.5225 11.9216 19.509 11.0851 19.9976C10.8208 20.1519 10.7501 20.3327 10.7509 20.6132C10.7569 23.7961 10.7577 26.9798 10.7509 30.1627C10.7509 30.4415 10.8242 30.6402 11.0519 30.8176C11.6232 31.2618 12.1518 31.7623 12.7384 32.1826C13.2227 32.5297 13.3753 32.9628 13.3711 33.5315C13.3557 35.5778 13.3796 37.6241 13.3557 39.6705C13.3506 40.1258 13.5083 40.3253 13.9295 40.4523C14.8257 40.7218 15.7081 41.0338 16.5923 41.3416C16.8899 41.4448 17.1661 41.4405 17.4612 41.3374C18.3846 41.0125 19.3088 40.6911 20.2399 40.3927C20.569 40.2878 20.6705 40.1113 20.6679 39.7728C20.6543 37.6131 20.6696 35.4525 20.6543 33.2928C20.6509 32.8545 20.7779 32.5433 21.142 32.2815C21.7985 31.81 22.4218 31.2916 23.0664 30.8039C23.2889 30.6351 23.3895 30.4415 23.3887 30.1551C23.381 26.9577 23.381 23.7603 23.3895 20.5629C23.3895 20.2798 23.2795 20.1366 23.0451 19.9976C22.2376 19.5184 21.8744 18.6675 22.0441 17.7347C22.1967 16.8966 22.9129 16.2196 23.8193 16.0576C24.6403 15.9109 25.5279 16.3432 25.9807 17.1097C26.5844 18.132 26.2109 19.4877 25.134 20.0402C24.8032 20.2099 24.7017 20.4052 24.7034 20.7633C24.7162 24.0459 24.7034 27.3286 24.7188 30.6112C24.7205 31.0546 24.579 31.3632 24.226 31.6233C23.5635 32.1119 22.9248 32.6311 22.2683 33.1282C22.0688 33.2791 21.9835 33.4539 21.9844 33.7063C21.9912 35.554 21.9929 37.4008 21.9835 39.2484C21.9818 39.6048 22.1029 39.5844 22.3527 39.4437C23.8005 38.6286 25.0777 37.6062 26.1649 36.3443C26.3397 36.1414 26.378 35.9283 26.3772 35.6801C26.3738 33.5767 26.3857 31.4741 26.3678 29.3706C26.3635 28.8957 26.5306 28.5657 26.8981 28.2818C27.7968 27.5886 28.675 26.8681 29.5703 26.1707C29.8005 25.9916 29.9037 25.8186 29.8747 25.4971C29.763 24.2344 30.6105 23.2402 31.8485 23.1259C32.9535 23.0236 33.9946 23.9112 34.1046 25.1083C34.1754 25.8816 33.8625 26.5305 33.2341 26.9935C32.5571 27.4923 31.8093 27.5477 31.0633 27.187C30.7734 27.0472 30.5977 27.06 30.3556 27.2612C29.5916 27.8964 28.8097 28.5086 28.0287 29.1225C27.848 29.2649 27.7525 29.4226 27.7533 29.6614C27.761 31.0111 27.7567 32.3617 27.7584 33.7114C27.7584 33.7643 27.7729 33.8171 27.7951 33.9723H27.7994ZM24.914 18.1568C24.9013 17.7245 24.5431 17.3996 24.0989 17.4192C23.6786 17.4371 23.3512 17.779 23.3605 18.1917C23.3708 18.6232 23.7263 18.9446 24.1748 18.9284C24.5952 18.9122 24.926 18.5669 24.9132 18.1576L24.914 18.1568ZM31.9577 26.0189C32.4053 26.0257 32.7498 25.6992 32.7532 25.266C32.7566 24.8517 32.4224 24.5115 32.0071 24.5055C31.5655 24.4987 31.2091 24.8389 31.2099 25.266C31.2099 25.6907 31.5296 26.013 31.9577 26.0198V26.0189ZM10.0347 17.4192C9.58706 17.4039 9.23492 17.7253 9.22639 18.1568C9.21872 18.5754 9.5359 18.9096 9.95795 18.9293C10.403 18.9497 10.756 18.6274 10.7688 18.1909C10.7807 17.7748 10.4559 17.4346 10.0338 17.4201L10.0347 17.4192ZM2.13417 26.0181C2.59288 26.0232 2.8896 25.7418 2.89898 25.2916C2.90921 24.8448 2.57327 24.4995 2.13502 24.5038C1.71723 24.5081 1.39408 24.8397 1.38981 25.2703C1.3847 25.7179 1.67886 26.013 2.13417 26.0181Z" fill="#66C6EB"/>
<path d="M3.13428 18.4441C3.13428 17.7339 3.14962 17.0228 3.12916 16.3126C3.11637 15.8649 3.30139 15.6023 3.7081 15.4309C4.91032 14.9236 6.09889 14.3839 7.30367 13.8834C7.64898 13.7401 7.75556 13.5398 7.74704 13.1757C7.72316 12.1534 7.73766 11.1294 7.74022 10.1062C7.75386 5.41586 11.2215 1.498 15.8701 0.919061C20.9953 0.281289 25.6447 3.94336 26.2211 9.09669C26.378 10.4959 26.3089 11.907 26.2927 13.313C26.2893 13.6105 26.3899 13.741 26.644 13.8493C27.8189 14.3481 28.9802 14.8793 30.1611 15.3619C30.7136 15.5878 30.9379 15.9348 30.9234 16.5342C30.8927 17.7842 30.9149 19.035 30.914 20.2858C30.914 20.3856 30.9174 20.4854 30.9063 20.5843C30.8603 20.9952 30.5866 21.2604 30.2174 21.257C29.8482 21.2544 29.5668 20.9901 29.543 20.5723C29.5182 20.1477 29.5327 19.7205 29.5319 19.2942C29.531 18.5413 29.5165 17.7876 29.537 17.0347C29.5464 16.6988 29.4245 16.5223 29.1175 16.391C27.3824 15.6509 25.655 14.8938 23.925 14.1417C21.8053 13.22 19.6822 12.3043 17.5686 11.369C17.1934 11.2027 16.8822 11.1771 16.4883 11.3502C12.6079 13.0597 8.71819 14.748 4.82591 16.4319C4.54454 16.5538 4.45075 16.7124 4.45416 17.01C4.4678 18.1466 4.46012 19.2831 4.45927 20.4206C4.45927 20.5484 4.46439 20.6772 4.4533 20.8042C4.4192 21.2067 4.1293 21.4821 3.76352 21.4667C3.40712 21.4514 3.14877 21.1947 3.1411 20.7889C3.1266 20.0079 3.13683 19.226 3.13683 18.4441C3.13513 18.4441 3.13428 18.4441 3.13257 18.4441H3.13428ZM9.11808 10.9665C9.11808 11.4636 9.11808 11.9607 9.11808 12.4578C9.11893 13.0717 9.1411 13.0819 9.69787 12.8381C11.971 11.8439 14.2475 10.8574 16.5198 9.85895C16.8549 9.71144 17.161 9.69439 17.4969 9.85895C17.9292 10.0704 18.3786 10.2478 18.8211 10.4404C20.7199 11.2658 22.6179 12.092 24.5167 12.9148C24.694 12.9915 24.9259 13.1331 24.9217 12.7605C24.9046 11.4269 25.0266 10.0875 24.8006 8.76331C24.1424 4.90002 20.6687 2.07012 16.8421 2.22359C13.7342 2.34893 11.462 3.79671 9.97668 6.50639C9.21613 7.89448 9.02855 9.40705 9.11893 10.9665H9.11808Z" fill="#66C6EB"/>
<path d="M16.3322 29.1345C16.3322 28.2393 16.3177 27.344 16.3391 26.4496C16.3476 26.0932 16.2529 25.8988 15.9008 25.7428C14.4573 25.1041 13.8783 23.4065 14.5954 22.0159C15.3108 20.6286 17.0314 20.1256 18.3879 20.9322C19.2755 21.46 19.7402 22.2811 19.7206 23.3051C19.7001 24.3794 19.1988 25.2278 18.2063 25.6865C17.7971 25.8758 17.6965 26.1128 17.7016 26.5306C17.722 28.2205 17.7109 29.9113 17.7084 31.6021C17.7084 31.7717 17.7084 31.9448 17.6803 32.1111C17.612 32.5238 17.3153 32.7872 16.9683 32.7617C16.6059 32.7352 16.3484 32.4573 16.3382 32.0327C16.3229 31.4222 16.3322 30.8108 16.3314 30.2003C16.3314 29.8448 16.3314 29.4901 16.3314 29.1345H16.3322ZM15.6723 23.2556C15.6706 24.0247 16.2419 24.6215 16.9888 24.6284C17.7348 24.636 18.3555 24.0392 18.37 23.3025C18.3845 22.5334 17.7868 21.9298 17.0084 21.9281C16.2154 21.9264 15.674 22.4644 15.6723 23.2556Z" fill="#66C6EB"/>
</g>
<defs>
<clipPath id="clip0_3815_10242">
<rect width="34.1182" height="42" fill="white" transform="translate(0 0.847412)"/>
</clipPath>
</defs>
</svg>
