<?xml version="1.0" encoding="utf-8"?>
<!-- Generator: Adobe Illustrator 27.5.0, SVG Export Plug-In . SVG Version: 6.00 Build 0)  -->
<svg version="1.1" id="Capa_1" xmlns="http://www.w3.org/2000/svg" xmlns:xlink="http://www.w3.org/1999/xlink" x="0px" y="0px"
	 viewBox="0 0 2122 2122" style="enable-background:new 0 0 2122 2122;" xml:space="preserve">
<g>
	<path style="fill:#F7E7CB;" d="M1781.701,1013.94c-35.671-137.588-253.102-246.146-315.68-373.766
		c-59.498-121.339-199.51-485.386-407.917-484.885C864.439,155.754,685.659,263.883,626.1,509.194
		c-77.094,317.529-200.035,386.237-240.959,442.971c-40.923,56.734-85.874,162.791-27.154,267.472l0,0
		c3.453,12.956,13.71,23.994,32.703,31.694c106.749,43.277,286.157-2.56,483.905-14.659c-4.284,25.193-7.392,50.709-10.819,75.192
		c-18.994,135.701-52.155,269.428-98.824,398.262c-19.578,54.049-41.249,115.578-14.651,166.541
		c28.803,55.187,99.641,70.344,161.553,76.838c80.152,8.406,160.747,12.589,241.339,12.525
		c43.254-0.034,87.567-1.496,127.779-17.433c40.212-15.937,76.094-49.195,83.705-91.775c8.052-45.051-15.884-88.776-35.65-130.053
		c-50.72-105.921-78.33-222.835-80.351-340.255c-0.875-50.759,2.188-104.241-3.532-154.653c8.516-0.325,17.032-0.651,25.542-0.945
		c156.32-5.421,374.919,89.475,457.727,17.89C1799.379,1193.246,1799.379,1082.126,1781.701,1013.94z"/>
	<path style="fill:#85AF28;" d="M1781.701,1013.94c-35.671-137.588-253.102-246.146-315.68-373.766
		c-59.498-121.339-199.51-485.386-407.917-484.885C864.439,155.754,685.659,263.883,626.1,509.194
		c-77.094,317.529-200.035,386.237-240.959,442.971c-40.923,56.734-85.874,162.791-27.154,267.472
		c-11.396-42.76,52.22-106.663,128.162-142.562c138.899-65.661,303.139-98.33,435.876-98.276
		c238.925,0.1,496.425-17.469,698.048,85.648c101.984,52.158,135.025,161.288,108.339,184.358
		C1799.379,1193.246,1799.379,1082.126,1781.701,1013.94z"/>
	<path style="fill:#649A2E;" d="M990.255,798.295c-223.299-91.946-209.156-409.12-98.684-612.981
		C768.422,232.554,667.892,337.059,626.1,509.194c-77.094,317.529-200.035,386.236-240.959,442.971
		c-40.924,56.734-85.875,162.791-27.154,267.472c-11.397-42.759,52.22-106.663,128.162-142.562
		c138.899-65.661,303.139-98.33,435.876-98.276c238.925,0.1,496.425-17.469,698.048,85.648
		c101.984,52.158,135.025,161.288,108.339,184.358c10.593-8.294,19.573-17.846,27.181-28.288
		C1748.494,843.13,1247.046,895.459,990.255,798.295z"/>
	<path style="fill:#F0D9BB;" d="M725.092,486.805c70.071-53.717,80.946-158.102,45.445-228.793
		c-63.569,55.353-113.43,134.181-141.112,238.886C650.146,508.994,700.246,505.852,725.092,486.805z"/>
	<path style="fill:#F0D9BB;" d="M593.481,982.512c63.767-14.17,106.278-56.682,148.79-106.279
		c42.511-56.682,42.511-148.791-21.256-177.132c-46.487-25.826-100.474-32.732-148.298-20.903
		c-51.863,127.847-109.936,190.697-150.34,232.595C467.029,958.32,525.084,991.062,593.481,982.512z"/>
	<path style="fill:#F7DAA2;" d="M899.159,1146.324c-12.007,27.827-19.208,58.834-24.565,90.348
		c-4.284,25.193-7.392,50.709-10.819,75.192c-18.994,135.701-52.155,269.428-98.824,398.262
		c-19.578,54.049-41.249,115.578-14.651,166.541c28.803,55.187,99.641,70.344,161.553,76.838
		c80.152,8.406,160.747,12.589,241.339,12.525c43.254-0.034,87.567-1.496,127.779-17.433c40.212-15.937,76.094-49.195,83.705-91.775
		c8.052-45.051-15.884-88.776-35.65-130.053c-50.72-105.921-78.33-222.835-80.351-340.255
		c-0.875-50.759,2.188-104.241-3.532-154.653c-3.535-31.163-10.411-61.158-23.694-88.594
		C1125.545,1077.491,997.72,1076.196,899.159,1146.324z"/>
	<path style="fill:#E9C28F;" d="M1056.948,1093.901c-54.839,1.075-109.781,18.265-157.789,52.423
		c-21.606,50.072-27.67,110.431-35.384,165.54c-18.994,135.701-52.155,269.428-98.824,398.262
		c-19.578,54.049-41.249,115.578-14.651,166.541c28.803,55.187,99.641,70.344,161.553,76.838c32.834,3.443,65.753,5.995,98.705,8.02
		C913.805,1680.271,951.196,1369.129,1056.948,1093.901z"/>
	<path style="fill:#E9C28F;" d="M1025.359,1848.278c-6.299-60.025-8.086-120.467-6.666-180.786
		c2.865-121.746,18.386-243.056,36.51-363.352c5.01-33.243,10.524-66.408,15.542-99.649c2.636-17.462,5.172-34.939,7.818-52.4
		c2.403-15.858,5.497-32.426,3.062-48.343c-0.334-2.182-3.576-2.326-4.553-0.595c-7.392,13.092-10.132,28.494-12.94,43.188
		c-2.886,15.106-5.719,30.221-8.554,45.336c-5.667,30.208-10.725,60.542-15.823,90.851c-10.117,60.143-19.755,120.439-27.121,180.99
		c-14.702,120.851-21.641,243.49-11.085,364.979c2.952,33.967,7.279,67.844,13.145,101.433c1.876,10.739,3.805,21.53,6.023,32.255
		c7.655,0.436,15.309,0.837,22.968,1.196c-1.834-8.743-3.681-17.487-5.341-26.267
		C1032.781,1907.697,1028.484,1878.054,1025.359,1848.278z"/>
	<path style="fill:#E9C28F;" d="M1289.08,1682.257c-13.165-27.025-28.7-52.833-41.473-80.055
		c-12.856-27.398-21.409-56.367-24.969-86.45c-7.236-61.152,1.67-122.798,4.07-183.974c1.266-32.275,0.617-64.424-4.41-96.386
		c-4.817-30.634-13.03-62.471-31.759-87.707c-1.202-1.619-4.305-0.765-3.541,1.493c8.941,26.438,17.358,52.783,20.65,80.616
		c3.274,27.688,2.937,55.814,1.577,83.62c-2.882,58.917-12.539,117.359-9.86,176.509c1.333,29.434,5.564,59.024,14.88,87.049
		c9.106,27.392,22.613,53.024,36.138,78.429c27.613,51.87,52.024,105.995,57.437,165.254c4.001,43.786-3.057,86.921-21.487,125.656
		c11.945-5.247,23.379-12.026,33.701-20.116c7.381-23.248,11.136-47.766,11.78-71.7
		C1333.425,1794.53,1315.103,1735.674,1289.08,1682.257z"/>
	<path style="fill:#E9C28F;" d="M1250.257,1751.425c-5.365-27.039-14.082-53.297-25.734-78.274
		c-13.259-28.421-32.22-53.465-47.08-80.98c-16.297-30.175-22.189-62.348-20.664-96.454c1.547-34.607,9.215-68.578,15.19-102.597
		c6.806-38.757,10.617-77.482,8.255-116.84c-2.404-40.059-7.446-81.387-23.068-118.611c-0.392-0.934-1.918-0.93-1.902,0.258
		c0.458,34.99,5.484,69.713,6.138,104.732c0.654,35.064-1.321,70.583-7.119,105.187c-10.828,64.617-32.445,132.09-13.73,197.385
		c8.866,30.937,27.063,57.521,43.531,84.75c14.365,23.753,26.032,48.62,34.05,75.23c15.26,50.642,18.21,105.121,8.938,157.184
		c-5.061,28.418-13.751,56.066-25.531,82.332c9.858-0.658,19.658-1.702,29.366-3.162
		C1257.649,1895.567,1264.006,1820.715,1250.257,1751.425z"/>
	<path style="fill:#E9C28F;" d="M1151.155,1712.611c-14.119-52.806-38.135-102.904-47.025-157.105
		c-9.686-59.056,11.428-114.623,21.266-172.071c5.658-33.039,8.831-66.484,8.13-100.015c-0.672-32.204-2.252-68.175-15.149-98.135
		c-0.723-1.681-2.955-0.589-3.094,0.838c-1.463,14.953-0.07,30.109-0.297,45.14c-0.221,14.581,0.373,29.151-0.027,43.737
		c-0.818,29.858-3.298,59.93-8.16,89.407c-9.361,56.751-32.432,112.13-28.717,170.458c3.437,53.962,24.702,104.067,41.027,154.957
		c8.275,25.795,15.481,52.194,17.913,79.257c2.566,28.566,0.844,57.436-4.22,85.639c-6.845,38.127-19.315,74.544-32.788,110.654
		c8.975,0.201,17.952,0.238,26.928,0.334C1158.362,1884.842,1173.818,1797.377,1151.155,1712.611z"/>
	<path style="fill:#E9C28F;" d="M1078.521,1403.352c3.012-27.448,5.844-54.901,9.329-82.295c3.475-27.31,3.151-54.588,5.315-81.951
		c0.1-1.261-1.857-1.479-2.175-0.294c-6.552,24.46-14.63,48.106-19.124,73.12c-4.265,23.741-7.319,47.779-10.53,71.68
		c-6.557,48.811-10.875,97.997-14.316,147.118c-6.882,98.227-9.579,196.962-5.852,295.389c1.047,27.636,2.497,55.256,4.352,82.849
		c1.236,18.374,2.997,36.525,5.073,54.683c7.101,0.312,14.205,0.579,21.309,0.825c-5.241-88.667-10.189-177.334-9.92-266.234
		C1062.281,1599.723,1067.775,1501.282,1078.521,1403.352z"/>
	<path style="fill:#E8D4B2;" d="M1262.972,1091.079c-17.018,3.739-37.671,12.042-38.397,29.45
		c-0.451,10.805,8.003,20.37,17.904,24.722c9.901,4.351,21.042,4.611,31.852,4.903c120.11,3.241,239.619,18.889,357.845,40.326
		c10.416,1.889,21.067,3.828,31.524,2.175c10.457-1.653,20.869-7.63,24.878-17.427c6.992-17.087-7.535-34.802-20.864-47.576
		c-23.081-22.121-47.937-46.055-77.17-59.94c-27.396-13.012-67.139-6.504-97.066-5.511
		C1415.977,1064.769,1338.709,1074.438,1262.972,1091.079z"/>
	<path style="fill:#E8D4B2;" d="M640.826,1058.989c-14.037-5.355-28.546-10.969-43.549-10.175
		c-14.29,0.756-27.561,7.258-40.371,13.635c-42.958,21.38-85.998,42.806-126.63,68.331c-8.85,5.56-18.831,15.201-14.357,24.646
		c2.101,4.436,6.832,6.914,11.325,8.889c44.427,19.532,94.63,19.585,143.161,19.309c89.881-0.512,179.916-1.031,269.367-9.834
		c16.441-1.618,46.301-7.326,39.373-30.699c-6.301-21.257-48.798-23.019-66.41-27.856
		C754.572,1099.261,697.181,1080.486,640.826,1058.989z"/>
	<path style="fill:#E8D4B2;" d="M1625.56,1216.151c7.844,1.156,15.914,2.391,22.729,6.442c6.815,4.052,12.144,11.665,11.072,19.521
		c-1.839,13.481-18.941,17.938-32.534,18.515c-93.774,3.976-185.102-27.001-273.841-57.578
		c-19.093-6.579-38.185-13.161-57.279-19.737c-9.368-3.226-41.843-10.261-18.968-18.582c12.235-4.45,44.466,6.55,57.896,8.53
		c19.395,2.86,38.79,5.719,58.185,8.578C1470.38,1193.274,1548.147,1203.765,1625.56,1216.151z"/>
	<path style="fill:#E8D4B2;" d="M481.501,1199.23c-17.406-0.196-34.821-0.552-52.216,0.106c-6.136,0.232-14.295,2.745-13.763,8.863
		c0.183,2.101,1.484,3.92,2.795,5.573c16.915,21.336,42.663,34.235,69.135,40.598c26.473,6.363,53.962,6.785,81.186,7.176
		c13.259,0.19,26.673,0.365,39.589-2.639c14.315-3.329,27.419-10.417,41.006-16.021c51.663-21.308,109.433-20.895,163.896-33.417
		c11.106-2.554,28.434-6.769,35.502-16.724c14.465-20.374-13.493-11.814-27.194-10.3c-37.151,4.108-74.388,7.456-111.674,10.07
		C633.808,1197.84,557.637,1200.083,481.501,1199.23z"/>
	<path style="fill:#E8D4B2;" d="M1253.994,1183.96c11.76,5.294,23.52,10.588,35.28,15.882c6.574,2.959,13.574,6.294,17.138,12.56
		c-4.936,6.988-14.542,8.45-23.075,9.069c-9.71,0.705-19.443,1.097-29.178,1.175c-0.52-11.774-0.475-23.572,0.137-35.34"/>
	<path style="fill:#E8D4B2;" d="M784.309,1231.586c-1.655,3.017,3.508,4.95,6.928,4.563c19.781-2.244,40.528-3.19,59.925-7.253
		c-1.571-17.273-6.874-17.372-21.024-14.467C823.272,1215.839,787.439,1225.886,784.309,1231.586z"/>
	<path style="fill:#E8D4B2;" d="M1264.568,1073.594c47.02-18.544,94.04-37.087,141.06-55.632c2.399-2.982-2.328-6.492-6.048-7.391
		c-64.161-15.514-130.479-22.083-196.437-19.457c-6.275,0.25-13.359,0.981-17.233,5.924c-2.515,3.21-3.057,7.494-3.508,11.548
		c-2.086,18.751-20.69,85.785,1.063,95.658C1202.095,1112.699,1247.494,1080.328,1264.568,1073.594z"/>
	<path style="fill:#E8D4B2;" d="M733.735,1015.675c24.84-9.294,51.416-12.755,77.719-16.15c23.642-3.052,47.283-6.105,70.925-9.156
		c11.004-1.421,24.525-1.749,30.503,7.597c4.088,6.388,2.703,14.653,3.343,22.21c0.97,11.447,6.81,21.811,12.075,32.022
		c8.468,16.423,17.49,50.563-9.685,55.002c-18.035,2.947-41.69-20.024-56.868-27.566
		C819.122,1058.454,770.357,1047.612,733.735,1015.675z"/>
	<path style="fill:#E8D4B2;" d="M1161.55,996.714c-36.96-1.568-73.92-3.136-110.881-4.704c1.169,26.417,9.302,52.495,23.358,74.892
		c2.609,4.157,5.518,8.29,9.605,11.008c15.585,10.364,48.301,22.323,61.444,5.514
		C1151.13,1075.683,1165.251,996.871,1161.55,996.714z"/>
	<path style="fill:#E8D4B2;" d="M1023.602,1011.602c-0.43-4.753-1.216-10.142-5.16-12.829c-2.886-1.966-6.652-1.874-10.14-1.708
		c-15.5,0.738-31,1.476-46.5,2.214c-2.215,0.106-4.78,0.404-5.964,2.28c-0.982,1.556-0.59,3.575-0.164,5.365
		c4.061,17.07,8.124,34.138,12.185,51.207c1.901,7.991,4.707,17.094,12.296,20.239c3.722,1.542,7.903,1.285,11.911,1.698
		c6.886,0.71,13.476,3.456,20.389,3.792C1041.89,1085.29,1025.168,1028.914,1023.602,1011.602z"/>
	<path style="fill:#ACCB4B;" d="M1479.042,710.817c-95.716-128.845-136.765-292.821-237.759-417.574
		c-15.856-19.587-33.766-38.556-56.783-48.818c-23.016-10.262-52.247-10.022-71.319,6.45
		c-21.751,18.786-24.066,51.114-24.614,79.849c-1.336,69.875-1.63,140.728,15.962,208.365
		c17.594,67.638,55.295,132.726,114.924,169.179c42.128,25.754,91.786,35.539,137.943,53.077
		c41.082,15.609,79.738,37.584,114.165,64.9c11.567,9.177,22.895,19.098,36.523,24.78c13.625,5.68,30.403,6.366,42.255-2.434
		C1605.1,807.93,1501.58,741.155,1479.042,710.817z"/>
	<path style="fill:#FEECD4;" d="M851.092,557.756c9.785,32.468,31.365,62.117,61.176,78.279
		c29.811,16.161,69.394,16.082,95.855-5.125c22.247-17.832,32.126-46.594,40.086-73.972c9.154-31.486,17.253-63.661,17.727-96.446
		c0.356-24.562-4.148-50.392-19.611-69.479c-17.085-21.089-45.415-30.448-72.557-30.451
		C912.443,360.556,818.781,450.542,851.092,557.756z"/>
	<path style="fill:#FEECD4;" d="M1327.13,554.053c-19.028-12.777-41.47-22.681-64.249-20.129
		c-22.778,2.551-44.828,21.082-44.781,44.002c0.052,25.113,23.704,42.63,43.711,57.808c19.253,14.606,37.258,30.857,53.753,48.518
		c8.723,9.338,17.188,19.209,28.035,25.964c10.847,6.754,24.803,9.98,36.518,4.877c24.946-10.868,31.01-58.574,21.226-80.832
		C1387.86,603.59,1354.342,572.326,1327.13,554.053z"/>
	<path style="fill:#FEECD4;" d="M1021.489,285.194c5.443,0.561,10.785-1.6,15.65-4.102c14.944-7.687,27.96-19.084,37.552-32.881
		c31.479-45.278-19.822-82.925-63.753-65.71C970.33,198.415,976.873,280.592,1021.489,285.194z"/>
	<path style="fill:#FEECD4;" d="M1136.638,747.995c-14.838,12.279-13.35,37.456-0.298,51.62
		c13.053,14.163,33.955,18.647,53.137,16.901c28.754-2.617,62.032-46.352,33.55-70.128
		C1206.143,732.291,1152.461,734.902,1136.638,747.995z"/>
	<path style="fill:#FEECD4;" d="M1659.545,967.021c19.249,0.664,34.845-19.157,34.482-38.414
		c-0.363-19.257-13.024-36.484-28.53-47.908c-23.245-17.127-77.163-6.498-71.639,30.19
		C1597.133,932.639,1639.02,966.314,1659.545,967.021z"/>
	<path style="fill:#F0D9BB;" d="M1001.157,864.038c-33.997-1.095-70.271,1.021-98.054,20.645
		c-5.933,4.191-11.871,10.427-10.801,17.612c0.427,2.863,1.95,5.443,3.656,7.781c8.844,12.121,22.9,19.37,37.109,24.188
		c30.542,10.356,63.382,11.319,95.632,11.347c15.932,0.013,33.001-0.53,45.938-9.829c10.085-7.248,16.345-19.538,16.278-31.957
		C1090.669,858.146,1032.266,865.04,1001.157,864.038z"/>
</g>
</svg>
