<svg width="30" height="30" viewBox="0 0 30 30" fill="none" xmlns="http://www.w3.org/2000/svg">
<path d="M23.25 25.3125H6.75C5.625 25.3125 4.6875 24.375 4.6875 23.25V8.10937C4.6875 6.98437 5.4375 6.04688 6.42188 6.04688H7.45312V7.40625H6.42188C6.28125 7.40625 6.09375 7.6875 6.09375 8.10937V23.25C6.09375 23.625 6.42188 23.9531 6.79688 23.9531H23.2969C23.6719 23.9531 24 23.625 24 23.25V8.10937C24 7.6875 23.7656 7.40625 23.6719 7.40625H22.6406V6.04688H23.6719C24.6094 6.04688 25.4062 6.98437 25.4062 8.10937V23.25C25.3125 24.375 24.375 25.3125 23.25 25.3125Z" fill="#646B77"/>
<path d="M9.51562 8.8125C9.14062 8.8125 8.8125 8.48437 8.8125 8.10937V5.34375C8.8125 4.96875 9.14062 4.64062 9.51562 4.64062C9.89062 4.64062 10.2188 4.96875 10.2188 5.34375V8.10937C10.1719 8.48437 9.89062 8.8125 9.51562 8.8125Z" fill="#646B77"/>
<path d="M20.4844 8.8125C20.1094 8.8125 19.7812 8.48437 19.7812 8.10937V5.34375C19.7812 4.96875 20.1094 4.64062 20.4844 4.64062C20.8594 4.64062 21.1875 4.96875 21.1875 5.34375V8.10937C21.1875 8.48437 20.8594 8.8125 20.4844 8.8125Z" fill="#646B77"/>
<path d="M11.5781 6.04688H18.4219V7.45312H11.5781V6.04688Z" fill="#646B77"/>
<path d="M6.04688 10.1719H23.9531V11.5781H6.04688V10.1719Z" fill="#646B77"/>
<path d="M21.1875 12.9375H22.5469V14.2969H21.1875V12.9375Z" fill="#646B77"/>
<path d="M18.4219 12.9375H19.8281V14.2969H18.4219V12.9375Z" fill="#646B77"/>
<path d="M15.7031 12.9375H17.0625V14.2969H15.7031V12.9375Z" fill="#646B77"/>
<path d="M12.9375 12.9375H14.2969V14.2969H12.9375V12.9375Z" fill="#646B77"/>
<path d="M10.1719 12.9375H11.5781V14.2969H10.1719V12.9375Z" fill="#646B77"/>
<path d="M21.1875 15.7031H22.5469V17.0625H21.1875V15.7031Z" fill="#646B77"/>
<path d="M18.4219 15.7031H19.8281V17.0625H18.4219V15.7031Z" fill="#646B77"/>
<path d="M15.7031 15.7031H17.0625V17.0625H15.7031V15.7031Z" fill="#646B77"/>
<path d="M12.9375 15.7031H14.2969V17.0625H12.9375V15.7031Z" fill="#646B77"/>
<path d="M10.1719 15.7031H11.5781V17.0625H10.1719V15.7031Z" fill="#646B77"/>
<path d="M7.45312 15.7031H8.8125V17.0625H7.45312V15.7031Z" fill="#646B77"/>
<path d="M21.1875 18.4219H22.5469V19.8281H21.1875V18.4219Z" fill="#646B77"/>
<path d="M18.4219 18.4219H19.8281V19.8281H18.4219V18.4219Z" fill="#646B77"/>
<path d="M15.7031 18.4219H17.0625V19.8281H15.7031V18.4219Z" fill="#646B77"/>
<path d="M12.9375 18.4219H14.2969V19.8281H12.9375V18.4219Z" fill="#646B77"/>
<path d="M10.1719 18.4219H11.5781V19.8281H10.1719V18.4219Z" fill="#646B77"/>
<path d="M7.45312 18.4219H8.8125V19.8281H7.45312V18.4219Z" fill="#646B77"/>
<path d="M18.4219 21.1875H19.8281V22.5469H18.4219V21.1875Z" fill="#646B77"/>
<path d="M15.7031 21.1875H17.0625V22.5469H15.7031V21.1875Z" fill="#646B77"/>
<path d="M12.9375 21.1875H14.2969V22.5469H12.9375V21.1875Z" fill="#646B77"/>
<path d="M10.1719 21.1875H11.5781V22.5469H10.1719V21.1875Z" fill="#646B77"/>
<path d="M7.45312 21.1875H8.8125V22.5469H7.45312V21.1875Z" fill="#646B77"/>
</svg>
