<svg width="31" height="30" viewBox="0 0 31 30" fill="none" xmlns="http://www.w3.org/2000/svg">
<g clip-path="url(#clip0_439_348)">
<path d="M15.4983 29.5199C11.8231 29.5199 8.14784 29.5192 4.47262 29.5199C3.19876 29.5199 2.0878 29.1139 1.18759 28.1951C0.521903 27.516 0.145152 26.6946 0.0476922 25.75C-0.0349589 24.9497 0.013943 24.1462 0.0132543 23.3442C0.00808857 19.1128 0.00843295 14.8814 0.0125655 10.65C0.0146318 8.45009 1.52164 6.71339 3.70397 6.38588C4.21021 6.30978 4.72126 6.33078 5.23095 6.33078C12.3289 6.33009 19.4273 6.32941 26.5253 6.33147C27.5922 6.33147 28.5816 6.59389 29.4236 7.27783C30.2945 7.98518 30.7839 8.91397 30.9637 10.0153C31.0095 10.2949 30.9988 10.5753 30.9988 10.8556C30.9998 15.66 31.0002 20.4641 30.9988 25.2686C30.9981 27.35 29.4708 29.1335 27.4138 29.4521C26.9661 29.5213 26.5129 29.5278 26.0597 29.5275C22.5395 29.5254 19.0189 29.5265 15.4986 29.5265V29.5199H15.4983ZM15.5062 27.3844V27.3865C19.2155 27.3865 22.9248 27.3865 26.6341 27.3858C26.7946 27.3858 26.9585 27.3954 27.1145 27.3658C28.1814 27.1633 28.9191 26.3199 28.9032 25.169C28.8964 24.659 28.9032 24.1497 28.905 23.64C28.9132 20.6473 28.9094 17.6547 28.9122 14.662C28.9122 14.5325 28.8853 14.4926 28.7452 14.5229C27.8556 14.715 26.964 14.8983 26.0735 15.0849C23.8212 15.5564 21.569 16.0278 19.3171 16.4996C19.0509 16.5554 19.0533 16.5568 19.0505 16.8368C19.0461 17.282 18.9948 17.7198 18.7664 18.1134C18.2977 18.9216 17.5656 19.2643 16.6588 19.265C15.7934 19.2657 14.9276 19.297 14.0629 19.2429C13.4072 19.202 12.8559 18.9471 12.4447 18.4213C12.0658 17.9371 11.947 17.3737 11.955 16.7744C11.9567 16.6539 11.9277 16.5854 11.7962 16.5589C11.1959 16.4376 10.5974 16.3071 9.99785 16.1814C8.21086 15.8064 6.42319 15.4324 4.6362 15.0574C3.86307 14.8952 3.0896 14.7336 2.31784 14.5656C2.16631 14.5325 2.09985 14.5666 2.12396 14.7278C2.1274 14.7502 2.12464 14.7736 2.12464 14.7967C2.12464 17.4108 2.11466 20.0254 2.12981 22.6396C2.13532 23.579 2.0444 24.5188 2.12981 25.4573C2.19008 26.1185 2.50312 26.6385 3.04517 27.0201C3.45085 27.3056 3.90646 27.3886 4.39617 27.3879C8.09963 27.382 11.8034 27.3844 15.5069 27.3844H15.5062ZM15.5045 8.44148C15.0055 8.44148 14.5068 8.44148 14.0078 8.44148C10.7624 8.44148 7.51728 8.43804 4.27185 8.44321C3.06205 8.44527 2.11362 9.40402 2.12396 10.558C2.12843 11.0684 2.12396 11.5788 2.1243 12.0888C2.12464 12.3853 2.12637 12.3819 2.41186 12.4418C4.6362 12.9071 6.86055 13.373 9.0849 13.8393C9.98132 14.0273 10.8784 14.2126 11.7731 14.4075C11.9329 14.4423 11.9798 14.3855 11.9825 14.2429C11.9846 14.1513 11.9832 14.0583 11.999 13.9688C12.1902 12.8909 13.0783 12.1398 14.1697 12.1346C14.8922 12.1312 15.6147 12.1312 16.3372 12.1346C16.6289 12.136 16.9202 12.1226 17.2122 12.1635C18.1741 12.2985 18.9985 13.2043 19.0251 14.1695C19.0313 14.3955 19.0464 14.4092 19.2627 14.3634C19.834 14.2426 20.4046 14.1182 20.9763 13.9984C23.565 13.4556 26.1541 12.9136 28.7431 12.3733C28.8619 12.3485 28.915 12.3003 28.9132 12.1673C28.9057 11.6687 28.9132 11.1697 28.9112 10.671C28.9063 9.37269 27.9693 8.44148 26.6682 8.44114C22.9469 8.4408 19.2258 8.44114 15.5045 8.44114V8.44148ZM16.9381 15.6907C16.9381 15.6907 16.9402 15.6907 16.9412 15.6907C16.9412 15.3012 16.9423 14.9113 16.9412 14.5218C16.9402 14.2426 16.9188 14.2191 16.6354 14.2222C16.206 14.2267 15.7762 14.2519 15.3474 14.2391C15.0037 14.2288 14.6604 14.2212 14.3171 14.2226C14.1159 14.2233 14.0712 14.2677 14.0708 14.464C14.0691 15.2833 14.0691 16.1025 14.0708 16.9222C14.0712 17.1167 14.1108 17.1567 14.3019 17.157C15.1098 17.1588 15.9177 17.1564 16.7256 17.1598C16.8789 17.1605 16.9426 17.1016 16.9405 16.9459C16.935 16.5279 16.9388 16.1094 16.9388 15.691L16.9381 15.6907Z" fill="#212429"/>
<path d="M13.7561 0.00439208C15.1178 0.0436513 16.4936 0.0157566 17.8694 0.0236773C19.8788 0.0350418 21.6407 1.52724 21.9837 3.50742C22.0308 3.77913 22.0612 4.05085 22.0539 4.32704C22.0395 4.86875 21.5745 5.3068 20.9836 5.33022C20.5163 5.34847 20.0266 4.90835 19.967 4.42381C19.9405 4.20789 19.9474 3.98921 19.8974 3.77535C19.6777 2.83106 18.8202 2.13851 17.8959 2.1392C16.9385 2.13989 15.9811 2.14023 15.0238 2.13576C14.4965 2.133 13.9696 2.11544 13.4424 2.11199C12.9303 2.10889 12.4382 2.18948 12.0032 2.48874C11.4567 2.86515 11.1398 3.37793 11.0706 4.04017C11.0551 4.18826 11.0558 4.3391 11.0259 4.48408C10.9153 5.022 10.4067 5.36707 9.82604 5.30818C9.36733 5.26169 8.95029 4.78748 8.95166 4.28537C8.95511 3.0308 9.43242 1.97528 10.3464 1.12569C11.1405 0.388375 12.0907 0.0267767 13.1762 0.0219554C13.3649 0.0212667 13.5529 -0.0117937 13.7561 0.0040477V0.00439208Z" fill="#212429"/>
</g>
<defs>
<clipPath id="clip0_439_348">
<rect width="31" height="29.5278" fill="white"/>
</clipPath>
</defs>
</svg>
