<svg width="78" height="78" viewBox="0 0 78 78" fill="none" xmlns="http://www.w3.org/2000/svg">
<path d="M71.1869 44.2251C71.2133 46.3271 70.3947 48.3228 68.914 49.8161C68.9108 49.8193 68.9078 49.8225 68.9048 49.8258C68.8929 49.8388 68.8857 49.8456 68.8741 49.8567C68.8648 49.8654 68.8528 49.8769 68.8332 49.8963L66.8767 51.8383C66.0425 52.6663 65.5654 53.7907 65.5654 54.9773V57.7919C65.5654 62.1474 61.9962 65.6927 57.6082 65.6927H54.7698C53.5777 65.6927 52.4449 66.1631 51.6104 66.9915L49.6263 68.9608C48.067 70.5113 46.0325 71.2698 43.9952 71.2698C41.9582 71.2698 39.923 70.5113 38.3633 68.9901L36.3527 66.9917C35.518 66.1631 34.3852 65.6927 33.1931 65.6927H30.3548C25.9667 65.6927 22.3975 62.1474 22.3975 57.7919V54.9773C22.3975 53.7897 21.9199 52.668 21.0904 51.8152L21.0846 51.8093L19.1021 49.8689C16.009 46.8006 15.9831 41.7858 19.0753 38.6927L20.1283 37.6782L20.2148 37.5898C21.0781 36.6853 22.7178 34.3698 22.7178 33.1956V30.3951C22.7178 26.0234 26.2858 22.4699 30.6731 22.4699H33.5107C34.7038 22.4699 35.836 21.9913 36.6694 21.1607L38.654 19.183C41.7449 16.0788 46.7935 16.0773 49.9135 19.1602L51.9236 21.1607C52.7572 21.9913 53.8894 22.4699 55.0823 22.4699H57.92C62.3073 22.4699 65.8753 26.0234 65.8753 30.3951V33.2258C65.8753 34.4116 66.3525 35.5402 67.1863 36.3712L69.172 38.3501C70.6763 39.817 71.1869 42.1242 71.1869 44.2251Z" fill="#FFCBB9" fill-opacity="0.35" stroke="url(#paint0_linear_479_11271)" stroke-linecap="round" stroke-linejoin="round"/>
<path d="M56.4072 22.513V21.2534C56.4072 16.7195 52.7192 13.035 48.1843 13.035H45.3705C44.2778 13.035 43.2397 12.5953 42.4747 11.8305L40.4805 9.83943C37.2569 6.64384 32.039 6.64384 28.8428 9.86401L26.8758 11.8305C26.1109 12.5953 25.0728 13.035 23.9801 13.035H21.1663C16.6314 13.035 12.9434 16.7195 12.9434 21.2534V24.0393C12.9434 25.1591 12.5063 26.197 11.7414 26.9618L9.74712 28.9583C6.55084 32.1785 6.57816 37.3979 9.77443 40.5908L11.7414 42.53C12.5063 43.322 12.9434 44.3599 12.9434 45.4552V48.2657C12.9434 52.7996 16.6314 56.4895 21.1663 56.4895H22.4174V54.9332C22.4174 53.8379 21.9803 52.8 21.2154 52.008L19.2484 50.0688C16.0522 46.8759 16.0248 41.6564 19.2211 38.4363L21.2154 36.4398C21.9803 35.675 22.4174 34.6371 22.4174 33.5173V30.7314C22.4174 26.1975 26.1054 22.513 30.6403 22.513H33.4541C34.5468 22.513 35.5849 22.0733 36.3499 21.3085L38.3168 19.342C41.5131 16.1219 46.7309 16.1219 49.9545 19.3175L51.9488 21.3085C52.7137 22.0733 53.7518 22.513 54.8445 22.513H56.4072Z" fill="url(#paint1_linear_479_11271)"/>
<g opacity="0.5">
<g filter="url(#filter0_f_479_11271)">
<path d="M57.4229 26.8623L59.3842 28.8235C60.9368 30.3488 61.7812 32.419 61.7812 34.598C61.8085 36.7772 60.9641 38.85 59.4387 40.3999C59.4205 40.4199 59.4023 40.4375 59.3841 40.455C59.3751 40.4638 59.366 40.4726 59.3569 40.4816L57.4229 42.4156C56.6602 43.1783 56.2244 44.2134 56.2244 45.3056V48.1086C56.2244 52.6302 52.5471 56.3102 48.0253 56.3102H45.2196C44.13 56.3102 43.0949 56.7432 42.3322 57.506L40.371 59.4672C38.7638 61.0769 36.6664 61.8642 34.569 61.8642C32.4715 61.8642 30.3741 61.0769 28.767 59.4971L26.7784 57.506C26.0158 56.7432 24.9807 56.3102 23.891 56.3102H22.3329V54.758C22.3329 53.6658 21.897 52.6307 21.1344 51.8408L19.1731 49.9068C15.9861 46.7226 15.9588 41.5172 19.1459 38.3058L21.1344 36.3146C21.897 35.5519 22.3329 34.5169 22.3329 33.4V30.6217C22.3329 26.1001 26.0102 22.4255 30.532 22.4255H33.3377C34.4272 22.4255 35.4623 21.9869 36.2251 21.2243L38.1863 19.2631C41.3733 16.0517 46.5761 16.0517 49.7903 19.2386L51.7788 21.2243C52.5415 21.9869 53.5766 22.4255 54.6662 22.4255H56.2244V23.9776C56.2244 25.0645 56.6602 26.0995 57.4229 26.8623Z" fill="url(#paint2_linear_479_11271)"/>
</g>
</g>
<path fillRule="evenodd" clipRule="evenodd" d="M38.969 53.0927C38.5314 53.5566 37.9299 53.8021 37.2737 53.8021C36.6449 53.8021 36.0434 53.5566 35.6058 53.0927C34.6762 52.165 34.6762 50.637 35.6058 49.7093L49.6597 35.6846C50.5893 34.7596 52.0931 34.7596 53.0227 35.6846C53.9523 36.6123 53.9523 38.143 53.0227 39.0707L38.969 53.0927ZM51.382 53.8021C50.0652 53.8021 49.0171 52.7541 49.0171 51.4373C49.0171 50.1501 50.0652 49.0993 51.382 49.0993C52.6718 49.0993 53.7199 50.1501 53.7199 51.4373C53.7199 52.7541 52.6718 53.8021 51.382 53.8021ZM39.6115 37.3288C39.6115 36.0389 38.5634 34.9908 37.2735 34.9908C35.9836 34.9908 34.9086 36.0389 34.9086 37.3288C34.9086 38.6483 35.9836 39.6937 37.2735 39.6937C38.5634 39.6937 39.6115 38.6483 39.6115 37.3288Z" fill="url(#paint3_linear_479_11271)"/>
<mask id="mask0_479_11271" style="mask-type:luminance" maskUnits="userSpaceOnUse" x="34" y="34" width="20" height="20">
<path d="M38.969 53.0927C38.5314 53.5566 37.9299 53.8021 37.2737 53.8021C36.6449 53.8021 36.0434 53.5566 35.6058 53.0927C34.6762 52.165 34.6762 50.637 35.6058 49.7093L49.6597 35.6846C50.5893 34.7596 52.0931 34.7596 53.0227 35.6846C53.9523 36.6123 53.9523 38.143 53.0227 39.0707L38.969 53.0927ZM51.382 53.8021C50.0652 53.8021 49.0171 52.7541 49.0171 51.4373C49.0171 50.1501 50.0652 49.0993 51.382 49.0993C52.6718 49.0993 53.7199 50.1501 53.7199 51.4373C53.7199 52.7541 52.6718 53.8021 51.382 53.8021ZM39.6115 37.3288C39.6115 36.0389 38.5634 34.9908 37.2735 34.9908C35.9836 34.9908 34.9086 36.0389 34.9086 37.3288C34.9086 38.6483 35.9836 39.6937 37.2735 39.6937C38.5634 39.6937 39.6115 38.6483 39.6115 37.3288Z" fill="url(#paint4_linear_479_11271)"/>
</mask>
<g mask="url(#mask0_479_11271)">
<path d="M39.3734 53.5613L39.1833 53.3712L39.1777 53.3771L39.3734 53.5613ZM35.8185 53.5612L36.0143 53.377L36.0085 53.3712L35.8185 53.5612ZM37.596 54.474C38.3688 54.474 39.0873 54.159 39.6115 53.5563L39.1937 53.1303C38.7855 53.5999 38.2218 53.8527 37.596 53.8527V54.474ZM35.5805 53.5563C36.1111 54.1577 36.8395 54.474 37.596 54.474V53.8527C36.9924 53.8527 36.4198 53.6013 36.0043 53.1303L35.5805 53.5563ZM35.8102 49.7711C34.6081 50.8771 34.6081 52.6961 35.8102 53.8021L36.2523 53.3949C35.2946 52.5137 35.2946 51.0595 36.2523 50.1783L35.8102 49.7711ZM49.9711 35.6627L35.5805 50.0529L35.9701 50.443L50.3608 36.0527L49.9711 35.6627ZM53.7199 35.8908C52.6056 34.6909 50.8032 34.6909 49.6889 35.8908L50.0981 36.3345C50.9861 35.3782 52.4226 35.3782 53.3106 36.3345L53.7199 35.8908ZM53.4902 39.6937C54.6923 38.5884 54.6923 36.7679 53.4902 35.6627L53.0481 36.0695C54.0058 36.9501 54.0058 38.4062 53.0481 39.2868L53.4902 39.6937ZM39.3293 53.8021L53.7199 39.412L53.3303 39.0218L38.9396 53.412L39.3293 53.8021ZM49.0171 51.7866C49.0171 53.2819 50.2094 54.474 51.7044 54.474V53.933C50.5078 53.933 49.5578 52.9828 49.5578 51.7866H49.0171ZM51.7044 49.0993C50.2112 49.0993 49.0171 50.3046 49.0171 51.7866H49.5578C49.5578 50.6104 50.506 49.6459 51.7044 49.6459V49.0993ZM54.3917 51.7866C54.3917 50.3067 53.1873 49.0993 51.7044 49.0993V49.6459C52.8854 49.6459 53.8454 50.6084 53.8454 51.7866H54.3917ZM51.7044 54.474C53.1891 54.474 54.3917 53.2799 54.3917 51.7866H53.8454C53.8454 52.9849 52.8836 53.933 51.7044 53.933V54.474ZM37.596 35.5374C38.7772 35.5374 39.7369 36.4973 39.7369 37.6782H40.2833C40.2833 36.1952 39.0787 34.9908 37.596 34.9908V35.5374ZM35.4494 37.6782C35.4494 36.5013 36.4228 35.5374 37.596 35.5374V34.9908C36.1324 34.9908 34.9086 36.1912 34.9086 37.6782H35.4494ZM37.596 39.8245C36.4246 39.8245 35.4494 38.875 35.4494 37.6782H34.9086C34.9086 39.1783 36.1306 40.3655 37.596 40.3655V39.8245ZM39.7369 37.6782C39.7369 38.8789 38.7753 39.8245 37.596 39.8245V40.3655C39.0805 40.3655 40.2833 39.1743 40.2833 37.6782H39.7369Z" fill="url(#paint5_linear_479_11271)"/>
</g>
<defs>
<filter id="filter0_f_479_11271" x="0.769165" y="0.85144" width="77.0127" height="77.0127" filterUnits="userSpaceOnUse" color-interpolation-filters="sRGB">
<feFlood flood-opacity="0" result="BackgroundImageFix"/>
<feBlend mode="normal" in="SourceGraphic" in2="BackgroundImageFix" result="shape"/>
<feGaussianBlur stdDeviation="8" result="effect1_foregroundBlur_479_11271"/>
</filter>
<linearGradient id="paint0_linear_479_11271" x1="-33.0288" y1="-54.3498" x2="4369.53" y2="4981.38" gradientUnits="userSpaceOnUse">
<stop stop-color="white" stop-opacity="0.4"/>
<stop offset="1" stop-color="white" stop-opacity="0"/>
</linearGradient>
<linearGradient id="paint1_linear_479_11271" x1="2738.23" y1="7.4461" x2="2738.23" y2="5468.72" gradientUnits="userSpaceOnUse">
<stop stop-color="#FFB37F"/>
<stop offset="1" stop-color="#FF7B0D"/>
</linearGradient>
<linearGradient id="paint2_linear_479_11271" x1="2267.4" y1="16.8481" x2="2267.4" y2="4518.12" gradientUnits="userSpaceOnUse">
<stop stop-color="#FFB37F"/>
<stop offset="1" stop-color="#FF7B0D"/>
</linearGradient>
<linearGradient id="paint3_linear_479_11271" x1="1782.42" y1="374.689" x2="-312.682" y2="442.987" gradientUnits="userSpaceOnUse">
<stop stop-color="white"/>
<stop offset="1" stop-color="white" stop-opacity="0.2"/>
</linearGradient>
<linearGradient id="paint4_linear_479_11271" x1="352.161" y1="274.182" x2="1518.79" y2="1719.08" gradientUnits="userSpaceOnUse">
<stop stop-color="white" stop-opacity="0.25"/>
<stop offset="1" stop-color="white" stop-opacity="0"/>
</linearGradient>
<linearGradient id="paint5_linear_479_11271" x1="363.491" y1="282.724" x2="1571.79" y2="1779.22" gradientUnits="userSpaceOnUse">
<stop stop-color="white" stop-opacity="0.25"/>
<stop offset="1" stop-color="white" stop-opacity="0"/>
</linearGradient>
</defs>
</svg>
