<svg width="69" height="71" viewBox="0 0 69 71" fill="none" xmlns="http://www.w3.org/2000/svg">
<path d="M38.9997 7.95198L56.9498 12.7394C63.5655 14.5039 66.228 19.281 64.4774 25.7831L58.5494 47.8048C57.4091 52.0411 55.0756 54.6823 51.8046 55.5679C51.9332 54.6808 51.9993 53.7566 51.9993 52.7991V32.0529C51.9993 23.0636 46.2081 17.0201 37.5597 17.0201H25.5171L25.9259 15.5011C27.6763 8.99905 32.4887 6.21547 38.9997 7.95198Z" fill="url(#paint0_linear_479_11243)"/>
<path d="M15.6643 16.7001H37.8633C42.1281 16.7001 45.6671 18.1954 48.1406 20.7843C50.6153 23.3745 52.0459 27.0832 52.0459 31.5485V52.4674C52.0459 56.9197 50.6154 60.6219 48.1407 63.209C45.6671 65.7949 42.1281 67.29 37.8633 67.29H15.6643C11.3994 67.29 7.85379 65.7948 5.37378 63.2087C2.8927 60.6215 1.45599 56.9193 1.45599 52.4674V31.5485C1.45599 27.0836 2.89284 23.375 5.37391 20.7846C7.85391 18.1955 11.3994 16.7001 15.6643 16.7001Z" fill="url(#paint1_linear_479_11243)" stroke="url(#paint2_linear_479_11243)" stroke-linecap="round" stroke-linejoin="round"/>
<g opacity="0.5">
<g filter="url(#filter0_f_479_11243)">
<path d="M52.5556 54.5848C52.6266 53.9126 52.6629 53.2206 52.6629 52.5103V31.746C52.6629 22.749 46.8845 16.7001 38.2552 16.7001H26.4928L21.0992 36.7979C19.3472 43.3258 22.097 47.9886 28.5086 49.7039L46.185 54.4328C48.5822 55.0741 50.7216 55.1148 52.5556 54.5848Z" fill="url(#paint3_linear_479_11243)"/>
</g>
</g>
<path d="M24.006 50.6324C23.4295 50.6324 22.853 50.4144 22.4129 49.976L16.306 43.8914C15.4258 43.0145 15.4258 41.5939 16.306 40.7196C17.1862 39.8427 18.6093 39.8401 19.4894 40.717L24.006 45.217L34.6295 34.6324C35.5096 33.7555 36.9327 33.7555 37.8129 34.6324C38.6931 35.5093 38.6931 36.9299 37.8129 37.8068L25.599 49.976C25.1589 50.4144 24.5825 50.6324 24.006 50.6324Z" fill="url(#paint4_linear_479_11243)"/>
<mask id="mask0_479_11243" style="mask-type:luminance" maskUnits="userSpaceOnUse" x="15" y="33" width="24" height="18">
<path d="M24.006 50.6324C23.4295 50.6324 22.853 50.4144 22.4129 49.976L16.306 43.8914C15.4258 43.0145 15.4258 41.5939 16.306 40.7196C17.1862 39.8427 18.6093 39.8401 19.4894 40.717L24.006 45.217L34.6295 34.6324C35.5096 33.7555 36.9327 33.7555 37.8129 34.6324C38.6931 35.5093 38.6931 36.9299 37.8129 37.8068L25.599 49.976C25.1589 50.4144 24.5825 50.6324 24.006 50.6324Z" fill="url(#paint5_linear_479_11243)" fill-opacity="0.5"/>
</mask>
<g mask="url(#mask0_479_11243)">
<path d="M23.9747 45.3012L23.8876 45.3886L23.9747 45.4754L24.0618 45.3886L23.9747 45.3012ZM24.2832 50.4568C23.6824 50.4568 23.0823 50.3102 22.6242 50.0154L22.4323 50.1398C22.9438 50.4689 23.6139 50.6324 24.2832 50.6324V50.4568ZM22.4323 49.8432L16.4339 43.8459L16.2628 44.0182L22.2612 50.0154L22.4323 49.8432ZM16.2628 43.6848C15.6733 42.9209 15.6734 41.684 16.2627 40.9226L16.1395 40.7612C15.4813 41.6116 15.4814 42.9933 16.1394 43.8459L16.2628 43.6848ZM16.4228 40.7612C17.1874 40.173 18.4233 40.1715 19.1876 40.7593L19.3476 40.6353C18.4945 39.9792 17.1155 39.9813 16.2628 40.6372L16.4228 40.7612ZM19.3476 40.9227L24.0999 45.0798L24.2832 44.9184L19.5308 40.7612L19.3476 40.9227ZM23.8354 45.0798L34.1544 34.7621L33.9852 34.5917L23.6662 44.9095L23.8354 45.0798ZM34.3144 34.5917C35.0788 34.0028 36.3147 34.0028 37.0791 34.5917L37.2391 34.4675C36.3863 33.8105 35.0073 33.8105 34.1544 34.4675L34.3144 34.5917ZM37.8561 34.7527C38.4455 35.5159 38.4455 36.7522 37.8561 37.5154L37.9795 37.6764C38.6375 36.8243 38.6375 35.4438 37.9795 34.5917L37.8561 34.7527ZM37.6826 37.6764L25.5171 49.8407L25.6905 50.0154L37.8561 37.8511L37.6826 37.6764ZM25.9421 50.0154C25.484 50.3102 24.884 50.4568 24.2832 50.4568V50.6324C24.9525 50.6324 25.6226 50.4689 26.134 50.1398L25.9421 50.0154Z" fill="url(#paint6_linear_479_11243)" fill-opacity="0.5"/>
</g>
<defs>
<filter id="filter0_f_479_11243" x="4.58145" y="0.700073" width="64.0814" height="70.251" filterUnits="userSpaceOnUse" color-interpolation-filters="sRGB">
<feFlood flood-opacity="0" result="BackgroundImageFix"/>
<feBlend mode="normal" in="SourceGraphic" in2="BackgroundImageFix" result="shape"/>
<feGaussianBlur stdDeviation="8" result="effect1_foregroundBlur_479_11243"/>
</filter>
<linearGradient id="paint0_linear_479_11243" x1="3503.4" y1="817.057" x2="257.123" y2="3081.76" gradientUnits="userSpaceOnUse">
<stop stop-color="#9BF763"/>
<stop offset="1" stop-color="#26AB5B"/>
</linearGradient>
<linearGradient id="paint1_linear_479_11243" x1="5106.97" y1="-29.8192" x2="-29.4866" y2="5106.64" gradientUnits="userSpaceOnUse">
<stop stop-color="#72DC60"/>
<stop offset="1" stop-color="#72DC60" stop-opacity="0.35"/>
</linearGradient>
<linearGradient id="paint2_linear_479_11243" x1="785.675" y1="582.35" x2="4052.25" y2="4628.1" gradientUnits="userSpaceOnUse">
<stop stop-color="white" stop-opacity="0.25"/>
<stop offset="1" stop-color="white" stop-opacity="0"/>
</linearGradient>
<linearGradient id="paint3_linear_479_11243" x1="2901.13" y1="660.239" x2="227.551" y2="2578.55" gradientUnits="userSpaceOnUse">
<stop stop-color="#9BF763"/>
<stop offset="1" stop-color="#26AB5B"/>
</linearGradient>
<linearGradient id="paint4_linear_479_11243" x1="2136.52" y1="583.523" x2="-401.475" y2="696.918" gradientUnits="userSpaceOnUse">
<stop stop-color="white"/>
<stop offset="1" stop-color="white" stop-opacity="0.2"/>
</linearGradient>
<linearGradient id="paint5_linear_479_11243" x1="271.119" y1="723.03" x2="2188.63" y2="737.48" gradientUnits="userSpaceOnUse">
<stop stop-color="white"/>
<stop offset="1" stop-color="white" stop-opacity="0"/>
</linearGradient>
<linearGradient id="paint6_linear_479_11243" x1="271.119" y1="723.03" x2="2188.63" y2="737.48" gradientUnits="userSpaceOnUse">
<stop stop-color="white"/>
<stop offset="1" stop-color="white" stop-opacity="0"/>
</linearGradient>
</defs>
</svg>
