<svg width="156" height="76" viewBox="0 0 156 76" fill="none" xmlns="http://www.w3.org/2000/svg">
<g clip-path="url(#clip0_336_4218)">
<path d="M38.7371 45.9709V52.8115H8.82247V52.8695H0V52.8115L5.37528 45.9709L14.8989 33.7391L19.3393 28.1738L24.5978 21.3912H0V14.4927H38.6202L33.2449 21.3333L23.6629 33.7391L19.3393 39.3043L14.1978 45.9709H38.7371Z" fill="#302F2F"/>
<path d="M112.472 33.6806C112.472 37.0429 113.816 40.2893 116.212 42.6661C118.607 45.0429 121.879 46.3763 125.268 46.3763H138.005V38.84H125.209V31.8256H145.075V53.3908H125.209C119.951 53.3908 114.926 51.3038 111.187 47.6516C107.448 43.9415 105.344 38.956 105.344 33.7386C105.344 28.5212 107.448 23.5357 111.187 19.8256C114.926 16.1154 119.951 14.0864 125.209 14.0864H145.075V21.1009H125.209C121.821 21.1009 118.549 22.4343 116.153 24.8111C113.816 27.1299 112.472 30.3183 112.472 33.6806Z" fill="#302F2F"/>
<path d="M43.1191 16.5796V33.1593L54.1034 22.8405L43.1191 16.5796Z" fill="#3ea845"/>
<path d="M54.1034 22.8994L43.1191 33.2183H54.1034V22.8994Z" fill="#0B79B7"/>
<path d="M43.1191 33.1592L54.1034 43.478V33.1592H43.1191Z" fill="#0D6394"/>
<path d="M43.1191 49.7969L54.1034 43.478L43.1191 33.1592V49.7969Z" fill="#0D4972"/>
<path d="M43.1191 16.5804L54.1034 22.8992L57.609 8.29053L43.1191 16.5804Z" fill="#139DD9"/>
<path d="M57.6091 8.28986L72.099 12.5797V0L57.6091 8.28986Z" fill="#9CD6EF"/>
<path d="M72.0989 0V12.5797L86.9393 8.46377L72.0989 0Z" fill="#0D4972"/>
<path d="M86.8811 8.46338L90.0362 22.8982L101.02 16.5793L86.8811 8.46338Z" fill="#3ea845"/>
<path d="M90.0945 22.8986L101.079 33.2174V16.6377L90.0945 22.8986Z" fill="#139DD9"/>
<path d="M101.079 49.797V33.2173L90.0945 43.4782L101.079 49.797Z" fill="#9CD6EF"/>
<path d="M54.1033 22.8992L63.101 17.7398L57.6089 8.29053L54.1033 22.8992Z" fill="#26e333"/>
<path d="M57.6086 8.29053L63.1008 17.7398L72.0985 12.5804L57.6086 8.29053Z" fill="#66C6EB"/>
<path d="M72.0989 66.3766L86.9393 57.9128L72.0989 53.7969V66.3766Z" fill="#0D6394"/>
<path d="M101.079 49.7969L90.0945 43.478L86.9395 57.9128L101.079 49.7969Z" fill="#2AA9E1"/>
<path d="M81.0967 48.6374L86.9394 57.9128L90.0944 43.478L81.0967 48.6374Z" fill="#3ea845"/>
<path d="M72.0989 53.7971L86.9393 57.9131L81.0966 48.6377L72.0989 53.7971Z" fill="#0D4972"/>
<path d="M72.099 53.7969L57.6091 58.0867L72.099 66.3766V53.7969Z" fill="#0B79B7"/>
<path d="M43.1191 49.7969L57.609 58.0867L54.1034 43.478L43.1191 49.7969Z" fill="#66C6EB"/>
<path d="M54.1035 43.478L57.6091 58.0867L63.1013 48.6374L54.1035 43.478Z" fill="#139DD9"/>
<path d="M63.1013 48.6377L57.6091 58.087L72.099 53.7971L63.1013 48.6377Z" fill="#3ea845"/>
<path d="M90.094 22.8994V33.2183H101.078L90.094 22.8994Z" fill="#26e333"/>
<path d="M101.079 33.1592H90.0945V43.478L101.079 33.1592Z" fill="#66C6EB"/>
<path d="M86.881 8.46338L72.0405 12.5793L81.0383 17.7387L86.881 8.46338Z" fill="#0D6394"/>
<path d="M86.8808 8.46338L81.0381 17.7387L90.0358 22.8982L86.8808 8.46338Z" fill="#0B79B7"/>
<path d="M0 73.9711V69.7972C0 69.2754 0.233708 68.7537 0.58427 68.4059C0.934832 68.0581 1.46067 67.8262 1.98652 67.8262H9.69888V69.0436H1.98652C1.81124 69.0436 1.57753 69.1015 1.46067 69.2754C1.34382 69.4494 1.22697 69.6233 1.22697 69.7972V73.9711C1.22697 74.145 1.28539 74.3769 1.46067 74.4928C1.57753 74.6088 1.81124 74.7247 1.98652 74.7247H7.94607C8.06292 74.7247 8.12135 74.7247 8.2382 74.6668C8.35506 74.6088 8.41348 74.5508 8.47191 74.4928C8.53034 74.4349 8.58877 74.3189 8.64719 74.261C8.70562 74.145 8.70562 74.087 8.70562 73.9711V72.5218H3.79775V71.3044H9.93258V74.0291C9.93258 74.261 9.87416 74.5508 9.81573 74.7827C9.7573 75.0146 9.58202 75.2465 9.40674 75.4204C9.23146 75.5943 8.99775 75.7682 8.76405 75.8262C8.53034 75.9421 8.29663 76.0001 8.00449 76.0001H1.98652C1.46067 76.0001 0.934832 75.7682 0.58427 75.4204C0.233708 75.0146 0 74.4928 0 73.9711Z" fill="#302F2F"/>
<path d="M27.7529 73.9711V67.8262H29.0383V73.9711C29.0383 74.145 29.0967 74.3769 29.272 74.4928C29.3889 74.6088 29.6226 74.7247 29.7979 74.7247H36.926V75.9421H29.7394C29.2136 75.9421 28.6878 75.7102 28.3372 75.3624C27.9866 75.0146 27.7529 74.4928 27.7529 73.9711Z" fill="#302F2F"/>
<path d="M55.0381 73.9711V69.7972C55.0381 69.5653 55.0965 69.2754 55.1549 69.0436C55.2134 68.8117 55.3886 68.5798 55.5639 68.4059C55.7392 68.232 55.9729 68.0581 56.2066 68.0001C56.4403 67.8841 56.7325 67.8262 56.9662 67.8262H62.9257C63.1594 67.8262 63.4516 67.8841 63.6853 68.0001C63.919 68.116 64.1527 68.232 64.328 68.4059C64.5033 68.5798 64.6785 68.8117 64.737 69.0436C64.7954 69.2754 64.8538 69.5653 64.8538 69.7972V73.9711C64.8538 74.203 64.7954 74.4928 64.737 74.7247C64.6785 74.9566 64.5033 75.1885 64.328 75.3624C64.1527 75.5363 63.919 75.7102 63.6853 75.7682C63.4516 75.8841 63.1594 75.9421 62.9257 75.9421H56.9662C56.7325 75.9421 56.4403 75.8841 56.2066 75.7682C55.9729 75.6523 55.7392 75.5363 55.5639 75.3624C55.3886 75.1885 55.2134 74.9566 55.1549 74.7247C55.0965 74.4928 55.0381 74.203 55.0381 73.9711ZM56.2651 69.7972V73.9711C56.2651 74.145 56.3819 74.3189 56.4988 74.4349C56.6156 74.5508 56.7909 74.6668 57.0246 74.6668H62.9842C63.1594 74.6668 63.3931 74.6088 63.51 74.4349C63.6269 74.3189 63.7437 74.087 63.7437 73.9131V69.7972C63.7437 69.6233 63.6853 69.3914 63.51 69.2754C63.3931 69.1595 63.1594 69.0436 62.9842 69.0436H57.0246C56.8493 69.0436 56.674 69.1015 56.4988 69.2754C56.3235 69.4494 56.2651 69.6233 56.2651 69.7972Z" fill="#302F2F"/>
<path d="M82.791 67.8262H90.7371C90.9708 67.8262 91.2629 67.8841 91.4966 68.0001C91.7303 68.116 91.964 68.232 92.1393 68.4059C92.3146 68.5798 92.4899 68.8117 92.5483 69.0436C92.6067 69.2754 92.6652 69.5653 92.6652 69.7972V70.8407C92.6652 71.3624 92.4899 71.4783 92.1393 71.8262C92.4899 72.174 92.6652 72.6957 92.6652 73.1595V73.9131C92.6652 74.145 92.6067 74.4349 92.5483 74.6668C92.4899 74.8986 92.3146 75.1305 92.1393 75.3044C91.964 75.4783 91.7303 75.6523 91.4966 75.7102C91.2629 75.8262 90.9708 75.8841 90.7371 75.8841H82.791V67.8262ZM91.4966 73.9711V73.2175C91.4966 73.0436 91.4382 72.8117 91.2629 72.6957C91.0876 72.5798 90.9124 72.4639 90.7371 72.4639H84.5438V71.2465H90.7371C91.1461 71.2465 91.4966 71.2465 91.4966 70.8407V69.7972C91.4966 69.6812 91.4966 69.6233 91.4382 69.5073C91.3798 69.3914 91.3214 69.3334 91.2629 69.2754C91.2045 69.2175 91.0876 69.1595 91.0292 69.1015C90.9124 69.0436 90.8539 69.0436 90.7371 69.0436H84.018V74.6668H90.7371C90.9124 74.6668 91.0876 74.6088 91.2629 74.4349C91.3798 74.3189 91.4966 74.145 91.4966 73.9711Z" fill="#302F2F"/>
<path d="M119.25 72.5218H111.771V75.9421H110.544V69.7972C110.544 69.2754 110.778 68.7537 111.128 68.4059C111.479 68.0581 112.005 67.8262 112.53 67.8262H118.49C118.724 67.8262 119.016 67.8841 119.25 68.0001C119.483 68.116 119.717 68.232 119.892 68.4059C120.068 68.5798 120.243 68.8117 120.301 69.0436C120.418 69.2754 120.418 69.5653 120.418 69.7972V75.9421H119.191L119.25 72.5218ZM119.25 69.8552C119.25 69.7392 119.25 69.6812 119.191 69.5653C119.133 69.4494 119.074 69.3914 119.016 69.3334C118.957 69.2754 118.841 69.2175 118.782 69.1595C118.665 69.1015 118.607 69.1015 118.49 69.1015H112.53C112.414 69.1015 112.355 69.1015 112.238 69.1595C112.121 69.2175 112.063 69.2754 112.005 69.3334C111.946 69.3914 111.888 69.5073 111.829 69.5653C111.771 69.6233 111.771 69.7392 111.771 69.8552V71.3044H119.25V69.8552Z" fill="#302F2F"/>
<path d="M138.297 73.9711V67.8262H139.524V73.9711C139.524 74.145 139.582 74.3769 139.757 74.4928C139.933 74.6088 140.108 74.7247 140.283 74.7247H147.411V75.9421H140.283C139.757 75.9421 139.231 75.7102 138.881 75.3624C138.472 75.0146 138.297 74.4928 138.297 73.9711Z" fill="#302F2F"/>
<path d="M147.47 48.4058H150.099V49.2753H149.222V53.1594H148.288V49.2753H147.411L147.47 48.4058Z" fill="black"/>
<path d="M151.209 48.4058H152.085L153.195 51.7101L154.306 48.4058H155.182L156 53.1594H155.124L154.598 50.1449L153.546 53.1594H152.728L151.735 50.1449L151.209 53.1594H150.333L151.209 48.4058Z" fill="black"/>
</g>
<defs>
<clipPath id="clip0_336_4218">
<rect width="156" height="76" fill="white"/>
</clipPath>
</defs>
</svg>
