<svg xmlns="http://www.w3.org/2000/svg" xml:space="preserve" width="2000" height="1500" data-id="lg_ffkaZUlXkwGbUt3H2Y" data-version="1" viewBox="0 0 2000 1500"><path fill="#1f2d5a" stroke="transparent" d="M0 0h2000v1500H0z"/><g data-padding="20"><g transform="translate(-1551.546 -1177.853)scale(2.48875)"><rect width="434.848" height="82.49" x="428.544" y="415.226" fill="none" rx="0" ry="0" transform="translate(452.63 302.18)"/><path fill="#fbfbfb" d="M907.548 782.4q-6.17 0-10.71-1.92-4.54-1.93-7.11-5.6t-2.78-8.91h9.37q.25 2.78 1.75 4.63 1.5 1.86 3.96 2.77t5.45.91q3.14 0 5.54-.97 2.41-.96 3.76-2.69 1.36-1.73 1.36-4.01 0-2.06-1.2-3.42-1.19-1.35-3.35-2.3-2.15-.94-5.04-1.66l-6.02-1.56q-6.67-1.72-10.39-5.17-3.73-3.46-3.73-9.09 0-4.71 2.53-8.24 2.53-3.52 6.92-5.47 4.38-1.94 9.94-1.94 5.67 0 9.95 1.96 4.27 1.96 6.68 5.42t2.51 7.88h-9.23q-.36-3.43-3.05-5.3t-7-1.87q-3 0-5.15.91-2.16.91-3.32 2.48t-1.16 3.6q0 2.21 1.38 3.63 1.37 1.43 3.45 2.28 2.09.86 4.23 1.39l4.95 1.29q2.96.71 5.74 1.89 2.78 1.17 5.01 2.97t3.55 4.37q1.31 2.57 1.31 6.02 0 4.67-2.38 8.22-2.39 3.55-6.88 5.52-4.49 1.98-10.84 1.98m56.47-.1q-6.99 0-12.51-3.25-5.53-3.24-8.72-9.34-3.19-6.09-3.19-14.65 0-8.59 3.19-14.7t8.72-9.36q5.52-3.24 12.51-3.24 6.95 0 12.46 3.24 5.5 3.25 8.7 9.36 3.19 6.11 3.19 14.7 0 8.56-3.19 14.67-3.2 6.11-8.7 9.34-5.51 3.23-12.46 3.23m0-8.52q4.31 0 7.65-2.16 3.33-2.16 5.22-6.34 1.89-4.19 1.89-10.22 0-6.09-1.89-10.28t-5.22-6.34q-3.34-2.16-7.65-2.16-4.35 0-7.7 2.17-3.35 2.18-5.26 6.37-1.9 4.18-1.9 10.24 0 6.03 1.9 10.2 1.91 4.17 5.26 6.34 3.35 2.18 7.7 2.18m59.78 8.59q-6.48 0-11.33-2.44-4.85-2.45-7.52-6.78-2.68-4.33-2.68-9.99v-34.69h9.52v33.9q0 3.32 1.48 5.92t4.17 4.08 6.36 1.48 6.37-1.48q2.69-1.48 4.17-4.08t1.48-5.92v-33.9h9.51v34.69q0 5.66-2.69 9.99t-7.52 6.78q-4.83 2.44-11.32 2.44m70.05-.8h-32.97v-53.11h9.52v45.09h23.45Zm35.83.73q-6.98 0-12.47-3.25-5.49-3.24-8.66-9.34-3.18-6.09-3.18-14.65 0-8.59 3.19-14.7t8.7-9.36q5.51-3.24 12.42-3.24 4.35 0 8.15 1.23 3.79 1.23 6.77 3.6t4.9 5.79q1.93 3.42 2.57 7.77h-9.59q-.46-2.39-1.59-4.2-1.12-1.82-2.79-3.09-1.68-1.26-3.78-1.92-2.11-.66-4.49-.66-4.35 0-7.72 2.19t-5.28 6.38q-1.9 4.19-1.9 10.21 0 6.1 1.92 10.27 1.93 4.17 5.29 6.31 3.37 2.14 7.65 2.14 2.39 0 4.49-.66t3.8-1.93q1.69-1.26 2.83-3.1 1.14-1.83 1.57-4.19h9.62q-.53 3.82-2.33 7.15t-4.72 5.86q-2.93 2.53-6.79 3.96-3.87 1.43-8.58 1.43m42.89-.73h-10.41l18.54-53.11h12.08l18.96 53.11h-10.44l-9.45-27.59q-1.39-4.27-2.88-9.67-1.5-5.4-3.32-12.28h2q-1.78 6.95-3.23 12.38-1.44 5.44-2.72 9.57Zm28.37-13.15h-27.98v-7.66h27.98Zm41.43 13.98q-6.17 0-10.71-1.92-4.54-1.93-7.11-5.6t-2.78-8.91h9.37q.25 2.78 1.75 4.63 1.5 1.86 3.96 2.77t5.45.91q3.14 0 5.54-.97 2.41-.96 3.76-2.69 1.36-1.73 1.36-4.01 0-2.06-1.2-3.42-1.19-1.35-3.35-2.3-2.15-.94-5.04-1.66l-6.02-1.56q-6.67-1.72-10.4-5.17-3.72-3.46-3.72-9.09 0-4.71 2.53-8.24 2.53-3.52 6.92-5.47 4.38-1.94 9.94-1.94 5.67 0 9.95 1.96 4.27 1.96 6.68 5.42 2.4 3.46 2.51 7.88h-9.23q-.36-3.43-3.05-5.3t-7-1.87q-3 0-5.15.91-2.16.91-3.32 2.48t-1.16 3.6q0 2.21 1.38 3.63 1.37 1.43 3.45 2.28 2.09.86 4.23 1.39l4.95 1.29q2.96.71 5.74 1.89 2.78 1.17 5.01 2.97t3.55 4.37q1.31 2.57 1.31 6.02 0 4.67-2.38 8.22-2.39 3.55-6.88 5.52-4.49 1.98-10.84 1.98m47.73-45.92h-16.4v-8.02h42.27v8.02h-16.36v45.09h-9.51Z"/><rect width="375" height="28.25" x="458.468" y="442.346" fill="none" rx="0" ry="0" transform="translate(446.7 361.41)"/><path fill="#fbfbfb" d="M915.638 826.6q-2.33 0-4.15-1.12-1.83-1.13-2.87-3.23-1.05-2.09-1.05-4.97 0-2.89 1.05-4.99 1.04-2.09 2.87-3.23 1.82-1.13 4.15-1.13 1.38 0 2.61.4 1.22.4 2.2 1.18.98.77 1.63 1.88.65 1.1.9 2.51h-2.32q-.2-.94-.67-1.65t-1.14-1.2q-.68-.49-1.5-.73t-1.71-.24q-1.63 0-2.95.83t-2.09 2.43q-.77 1.61-.77 3.94 0 2.32.78 3.92.77 1.61 2.09 2.43 1.32.83 2.94.83.89 0 1.71-.25t1.5-.74q.67-.48 1.14-1.19.47-.72.67-1.64h2.32q-.23 1.39-.89 2.49-.65 1.09-1.63 1.88-.97.78-2.2 1.19-1.23.4-2.62.4m14.33-.23h-2.47l6.61-18.19h2.68l6.69 18.19h-2.44l-3.85-10.79q-.36-1-.83-2.5-.47-1.49-1.14-3.81h.44q-.66 2.34-1.14 3.86t-.8 2.45Zm10.19-5.08h-9.33v-2.02h9.33Zm14.51 5.39q-1.96 0-3.41-.64-1.44-.63-2.26-1.77t-.93-2.67h2.38q.1 1.03.7 1.69.59.67 1.53.99.93.32 1.99.32 1.24 0 2.22-.4t1.56-1.14q.57-.73.57-1.69 0-.88-.49-1.43-.5-.55-1.32-.9-.82-.36-1.79-.63l-2.2-.62q-2.2-.62-3.42-1.78t-1.22-2.97q0-1.54.83-2.69t2.25-1.79q1.41-.63 3.17-.63 1.8 0 3.18.63 1.38.64 2.18 1.73.79 1.09.84 2.47h-2.27q-.16-1.33-1.27-2.06-1.11-.72-2.73-.72-1.17 0-2.06.38-.88.39-1.37 1.05-.49.67-.49 1.52 0 .95.59 1.53t1.41.91q.81.32 1.47.5l1.82.51q.73.19 1.61.53.89.34 1.69.91.81.57 1.33 1.44t.52 2.14q0 1.49-.78 2.69-.77 1.2-2.25 1.89-1.48.7-3.58.7m17.46-16.45h-5.72v-2.05h13.74v2.05h-5.7v16.14h-2.32Zm25.13 16.14h-11.19v-18.19h11.08v2.05h-8.76v5.94h8.16v2.05h-8.16v6.1h8.87Zm12.04 0h-4.4v-2.05h4.25q2.22 0 3.68-.85t2.18-2.43q.72-1.59.72-3.8 0-2.19-.71-3.75-.72-1.57-2.13-2.41-1.41-.85-3.52-.85h-4.57v-2.05h4.73q2.66 0 4.55 1.09 1.88 1.08 2.89 3.12 1.01 2.03 1.01 4.85 0 2.84-1.02 4.89-1.01 2.04-2.95 3.14t-4.71 1.1m-5.68-18.19h2.32v18.19h-2.32Zm35.8 18.19h-4.39v-2.05h4.24q2.23 0 3.68-.85 1.46-.85 2.18-2.43.72-1.59.72-3.8 0-2.19-.71-3.75-.72-1.57-2.12-2.41-1.41-.85-3.53-.85h-4.56v-2.05h4.72q2.66 0 4.55 1.09 1.89 1.08 2.89 3.12 1.01 2.03 1.01 4.85 0 2.84-1.01 4.89-1.02 2.04-2.96 3.14t-4.71 1.1m-5.68-18.19h2.32v18.19h-2.32Zm31.77 18.19h-11.19v-18.19h11.08v2.05h-8.76v5.94h8.17v2.05h-8.17v6.1h8.87Zm17.55 0h-11.2v-18.19h11.09v2.05h-8.77v5.94h8.17v2.05h-8.17v6.1h8.88Zm8.67 0h-2.32v-18.19h6.23q2.12 0 3.5.78 1.37.77 2.04 2.08.66 1.3.66 2.93 0 1.62-.66 2.94-.67 1.32-2.04 2.1-1.36.78-3.49.78h-4.4v-2.04h4.29q1.44 0 2.32-.49.88-.5 1.28-1.36.39-.86.39-1.93 0-1.08-.39-1.92-.4-.85-1.28-1.34-.89-.49-2.34-.49h-3.79Zm28.05 0h-2.32v-18.19h11v2.05h-8.68v6.23h7.85v2.05h-7.85Zm17.29 0h-2.32v-18.19h6.22q2.13 0 3.5.73 1.37.72 2.04 1.99.66 1.27.66 2.9 0 1.62-.66 2.87-.67 1.24-2.04 1.94-1.36.7-3.49.7h-4.94v-2.06h4.83q1.44 0 2.32-.42.87-.42 1.27-1.2.41-.77.41-1.83 0-1.09-.41-1.89-.4-.8-1.28-1.24-.88-.45-2.33-.45h-3.78Zm10.81 0h-2.68l-4.4-8.19h2.61Zm12.85.23q-2.33 0-4.15-1.12-1.83-1.13-2.88-3.23-1.05-2.09-1.05-4.97 0-2.89 1.05-4.99 1.05-2.09 2.88-3.23 1.82-1.13 4.15-1.13t4.15 1.13q1.82 1.14 2.87 3.23 1.04 2.1 1.04 4.99 0 2.88-1.04 4.97-1.05 2.1-2.87 3.23-1.82 1.12-4.15 1.12m0-2.14q1.63 0 2.94-.83 1.31-.82 2.09-2.43.77-1.6.77-3.92 0-2.35-.77-3.95-.78-1.61-2.09-2.43t-2.94-.82-2.95.83-2.09 2.43q-.78 1.61-.78 3.94 0 2.32.78 3.92.77 1.6 2.09 2.43t2.95.83m16.48 1.91h-2.21v-18.19h3.3l4.48 11.48q.16.4.36 1 .2.61.42 1.32.23.7.44 1.41.21.7.36 1.3h-.51q.17-.57.38-1.26t.43-1.4q.23-.71.44-1.34.2-.62.36-1.03l4.42-11.48h3.31v18.19h-2.28V814.7q.01-.72.03-1.51.02-.8.03-1.61.02-.82.03-1.59h.2q-.26.84-.54 1.71-.29.88-.57 1.69-.27.81-.51 1.48-.25.67-.42 1.11l-4.06 10.39h-2.02l-4.12-10.39q-.17-.42-.41-1.08-.23-.65-.5-1.45-.28-.8-.57-1.69-.29-.88-.6-1.77h.22q.02.68.04 1.48.02.79.03 1.6.02.81.03 1.56t.01 1.35Zm34.66 0h-2.2v-18.19h3.29l4.48 11.48q.16.4.36 1 .2.61.43 1.32.22.7.43 1.41.21.7.37 1.3h-.51q.17-.57.37-1.26.21-.69.44-1.4.22-.71.43-1.34.21-.62.37-1.03l4.42-11.48h3.3v18.19h-2.28v-10.39q0-.56.01-1.28 0-.72.02-1.51l.04-1.61q.02-.82.03-1.59h.19q-.25.84-.54 1.71-.29.88-.56 1.69-.28.81-.52 1.48t-.41 1.11l-4.07 10.39h-2.01l-4.13-10.39q-.17-.42-.4-1.08-.23-.65-.51-1.45l-.57-1.69q-.29-.88-.59-1.77h.21q.03.68.05 1.48.02.79.03 1.6l.02 1.56q.01.75.01 1.35Zm22.9-18.19h2.32v18.19h-2.32Zm11.57 18.19h-2.33v-18.19h2.74l7.39 11.64q.3.45.71 1.15.42.71.9 1.6.48.9.95 1.91h-.33q-.11-1.05-.16-2.01t-.06-1.76q-.02-.81-.02-1.37v-11.16h2.32v18.19h-2.76l-6.59-10.35q-.45-.72-.91-1.48-.45-.77-1.04-1.81t-1.45-2.58h.42l.11 2.5q.05 1.15.08 2 .03.86.03 1.34Zm24.71 0h-4.4v-2.05h4.25q2.22 0 3.68-.85t2.18-2.43q.72-1.59.72-3.8 0-2.19-.71-3.75-.72-1.57-2.13-2.41-1.41-.85-3.52-.85h-4.56v-2.05h4.72q2.66 0 4.55 1.09 1.88 1.08 2.89 3.12 1.01 2.03 1.01 4.85 0 2.84-1.02 4.89-1.01 2.04-2.95 3.14t-4.71 1.1m-5.68-18.19h2.32v18.19h-2.32Zm-471.725-18.753c8.15 0 14.872-6.721 14.872-14.873 0-3.288-1.144-6.578-3.146-9.151l22.737-22.738c2.717 2.43 6.292 3.86 9.867 3.86 8.15 0 14.872-6.72 14.872-14.87s-6.721-14.873-14.872-14.873-14.872 6.722-14.872 14.873c0 1.858.286 3.43 1 5.29l-24.166 24.168c-2.002-1.001-4.147-1.43-6.292-1.43-8.151 0-14.872 6.72-14.872 14.872 0 8.15 6.72 14.872 14.872 14.872"/><path fill="#fbfbfb" d="M793.643 746.527c8.15 0 14.872-6.721 14.872-14.873 0-8.15-6.721-14.872-14.872-14.872s-14.872 6.72-14.872 14.873c0 8.15 6.72 14.87 14.872 14.87m44.33 13.158c-8.151 0-14.872 6.72-14.872 14.872 0 8.15 6.72 14.872 14.872 14.872s14.872-6.721 14.872-14.873c0-8.15-6.721-14.872-14.872-14.872m-88.66 42.9c-8.151 0-14.872 6.72-14.872 14.872s6.72 14.873 14.872 14.873 14.872-6.721 14.872-14.873c0-8.15-6.721-14.872-14.872-14.872"/><path fill="#fbfbfb" d="M837.973 802.583c-6.864 0-12.87 4.719-14.443 11.44h-15.444c-1.573-6.721-7.58-11.44-14.443-11.44-4.29 0-8.294 1.858-11.011 5.005l-22.88-22.594a14.83 14.83 0 0 0-7.15-24.882v-14.014c6.72-1.573 11.44-7.58 11.44-14.443 0-8.151-6.721-14.873-14.872-14.873s-14.73 6.722-14.73 14.873c0 6.863 4.72 12.87 11.44 14.442v14.015c-6.72 1.573-11.44 7.579-11.44 14.443a14.958 14.958 0 0 0 19.449 14.157l25.31 25.31a14.958 14.958 0 0 0 14.444 18.449c6.864 0 12.87-4.72 14.443-11.44h15.444c1.573 6.72 7.579 11.44 14.443 11.44 8.15 0 14.872-6.721 14.872-14.873 0-8.15-6.721-15.014-14.872-15.014"/></g><path fill="transparent" stroke="transparent" stroke-width="2.577" d="M250 600.515h1500v298.97H250z"/></g></svg>