<svg width="34" height="12" viewBox="0 0 34 12" fill="none" xmlns="http://www.w3.org/2000/svg">
<path d="M32.1864 2.67157H1.67078C1.34444 2.67157 1.03146 2.54193 0.800704 2.31117C0.569946 2.08042 0.440308 1.76744 0.440308 1.4411C0.440308 1.11476 0.569946 0.801785 0.800704 0.571027C1.03146 0.34027 1.34444 0.210632 1.67078 0.210632H32.1864C32.5127 0.210632 32.8257 0.34027 33.0565 0.571027C33.2872 0.801785 33.4169 1.11476 33.4169 1.4411C33.4169 1.76744 33.2872 2.08042 33.0565 2.31117C32.8257 2.54193 32.5127 2.67157 32.1864 2.67157Z" fill="white"/>
<path d="M32.1864 11.9575H1.67078C1.34444 11.9575 1.03146 11.8279 0.800704 11.5971C0.569946 11.3664 0.440308 11.0534 0.440308 10.727C0.440308 10.4007 0.569946 10.0877 0.800704 9.85696C1.03146 9.62621 1.34444 9.49657 1.67078 9.49657H32.1864C32.5127 9.49657 32.8257 9.62621 33.0565 9.85696C33.2872 10.0877 33.4169 10.4007 33.4169 10.727C33.4169 11.0534 33.2872 11.3664 33.0565 11.5971C32.8257 11.8279 32.5127 11.9575 32.1864 11.9575Z" fill="white"/>
</svg>
