<svg width="30" height="31" viewBox="0 0 30 31" fill="none" xmlns="http://www.w3.org/2000/svg">
<g clip-path="url(#clip0_1336_161)">
<path d="M15 30.5C6.72921 30.5 0 23.7708 0 15.5C0 7.22921 6.72921 0.5 15 0.5C23.2708 0.5 30 7.22921 30 15.5C30 23.7708 23.2708 30.5 15 30.5ZM15 1.98515C7.54752 1.98515 1.48515 8.04752 1.48515 15.5C1.48515 22.9525 7.54752 29.0149 15 29.0149C22.4525 29.0149 28.5149 22.9525 28.5149 15.5C28.5149 8.04752 22.4525 1.98515 15 1.98515Z" fill="white"/>
<path d="M15 20.9952C11.3153 20.9952 8.31683 17.9967 8.31683 14.3121C8.31683 10.6274 11.3153 7.62891 15 7.62891C18.6847 7.62891 21.6832 10.6274 21.6832 14.3121C21.6832 17.9967 18.6847 20.9952 15 20.9952ZM15 9.11405C12.1337 9.11405 9.80198 11.4457 9.80198 14.3121C9.80198 17.1784 12.1337 19.5101 15 19.5101C17.8663 19.5101 20.198 17.1784 20.198 14.3121C20.198 11.4457 17.8663 9.11405 15 9.11405Z" fill="white"/>
<path d="M5.46534 26.8465C5.35246 26.8465 5.23811 26.8212 5.12969 26.7663C4.76435 26.5806 4.6188 26.1336 4.80444 25.7682C7.6589 20.1455 14.5559 17.894 20.1787 20.7484C22.3574 21.8549 24.0921 23.5895 25.1985 25.7682C25.3841 26.1336 25.2386 26.5806 24.8733 26.7663C24.5079 26.9519 24.0609 26.8064 23.8752 26.441C22.9129 24.546 21.4025 23.0356 19.5074 22.0732C14.6153 19.59 8.61385 21.5489 6.13068 26.441C5.99999 26.6994 5.7386 26.8479 5.46831 26.8479L5.46534 26.8465Z" fill="white"/>
</g>
<defs>
<clipPath id="clip0_1336_161">
<rect width="30" height="30" fill="white" transform="translate(0 0.5)"/>
</clipPath>
</defs>
</svg>
