<svg width="55" height="63" viewBox="0 0 55 63" fill="none" xmlns="http://www.w3.org/2000/svg">
<path d="M0.355042 15.7071V31.4142L10.6352 21.6384L0.355042 15.7071Z" fill="#198BCA"/>
<path d="M10.6352 21.6934L0.355042 31.4691H10.6352V21.6934Z" fill="#0B79B7"/>
<path d="M0.355042 31.4142L10.6352 41.1899V31.4142H0.355042Z" fill="#0D6394"/>
<path d="M0.355042 47.1762L10.6352 41.1899L0.355042 31.4142V47.1762Z" fill="#0D4972"/>
<path d="M0.355042 15.7071L10.6352 21.6934L13.9161 7.85355L0.355042 15.7071Z" fill="#139DD9"/>
<path d="M13.9161 7.85355L27.4771 11.9176V0L13.9161 7.85355Z" fill="#9CD6EF"/>
<path d="M27.4771 0V11.9176L41.3663 8.01831L27.4771 0Z" fill="#0D4972"/>
<path d="M41.3116 8.01831L44.2644 21.6934L54.5445 15.7071L41.3116 8.01831Z" fill="#198BCA"/>
<path d="M44.3191 21.6934L54.5992 31.4691V15.762L44.3191 21.6934Z" fill="#139DD9"/>
<path d="M54.5992 47.1762V31.4691L44.3191 41.1899L54.5992 47.1762Z" fill="#9CD6EF"/>
<path d="M10.6352 21.6934L19.0562 16.8055L13.9161 7.85355L10.6352 21.6934Z" fill="#26B2E3"/>
<path d="M13.9161 7.85355L19.0562 16.8055L27.4771 11.9176L13.9161 7.85355Z" fill="#66C6EB"/>
<path d="M27.4771 62.8833L41.3663 54.865L27.4771 50.9657V62.8833Z" fill="#0D6394"/>
<path d="M54.5992 47.1762L44.3191 41.1899L41.3663 54.865L54.5992 47.1762Z" fill="#2AA9E1"/>
<path d="M35.8981 46.0778L41.3663 54.865L44.3191 41.1899L35.8981 46.0778Z" fill="#198BCA"/>
<path d="M27.4771 50.9657L41.3663 54.865L35.8981 46.0778L27.4771 50.9657Z" fill="#0D4972"/>
<path d="M27.4771 50.9657L13.9161 55.0297L27.4771 62.8833V50.9657Z" fill="#0B79B7"/>
<path d="M0.355042 47.1762L13.9161 55.0297L10.6352 41.1899L0.355042 47.1762Z" fill="#66C6EB"/>
<path d="M10.6352 41.1899L13.9161 55.0297L19.0562 46.0778L10.6352 41.1899Z" fill="#139DD9"/>
<path d="M19.0562 46.0778L13.9161 55.0297L27.4771 50.9657L19.0562 46.0778Z" fill="#198BCA"/>
<path d="M44.3191 21.6934V31.4691H54.5992L44.3191 21.6934Z" fill="#26B2E3"/>
<path d="M54.5992 31.4142H44.3191V41.1899L54.5992 31.4142Z" fill="#66C6EB"/>
<path d="M41.3116 8.01831L27.4225 11.9176L35.8435 16.8055L41.3116 8.01831Z" fill="#0D6394"/>
<path d="M41.3116 8.01831L35.8434 16.8055L44.2644 21.6934L41.3116 8.01831Z" fill="#0B79B7"/>
</svg>
