<svg width="146" height="72" viewBox="0 0 146 72" fill="none" xmlns="http://www.w3.org/2000/svg">
<g clip-path="url(#clip0_1336_116)">
<path d="M36.2539 43.551V50.0315H8.25693V50.0865H0V50.0315L5.03071 43.551L13.9438 31.9629L18.0996 26.6906L23.021 20.265H0V13.7295H36.1446L31.1139 20.21L22.1461 31.9629L18.0996 37.2352L13.2876 43.551H36.2539Z" fill="white"/>
<path d="M105.262 31.9086C105.262 35.094 106.52 38.1695 108.762 40.4212C111.004 42.6729 114.066 43.9361 117.237 43.9361H129.158V36.7965H117.183V30.1512H135.775V50.5814H117.183C112.261 50.5814 107.559 48.6043 104.059 45.1443C100.56 41.6295 98.591 36.9063 98.591 31.9636C98.591 27.0208 100.56 22.2976 104.059 18.7828C107.559 15.2679 112.261 13.3457 117.183 13.3457H135.775V19.991H117.183C114.011 19.991 110.949 21.2542 108.707 23.5059C106.52 25.7027 105.262 28.7233 105.262 31.9086Z" fill="white"/>
<path d="M40.355 15.707V31.4141L50.6352 21.6384L40.355 15.707Z" fill="#198BCA"/>
<path d="M50.6352 21.6934L40.355 31.4691H50.6352V21.6934Z" fill="#0B79B7"/>
<path d="M40.355 31.4141L50.6352 41.1898V31.4141H40.355Z" fill="#0D6394"/>
<path d="M40.355 47.1761L50.6352 41.1898L40.355 31.4141V47.1761Z" fill="#0D4972"/>
<path d="M40.355 15.7071L50.6352 21.6933L53.9161 7.85352L40.355 15.7071Z" fill="#139DD9"/>
<path d="M53.9161 7.85355L67.4771 11.9176V0L53.9161 7.85355Z" fill="#9CD6EF"/>
<path d="M67.4771 0V11.9176L81.3663 8.01831L67.4771 0Z" fill="#0D4972"/>
<path d="M81.3116 8.01855L84.2644 21.6936L94.5445 15.7073L81.3116 8.01855Z" fill="#198BCA"/>
<path d="M84.3191 21.6931L94.5992 31.4688V15.7617L84.3191 21.6931Z" fill="#139DD9"/>
<path d="M94.5992 47.1758V31.4688L84.3191 41.1896L94.5992 47.1758Z" fill="#9CD6EF"/>
<path d="M50.6352 21.6933L59.0562 16.8055L53.9161 7.85352L50.6352 21.6933Z" fill="#26B2E3"/>
<path d="M53.9161 7.85352L59.0562 16.8055L67.4771 11.9176L53.9161 7.85352Z" fill="#66C6EB"/>
<path d="M67.4771 62.8834L81.3663 54.8651L67.4771 50.9658V62.8834Z" fill="#0D6394"/>
<path d="M94.5992 47.1757L84.3191 41.1895L81.3663 54.8645L94.5992 47.1757Z" fill="#2AA9E1"/>
<path d="M75.8981 46.0773L81.3663 54.8645L84.3191 41.1895L75.8981 46.0773Z" fill="#198BCA"/>
<path d="M67.4771 50.966L81.3663 54.8653L75.8981 46.0781L67.4771 50.966Z" fill="#0D4972"/>
<path d="M67.4771 50.9658L53.9161 55.0299L67.4771 62.8834V50.9658Z" fill="#0B79B7"/>
<path d="M40.355 47.1757L53.9161 55.0293L50.6352 41.1895L40.355 47.1757Z" fill="#66C6EB"/>
<path d="M50.6352 41.1895L53.9161 55.0293L59.0562 46.0773L50.6352 41.1895Z" fill="#139DD9"/>
<path d="M59.0562 46.0781L53.9161 55.0301L67.4771 50.966L59.0562 46.0781Z" fill="#198BCA"/>
<path d="M84.3191 21.6934V31.4691H94.5992L84.3191 21.6934Z" fill="#26B2E3"/>
<path d="M94.5992 31.4141H84.3191V41.1898L94.5992 31.4141Z" fill="#66C6EB"/>
<path d="M81.3116 8.01855L67.4225 11.9179L75.8434 16.8057L81.3116 8.01855Z" fill="#0D6394"/>
<path d="M81.3116 8.01855L75.8434 16.8057L84.2644 21.6936L81.3116 8.01855Z" fill="#0B79B7"/>
<path d="M0 70.0774V66.1231C0 65.6289 0.218727 65.1346 0.546816 64.8051C0.874906 64.4755 1.36704 64.2559 1.85918 64.2559H9.07715V65.4092H1.85918C1.69513 65.4092 1.4764 65.4641 1.36704 65.6289C1.25768 65.7936 1.14831 65.9584 1.14831 66.1231V70.0774C1.14831 70.2421 1.203 70.4618 1.36704 70.5716C1.4764 70.6815 1.69513 70.7913 1.85918 70.7913H7.4367C7.54607 70.7913 7.60075 70.7913 7.71011 70.7364C7.81948 70.6815 7.87416 70.6266 7.92884 70.5716C7.98352 70.5167 8.0382 70.4069 8.09288 70.352C8.14757 70.2421 8.14756 70.1872 8.14756 70.0774V68.7044H3.55431V67.5511H9.29588V70.1323C9.29588 70.352 9.2412 70.6266 9.18652 70.8462C9.13183 71.0659 8.96779 71.2856 8.80375 71.4504C8.6397 71.6151 8.42097 71.7799 8.20225 71.8348C7.98352 71.9446 7.76479 71.9996 7.49139 71.9996H1.85918C1.36704 71.9996 0.874906 71.7799 0.546816 71.4504C0.218727 71.0659 0 70.5716 0 70.0774Z" fill="#66C6EB"/>
<path d="M25.9738 70.0774V64.2559H27.1768V70.0774C27.1768 70.2421 27.2314 70.4618 27.3955 70.5716C27.5048 70.6815 27.7236 70.7913 27.8876 70.7913H34.5588V71.9446H27.8329C27.3408 71.9446 26.8487 71.725 26.5206 71.3954C26.1925 71.0659 25.9738 70.5716 25.9738 70.0774Z" fill="#66C6EB"/>
<path d="M51.5101 70.0774V66.1231C51.5101 65.9035 51.5648 65.6289 51.6195 65.4092C51.6742 65.1895 51.8382 64.9698 52.0023 64.8051C52.1663 64.6403 52.385 64.4755 52.6038 64.4206C52.8225 64.3108 53.0959 64.2559 53.3146 64.2559H58.8922C59.1109 64.2559 59.3843 64.3108 59.603 64.4206C59.8217 64.5305 60.0405 64.6403 60.2045 64.8051C60.3686 64.9698 60.5326 65.1895 60.5873 65.4092C60.642 65.6289 60.6967 65.9035 60.6967 66.1231V70.0774C60.6967 70.297 60.642 70.5716 60.5873 70.7913C60.5326 71.011 60.3686 71.2307 60.2045 71.3954C60.0405 71.5602 59.8217 71.725 59.603 71.7799C59.3843 71.8897 59.1109 71.9446 58.8922 71.9446H53.3146C53.0959 71.9446 52.8225 71.8897 52.6038 71.7799C52.385 71.67 52.1663 71.5602 52.0023 71.3954C51.8382 71.2307 51.6742 71.011 51.6195 70.7913C51.5648 70.5716 51.5101 70.297 51.5101 70.0774ZM52.6584 66.1231V70.0774C52.6584 70.2421 52.7678 70.4069 52.8772 70.5167C52.9865 70.6266 53.1506 70.7364 53.3693 70.7364H58.9468C59.1109 70.7364 59.3296 70.6815 59.439 70.5167C59.5483 70.4069 59.6577 70.1872 59.6577 70.0224V66.1231C59.6577 65.9584 59.603 65.7387 59.439 65.6289C59.3296 65.519 59.1109 65.4092 58.9468 65.4092H53.3693C53.2053 65.4092 53.0412 65.4641 52.8772 65.6289C52.7131 65.7936 52.6584 65.9584 52.6584 66.1231Z" fill="#66C6EB"/>
<path d="M77.4839 64.2559H84.9206C85.1393 64.2559 85.4127 64.3108 85.6315 64.4206C85.8502 64.5305 86.0689 64.6403 86.233 64.8051C86.397 64.9698 86.561 65.1895 86.6157 65.4092C86.6704 65.6289 86.7251 65.9035 86.7251 66.1231V67.1117C86.7251 67.606 86.561 67.7158 86.233 68.0453C86.561 68.3749 86.7251 68.8691 86.7251 69.3085V70.0224C86.7251 70.2421 86.6704 70.5167 86.6157 70.7364C86.561 70.9561 86.397 71.1758 86.233 71.3405C86.0689 71.5053 85.8502 71.67 85.6315 71.725C85.4127 71.8348 85.1393 71.8897 84.9206 71.8897H77.4839V64.2559ZM85.6315 70.0774V69.3634C85.6315 69.1987 85.5768 68.979 85.4127 68.8691C85.2487 68.7593 85.0846 68.6495 84.9206 68.6495H79.1243V67.4961H84.9206C85.3034 67.4961 85.6315 67.4961 85.6315 67.1117V66.1231C85.6315 66.0133 85.6315 65.9584 85.5768 65.8485C85.5221 65.7387 85.4674 65.6838 85.4127 65.6289C85.358 65.5739 85.2487 65.519 85.194 65.4641C85.0846 65.4092 85.03 65.4092 84.9206 65.4092H78.6322V70.7364H84.9206C85.0846 70.7364 85.2487 70.6815 85.4127 70.5167C85.5221 70.4069 85.6315 70.2421 85.6315 70.0774Z" fill="#66C6EB"/>
<path d="M111.605 68.7044H104.606V71.9446H103.458V66.1231C103.458 65.6289 103.676 65.1346 104.004 64.8051C104.333 64.4755 104.825 64.2559 105.317 64.2559H110.894C111.113 64.2559 111.387 64.3108 111.605 64.4206C111.824 64.5305 112.043 64.6403 112.207 64.8051C112.371 64.9698 112.535 65.1895 112.59 65.4092C112.699 65.6289 112.699 65.9035 112.699 66.1231V71.9446H111.551L111.605 68.7044ZM111.605 66.1781C111.605 66.0682 111.605 66.0133 111.551 65.9035C111.496 65.7936 111.441 65.7387 111.387 65.6838C111.332 65.6289 111.222 65.5739 111.168 65.519C111.058 65.4641 111.004 65.4641 110.894 65.4641H105.317C105.207 65.4641 105.153 65.4641 105.043 65.519C104.934 65.5739 104.879 65.6289 104.825 65.6838C104.77 65.7387 104.715 65.8485 104.661 65.9035C104.606 65.9584 104.606 66.0682 104.606 66.1781V67.5511H111.605V66.1781Z" fill="#66C6EB"/>
<path d="M129.431 70.0774V64.2559H130.58V70.0774C130.58 70.2421 130.634 70.4618 130.798 70.5716C130.963 70.6815 131.127 70.7913 131.291 70.7913H137.962V71.9446H131.291C130.799 71.9446 130.306 71.725 129.978 71.3954C129.596 71.0659 129.431 70.5716 129.431 70.0774Z" fill="#66C6EB"/>
<path d="M138.016 45.8584H140.477V46.6822H139.657V50.3618H138.782V46.6822H137.962L138.016 45.8584Z" fill="white"/>
<path d="M141.516 45.8584H142.336L143.375 48.9888L144.414 45.8584H145.234L146 50.3618H145.18L144.688 47.506L143.703 50.3618H142.938L142.008 47.506L141.516 50.3618H140.696L141.516 45.8584Z" fill="white"/>
</g>
<defs>
<clipPath id="clip0_1336_116">
<rect width="146" height="72" fill="white"/>
</clipPath>
</defs>
</svg>
