<svg width="28" height="26" viewBox="0 0 28 26" fill="none" xmlns="http://www.w3.org/2000/svg">
<path d="M3.57143 0C1.76544 0 0.454544 1.24541 0.454544 2.96105C0.454544 4.67565 1.73948 5.92019 3.50935 5.92019C4.42732 5.92019 5.21828 5.6227 5.7969 5.05951C6.35188 4.51927 6.65787 3.77404 6.6573 2.94752C6.61666 1.21211 5.34754 0 3.57143 0ZM4.99074 4.23074C4.63226 4.57968 4.11965 4.76398 3.50935 4.76398C2.39152 4.76398 1.61075 4.02274 1.61075 2.96105C1.61075 1.88167 2.39887 1.15621 3.57143 1.15621C4.71806 1.15621 5.47513 1.87005 5.50109 2.96134C5.50109 3.45961 5.31987 3.91035 4.99074 4.23074Z" fill="black"/>
<path d="M1.00895 26H6.20511V6.89685H1.00895V26ZM2.16516 8.05306H5.0489V24.8437H2.16516V8.05306Z" fill="black"/>
<path d="M19.9069 6.89685C17.4973 6.89685 16.0221 7.7284 15.1674 8.51063L15.0048 6.89685H9.12611V26H14.8834V15.9596C14.8834 15.5272 15.0584 14.6292 15.1686 14.3921C15.8641 12.8941 16.8023 12.8941 18.2233 12.8941C19.86 12.8941 21.2426 14.4289 21.2426 16.2453V26H27.0236V15.2065C27.0236 9.49716 23.3343 6.89685 19.9069 6.89685ZM25.8674 24.8437H22.3988V16.2453C22.3988 13.8019 20.4866 11.7379 18.2233 11.7379C16.7713 11.7379 15.1256 11.7379 14.1196 13.9055C13.9118 14.3535 13.7272 15.4272 13.7272 15.9596V24.8437H10.2823V8.05306H13.9593L14.1953 10.3911H15.1425L15.3119 10.1179C15.6975 9.49716 16.917 8.05306 19.9069 8.05306C22.7776 8.05306 25.8674 10.2915 25.8674 15.2065V24.8437Z" fill="black"/>
</svg>
