<svg width="20" height="17" viewBox="0 0 20 17" fill="none" xmlns="http://www.w3.org/2000/svg">
<path d="M2.3664 3.99147L4.41619 7.57861C4.66637 8.01643 4.79146 8.23534 4.79146 8.47533C4.79146 8.71533 4.66637 8.93424 4.41618 9.37206L2.36639 12.9592C1.24733 14.9176 0.6878 15.8967 1.12413 16.3823C1.56046 16.8679 2.59368 16.4159 4.66011 15.5118L16.9586 10.1312C18.5812 9.42132 19.3925 9.06637 19.3925 8.47533C19.3925 7.8843 18.5812 7.52935 16.9586 6.81946L4.66011 1.43887C2.59368 0.534805 1.56046 0.0827728 1.12413 0.568352C0.6878 1.05393 1.24733 2.03311 2.3664 3.99147Z" fill="white"/>
</svg>
