<svg width="146" height="72" viewBox="0 0 146 72" fill="none" xmlns="http://www.w3.org/2000/svg">
<g clip-path="url(#clip0_89_4763)">
<path d="M36.2539 43.3625V49.815H8.25693V49.8697H0V49.815L5.03071 43.3625L13.9438 31.8247L18.0996 26.5753L23.021 20.1775H0V13.6704H36.1446L31.1139 20.1228L22.1461 31.8247L18.0996 37.0742L13.2876 43.3625H36.2539Z" fill="#302F2F"/>
<path d="M105.262 31.77C105.262 34.9416 106.52 38.0037 108.762 40.2457C111.004 42.4876 114.066 43.7453 117.237 43.7453H129.158V36.6367H117.183V30.0202H135.775V50.3618H117.183C112.261 50.3618 107.559 48.3933 104.059 44.9483C100.56 41.4487 98.591 36.7461 98.591 31.8247C98.591 26.9034 100.56 22.2008 104.059 18.7011C107.559 15.2015 112.261 13.2876 117.183 13.2876H135.775V19.9041H117.183C114.011 19.9041 110.949 21.1618 108.707 23.4037C106.52 25.591 105.262 28.5985 105.262 31.77Z" fill="#302F2F"/>
<path d="M40.355 15.6389V31.2779L50.6352 21.5446L40.355 15.6389Z" fill="#198BCA"/>
<path d="M50.6352 21.5992L40.355 31.3326H50.6352V21.5992Z" fill="#0B79B7"/>
<path d="M40.355 31.2779L50.6352 41.0112V31.2779H40.355Z" fill="#0D6394"/>
<path d="M40.355 46.9715L50.6352 41.0112L40.355 31.2779V46.9715Z" fill="#0D4972"/>
<path d="M40.355 15.6389L50.6352 21.5992L53.9161 7.81947L40.355 15.6389Z" fill="#139DD9"/>
<path d="M53.9161 7.81948L67.4771 11.8659V0L53.9161 7.81948Z" fill="#9CD6EF"/>
<path d="M67.4771 0V11.8659L81.3663 7.98352L67.4771 0Z" fill="#0D4972"/>
<path d="M81.3116 7.98352L84.2644 21.5993L94.5445 15.639L81.3116 7.98352Z" fill="#198BCA"/>
<path d="M84.3191 21.5993L94.5992 31.3326V15.6936L84.3191 21.5993Z" fill="#139DD9"/>
<path d="M94.5992 46.9715V31.3326L84.3191 41.0112L94.5992 46.9715Z" fill="#9CD6EF"/>
<path d="M50.6352 21.5992L59.0562 16.7326L53.9161 7.81947L50.6352 21.5992Z" fill="#26B2E3"/>
<path d="M53.9161 7.81947L59.0562 16.7326L67.4771 11.8659L53.9161 7.81947Z" fill="#66C6EB"/>
<path d="M67.4771 62.6105L81.3663 54.627L67.4771 50.7446V62.6105Z" fill="#0D6394"/>
<path d="M94.5992 46.9715L84.3191 41.0112L81.3663 54.627L94.5992 46.9715Z" fill="#2AA9E1"/>
<path d="M75.8981 45.8779L81.3663 54.627L84.3191 41.0112L75.8981 45.8779Z" fill="#198BCA"/>
<path d="M67.4771 50.7446L81.3663 54.627L75.8981 45.8779L67.4771 50.7446Z" fill="#0D4972"/>
<path d="M67.4771 50.7446L53.9161 54.791L67.4771 62.6105V50.7446Z" fill="#0B79B7"/>
<path d="M40.355 46.9715L53.9161 54.791L50.6352 41.0112L40.355 46.9715Z" fill="#66C6EB"/>
<path d="M50.6352 41.0112L53.9161 54.791L59.0562 45.8779L50.6352 41.0112Z" fill="#139DD9"/>
<path d="M59.0562 45.8779L53.9161 54.791L67.4771 50.7446L59.0562 45.8779Z" fill="#198BCA"/>
<path d="M84.3191 21.5992V31.3326H94.5992L84.3191 21.5992Z" fill="#26B2E3"/>
<path d="M94.5992 31.2779H84.3191V41.0112L94.5992 31.2779Z" fill="#66C6EB"/>
<path d="M81.3116 7.98352L67.4225 11.8659L75.8434 16.7326L81.3116 7.98352Z" fill="#0D6394"/>
<path d="M81.3116 7.98352L75.8434 16.7326L84.2644 21.5993L81.3116 7.98352Z" fill="#0B79B7"/>
<path d="M0 69.7738V65.8367C0 65.3446 0.218727 64.8524 0.546816 64.5243C0.874906 64.1963 1.36704 63.9775 1.85918 63.9775H9.07715V65.1258H1.85918C1.69513 65.1258 1.4764 65.1805 1.36704 65.3446C1.25768 65.5086 1.14831 65.6727 1.14831 65.8367V69.7738C1.14831 69.9378 1.203 70.1565 1.36704 70.2659C1.4764 70.3753 1.69513 70.4846 1.85918 70.4846H7.4367C7.54607 70.4846 7.60075 70.4846 7.71011 70.43C7.81948 70.3753 7.87416 70.3206 7.92884 70.2659C7.98352 70.2112 8.0382 70.1019 8.09288 70.0472C8.14757 69.9378 8.14756 69.8831 8.14756 69.7738V68.4067H3.55431V67.2584H9.29588V69.8285C9.29588 70.0472 9.2412 70.3206 9.18652 70.5393C9.13183 70.758 8.96779 70.9768 8.80375 71.1408C8.6397 71.3049 8.42097 71.4689 8.20225 71.5236C7.98352 71.633 7.76479 71.6876 7.49139 71.6876H1.85918C1.36704 71.6876 0.874906 71.4689 0.546816 71.1408C0.218727 70.7581 0 70.2659 0 69.7738Z" fill="#302F2F"/>
<path d="M25.9738 69.7738V63.9775H27.1768V69.7738C27.1768 69.9378 27.2314 70.1565 27.3955 70.2659C27.5048 70.3753 27.7236 70.4846 27.8876 70.4846H34.5588V71.633H27.8329C27.3408 71.633 26.8487 71.4142 26.5206 71.0861C26.1925 70.758 25.9738 70.2659 25.9738 69.7738Z" fill="#302F2F"/>
<path d="M51.5101 69.7738V65.8367C51.5101 65.618 51.5648 65.3446 51.6195 65.1258C51.6741 64.9071 51.8382 64.6884 52.0022 64.5243C52.1663 64.3603 52.385 64.1963 52.6037 64.1416C52.8225 64.0322 53.0959 63.9775 53.3146 63.9775H58.8921C59.1109 63.9775 59.3843 64.0322 59.603 64.1416C59.8217 64.2509 60.0404 64.3603 60.2045 64.5243C60.3685 64.6884 60.5326 64.9071 60.5873 65.1258C60.6419 65.3446 60.6966 65.618 60.6966 65.8367V69.7738C60.6966 69.9925 60.6419 70.2659 60.5873 70.4846C60.5326 70.7034 60.3685 70.9221 60.2045 71.0861C60.0404 71.2502 59.8217 71.4142 59.603 71.4689C59.3843 71.5783 59.1109 71.633 58.8921 71.633H53.3146C53.0959 71.633 52.8225 71.5783 52.6037 71.4689C52.385 71.3595 52.1663 71.2502 52.0022 71.0861C51.8382 70.9221 51.6741 70.7034 51.6195 70.4846C51.5648 70.2659 51.5101 69.9925 51.5101 69.7738ZM52.6584 65.8367V69.7738C52.6584 69.9378 52.7678 70.1019 52.8771 70.2112C52.9865 70.3206 53.1506 70.43 53.3693 70.43H58.9468C59.1109 70.43 59.3296 70.3753 59.4389 70.2112C59.5483 70.1019 59.6577 69.8831 59.6577 69.7191V65.8367C59.6577 65.6727 59.603 65.4539 59.4389 65.3446C59.3296 65.2352 59.1109 65.1258 58.9468 65.1258H53.3693C53.2052 65.1258 53.0412 65.1805 52.8771 65.3446C52.7131 65.5086 52.6584 65.6727 52.6584 65.8367Z" fill="#302F2F"/>
<path d="M77.4839 63.9775H84.9206C85.1393 63.9775 85.4127 64.0322 85.6315 64.1416C85.8502 64.2509 86.0689 64.3603 86.233 64.5243C86.397 64.6884 86.561 64.9071 86.6157 65.1258C86.6704 65.3446 86.7251 65.618 86.7251 65.8367V66.821C86.7251 67.3131 86.561 67.4225 86.233 67.7506C86.561 68.0786 86.7251 68.5708 86.7251 69.0082V69.7191C86.7251 69.9378 86.6704 70.2112 86.6157 70.43C86.561 70.6487 86.397 70.8674 86.233 71.0315C86.0689 71.1955 85.8502 71.3595 85.6315 71.4142C85.4127 71.5236 85.1393 71.5783 84.9206 71.5783H77.4839V63.9775ZM85.6315 69.7738V69.0629C85.6315 68.8989 85.5768 68.6801 85.4127 68.5708C85.2487 68.4614 85.0846 68.3521 84.9206 68.3521H79.1243V67.2037H84.9206C85.3034 67.2037 85.6315 67.2037 85.6315 66.821V65.8367C85.6315 65.7273 85.6315 65.6727 85.5768 65.5633C85.5221 65.4539 85.4674 65.3992 85.4127 65.3446C85.358 65.2899 85.2487 65.2352 85.194 65.1805C85.0846 65.1258 85.03 65.1258 84.9206 65.1258H78.6322V70.43H84.9206C85.0846 70.43 85.2487 70.3753 85.4127 70.2112C85.5221 70.1019 85.6315 69.9378 85.6315 69.7738Z" fill="#302F2F"/>
<path d="M111.605 68.4067H104.606V71.633H103.458V65.8367C103.458 65.3446 103.676 64.8524 104.004 64.5243C104.333 64.1963 104.825 63.9775 105.317 63.9775H110.894C111.113 63.9775 111.387 64.0322 111.605 64.1416C111.824 64.2509 112.043 64.3603 112.207 64.5243C112.371 64.6884 112.535 64.9071 112.59 65.1258C112.699 65.3446 112.699 65.618 112.699 65.8367V71.633H111.551L111.605 68.4067ZM111.605 65.8914C111.605 65.782 111.605 65.7273 111.551 65.618C111.496 65.5086 111.441 65.4539 111.387 65.3992C111.332 65.3446 111.222 65.2899 111.168 65.2352C111.058 65.1805 111.004 65.1805 110.894 65.1805H105.317C105.207 65.1805 105.153 65.1805 105.043 65.2352C104.934 65.2899 104.879 65.3446 104.825 65.3992C104.77 65.4539 104.715 65.5633 104.661 65.618C104.606 65.6727 104.606 65.782 104.606 65.8914V67.2584H111.605V65.8914Z" fill="#302F2F"/>
<path d="M129.431 69.7738V63.9775H130.58V69.7738C130.58 69.9378 130.634 70.1565 130.798 70.2659C130.963 70.3753 131.127 70.4846 131.291 70.4846H137.962V71.633H131.291C130.799 71.633 130.306 71.4142 129.978 71.0861C129.596 70.758 129.431 70.2659 129.431 69.7738Z" fill="#302F2F"/>
<path d="M138.016 45.6592H140.477V46.4794H139.657V50.1431H138.782V46.4794H137.962L138.016 45.6592Z" fill="black"/>
<path d="M141.516 45.6592H142.336L143.375 48.776L144.414 45.6592H145.234L146 50.1431H145.18L144.688 47.2996L143.703 50.1431H142.938L142.008 47.2996L141.516 50.1431H140.696L141.516 45.6592Z" fill="black"/>
</g>
<defs>
<clipPath id="clip0_89_4763">
<rect width="146" height="71.6876" fill="white"/>
</clipPath>
</defs>
</svg>
