<svg width="30" height="31" viewBox="0 0 30 31" fill="none" xmlns="http://www.w3.org/2000/svg">
<g clip-path="url(#clip0_89_4610)">
<path d="M15 30.8438C6.72921 30.8438 0 24.1146 0 15.8438C0 7.57303 6.72921 0.843826 15 0.843826C23.2708 0.843826 30 7.57303 30 15.8438C30 24.1146 23.2708 30.8438 15 30.8438ZM15 2.32897C7.54752 2.32897 1.48515 8.39135 1.48515 15.8438C1.48515 23.2963 7.54752 29.3587 15 29.3587C22.4525 29.3587 28.5149 23.2963 28.5149 15.8438C28.5149 8.39135 22.4525 2.32897 15 2.32897Z" fill="#282828"/>
<path d="M15 21.3389C11.3153 21.3389 8.31683 18.3404 8.31683 14.6557C8.31683 10.971 11.3153 7.97253 15 7.97253C18.6847 7.97253 21.6832 10.971 21.6832 14.6557C21.6832 18.3404 18.6847 21.3389 15 21.3389ZM15 9.45768C12.1337 9.45768 9.80198 11.7894 9.80198 14.6557C9.80198 17.522 12.1337 19.8537 15 19.8537C17.8663 19.8537 20.198 17.522 20.198 14.6557C20.198 11.7894 17.8663 9.45768 15 9.45768Z" fill="#282828"/>
<path d="M5.46534 27.1904C5.35246 27.1904 5.23811 27.1651 5.12969 27.1102C4.76435 26.9245 4.6188 26.4775 4.80444 26.1121C7.6589 20.4894 14.5559 18.2379 20.1787 21.0923C22.3574 22.1988 24.0921 23.9334 25.1985 26.1121C25.3841 26.4775 25.2386 26.9245 24.8733 27.1102C24.5079 27.2958 24.0609 27.1503 23.8752 26.7849C22.9129 24.8899 21.4025 23.3795 19.5074 22.4171C14.6153 19.9339 8.61385 21.8928 6.13068 26.7849C5.99999 27.0433 5.7386 27.1919 5.46831 27.1919L5.46534 27.1904Z" fill="#282828"/>
</g>
<defs>
<clipPath id="clip0_89_4610">
<rect width="30" height="30" fill="white" transform="translate(0 0.843826)"/>
</clipPath>
</defs>
</svg>
