<svg width="30" height="30" viewBox="0 0 30 30" fill="none" xmlns="http://www.w3.org/2000/svg">
<path d="M19.4531 5.39062C20.8206 5.39062 22.1322 5.93387 23.0991 6.90086C24.0661 7.86784 24.6094 9.17935 24.6094 10.5469V19.4531C24.6094 20.8206 24.0661 22.1322 23.0991 23.0991C22.1322 24.0661 20.8206 24.6094 19.4531 24.6094H10.5469C9.17935 24.6094 7.86784 24.0661 6.90086 23.0991C5.93387 22.1322 5.39062 20.8206 5.39062 19.4531V10.5469C5.39062 9.17935 5.93387 7.86784 6.90086 6.90086C7.86784 5.93387 9.17935 5.39062 10.5469 5.39062H19.4531ZM19.4531 3.51562H10.5469C8.68378 3.52119 6.89859 4.26377 5.58118 5.58118C4.26377 6.89859 3.52119 8.68378 3.51562 10.5469V19.4531C3.52119 21.3162 4.26377 23.1014 5.58118 24.4188C6.89859 25.7362 8.68378 26.4788 10.5469 26.4844H19.4531C21.3162 26.4788 23.1014 25.7362 24.4188 24.4188C25.7362 23.1014 26.4788 21.3162 26.4844 19.4531V10.5469C26.4788 8.68378 25.7362 6.89859 24.4188 5.58118C23.1014 4.26377 21.3162 3.52119 19.4531 3.51562Z" fill="black"/>
<path d="M21.1266 7.5C20.8609 7.5 20.6013 7.57876 20.3804 7.72633C20.1596 7.8739 19.9875 8.08364 19.8858 8.32904C19.7842 8.57443 19.7576 8.84446 19.8094 9.10497C19.8612 9.36548 19.9891 9.60477 20.1769 9.79259C20.3648 9.98041 20.6041 10.1083 20.8646 10.1601C21.1251 10.212 21.3951 10.1854 21.6405 10.0837C21.8859 9.98206 22.0956 9.80993 22.2432 9.58908C22.3908 9.36823 22.4695 9.10858 22.4695 8.84297C22.4695 8.66661 22.4348 8.49197 22.3673 8.32904C22.2998 8.1661 22.2009 8.01805 22.0762 7.89335C21.9515 7.76864 21.8034 7.66972 21.6405 7.60223C21.4776 7.53474 21.3029 7.5 21.1266 7.5Z" fill="black"/>
<path d="M15.0633 10.8914C15.883 10.8909 16.6845 11.1336 17.3663 11.5887C18.0481 12.0439 18.5796 12.691 18.8935 13.4483C19.2074 14.2056 19.2897 15.0389 19.1299 15.8429C18.9701 16.647 18.5754 17.3855 17.9957 17.9652C17.416 18.5448 16.6775 18.9395 15.8735 19.0994C15.0694 19.2592 14.2361 19.1769 13.4788 18.863C12.7215 18.5491 12.0744 18.0176 11.6192 17.3358C11.1641 16.654 10.9214 15.8525 10.9219 15.0328C10.9237 13.935 11.3607 12.8827 12.1369 12.1064C12.9132 11.3302 13.9655 10.8932 15.0633 10.8914ZM15.0633 9.01637C13.8733 9.01869 12.7107 9.37371 11.7224 10.0366C10.7341 10.6994 9.9645 11.6404 9.51082 12.7405C9.05714 13.8406 8.93976 15.0505 9.1735 16.2173C9.40725 17.3842 9.98164 18.4555 10.8241 19.296C11.6665 20.1364 12.7392 20.7083 13.9065 20.9393C15.0739 21.1704 16.2835 21.0502 17.3826 20.5939C18.4817 20.1377 19.4208 19.3659 20.0814 18.376C20.7419 17.3862 21.0942 16.2228 21.0937 15.0328C21.0934 14.2416 20.9371 13.4582 20.6338 12.7275C20.3305 11.9968 19.886 11.333 19.3259 10.7742C18.7658 10.2154 18.101 9.77256 17.3696 9.47093C16.6382 9.16929 15.8545 9.01483 15.0633 9.01637Z" fill="black"/>
</svg>
