<svg width="30" height="30" viewBox="0 0 30 30" fill="none" xmlns="http://www.w3.org/2000/svg">
<path d="M19.3631 5C19.5577 5 19.7531 5 19.9485 5C19.9648 5.00326 19.9802 5.00733 19.9965 5.00896C20.244 5.02605 20.489 5.0635 20.7316 5.1156C21.2315 5.22225 21.6996 5.40787 22.1449 5.65535C22.5267 5.86783 22.8784 6.12265 23.2057 6.41165C23.248 6.4491 23.2879 6.45724 23.3433 6.44503C23.6437 6.38072 23.9433 6.31315 24.2355 6.21953C24.6833 6.07706 25.1156 5.90528 25.486 5.60325C25.657 5.46404 25.8629 5.41519 26.0835 5.4502C26.5232 5.52103 26.7991 5.89958 26.7674 6.31559C26.7462 6.59157 26.6705 6.85534 26.5704 7.11178C26.5362 7.1997 26.4987 7.28681 26.4621 7.37636C26.5012 7.38369 26.5289 7.36741 26.5574 7.3609C26.9375 7.26728 27.3454 7.47894 27.4854 7.84366C27.5986 8.13755 27.5489 8.40865 27.3592 8.65369C27.0393 9.06726 26.7031 9.46698 26.3538 9.85612C26.0314 10.2151 25.7042 10.5693 25.3362 10.8819C25.2361 10.9674 25.1978 11.0496 25.2027 11.1856C25.2279 11.8433 25.1742 12.4979 25.0822 13.1492C24.9674 13.9641 24.7745 14.7619 24.5164 15.5443C24.2176 16.4487 23.8301 17.3141 23.3636 18.1445C22.8532 19.053 22.2532 19.8997 21.5783 20.6943C21.0337 21.3358 20.4451 21.9333 19.8182 22.4951C19.4926 22.7865 19.1596 23.0698 18.7908 23.3083C18.396 23.564 17.9897 23.7984 17.5721 24.0142C16.8476 24.3878 16.0937 24.6931 15.3195 24.9439C14.6104 25.1735 13.8867 25.3444 13.1507 25.4616C12.5841 25.552 12.0142 25.6139 11.4403 25.6342C10.5855 25.6644 9.73312 25.6302 8.88401 25.5129C8.52906 25.4633 8.17737 25.4006 7.82649 25.329C7.29651 25.2199 6.77467 25.0782 6.25934 24.9129C5.68784 24.729 5.12774 24.514 4.58067 24.2682C4.05313 24.0321 3.54024 23.7675 3.03387 23.4883C2.78801 23.3507 2.61298 23.1675 2.54541 22.8899C2.54541 22.7841 2.54541 22.6782 2.54541 22.5724C2.55274 22.5488 2.55925 22.526 2.56658 22.5024C2.68218 22.1352 3.0241 21.9024 3.40754 21.9333C3.63224 21.9512 3.85774 21.9675 4.08325 21.9708C4.43494 21.9748 4.78582 21.9545 5.1367 21.926C5.61783 21.8869 6.09245 21.808 6.563 21.7005C6.94563 21.6126 7.32175 21.5002 7.68972 21.3635C7.89406 21.2877 8.09596 21.2071 8.29379 21.1168C8.30437 21.1119 8.31984 21.1086 8.32147 21.0956C8.32309 21.0777 8.30437 21.0753 8.29216 21.0696C8.23273 21.0435 8.17248 21.0183 8.11306 20.9922C7.62215 20.7789 7.15974 20.5184 6.73967 20.1846C6.39693 19.9119 6.09327 19.6026 5.83845 19.2468C5.48513 18.7534 5.25393 18.2064 5.13344 17.6121C5.07564 17.3296 5.14565 17.0796 5.34429 16.8688C5.37604 16.8346 5.37523 16.8167 5.34104 16.7874C5.07401 16.557 4.82734 16.3071 4.60265 16.0352C4.00265 15.3082 3.61351 14.4859 3.48488 13.5481C3.43604 13.1931 3.43197 12.8357 3.45558 12.4775C3.48081 12.0868 3.69085 11.8043 4.06452 11.6919C4.13291 11.6716 4.1321 11.6716 4.0979 11.6056C3.97497 11.3663 3.86914 11.1196 3.78203 10.8656C3.55978 10.2225 3.45313 9.56223 3.48407 8.88164C3.49872 8.55193 3.54431 8.22629 3.61921 7.90472C3.73481 7.40893 3.9131 6.93594 4.14675 6.48492C4.22572 6.33187 4.29166 6.16905 4.4154 6.04368C4.81024 5.64477 5.38337 5.77503 5.65202 6.14626C5.8295 6.39211 6.0143 6.63146 6.21538 6.8586C6.68105 7.38369 7.19719 7.85424 7.75485 8.28002C8.28402 8.68463 8.84249 9.04446 9.43027 9.3587C9.99933 9.66318 10.5887 9.92369 11.1969 10.1402C11.63 10.2949 12.0696 10.4276 12.5157 10.5383C12.9716 10.6515 13.4324 10.7419 13.8981 10.807C13.9933 10.82 13.9966 10.8176 13.9901 10.7223C13.9746 10.4903 13.9787 10.2591 14.0006 10.0279C14.0715 9.27811 14.3133 8.58449 14.6837 7.93321C14.9328 7.49441 15.2308 7.09061 15.5686 6.71694C15.7331 6.53458 15.8959 6.3506 16.0986 6.20569C16.6188 5.83527 17.1773 5.53975 17.7797 5.32727C18.133 5.20271 18.4953 5.11153 18.8665 5.05536C19.031 5.03012 19.1971 5.01954 19.3631 5ZM23.8969 7.98694C23.8969 7.98694 23.8936 7.9788 23.8912 7.97554C23.8692 7.9788 23.8472 7.98206 23.826 7.98613C23.6233 8.03009 23.4182 8.06265 23.2138 8.09766C22.9786 8.13836 22.7555 8.11557 22.552 7.98043C22.4396 7.90553 22.3509 7.80295 22.2516 7.7134C21.9023 7.39753 21.5254 7.12562 21.0955 6.92861C20.3124 6.56878 19.5056 6.52237 18.6777 6.73322C18.225 6.84883 17.8017 7.03363 17.4003 7.27053C17.2497 7.35927 17.0934 7.44394 16.9689 7.56768C16.675 7.85913 16.412 8.17744 16.1914 8.52832C15.7876 9.16983 15.5458 9.85694 15.5938 10.6271C15.6101 10.8925 15.659 11.1505 15.764 11.3972C15.8877 11.6862 15.8641 11.9638 15.6769 12.217C15.4986 12.458 15.2503 12.5638 14.9531 12.541C14.6755 12.519 14.3979 12.4946 14.1219 12.4621C13.6595 12.4075 13.1996 12.3351 12.7437 12.2398C12.2935 12.1462 11.8482 12.0363 11.4077 11.9028C10.763 11.7074 10.1312 11.4762 9.5182 11.1961C8.91413 10.9202 8.33205 10.6051 7.77113 10.2485C7.12311 9.83577 6.51253 9.37417 5.94266 8.85885C5.70901 8.64718 5.48188 8.429 5.26614 8.19861C5.22543 8.15465 5.21648 8.15627 5.20264 8.21245C5.18392 8.29142 5.16845 8.3712 5.15217 8.45098C5.08052 8.81326 5.07564 9.1796 5.11716 9.54432C5.17008 10.0075 5.31336 10.4447 5.52747 10.8591C5.85229 11.4876 6.29109 12.0224 6.84224 12.4669C7.08484 12.6623 7.19393 12.9188 7.14509 13.2273C7.09543 13.5375 6.91144 13.7459 6.61999 13.8639C6.45147 13.9315 6.27888 13.9112 6.10792 13.8957C5.80996 13.868 5.51444 13.8224 5.22625 13.7418C5.17089 13.7264 5.16031 13.7378 5.1774 13.7947C5.19938 13.8688 5.22299 13.9421 5.25067 14.0146C5.45664 14.5551 5.78391 15.0126 6.2048 15.4059C6.81782 15.9774 7.52772 16.3885 8.31332 16.6718C8.38252 16.697 8.44928 16.7263 8.50952 16.7687C8.79039 16.964 8.91576 17.2913 8.83923 17.6251C8.76678 17.9385 8.49894 18.1836 8.16353 18.2316C7.8558 18.2756 7.54644 18.3081 7.23464 18.3195C7.21591 18.3195 7.18824 18.3098 7.18009 18.3326C7.17277 18.3521 7.19556 18.3684 7.20696 18.3838C7.4056 18.6452 7.64576 18.8633 7.91279 19.053C8.27181 19.3078 8.66176 19.5024 9.07451 19.6538C9.47423 19.8004 9.88373 19.9111 10.3054 19.9779C10.43 19.9974 10.557 20.0055 10.675 20.0536C10.9771 20.1749 11.1554 20.4004 11.1928 20.7219C11.2278 21.0223 11.1081 21.2674 10.8712 21.4514C10.7475 21.5474 10.6197 21.6378 10.4902 21.7257C9.992 22.062 9.46854 22.3534 8.91983 22.5993C8.28483 22.8842 7.62866 23.104 6.95215 23.2628C6.85038 23.2864 6.74781 23.3116 6.6436 23.336C6.65907 23.3596 6.68024 23.3613 6.69896 23.367C7.17114 23.5208 7.64983 23.6503 8.13504 23.7528C8.74236 23.8815 9.35619 23.9694 9.97572 24.0101C10.5033 24.0451 11.0316 24.0467 11.5608 24.0174C12.1526 23.9841 12.7396 23.9132 13.3209 23.8001C13.9982 23.6682 14.6633 23.4858 15.3113 23.2481C16.0668 22.9713 16.7971 22.6375 17.4899 22.2264C17.7642 22.0636 18.0394 21.9 18.2877 21.6981C18.641 21.4099 18.9772 21.1021 19.3021 20.7838C19.9379 20.1602 20.5232 19.4935 21.0467 18.7722C21.5531 18.0745 21.9951 17.3377 22.3664 16.5594C22.806 15.6395 23.1341 14.6829 23.3457 13.6857C23.4157 13.3551 23.4719 13.023 23.5134 12.6876C23.5525 12.3684 23.5777 12.0485 23.5908 11.7277C23.6038 11.3915 23.5948 11.0569 23.5647 10.7223C23.5452 10.5009 23.5965 10.3039 23.7324 10.128C23.8073 10.0312 23.9066 9.9644 24.0076 9.89927C24.1313 9.81867 24.2429 9.72261 24.3528 9.61922C24.3235 9.60212 24.3023 9.6127 24.2811 9.61677C24.1053 9.65015 23.9343 9.63306 23.7756 9.55327C23.2179 9.27404 23.1552 8.54786 23.6543 8.17256C23.7349 8.1115 23.8171 8.05207 23.8993 7.99183L23.8969 7.98694Z" fill="black"/>
</svg>
