<svg width="14" height="16" viewBox="0 0 14 16" fill="none" xmlns="http://www.w3.org/2000/svg">
<path d="M11.1832 2.15144C9.89974 0.92631 8.15898 0.238037 6.34387 0.238037C4.52876 0.238037 2.788 0.92631 1.50452 2.15144C0.221049 3.37658 -0.5 5.03822 -0.5 6.77082C-0.5 8.50342 0.221049 10.1651 1.50452 11.3902L4.05482 13.8246C4.11282 13.8799 4.18167 13.9238 4.25745 13.9538C4.33322 13.9838 4.41444 13.9992 4.49646 13.9992C4.57848 13.9992 4.65969 13.9838 4.73547 13.9538C4.81125 13.9238 4.8801 13.8799 4.93809 13.8246C4.99609 13.7692 5.0421 13.7035 5.07348 13.6312C5.10487 13.5588 5.12103 13.4813 5.12103 13.403C5.12103 13.3247 5.10487 13.2472 5.07348 13.1749C5.0421 13.1025 4.99609 13.0368 4.93809 12.9814L2.3878 10.5471C1.60418 9.8 1.07031 8.84784 0.853732 7.81108C0.637159 6.77431 0.747615 5.69952 1.17113 4.72269C1.59464 3.74586 2.31217 2.91089 3.23294 2.32341C4.15372 1.73594 5.23635 1.42237 6.34387 1.42237C7.45139 1.42237 8.53402 1.73594 9.45479 2.32341C10.3756 2.91089 11.0931 3.74586 11.5166 4.72269C11.9401 5.69952 12.0506 6.77431 11.834 7.81108C11.6174 8.84784 11.0836 9.8 10.2999 10.5471L5.90223 14.7449C5.84393 14.8001 5.79766 14.8657 5.76608 14.9381C5.7345 15.0105 5.71824 15.0881 5.71824 15.1664C5.71824 15.2448 5.7345 15.3224 5.76608 15.3948C5.79766 15.4671 5.84393 15.5328 5.90223 15.588C5.96006 15.6437 6.02885 15.6878 6.10465 15.718C6.18045 15.7481 6.26175 15.7636 6.34387 15.7636C6.42598 15.7636 6.50729 15.7481 6.58308 15.718C6.65888 15.6878 6.72768 15.6437 6.7855 15.588L11.1832 11.3902C11.8189 10.7837 12.3232 10.0635 12.6673 9.27093C13.0113 8.47832 13.1884 7.62877 13.1884 6.77082C13.1884 5.91287 13.0113 5.06332 12.6673 4.27071C12.3232 3.4781 11.8189 2.75797 11.1832 2.15144Z" fill="#646B77"/>
<path d="M9.45413 6.8125C9.45413 6.22534 9.27172 5.65136 8.92998 5.16315C8.58823 4.67494 8.1025 4.29443 7.5342 4.06973C6.9659 3.84504 6.34056 3.78625 5.73725 3.9008C5.13395 4.01534 4.57978 4.29809 4.14482 4.71328C3.70986 5.12847 3.41365 5.65745 3.29365 6.23333C3.17364 6.80921 3.23523 7.40612 3.47063 7.94859C3.70603 8.49106 4.10466 8.95472 4.61612 9.28093C5.12757 9.60714 5.72888 9.78125 6.34401 9.78125C7.16886 9.78125 7.95993 9.46847 8.54319 8.91173C9.12645 8.35498 9.45413 7.59986 9.45413 6.8125ZM4.47794 6.8125C4.47794 6.4602 4.58738 6.11582 4.79243 5.82289C4.99747 5.52997 5.28891 5.30166 5.62989 5.16684C5.97087 5.03202 6.34608 4.99675 6.70806 5.06548C7.07004 5.13421 7.40254 5.30386 7.66352 5.55297C7.92449 5.80208 8.10222 6.11947 8.17422 6.465C8.24623 6.81053 8.20927 7.16868 8.06803 7.49416C7.92679 7.81964 7.68761 8.09783 7.38074 8.29356C7.07387 8.48928 6.71308 8.59375 6.34401 8.59375C5.84909 8.59375 5.37445 8.40609 5.0245 8.07204C4.67454 7.73799 4.47794 7.28492 4.47794 6.8125Z" fill="#646B77"/>
</svg>
