<?xml version="1.0" encoding="UTF-8"?>
<svg version="1.1" xmlns="http://www.w3.org/2000/svg" width="445" height="257">
<path d="M0 0 C3.65466612 3.30411651 6.33451728 6.8383693 7.31640625 11.73828125 C7.56860071 16.88304832 5.91942039 21.05130034 3.9140625 25.73046875 C4.8834375 26.20484375 5.8528125 26.67921875 6.8515625 27.16796875 C9.9140625 28.73046875 9.9140625 28.73046875 10.9140625 29.73046875 C10.96577809 32.74203999 10.95545885 35.73175855 10.90625 38.7421875 C10.88869903 40.63475994 10.8717942 42.52733846 10.85546875 44.41992188 C10.82480074 47.39934296 10.78968599 50.37845568 10.74267578 53.35766602 C10.58482184 63.91348318 10.51470858 73.72203044 13.35986328 83.96411133 C13.95863059 86.95293618 13.784226 88.82854808 12.9140625 91.73046875 C8.1779208 97.75565207 0.06679245 102.21802478 -7.44140625 103.14453125 C-13.29726812 103.2901007 -17.21691203 103.23008081 -22.0859375 99.73046875 C-27.67111628 93.66656036 -28.49031013 87.83896302 -29.2109375 79.91796875 C-29.29730469 79.03431641 -29.38367188 78.15066406 -29.47265625 77.24023438 C-29.68372194 75.07094817 -29.88573176 72.90078417 -30.0859375 70.73046875 C-30.7046875 71.55546875 -31.3234375 72.38046875 -31.9609375 73.23046875 C-32.6621875 74.05546875 -33.3634375 74.88046875 -34.0859375 75.73046875 C-34.7459375 75.73046875 -35.4059375 75.73046875 -36.0859375 75.73046875 C-36.32570313 76.29378906 -36.56546875 76.85710937 -36.8125 77.4375 C-41.76642665 86.35760719 -51.81407935 93.11390985 -60.0859375 98.73046875 C-61.12621094 99.46265625 -62.16648437 100.19484375 -63.23828125 100.94921875 C-68.04745121 103.62339375 -73.08376131 103.39020503 -78.4609375 103.35546875 C-79.4509375 103.38769531 -80.4409375 103.41992188 -81.4609375 103.453125 C-88.84408124 103.4628653 -93.545679 101.62573129 -99.0859375 96.73046875 C-106.28971327 88.8689163 -107.57665558 81.15639775 -107.390625 70.625 C-105.78396113 50.08854004 -91.35965079 27.94953341 -76.0859375 14.73046875 C-55.5781225 -1.90952225 -24.97558619 -18.39111347 0 0 Z M-38.0859375 8.73046875 C-49.83811314 15.16090448 -59.81695647 32.97136439 -63.88671875 45.12109375 C-65.95010541 53.15005407 -66.10783858 60.67113185 -62.546875 68.234375 C-60.26171256 70.57452798 -58.28678358 70.60385926 -55.0859375 70.73046875 C-46.28161143 67.36780222 -39.21471239 59.45368838 -32.56640625 53.03515625 C-29.52436331 50.1039022 -26.36554333 47.39232341 -23.0859375 44.73046875 C-26.87306943 43.46809144 -29.34245683 44.05488002 -33.2734375 44.66796875 C-35.18189453 44.95994141 -35.18189453 44.95994141 -37.12890625 45.2578125 C-38.10472656 45.41378906 -39.08054687 45.56976563 -40.0859375 45.73046875 C-39.48800529 41.93903498 -38.36939137 38.99610488 -36.5859375 35.60546875 C-33.97908496 30.61910546 -32.93084772 27.02077608 -32.8984375 21.35546875 C-32.88425781 20.23398438 -32.87007812 19.1125 -32.85546875 17.95703125 C-33.08574184 14.73320804 -33.53776442 12.55935644 -35.0859375 9.73046875 C-36.0759375 9.40046875 -37.0659375 9.07046875 -38.0859375 8.73046875 Z " fill="#27F106" transform="translate(326.0859375,54.26953125)"/>
<path d="M0 0 C6.87955209 4.82775585 9.59592493 12.40992263 11.53125 20.3125 C13.3857873 42.10331327 6.31642156 65.20558367 -7.03125 82.5 C-23.93028561 102.348083 -23.93028561 102.348083 -33.5546875 103.5390625 C-35.78125 103.5625 -35.78125 103.5625 -39.21875 103.25 C-39.87875 100.94 -40.53875 98.63 -41.21875 96.25 C-40.290625 95.940625 -40.290625 95.940625 -39.34375 95.625 C-36.3642928 93.69711593 -36.28768515 91.58588442 -35.21875 88.25 C-34.35037791 86.54820579 -33.45265464 84.86117473 -32.53125 83.1875 C-22.64984911 63.665708 -17.4491891 40.92187844 -15.21875 19.25 C-18.8760735 22.47657207 -20.97890001 26.11279186 -23.09375 30.4375 C-23.43962158 31.1380249 -23.78549316 31.8385498 -24.1418457 32.56030273 C-27.52174771 39.58466153 -30.11305283 46.81515196 -32.54394531 54.21240234 C-33.18378772 56.14443011 -33.85280056 58.06672571 -34.5234375 59.98828125 C-36.95936466 67.03128805 -39.09085851 74.11875242 -41.03125 81.3125 C-41.36008179 82.50915283 -41.36008179 82.50915283 -41.69555664 83.72998047 C-42.81923301 88.00983212 -43.46890438 91.78295742 -43.21875 96.25 C-43.87875 96.25 -44.53875 96.25 -45.21875 96.25 C-45.08000385 100.02112931 -44.93153907 103.79181445 -44.78125 107.5625 C-44.74193359 108.63435547 -44.70261719 109.70621094 -44.66210938 110.81054688 C-44.62021484 111.83857422 -44.57832031 112.86660156 -44.53515625 113.92578125 C-44.48016968 115.3475769 -44.48016968 115.3475769 -44.42407227 116.7980957 C-44.30444813 119.386171 -44.30444813 119.386171 -43.21875 122.25 C-36.66169256 123.72199249 -32.84224708 122.48625866 -27.3515625 119.09765625 C-20.16098842 114.11623445 -14.40452694 107.33123857 -9.05078125 100.47265625 C-7.21875 98.25 -7.21875 98.25 -5.15625 97.25 C-3.21875 97.25 -3.21875 97.25 -1.62890625 98.4453125 C0.73743504 101.47370495 0.30532601 104.36459935 0.1875 108.0859375 C-1.56687921 121.74985247 -10.02347822 133.29539138 -20.23046875 142.10546875 C-32.60381999 150.98516787 -45.07183332 154.56008692 -60.21875 153.25 C-68.48921098 151.611408 -74.74962316 146.49488951 -80.21875 140.25 C-87.9391503 127.99652063 -87.74757533 114.2691922 -84.83520508 100.42407227 C-76.25920589 64.09240364 -55.25988127 24.30482167 -25.21875 1.25 C-16.95104681 -3.31955317 -8.5169239 -4.86681365 0 0 Z " fill="#27F107" transform="translate(433.21875,2.75)"/>
<path d="M0 0 C1.17175781 -0.01836914 1.17175781 -0.01836914 2.3671875 -0.03710938 C6.92675026 -0.04862342 10.79203194 0.20844002 15 2.1875 C16 5.1875 16 5.1875 15.00390625 7.28515625 C12.17819555 9.96765354 9.76205137 10.06084949 5.9375 10.625 C-6.77058778 12.80379089 -15.93765406 18.50720916 -23.6875 28.8125 C-32.00091096 41.24465566 -36.56658318 57.7253331 -34.53125 72.6171875 C-32.92253811 79.629073 -30.86508587 84.83176273 -25.1875 89.5 C-20.0622028 92.21339264 -16.00004249 92.69013312 -10.4375 91.1875 C-4.28341364 88.89151207 -1.34051991 84.54496605 1.8125 79 C5.5491394 70.15006459 5.44791022 58.20347335 2.375 49.125 C-1.06462328 41.15955661 -6.22154791 35.48191229 -13 30.1875 C-12.43867611 26.75308407 -11.51142792 25.34427621 -8.75 23.25 C-1.43263335 18.0963708 7.57266059 14.17226588 16.65625 14.703125 C21.02162966 15.60530346 24.4062623 17.61659534 28 20.1875 C28.5671875 20.56390625 29.134375 20.9403125 29.71875 21.328125 C36.11242611 26.48221084 38.38269198 35.75014567 39.27490234 43.60888672 C40.52412377 61.61237201 36.2104396 77.58723042 24.9375 91.78515625 C13.08263404 104.4899115 -5.47324658 113.06692295 -22.78515625 114.40234375 C-37.76454984 114.89573616 -54.58016979 110.5279935 -66.3203125 100.87890625 C-73.43770403 93.7118585 -76.19727068 85.64960477 -76.33007812 75.69458008 C-76.18105123 56.55911253 -69.84612497 41.42718882 -57 27.1875 C-56.39800781 26.50429687 -55.79601562 25.82109375 -55.17578125 25.1171875 C-40.92638843 9.88198763 -20.85975014 0.01721101 0 0 Z " fill="#27F206" transform="translate(77,41.8125)"/>
<path d="M0 0 C5.72288658 2.5689402 8.52001467 5.36249193 11.13671875 11.12109375 C11.94287109 14.76538086 11.94287109 14.76538086 12.34765625 18.7109375 C12.45948746 19.79905983 12.45948746 19.79905983 12.57357788 20.90916443 C13.47537694 30.47532844 13.59883136 40.08256961 13.76171875 49.68359375 C13.80002867 51.58139555 13.83908717 53.47918239 13.87890625 55.37695312 C13.97343881 59.9582075 14.05796383 64.53954211 14.13671875 69.12109375 C19.15475953 59.20370436 24.01674562 49.23059173 28.69491577 39.14855957 C37.5202741 20.1497745 37.5202741 20.1497745 41.82421875 11.37109375 C42.38496094 10.22125 42.94570312 9.07140625 43.5234375 7.88671875 C45.14122203 5.11337385 46.67267862 3.17121409 49.13671875 1.12109375 C52.07421875 0.55859375 52.07421875 0.55859375 55.13671875 1.12109375 C58.68254186 3.61928731 60.36327656 5.99755102 61.44921875 10.12109375 C65.30588457 32.48233886 55.6113219 48.19424655 43.234375 65.83203125 C34.5730911 77.91177689 25.36977527 89.34355535 15.13671875 100.12109375 C14.48832031 100.83394531 13.83992188 101.54679687 13.171875 102.28125 C8.37432959 107.40515904 3.22323944 111.19527062 -3.98828125 111.62109375 C-8.60400472 111.02551653 -10.45588944 110.30132611 -13.86328125 107.12109375 C-17.97794465 100.42696977 -20.19760832 93.3257038 -22.05078125 85.74609375 C-22.30561279 84.73385742 -22.56044434 83.72162109 -22.82299805 82.67871094 C-28.30662253 60.53035698 -34.51144186 26.25817886 -22.48828125 5.24609375 C-17.26777582 -2.38933936 -8.16381322 -2.5059454 0 0 Z " fill="#27F106" transform="translate(153.86328125,45.87890625)"/>
<path d="M0 0 C4.29 0 8.58 0 13 0 C18.445 11.88 18.445 11.88 24 24 C25.2375 21.525 26.475 19.05 27.75 16.5 C31.875 8.25 31.875 8.25 36 0 C40.29 0 44.58 0 49 0 C49 12.21 49 24.42 49 37 C45.7 37 42.4 37 39 37 C38.67 30.73 38.34 24.46 38 18 C35.03 24.27 32.06 30.54 29 37 C26.03 37 23.06 37 20 37 C18.68504458 34.39704724 17.37295014 31.79271967 16.0625 29.1875 C15.68931641 28.44951172 15.31613281 27.71152344 14.93164062 26.95117188 C14.57392578 26.23896484 14.21621094 25.52675781 13.84765625 24.79296875 C13.51773682 24.1383667 13.18781738 23.48376465 12.84790039 22.80932617 C12 21 12 21 11 18 C10.67 24.27 10.34 30.54 10 37 C6.7 37 3.4 37 0 37 C0 24.79 0 12.58 0 0 Z " fill="#656463" transform="translate(392,183)"/>
<path d="M0 0 C7.239375 -0.0928125 7.239375 -0.0928125 14.625 -0.1875 C16.89238037 -0.22846802 16.89238037 -0.22846802 19.20556641 -0.27026367 C21.01033447 -0.28150269 21.01033447 -0.28150269 22.8515625 -0.29296875 C24.07697754 -0.3086792 25.30239258 -0.32438965 26.56494141 -0.34057617 C30.38981207 0.03864874 32.75025038 0.9746091 36 3 C38.47432732 6.71149098 38.43432714 9.70016135 38 14 C36.9818126 16.76365152 36.09482585 17.90517415 34 20 C34.66 20.66 35.32 21.32 36 22 C36.43328034 24.15224223 36.7759727 26.32335566 37.0625 28.5 C37.54504561 32.89758116 37.54504561 32.89758116 39 37 C37.02090602 37.02686553 35.04171029 37.04633375 33.0625 37.0625 C31.96035156 37.07410156 30.85820312 37.08570313 29.72265625 37.09765625 C27 37 27 37 26 36 C25.53787367 32.3429262 25.29570827 28.67523137 25 25 C20.05 24.67 15.1 24.34 10 24 C10 28.29 10 32.58 10 37 C6.7 37 3.4 37 0 37 C0 24.79 0 12.58 0 0 Z M10 8 C10 10.64 10 13.28 10 16 C12.08304538 16.05418326 14.16649768 16.09287551 16.25 16.125 C17.41015625 16.14820313 18.5703125 16.17140625 19.765625 16.1953125 C22.82786046 16.0103949 24.44202751 15.60823023 27 14 C26.65555119 11.52733235 26.65555119 11.52733235 26 9 C22.99686252 7.49843126 20.20932478 7.90718796 16.875 7.9375 C15.59367187 7.94652344 14.31234375 7.95554688 12.9921875 7.96484375 C12.00476563 7.97644531 11.01734375 7.98804688 10 8 Z " fill="#656463" transform="translate(348,183)"/>
<path d="M0 0 C4.07707782 2.39468964 6.3086405 4.59402743 8.3125 8.875 C8.3125 10.195 8.3125 11.515 8.3125 12.875 C4.6021687 13.1674079 1.01434661 13.31669761 -2.6875 12.875 C-5.375 10.4375 -5.375 10.4375 -7.6875 7.875 C-11.86418706 6.3921006 -14.93063234 6.59467864 -19.0625 8.125 C-21.89583333 9.77083333 -21.89583333 9.77083333 -23.6875 12.875 C-24.23378736 17.71354515 -24.44686127 19.75968814 -21.6875 23.8125 C-17.95482253 26.37871576 -15.17468395 27.03306127 -10.6875 26.875 C-7.34665095 26.34658931 -7.34665095 26.34658931 -4.6875 24.875 C-4.0275 23.555 -3.3675 22.235 -2.6875 20.875 C1.2725 20.875 5.2325 20.875 9.3125 20.875 C7.58941082 27.12119829 5.63397945 30.00798081 0.34765625 33.74609375 C-6.31896789 37.4440868 -16.25328425 36.95425974 -23.49609375 35.19140625 C-28.61091539 33.11270133 -31.59510474 30.41695554 -34.6875 25.875 C-36.47218529 20.52094413 -36.73264547 14.07859806 -34.96875 8.671875 C-32.38572912 3.88078788 -28.99743334 0.79364784 -23.9765625 -1.203125 C-16.18985467 -3.38562268 -7.40606404 -3.42241592 0 0 Z " fill="#656463" transform="translate(194.6875,184.125)"/>
<path d="M0 0 C11.22 0 22.44 0 34 0 C34 2.64 34 5.28 34 8 C26.08 8 18.16 8 10 8 C10 9.65 10 11.3 10 13 C16.93 13 23.86 13 31 13 C31 15.64 31 18.28 31 21 C24.07 21 17.14 21 10 21 C10 23.64 10 26.28 10 29 C17.92 29 25.84 29 34 29 C34 31.64 34 34.28 34 37 C22.78 37 11.56 37 0 37 C0 24.79 0 12.58 0 0 Z " fill="#656463" transform="translate(122,183)"/>
<path d="M0 0 C3.3 0 6.6 0 10 0 C10 4.29 10 8.58 10 13 C15.61 13 21.22 13 27 13 C27 8.71 27 4.42 27 0 C30.3 0 33.6 0 37 0 C37 12.21 37 24.42 37 37 C33.7 37 30.4 37 27 37 C27 31.72 27 26.44 27 21 C21.39 21 15.78 21 10 21 C10 26.28 10 31.56 10 37 C6.7 37 3.4 37 0 37 C0 24.79 0 12.58 0 0 Z " fill="#656463" transform="translate(209,183)"/>
<path d="M0 0 C3.3 0 6.6 0 10 0 C10 4.29 10 8.58 10 13 C15.61 13 21.22 13 27 13 C27 8.71 27 4.42 27 0 C30.3 0 33.6 0 37 0 C37 12.21 37 24.42 37 37 C33.7 37 30.4 37 27 37 C27 31.72 27 26.44 27 21 C21.39 21 15.78 21 10 21 C10 26.28 10 31.56 10 37 C6.7 37 3.4 37 0 37 C0 24.79 0 12.58 0 0 Z " fill="#656463" transform="translate(5,183)"/>
<path d="M0 0 C3.63 0 7.26 0 11 0 C13.28345541 4.94571543 15.56198832 9.89365656 17.8359375 14.84375 C18.61062019 16.5282949 19.38665758 18.21221747 20.1640625 19.89550781 C21.2795904 22.31153636 22.39026828 24.72974223 23.5 27.1484375 C23.84998047 27.9036972 24.19996094 28.65895691 24.56054688 29.43710327 C27 34.77225659 27 34.77225659 27 37 C23.29207191 37.28328822 19.69795687 37.45269973 16 37 C13.73702662 34.54305747 13 33.3203746 13 30 C10.39127531 30.00600397 7.79454299 30.05326709 5.1875 30.125 C4.44951172 30.12242187 3.71152344 30.11984375 2.95117188 30.1171875 C0.49926004 30.1439914 0.49926004 30.1439914 -3 31 C-5.10258137 33.90918352 -5.10258137 33.90918352 -6 37 C-9.63 37 -13.26 37 -17 37 C-15.56211601 32.33472573 -13.67059409 28.00517317 -11.5234375 23.6328125 C-11.02827133 22.61343094 -11.02827133 22.61343094 -10.52310181 21.57345581 C-9.47718564 19.42226995 -8.42618383 17.2736159 -7.375 15.125 C-6.66111973 13.65901901 -5.94757462 12.19287475 -5.234375 10.7265625 C-3.49345409 7.14914173 -1.74797055 3.57398117 0 0 Z M4 12 C1.70954986 16.81209901 1.70954986 16.81209901 1 22 C3.64 22 6.28 22 9 22 C7.68 18.7 6.36 15.4 5 12 C4.67 12 4.34 12 4 12 Z " fill="#656463" transform="translate(319,183)"/>
<path d="M0 0 C10.56 0 21.12 0 32 0 C32 2.64 32 5.28 32 8 C24.74 8 17.48 8 10 8 C10 9.65 10 11.3 10 13 C16.93 13 23.86 13 31 13 C31 15.64 31 18.28 31 21 C24.07 21 17.14 21 10 21 C10 26.28 10 31.56 10 37 C6.7 37 3.4 37 0 37 C0 24.79 0 12.58 0 0 Z " fill="#656463" transform="translate(273,183)"/>
<path d="M0 0 C11.88 0 23.76 0 36 0 C36 2.64 36 5.28 36 8 C31.71 8 27.42 8 23 8 C23 17.57 23 27.14 23 37 C19.7 37 16.4 37 13 37 C13 27.43 13 17.86 13 8 C8.71 8 4.42 8 0 8 C0 5.36 0 2.72 0 0 Z " fill="#656463" transform="translate(83,183)"/>
<path d="M0 0 C3.3 0 6.6 0 10 0 C10 12.21 10 24.42 10 37 C6.7 37 3.4 37 0 37 C0 24.79 0 12.58 0 0 Z " fill="#656463" transform="translate(49,183)"/>
<path d="M0 0 C6.27 0 12.54 0 19 0 C19 2.64 19 5.28 19 8 C12.73 8 6.46 8 0 8 C0 5.36 0 2.72 0 0 Z " fill="#656463" transform="translate(66,201)"/>
</svg>
