<svg width="14" height="28" viewBox="0 0 14 28" fill="none" xmlns="http://www.w3.org/2000/svg">
<path d="M3.07453 21.4127C3.07453 19.7016 3.0558 17.9905 3.0839 16.2794C3.09327 15.6705 2.87938 15.4114 2.27051 15.4816C1.91143 15.5222 1.54766 15.5472 1.18702 15.5628C0.404854 15.5956 -0.0369696 15.2381 0.00674441 14.4715C0.0879276 13.0461 0.106662 11.627 0.00362198 10.2016C-0.040092 9.58961 0.314304 9.22741 0.935667 9.18682C1.32285 9.16184 1.71627 9.15091 2.10033 9.1915C2.8341 9.268 3.10888 8.99635 3.0917 8.23291C3.06048 6.91681 2.95119 5.58978 3.26344 4.28304C3.93788 1.45256 5.48348 0.139579 8.40139 0.0287331C9.87674 -0.0274706 11.3568 0.0115598 12.8337 0.0381004C13.6752 0.0537126 13.9702 0.340976 13.9859 1.16842C14.0108 2.54229 13.9874 3.91616 13.9999 5.29003C14.0062 5.95979 13.6908 6.31418 13.0288 6.33916C12.1483 6.37351 11.2678 6.41878 10.3873 6.39849C9.78463 6.386 9.51142 6.55773 9.44741 7.21188C9.25382 9.19618 9.22728 9.1915 11.171 9.17433C11.7674 9.16964 12.3638 9.17433 12.9601 9.17745C13.6158 9.18369 13.9859 9.49906 13.989 10.1719C13.9952 11.6239 13.9937 13.0758 13.9921 14.5277C13.9921 15.2506 13.5675 15.541 12.9055 15.5722C12.0749 15.6112 11.249 15.5472 10.4216 15.4941C9.3912 15.4286 9.30221 15.4941 9.3834 16.4855C9.60977 19.2535 9.21635 22.0247 9.45834 24.7943C9.5161 25.4594 9.3834 26.1369 9.38027 26.8098C9.37871 27.3968 9.08677 27.6966 8.53878 27.7028C7.03533 27.7231 5.53188 27.7294 4.02999 27.7028C3.3134 27.6888 3.06672 27.2126 3.06985 26.546C3.07765 24.8349 3.07297 23.1238 3.07297 21.4127H3.07453ZM4.84807 20.0497C4.84807 20.0497 4.84183 20.0497 4.84026 20.0497C4.84026 21.3456 4.84026 22.6429 4.84026 23.9387C4.84026 26.0058 4.8387 25.9808 6.90107 25.9808C7.56927 25.9808 7.75193 25.7294 7.72539 25.1096C7.6645 23.6858 7.588 22.2589 7.63328 20.8382C7.67075 19.6735 7.76286 18.5073 7.69729 17.3426C7.65357 16.5667 7.58332 15.7908 7.62391 15.0133C7.67231 14.0765 8.05793 13.7097 8.98685 13.6862C9.42711 13.6753 9.86894 13.6862 10.3092 13.6831C12.5402 13.6628 12.1967 14.0765 12.2482 11.6863C12.2607 11.0743 11.9844 10.9276 11.4458 10.9604C10.6449 11.0119 9.84083 11.0696 9.03993 11.0493C8.0267 11.0259 7.62391 10.6091 7.62391 9.59898C7.62391 8.58887 7.68167 7.58033 7.73163 6.57178C7.7972 5.23382 8.42013 4.59841 9.77058 4.5063C10.3389 4.46727 10.9103 4.49381 11.4817 4.48912C11.719 4.48756 12.0078 4.48912 12.0546 4.20654C12.1686 3.54147 12.1811 2.8639 12.05 2.19882C11.9953 1.92249 11.7127 1.90531 11.4754 1.90531C10.3092 1.90687 9.13673 1.84599 7.9783 1.93966C6.27658 2.07705 5.48505 2.82799 5.05727 4.47039C4.68414 5.90358 4.87461 7.3602 4.85744 8.80744C4.8309 10.9963 4.85119 11.0119 2.69047 11.0618C2.1097 11.0759 1.83961 11.2554 1.84273 11.8721C1.85366 14.0375 1.74438 13.6566 3.52884 13.6894C4.5249 13.7081 4.84026 14.0078 4.84651 14.993C4.859 16.6775 4.84963 18.3636 4.84963 20.0497H4.84807Z" fill="black"/>
</svg>
