<svg width="29" height="30" viewBox="0 0 29 30" fill="none" xmlns="http://www.w3.org/2000/svg">
<path d="M14.499 7.16197C11.764 7.16197 9.03 6.84697 6.376 6.22497C6.107 6.16197 5.94 5.89397 6.003 5.62397C6.066 5.35597 6.328 5.18897 6.605 5.25097C12.398 6.60897 18.555 6.43797 24.283 4.75297C24.553 4.67697 24.827 4.82597 24.904 5.09097C24.982 5.35697 24.831 5.63397 24.566 5.71197C21.295 6.67397 17.908 7.16197 14.499 7.16197Z" fill="black"/>
<path d="M24.424 24.362C24.377 24.362 24.33 24.355 24.282 24.341C17.923 22.47 11.075 22.47 4.716 24.341C4.447 24.416 4.172 24.268 4.095 24.003C4.017 23.737 4.168 23.46 4.433 23.382C10.978 21.456 18.021 21.456 24.566 23.382C24.831 23.46 24.982 23.737 24.904 24.003C24.84 24.222 24.64 24.362 24.424 24.362Z" fill="black"/>
<path d="M13.888 28.6389C13.79 28.6389 13.693 28.6109 13.606 28.5519C8.939 25.3669 6.153 20.1299 6.153 14.5429C6.153 10.0159 7.934 5.75493 11.17 2.54493C11.367 2.34793 11.684 2.35193 11.877 2.54693C12.072 2.74293 12.07 3.05993 11.875 3.25393C8.83 6.27493 7.153 10.2839 7.153 14.5429C7.153 19.7989 9.776 24.7279 14.171 27.7259C14.399 27.8809 14.457 28.1929 14.302 28.4209C14.204 28.5629 14.047 28.6389 13.888 28.6389Z" fill="black"/>
<path d="M15.153 28.6389C14.994 28.6389 14.837 28.5629 14.74 28.4209C14.585 28.1919 14.643 27.8809 14.871 27.7259C19.266 24.7279 21.889 19.7989 21.889 14.5429C21.889 9.28691 19.266 4.35791 14.871 1.35991C14.643 1.20491 14.585 0.89291 14.74 0.66491C14.896 0.43691 15.208 0.38091 15.435 0.53391C20.102 3.71891 22.888 8.95591 22.888 14.5429C22.888 20.1299 20.102 25.3669 15.435 28.5519C15.349 28.6099 15.251 28.6389 15.153 28.6389Z" fill="black"/>
<path d="M14.499 28.4899C14.223 28.4899 13.999 28.2659 13.999 27.9899V1.09595C13.999 0.819947 14.223 0.595947 14.499 0.595947C14.775 0.595947 14.999 0.819947 14.999 1.09595V27.9899C14.999 28.2669 14.775 28.4899 14.499 28.4899Z" fill="black"/>
<path d="M28.446 15.043H2.552C2.276 15.043 2.052 14.819 2.052 14.543C2.052 14.267 2.276 14.043 2.552 14.043H28.447C28.723 14.043 28.947 14.267 28.947 14.543C28.947 14.819 28.723 15.043 28.446 15.043Z" fill="black"/>
<path d="M14.499 29.043C6.504 29.043 -0.000999451 22.538 -0.000999451 14.543C-0.000999451 11.022 1.277 7.62397 3.599 4.97797C3.781 4.76997 4.096 4.74997 4.305 4.93197C4.512 5.11397 4.532 5.42997 4.351 5.63797C2.19 8.10097 0.999001 11.264 0.999001 14.543C0.999001 21.987 7.055 28.043 14.499 28.043C21.943 28.043 27.999 21.987 27.999 14.543C27.999 7.09897 21.943 1.04297 14.499 1.04297C11.421 1.04297 8.523 2.05097 6.12 3.95797C5.904 4.12997 5.59 4.09497 5.418 3.87697C5.246 3.66097 5.282 3.34697 5.499 3.17497C8.08 1.12597 11.192 0.0429688 14.499 0.0429688C22.494 0.0429688 28.999 6.54797 28.999 14.543C28.999 22.538 22.494 29.043 14.499 29.043Z" fill="black"/>
</svg>
