<svg width="30" height="30" viewBox="0 0 30 30" fill="none" xmlns="http://www.w3.org/2000/svg">
<path d="M20.5078 20.2809C20.5078 18.6251 20.5078 16.9597 20.5078 15.3039C20.5078 15.0264 20.4536 14.7679 20.3019 14.5287C19.9552 13.9735 19.3593 13.8874 18.7308 13.8778C18.5141 13.8778 18.2866 13.9065 18.0699 13.9544C17.4739 14.0788 17.1814 14.3564 17.0947 14.8924C17.073 15.0359 17.0622 15.1891 17.0622 15.3422C17.0622 18.5772 17.0622 21.8218 17.0622 25.0568C17.0622 25.7268 16.748 26.0043 16.0112 26.0043C14.3425 26.0043 12.6631 26.0043 10.9945 26.0043C10.7561 26.0043 10.5286 25.9661 10.3552 25.8129C10.2143 25.6981 10.1385 25.5449 10.171 25.3822C10.236 24.9994 10.2035 24.6165 10.2035 24.2433C10.2035 19.1036 10.2035 13.9735 10.2035 8.83389C10.2035 8.69032 10.2035 8.54676 10.1818 8.40319C10.1168 7.97249 10.3877 7.67579 10.8861 7.65665C11.1787 7.64708 11.482 7.65665 11.7746 7.65665C13.2265 7.65665 14.6676 7.65665 16.1195 7.65665C16.4879 7.65665 16.7696 7.76193 16.9538 8.03949C17.0188 8.14477 17.0947 8.16392 17.2139 8.10649C18.5683 7.51309 19.9877 7.50351 21.4288 7.74279C22.9132 7.99164 24.2568 8.51804 25.362 9.45601C26.2396 10.2025 26.8247 11.1118 27.1606 12.1455C27.4532 13.0356 27.4965 13.9353 27.4857 14.8541C27.464 16.3663 27.4857 17.869 27.4857 19.3812C27.4857 21.2188 27.4857 23.0469 27.4857 24.8845C27.4857 24.9994 27.4857 25.1238 27.5073 25.2387C27.5832 25.6981 27.3123 25.9948 26.7814 25.9948C25.9471 25.9948 25.1128 25.9948 24.2784 25.9948C23.3033 25.9948 22.3173 25.9948 21.3421 25.9948C20.7462 25.9948 20.5186 25.7651 20.5186 25.2482C20.5186 23.5924 20.5186 21.9271 20.5186 20.2713L20.5078 20.2809ZM11.9263 16.8736C11.9263 19.295 11.9263 21.7165 11.9263 24.138C11.9263 24.4634 11.9263 24.4634 12.3055 24.4634C13.194 24.4634 14.0825 24.4634 14.971 24.4634C15.3611 24.4634 15.3611 24.4634 15.3611 24.1188C15.3611 21.2858 15.3611 18.4528 15.3611 15.6198C15.3611 15.5145 15.3611 15.4092 15.3286 15.3135C14.971 14.3755 15.6319 13.1791 16.6504 12.6623C17.4306 12.2699 18.2649 12.1742 19.1425 12.222C20.9737 12.3177 22.2089 13.4184 22.2089 15.0455C22.2197 18.0795 22.2089 21.1135 22.2089 24.138C22.2089 24.4538 22.2197 24.4634 22.5665 24.4634C23.4875 24.4634 24.4193 24.4634 25.3403 24.4634C25.6076 24.4634 25.7412 24.3454 25.7412 24.1093C25.7412 21.0657 25.7412 18.0317 25.7412 14.9881C25.7412 14.4042 25.6979 13.83 25.5678 13.2653C25.2211 11.7339 24.3326 10.5662 22.7073 9.86756C21.7972 9.47515 20.822 9.31244 19.8143 9.28373C18.98 9.26459 18.2107 9.43686 17.5281 9.85799C17.1922 10.059 16.8888 10.2983 16.5421 10.4801C16.0112 10.7672 15.3719 10.5375 15.1769 10.0111C15.1227 9.87713 15.1118 9.73357 15.1227 9.59C15.1552 9.35073 15.0468 9.27416 14.776 9.27416C13.9633 9.28373 13.1398 9.27416 12.3272 9.27416C12.0383 9.27416 11.8938 9.39858 11.8938 9.64743C11.8938 12.0498 11.8938 14.4617 11.8938 16.864L11.9263 16.8736Z" fill="black"/>
<path d="M8.42666 16.8441C8.42666 19.5431 8.42666 22.2421 8.42666 24.9412C8.42666 25.0464 8.42666 25.1517 8.42666 25.2474C8.40499 25.6781 8.04742 25.994 7.55984 25.994C5.81537 25.994 4.0709 25.994 2.32643 25.994C1.763 25.994 1.48128 25.6973 1.5463 25.2092C1.55713 25.0943 1.56797 24.9699 1.56797 24.855C1.56797 19.5144 1.56797 14.1737 1.56797 8.83311C1.56797 8.70868 1.56797 8.57469 1.5463 8.45027C1.48128 7.98128 1.763 7.66544 2.29393 7.60801C2.38061 7.59844 2.47812 7.60801 2.56481 7.60801C4.14675 7.60801 5.72869 7.60801 7.31063 7.60801C8.09076 7.60801 8.43749 7.91429 8.43749 8.61297C8.43749 11.3599 8.43749 14.1068 8.43749 16.8536L8.42666 16.8441ZM3.3016 16.8441C3.3016 19.2751 3.3016 21.7062 3.3016 24.1276C3.3016 24.4435 3.31244 24.453 3.65916 24.453C4.55849 24.453 5.45781 24.453 6.35713 24.453C6.61718 24.453 6.70386 24.3765 6.69302 24.1563C6.69302 19.2943 6.69302 14.4226 6.69302 9.56051C6.69302 9.34994 6.61718 9.2638 6.36797 9.27337C5.47948 9.28295 4.59099 9.27337 3.7025 9.27337C3.43523 9.27337 3.3016 9.39142 3.3016 9.6275C3.3016 12.0298 3.3016 14.4417 3.3016 16.8441Z" fill="black"/>
<path d="M1.503 3.11059C1.43799 1.56965 2.91158 0 5.03528 0C6.99646 0 8.52422 1.40694 8.54589 3.12973C8.56756 4.69938 7.12648 6.24989 5.01361 6.24032C2.7924 6.24032 1.42716 4.58453 1.503 3.11059ZM6.6389 3.12016C6.6389 2.30662 5.9021 1.65579 5.00278 1.66536C4.10346 1.67493 3.3775 2.31619 3.36666 3.11059C3.36666 3.91456 4.09262 4.54624 5.02445 4.54624C5.95628 4.54624 6.6389 3.94327 6.6389 3.12016Z" fill="black"/>
</svg>
