<svg width="25" height="25" viewBox="0 0 25 25" fill="none" xmlns="http://www.w3.org/2000/svg">
<path d="M7.96099 23.4429H2.37478C2.10962 23.4429 1.85533 23.3376 1.66783 23.1501C1.48034 22.9626 1.37501 22.7083 1.37501 22.4432V16.857C1.37455 16.7271 1.3997 16.5985 1.44903 16.4784C1.49835 16.3583 1.57087 16.2491 1.66244 16.1571L16.659 1.16056C16.752 1.0661 16.8629 0.991084 16.9852 0.939879C17.1075 0.888675 17.2387 0.862305 17.3713 0.862305C17.5039 0.862305 17.6352 0.888675 17.7575 0.939879C17.8798 0.991084 17.9906 1.0661 18.0837 1.16056L23.6574 6.73428C23.7518 6.82731 23.8269 6.9382 23.8781 7.06049C23.9293 7.18278 23.9556 7.31404 23.9556 7.44662C23.9556 7.5792 23.9293 7.71045 23.8781 7.83275C23.8269 7.95504 23.7518 8.06593 23.6574 8.15896L8.66083 23.1555C8.56881 23.2471 8.45963 23.3196 8.33954 23.3689C8.21945 23.4182 8.09081 23.4434 7.96099 23.4429Z" stroke="#212429" stroke-width="1.5" stroke-linecap="round" stroke-linejoin="round"/>
</svg>
