<svg width="29" height="28" viewBox="0 0 29 28" fill="none" xmlns="http://www.w3.org/2000/svg">
<path d="M20.9814 26.9629H24.2221C26.012 26.9629 27.4629 25.512 27.4629 23.7221V20.4814C27.4629 18.6916 26.012 17.2407 24.2221 17.2407H20.9814C19.1916 17.2407 17.7407 18.6916 17.7407 20.4814V23.7221C17.7407 25.512 19.1916 26.9629 20.9814 26.9629Z" stroke="#212429" stroke-width="2" stroke-linejoin="round"/>
<path d="M20.9814 10.7593H24.2221C26.012 10.7593 27.4629 9.30835 27.4629 7.51854V4.2778C27.4629 2.48798 26.012 1.03706 24.2221 1.03706H20.9814C19.1916 1.03706 17.7407 2.48798 17.7407 4.2778V7.51854C17.7407 9.30835 19.1916 10.7593 20.9814 10.7593Z" stroke="#212429" stroke-width="2" stroke-linejoin="round"/>
<path d="M1.53706 20.4814C1.53706 18.6916 2.98798 17.2407 4.7778 17.2407H8.01854C9.80835 17.2407 11.2593 18.6916 11.2593 20.4814V23.7221C11.2593 25.512 9.80835 26.9629 8.01854 26.9629" stroke="#212429" stroke-width="2" stroke-linecap="round" stroke-linejoin="round"/>
<path d="M3.15746 23.7217C2.26256 23.7217 1.53709 24.4471 1.53709 25.342C1.53709 26.2369 2.26256 26.9624 3.15746 26.9624C4.05237 26.9624 4.77783 26.2369 4.77783 25.342C4.77783 24.4471 4.05237 23.7217 3.15746 23.7217Z" fill="#212429"/>
<path d="M4.7778 10.7593H8.01854C9.80835 10.7593 11.2593 9.30835 11.2593 7.51854V4.2778C11.2593 2.48798 9.80835 1.03706 8.01854 1.03706H4.7778C2.98798 1.03706 1.53706 2.48798 1.53706 4.2778V7.51854C1.53706 9.30835 2.98798 10.7593 4.7778 10.7593Z" stroke="#212429" stroke-width="2" stroke-linejoin="round"/>
</svg>
