<svg width="27" height="28" viewBox="0 0 27 28" fill="none" xmlns="http://www.w3.org/2000/svg">
<g clip-path="url(#clip0_1508_3470)">
<path d="M13.3074 0.000698658C13.9866 0.000698658 14.6659 -0.00124206 15.3451 0.00134556C15.9002 0.00393318 16.1525 0.247816 16.1602 0.810624C16.1699 1.52222 16.1751 2.23382 16.1576 2.94476C16.1505 3.22811 16.2398 3.35943 16.5212 3.44418C18.1255 3.92612 19.5552 4.72828 20.7707 5.88495C21.0379 6.13918 21.2352 6.16959 21.547 5.9684C22.1079 5.60613 22.6953 5.28527 23.2781 4.95858C23.8215 4.65389 24.1489 4.75028 24.4548 5.28074C25.1121 6.41994 25.7706 7.55785 26.4285 8.6964C26.7339 9.22427 26.6479 9.5736 26.1232 9.88218C25.5009 10.2483 24.8766 10.6125 24.2459 10.9632C24.0441 11.0751 23.9826 11.1902 24.0389 11.4276C24.4426 13.1329 24.4425 14.8439 24.0441 16.5505C23.9871 16.7957 24.035 16.9218 24.2543 17.0421C24.887 17.3895 25.5099 17.7557 26.1323 18.1218C26.6453 18.4239 26.7339 18.761 26.4357 19.2811C25.7661 20.45 25.092 21.6164 24.4167 22.7828C24.1663 23.2149 23.8163 23.3223 23.3816 23.0913C23.0776 22.9296 22.7774 22.7575 22.4876 22.5719C22.1454 22.3532 22.0464 21.969 22.2263 21.6455C22.4022 21.3298 22.8085 21.1946 23.1474 21.4042C23.4722 21.606 23.6048 21.4909 23.7601 21.2043C24.1036 20.5691 24.4684 19.9454 24.8404 19.327C24.9672 19.1168 24.9627 19.0042 24.7285 18.878C24.1314 18.5559 23.5485 18.2059 22.9605 17.8669C22.5038 17.6036 22.3938 17.3565 22.5491 16.8461C23.1339 14.9235 23.1125 13.0054 22.5355 11.0861C22.4061 10.6559 22.5141 10.3926 22.9068 10.1636C23.5117 9.80972 24.1172 9.45781 24.7304 9.11883C24.9277 9.0095 24.9963 8.92152 24.8604 8.69834C24.4464 8.01715 24.0492 7.32496 23.6604 6.62889C23.5563 6.44258 23.4709 6.41541 23.2878 6.52539C22.6778 6.89153 22.06 7.2441 21.4429 7.59795C21.0359 7.83149 20.7513 7.80044 20.4304 7.45628C19.0525 5.9781 17.388 5.00451 15.4137 4.55944C14.968 4.45917 14.7855 4.21399 14.7817 3.74951C14.7758 3.05991 14.772 2.36967 14.783 1.67942C14.7868 1.43424 14.7163 1.33268 14.4537 1.3372C13.6884 1.35144 12.9225 1.35273 12.1578 1.3372C11.8906 1.33203 11.8273 1.43748 11.8311 1.68006C11.8421 2.34832 11.8363 3.01657 11.8331 3.68547C11.8305 4.23146 11.6597 4.45141 11.1351 4.57303C9.23381 5.01551 7.61525 5.94835 6.27292 7.36507C5.83367 7.82825 5.62084 7.85478 5.05803 7.53132C4.47905 7.19817 3.89943 6.86501 3.32433 6.52539C3.17166 6.43482 3.07527 6.40959 2.96853 6.60172C2.57068 7.31784 2.1586 8.02556 1.742 8.73133C1.64367 8.89759 1.66308 8.98104 1.82868 9.09166C2.20195 9.34072 2.28022 9.69845 2.06933 10.0387C1.87461 10.3531 1.50264 10.4443 1.13261 10.2503C0.865441 10.1105 0.603445 9.95916 0.350505 9.79484C0.00764499 9.57231 -0.100388 9.21651 0.0975648 8.86783C0.809161 7.61154 1.52981 6.35978 2.26146 5.11384C2.46588 4.76516 2.83721 4.68817 3.22341 4.90101C3.86514 5.25486 4.50364 5.61584 5.12661 6.00139C5.38149 6.15924 5.55098 6.15536 5.77157 5.94511C7.03692 4.74316 8.5151 3.90477 10.1899 3.41507C10.395 3.3549 10.4545 3.23652 10.4532 3.03727C10.4468 2.34767 10.4513 1.65742 10.4519 0.967175C10.4519 0.203827 10.6512 0.00134556 11.4003 0.000698658C12.0362 0.000698658 12.6721 0.000698658 13.3087 0.000698658H13.3074Z" fill="#212429"/>
<path d="M13.2648 8.4105C10.5556 8.41567 8.20343 10.4211 7.78229 13.1471C7.61927 14.2003 7.74866 15.2302 8.17949 16.2135C8.26165 16.4004 8.36451 16.5854 8.3244 16.8002C8.26683 17.1062 8.08246 17.3009 7.77712 17.3682C7.48148 17.4329 7.18714 17.2893 7.03059 16.9801C6.73625 16.3991 6.54541 15.7807 6.44449 15.139C5.85322 11.3856 8.25324 7.93825 11.9814 7.17749C15.6648 6.42579 19.3735 8.89309 20.1117 12.5856C20.9274 16.6682 18.0765 20.529 13.9447 20.9249C13.5708 20.9605 13.1904 20.9462 12.8139 20.9339C12.3216 20.9178 12.0344 20.6267 12.0583 20.1971C12.081 19.7941 12.3986 19.5276 12.8741 19.5606C13.9551 19.6356 14.9759 19.4422 15.9301 18.9246C17.973 17.8171 19.206 15.6313 18.8133 13.1517C18.4129 10.6268 16.4987 8.78635 14.0786 8.46613C13.8231 8.43249 13.563 8.4299 13.2642 8.40985L13.2648 8.4105Z" fill="#212429"/>
<path d="M13.3146 27.9989C12.625 27.9989 11.9347 28.0021 11.2451 27.9976C10.7153 27.9943 10.4624 27.744 10.4546 27.1967C10.4443 26.4638 10.4423 25.7308 10.4546 24.9979C10.4592 24.7501 10.3699 24.6356 10.1325 24.5651C8.52491 24.0903 7.10625 23.2765 5.86742 22.147C5.48575 21.7996 5.48381 21.7996 5.05038 22.0486C4.48046 22.376 3.91377 22.7098 3.34191 23.0332C2.78686 23.347 2.46729 23.2506 2.14643 22.6929C1.49046 21.5537 0.829326 20.4171 0.175305 19.2766C-0.122919 18.7565 -0.0342926 18.4253 0.483879 18.12C1.11526 17.748 1.74923 17.3806 2.38901 17.0235C2.58309 16.9154 2.63613 16.7951 2.57597 16.5784C2.43947 16.0906 2.37478 15.5873 2.31915 15.084C2.2771 14.703 2.5074 14.3724 2.84961 14.3084C3.2481 14.2347 3.60196 14.4468 3.66083 14.8583C3.76563 15.5957 3.9073 16.3216 4.11108 17.0383C4.20423 17.3663 4.05803 17.6277 3.70417 17.8353C3.09996 18.1898 2.49511 18.543 1.88119 18.8801C1.67418 18.9939 1.63214 19.0897 1.76022 19.3025C2.16583 19.9766 2.55656 20.6591 2.94082 21.3454C3.05209 21.5434 3.16077 21.568 3.35161 21.4548C3.95388 21.097 4.56197 20.7496 5.17006 20.4016C5.57826 20.1681 5.86095 20.1978 6.18182 20.5407C7.56167 22.015 9.22616 22.9892 11.1979 23.4388C11.6462 23.541 11.8267 23.781 11.8312 24.2468C11.8377 24.9364 11.8409 25.6267 11.8312 26.3163C11.8274 26.5569 11.8875 26.6662 12.1566 26.6611C12.9323 26.6455 13.7086 26.6494 14.4848 26.6591C14.7132 26.6617 14.7857 26.5737 14.7831 26.3544C14.7747 25.6758 14.7779 24.9966 14.7811 24.3173C14.7837 23.7675 14.9513 23.552 15.4733 23.4252C16.029 23.29 16.5711 23.116 17.1009 22.8987C17.5674 22.7072 17.9458 22.834 18.1062 23.2189C18.2673 23.6057 18.0881 23.9719 17.6217 24.1575C17.2316 24.3128 16.8351 24.4525 16.4353 24.5793C16.2393 24.6414 16.159 24.7423 16.1616 24.9493C16.17 25.6603 16.1668 26.3719 16.1642 27.0835C16.1616 27.7653 15.9294 27.9969 15.2553 27.9976C14.6084 27.9976 13.9621 27.9976 13.3152 27.9976L13.3146 27.9989Z" fill="#212429"/>
<path d="M10.245 13.9744C10.2463 12.3022 11.6145 10.9378 13.29 10.9385C15.0108 10.9385 16.3706 12.295 16.368 14.0087C16.3654 15.7036 15.0024 17.0621 13.3042 17.0621C11.5925 17.0621 10.2431 15.7003 10.2444 13.9751L10.245 13.9744ZM13.3101 15.6835C14.2856 15.6777 14.994 14.9577 14.9894 13.977C14.9849 13.026 14.2571 12.3106 13.2991 12.3138C12.3526 12.317 11.6106 13.048 11.5977 13.988C11.5848 14.9247 12.3572 15.6887 13.3101 15.6835Z" fill="#212429"/>
<path d="M10.4068 19.1536C10.3996 19.512 10.0691 19.8316 9.71133 19.8244C9.35618 19.818 9.03208 19.4816 9.04114 19.1277C9.04955 18.7706 9.37818 18.4549 9.7385 18.4575C10.0911 18.4601 10.4139 18.7965 10.4068 19.1536Z" fill="#212429"/>
<path d="M20.2022 22.4146C19.8431 22.4197 19.5106 22.0976 19.5093 21.7437C19.508 21.3802 19.8212 21.0573 20.1815 21.0509C20.5373 21.0444 20.8691 21.3659 20.875 21.723C20.8808 22.0801 20.5612 22.4094 20.2022 22.4146Z" fill="#212429"/>
<path d="M3.17373 12.4184C2.78947 12.4042 2.50548 12.1027 2.52165 11.7269C2.53783 11.3536 2.85352 11.0593 3.22031 11.0748C3.58969 11.0903 3.88598 11.406 3.87563 11.7735C3.86528 12.1416 3.54894 12.4327 3.17373 12.4191V12.4184Z" fill="#212429"/>
</g>
<defs>
<clipPath id="clip0_1508_3470">
<rect width="26.6072" height="28" fill="white"/>
</clipPath>
</defs>
</svg>
