<svg width="25" height="28" viewBox="0 0 25 28" fill="none" xmlns="http://www.w3.org/2000/svg">
<g clip-path="url(#clip0_338_6979)">
<path d="M0.0546163 15.3838C0.0546163 11.596 0.048128 7.80748 0.0585092 4.01964C0.0617534 2.93611 0.465971 1.99337 1.22509 1.22256C2.01017 0.42516 2.97887 0.0066684 4.09938 0.00537075C9.6358 -0.00241514 15.1722 0.000180158 20.7086 0.00147781C21.3646 0.00147781 21.8317 0.435541 21.8363 1.03505C21.8408 1.65728 21.3808 2.09848 20.7054 2.09848C15.2981 2.10042 9.89144 2.10042 4.48414 2.09848C4.17984 2.09848 3.88008 2.11794 3.58811 2.20488C2.6856 2.47479 2.15356 3.23587 2.15291 4.27853C2.14967 7.44089 2.15226 10.6033 2.15226 13.765C2.15226 17.3478 2.15226 20.9312 2.15226 24.514C2.15226 24.6003 2.15226 24.6866 2.15226 24.7729C2.1527 25.0744 2.29219 25.154 2.57076 25.0117C3.22347 24.6769 3.88008 24.3492 4.52696 24.0021C4.99671 23.7504 5.42818 23.7887 5.86613 24.078C6.60449 24.566 7.35908 25.0292 8.0903 25.5269C8.34075 25.6975 8.53734 25.6943 8.79817 25.5593C9.80514 25.0396 10.8283 24.5517 11.8334 24.0287C12.2856 23.7932 12.6982 23.7841 13.1537 24.0216C14.1588 24.5445 15.1839 25.0286 16.1876 25.5541C16.4861 25.7105 16.7099 25.691 16.987 25.5145C17.7513 25.0273 18.5403 24.5796 19.3046 24.0923C19.7931 23.7815 20.2564 23.7543 20.7612 24.0456C21.3406 24.3797 21.9362 24.6853 22.526 25.0013C22.8433 25.1713 22.8465 25.1687 22.8465 24.8119C22.8465 22.1355 22.8465 19.4591 22.8465 16.782C22.8465 12.9397 22.8465 9.09799 22.8485 5.25565C22.8485 4.69572 23.2105 4.23895 23.7062 4.15655C24.2227 4.0709 24.7112 4.35703 24.8909 4.84625C24.9565 5.02402 24.9467 5.20764 24.9467 5.38996C24.9474 11.4772 24.9467 17.5638 24.9467 23.6511C24.9467 24.7087 24.948 25.7663 24.9448 26.8239C24.9422 27.812 24.1643 28.2844 23.2851 27.8211C22.3119 27.3079 21.3438 26.7836 20.3816 26.2497C20.174 26.1342 20.0209 26.1374 19.8204 26.262C18.9867 26.7804 18.1399 27.2787 17.3036 27.7932C16.8884 28.0482 16.4854 28.0625 16.0481 27.838C15.021 27.3105 13.9764 26.8167 12.9565 26.2763C12.6197 26.0978 12.3622 26.1102 12.0319 26.284C11.0204 26.8174 9.98552 27.3059 8.96881 27.8308C8.49452 28.0754 8.06759 28.0411 7.62964 27.751C6.89192 27.2625 6.13604 26.8005 5.40547 26.3022C5.16216 26.1361 4.97789 26.1439 4.73004 26.275C3.72761 26.8031 2.71739 27.3163 1.70587 27.8269C0.818282 28.2753 0.0539675 27.8062 0.0533186 26.8135C0.0513722 23.0036 0.0526698 19.1937 0.0526698 15.3844H0.0546163V15.3838Z" fill="#212429"/>
<path d="M14.5486 9.33551C13.5572 9.33551 12.5658 9.34005 11.5744 9.33357C11.1786 9.33097 10.825 9.21418 10.609 8.85149C10.1574 8.09301 10.6518 7.27744 11.5751 7.27095C12.8896 7.26187 14.2047 7.26836 15.5193 7.26836C16.209 7.26836 16.8987 7.26641 17.5884 7.27031C18.2249 7.2742 18.6946 7.70242 18.7069 8.28377C18.7193 8.86187 18.2579 9.32383 17.6195 9.33162C16.5957 9.3446 15.5718 9.33486 14.548 9.33551H14.5486Z" fill="#212429"/>
<path d="M14.6012 12.4502C15.614 12.4502 16.6275 12.4418 17.6403 12.4535C18.4961 12.4632 18.9672 13.3047 18.535 14.034C18.3404 14.3623 18.0218 14.507 17.665 14.5089C15.6069 14.52 13.5482 14.5226 11.4895 14.5096C10.8757 14.5057 10.4189 14.0236 10.4345 13.4637C10.45 12.8966 10.9088 12.4599 11.5297 12.4535C12.5535 12.4424 13.5774 12.4502 14.6012 12.4509V12.4502Z" fill="#212429"/>
<path d="M14.5486 19.6959C13.5572 19.6959 12.5658 19.7004 11.5744 19.6939C11.1786 19.6913 10.825 19.5745 10.609 19.2118C10.1574 18.4534 10.6518 17.6378 11.5751 17.6313C12.8896 17.6222 14.2047 17.6287 15.5193 17.6287C16.209 17.6287 16.8987 17.6268 17.5884 17.6307C18.2249 17.6346 18.6946 18.0628 18.7069 18.6441C18.7193 19.2222 18.2579 19.6842 17.6195 19.692C16.5957 19.7049 15.5718 19.6952 14.548 19.6959H14.5486Z" fill="#212429"/>
<path d="M8.34648 8.29261C8.35167 8.83373 7.85987 9.32943 7.31745 9.32943C6.77568 9.32943 6.28971 8.85579 6.28906 8.32765C6.28906 7.76317 6.77114 7.27785 7.33691 7.27201C7.86441 7.26682 8.34129 7.7489 8.34648 8.29197V8.29261Z" fill="#212429"/>
<path d="M8.34658 13.4856C8.34268 14.0293 7.84504 14.5185 7.30457 14.5101C6.75955 14.5016 6.28137 14.0241 6.28916 13.496C6.29759 12.9295 6.78551 12.4494 7.34933 12.4527C7.87683 12.4559 8.35047 12.9464 8.34658 13.4856Z" fill="#212429"/>
<path d="M8.34658 18.6667C8.34268 19.2104 7.84504 19.6997 7.30457 19.6912C6.75955 19.6828 6.28137 19.2046 6.28916 18.6771C6.29759 18.1107 6.78551 17.6306 7.34933 17.6338C7.87683 17.637 8.34982 18.1276 8.34593 18.6667H8.34658Z" fill="#212429"/>
</g>
<defs>
<clipPath id="clip0_338_6979">
<rect width="24.8947" height="28" fill="white" transform="translate(0.0527344)"/>
</clipPath>
</defs>
</svg>
