<svg width="31" height="28" viewBox="0 0 31 28" fill="none" xmlns="http://www.w3.org/2000/svg">
<g clip-path="url(#clip0_338_6975)">
<path d="M15.4981 27.9923C12.0131 27.9923 8.528 27.9917 5.04294 27.9923C3.83499 27.9923 2.7815 27.6073 1.92787 26.736C1.29663 26.0921 0.939374 25.3132 0.846957 24.4175C0.768582 23.6585 0.814954 22.8967 0.814301 22.1361C0.809403 18.1237 0.809729 14.1112 0.813648 10.0987C0.815607 8.01267 2.24464 6.36582 4.31406 6.05526C4.7941 5.98309 5.27872 6.00301 5.76203 6.00301C12.4928 6.00236 19.2239 6.0017 25.9546 6.00366C26.9663 6.00366 27.9045 6.2525 28.7029 6.90105C29.5288 7.57181 29.9929 8.45254 30.1633 9.49689C30.2068 9.76205 30.1966 10.0279 30.1966 10.2937C30.1976 14.8496 30.1979 19.4051 30.1966 23.9609C30.196 25.9347 28.7477 27.6259 26.7971 27.928C26.3726 27.9936 25.9428 27.9998 25.5131 27.9995C22.175 27.9976 18.8366 27.9985 15.4984 27.9985V27.9923H15.4981ZM15.5056 25.9673V25.9693C19.023 25.9693 22.5404 25.9693 26.0578 25.9686C26.21 25.9686 26.3654 25.9778 26.5133 25.9497C27.525 25.7577 28.2245 24.9579 28.2095 23.8666C28.203 23.3829 28.2095 22.8999 28.2111 22.4166C28.219 19.5788 28.2154 16.741 28.218 13.9032C28.218 13.7804 28.1925 13.7425 28.0596 13.7712C27.2161 13.9535 26.3706 14.1272 25.5262 14.3042C23.3904 14.7513 21.2547 15.1983 19.1194 15.6457C18.8669 15.6986 18.8692 15.6999 18.8666 15.9654C18.8624 16.3877 18.8137 16.8027 18.5972 17.176C18.1527 17.9424 17.4585 18.2673 16.5986 18.268C15.778 18.2686 14.957 18.2984 14.137 18.2471C13.5152 18.2082 12.9924 17.9666 12.6025 17.4679C12.2433 17.0088 12.1306 16.4745 12.1381 15.9063C12.1398 15.792 12.1123 15.727 11.9876 15.7019C11.4184 15.5869 10.8508 15.4632 10.2823 15.344C8.58776 14.9883 6.89258 14.6337 5.19806 14.2781C4.46493 14.1243 3.73147 13.9711 2.99965 13.8117C2.85596 13.7804 2.79293 13.8127 2.81579 13.9655C2.81906 13.9868 2.81645 14.009 2.81645 14.0309C2.81645 16.5098 2.80698 18.989 2.82135 21.468C2.82657 22.3588 2.74036 23.25 2.82135 24.1399C2.87849 24.7669 3.17534 25.26 3.68934 25.6218C4.07403 25.8925 4.50607 25.9712 4.97044 25.9706C8.48228 25.965 11.9944 25.9673 15.5063 25.9673H15.5056ZM15.504 8.0045C15.0308 8.0045 14.558 8.0045 14.0848 8.0045C11.0073 8.0045 7.93007 8.00124 4.85256 8.00613C3.70535 8.00809 2.806 8.91724 2.81579 10.0115C2.82004 10.4955 2.81579 10.9795 2.81612 11.4631C2.81645 11.7443 2.81808 11.741 3.0888 11.7978C5.19806 12.239 7.30732 12.6809 9.41657 13.123C10.2666 13.3013 11.1173 13.477 11.9657 13.6618C12.1172 13.6948 12.1616 13.6409 12.1643 13.5058C12.1662 13.4189 12.1649 13.3307 12.1799 13.2458C12.3612 12.2237 13.2034 11.5114 14.2382 11.5065C14.9234 11.5033 15.6085 11.5033 16.2936 11.5065C16.5702 11.5078 16.8465 11.4951 17.1234 11.534C18.0355 11.662 18.8173 12.5208 18.8424 13.4362C18.8483 13.6504 18.8627 13.6635 19.0678 13.62C19.6095 13.5054 20.1506 13.3875 20.6927 13.2739C23.1475 12.7592 25.6026 12.2452 28.0577 11.7329C28.1703 11.7093 28.2206 11.6636 28.219 11.5376C28.2118 11.0647 28.219 10.5915 28.217 10.1187C28.2124 8.88752 27.3239 8.0045 26.0901 8.00418C22.5613 8.00385 19.0328 8.00418 15.504 8.00418V8.0045ZM16.8635 14.8786C16.8635 14.8786 16.8654 14.8786 16.8664 14.8786C16.8664 14.5093 16.8674 14.1396 16.8664 13.7703C16.8654 13.5054 16.8452 13.4832 16.5764 13.4862C16.1692 13.4904 15.7617 13.5142 15.3551 13.5022C15.0292 13.4924 14.7036 13.4852 14.378 13.4865C14.1873 13.4871 14.1449 13.5293 14.1445 13.7154C14.1429 14.4923 14.1429 15.2692 14.1445 16.0464C14.1449 16.2309 14.1824 16.2688 14.3636 16.2691C15.1298 16.2707 15.8959 16.2685 16.662 16.2717C16.8073 16.2724 16.8677 16.2165 16.8658 16.0689C16.8605 15.6725 16.8641 15.2757 16.8641 14.8789L16.8635 14.8786Z" fill="#212429"/>
<path d="M13.8459 0.00439634C15.1371 0.0416243 16.4417 0.0151729 17.7463 0.0226838C19.6518 0.0334603 21.3225 1.44845 21.6478 3.32617C21.6925 3.58383 21.7212 3.84149 21.7144 4.10339C21.7007 4.61707 21.2598 5.03246 20.6994 5.05466C20.2563 5.07197 19.7919 4.65463 19.7354 4.19515C19.7103 3.9904 19.7168 3.78303 19.6695 3.58024C19.4611 2.68481 18.648 2.0281 17.7715 2.02875C16.8636 2.0294 15.9558 2.02973 15.048 2.02548C14.548 2.02287 14.0484 2.00622 13.5484 2.00295C13.0628 2.00001 12.5961 2.07643 12.1837 2.36021C11.6654 2.71714 11.365 3.20339 11.2994 3.83137C11.2847 3.97179 11.2853 4.11482 11.2569 4.2523C11.1521 4.76239 10.6698 5.0896 10.1192 5.03376C9.6842 4.98968 9.28874 4.54 9.29004 4.06388C9.29331 2.87421 9.74592 1.87331 10.6126 1.06768C11.3657 0.368512 12.2666 0.0256228 13.296 0.021051C13.4749 0.0203978 13.6532 -0.010952 13.8459 0.00406978V0.00439634Z" fill="#212429"/>
</g>
<defs>
<clipPath id="clip0_338_6975">
<rect width="29.396" height="28" fill="white" transform="translate(0.801758)"/>
</clipPath>
</defs>
</svg>
