<svg width="26" height="24" viewBox="0 0 26 24" fill="none" xmlns="http://www.w3.org/2000/svg">
<path d="M22.0117 0.611816H3.94767C2.16866 0.611816 0.721863 2.05861 0.721863 3.83762V15.45C0.721863 17.229 2.16866 18.6758 3.94767 18.6758H10.3004L9.84009 21.9016H8.46431C8.108 21.9016 7.81889 22.1907 7.81889 22.547C7.81889 22.9034 8.108 23.1925 8.46431 23.1925H10.3993H15.5601H17.495C17.8514 23.1925 18.1405 22.9034 18.1405 22.547C18.1405 22.1907 17.8514 21.9016 17.495 21.9016H16.1193L15.659 18.6758H22.0117C23.7907 18.6758 25.2375 17.229 25.2375 15.45V3.83762C25.2375 2.05988 23.7894 0.611816 22.0117 0.611816ZM11.1436 21.9016L11.6039 18.6758H14.3555L14.8157 21.9016H11.1436ZM23.9467 15.45C23.9467 16.5177 23.0781 17.385 22.0117 17.385H14.9159H11.0447H3.94767C2.88001 17.385 2.01269 16.5164 2.01269 15.45V14.8046H23.9467V15.45ZM23.9467 13.515H2.01269V3.83762C2.01269 2.76996 2.88128 1.90265 3.94767 1.90265H22.0117C23.0793 1.90265 23.9467 2.77123 23.9467 3.83762V13.515Z" fill="#212429"/>
</svg>
