<svg width="27" height="27" viewBox="0 0 27 27" fill="none" xmlns="http://www.w3.org/2000/svg">
<path d="M20.6518 1.67383H5.48802C5.22848 1.67682 4.97864 1.77291 4.78399 1.94461C5.5564 2.21637 6.23599 2.70145 6.744 3.34365C7.252 3.98584 7.56762 4.75885 7.65427 5.57308C7.67083 5.71702 7.67083 5.86239 7.65427 6.00633V24.4195C7.65375 24.6266 7.71266 24.8296 7.82401 25.0043C7.93536 25.179 8.09447 25.3181 8.28248 25.4051C8.47093 25.4918 8.68033 25.5227 8.88578 25.4939C9.09123 25.4651 9.28409 25.3779 9.44142 25.2426L12.5283 22.5998L15.6152 25.2426C15.8114 25.4104 16.0611 25.5026 16.3193 25.5026C16.5774 25.5026 16.8271 25.4104 17.0233 25.2426L20.1102 22.5998L23.1971 25.2426C23.3933 25.4104 23.643 25.5026 23.9011 25.5026C24.0578 25.5015 24.2127 25.4683 24.3561 25.4051C24.5441 25.3181 24.7032 25.179 24.8145 25.0043C24.9259 24.8296 24.9848 24.6266 24.9843 24.4195V6.00633C24.9843 4.85728 24.5278 3.75529 23.7153 2.94279C22.9028 2.13029 21.8008 1.67383 20.6518 1.67383ZM19.5686 16.8376H13.0699C12.7826 16.8376 12.5071 16.7235 12.304 16.5203C12.1009 16.3172 11.9868 16.0417 11.9868 15.7545C11.9868 15.4672 12.1009 15.1917 12.304 14.9886C12.5071 14.7854 12.7826 14.6713 13.0699 14.6713H19.5686C19.8559 14.6713 20.1314 14.7854 20.3345 14.9886C20.5376 15.1917 20.6518 15.4672 20.6518 15.7545C20.6518 16.0417 20.5376 16.3172 20.3345 16.5203C20.1314 16.7235 19.8559 16.8376 19.5686 16.8376ZM19.5686 12.5051H13.0699C12.7826 12.5051 12.5071 12.391 12.304 12.1878C12.1009 11.9847 11.9868 11.7092 11.9868 11.422C11.9868 11.1347 12.1009 10.8592 12.304 10.6561C12.5071 10.4529 12.7826 10.3388 13.0699 10.3388H19.5686C19.8559 10.3388 20.1314 10.4529 20.3345 10.6561C20.5376 10.8592 20.6518 11.1347 20.6518 11.422C20.6518 11.7092 20.5376 11.9847 20.3345 12.1878C20.1314 12.391 19.8559 12.5051 19.5686 12.5051ZM19.5686 8.17258H13.0699C12.7826 8.17258 12.5071 8.05846 12.304 7.85534C12.1009 7.65221 11.9868 7.37672 11.9868 7.08945C11.9868 6.80219 12.1009 6.52669 12.304 6.32357C12.5071 6.12044 12.7826 6.00633 13.0699 6.00633H19.5686C19.8559 6.00633 20.1314 6.12044 20.3345 6.32357C20.5376 6.52669 20.6518 6.80219 20.6518 7.08945C20.6518 7.37672 20.5376 7.65221 20.3345 7.85534C20.1314 8.05846 19.8559 8.17258 19.5686 8.17258ZM5.48802 6.00633V14.6713H2.23864C1.95138 14.6713 1.67588 14.5572 1.47276 14.3541C1.26963 14.151 1.15552 13.8755 1.15552 13.5882V6.00633C1.15552 5.85469 1.15552 5.71388 1.15552 5.57308C1.21297 4.99855 1.4963 4.47038 1.94317 4.10476C2.39005 3.73913 2.96387 3.566 3.53839 3.62345C4.11292 3.68091 4.64109 3.96423 5.00671 4.41111C5.37234 4.85799 5.54547 5.4318 5.48802 6.00633Z" fill="white"/>
</svg>
