<svg width="75" height="76" viewBox="0 0 75 76" fill="none" xmlns="http://www.w3.org/2000/svg">
<circle cx="37.5" cy="37.6572" r="37.5" fill="url(#paint0_linear_680_9765)"/>
<path d="M26.3916 34.72C26.3916 33.7772 26.3916 33.3058 26.6845 33.0129C26.9774 32.72 27.4488 32.72 28.3916 32.72H46.6089C47.5517 32.72 48.0231 32.72 48.316 33.0129C48.6089 33.3058 48.6089 33.7772 48.6089 34.72V37.04C48.6089 37.8392 48.6089 38.2388 48.3935 38.5114C48.3452 38.5725 48.2899 38.6278 48.2288 38.676C47.9563 38.8914 47.5566 38.8914 46.7574 38.8914V38.8914C45.9582 38.8914 45.5586 38.8914 45.286 39.1068C45.2249 39.1551 45.1696 39.2103 45.1214 39.2714C44.906 39.544 44.906 39.9436 44.906 40.7429V45.5315C44.906 46.4743 44.906 46.9457 44.6131 47.2386C44.3202 47.5315 43.8488 47.5315 42.906 47.5315H32.0945C31.1517 47.5315 30.6803 47.5315 30.3874 47.2386C30.0945 46.9457 30.0945 46.4743 30.0945 45.5315V40.7429C30.0945 39.9436 30.0945 39.544 29.8791 39.2714C29.8308 39.2103 29.7756 39.1551 29.7145 39.1068C29.4419 38.8914 29.0423 38.8914 28.2431 38.8914V38.8914C27.4438 38.8914 27.0442 38.8914 26.7717 38.676C26.7105 38.6278 26.6553 38.5725 26.607 38.5114C26.3916 38.2388 26.3916 37.8392 26.3916 37.04V34.72Z" stroke="#0B1426" strokeWidth="2"/>
<path d="M28.8602 38.8914H46.1403" stroke="#0B1426" strokeWidth="2" stroke-linecap="round"/>
<path d="M37.5002 31.4858L37.5002 47.5316" stroke="#0B1426" strokeWidth="2" stroke-linecap="round"/>
<path d="M37.5002 31.4857L36.2507 30.2362C35.0432 29.0287 33.5711 28.1189 31.951 27.5789L31.4927 27.4261C30.1976 26.9944 28.8602 27.9583 28.8602 29.3234V30.0442C28.8602 30.9051 29.4111 31.6694 30.2277 31.9416L32.5631 32.72" stroke="#0B1426" strokeWidth="2" stroke-linecap="round"/>
<path d="M37.5002 31.4857L38.7498 30.2362C39.9573 29.0287 41.4294 28.1189 43.0494 27.5789L43.5078 27.4261C44.8029 26.9944 46.1403 27.9583 46.1403 29.3234V30.0442C46.1403 30.9051 45.5894 31.6694 44.7727 31.9416L42.4374 32.72" stroke="#0B1426" strokeWidth="2" stroke-linecap="round"/>
<defs>
<linearGradient id="paint0_linear_680_9765" x1="37.5" y1="0.157227" x2="37.5" y2="75.1572" gradientUnits="userSpaceOnUse">
<stop stop-color="white"/>
<stop offset="1" stop-color="#E3E3E3" stop-opacity="0.86"/>
</linearGradient>
</defs>
</svg>
