<svg width="75" height="76" viewBox="0 0 75 76" fill="none" xmlns="http://www.w3.org/2000/svg">
<circle cx="37.5" cy="37.6572" r="37.5" fill="url(#paint0_linear_680_9766)"/>
<path d="M32.5 32.6572L32.5 31.4072C32.5 28.6458 34.7386 26.4072 37.5 26.4072V26.4072C40.2614 26.4072 42.5 28.6458 42.5 31.4072L42.5 32.6572" stroke="#0B1426" strokeWidth="2" stroke-linecap="round"/>
<path d="M41.25 40.1572V37.6572" stroke="#0B1426" strokeWidth="2" stroke-linecap="round"/>
<path d="M33.75 40.1572V37.6572" stroke="#0B1426" strokeWidth="2" stroke-linecap="round"/>
<path d="M27.5 36.6572C27.5 34.7716 27.5 33.8288 28.0858 33.243C28.6716 32.6572 29.6144 32.6572 31.5 32.6572H43.5C45.3856 32.6572 46.3284 32.6572 46.9142 33.243C47.5 33.8288 47.5 34.7716 47.5 36.6572V40.9072C47.5 44.6785 47.5 46.5641 46.3284 47.7357C45.1569 48.9072 43.2712 48.9072 39.5 48.9072H35.5C31.7288 48.9072 29.8431 48.9072 28.6716 47.7357C27.5 46.5641 27.5 44.6785 27.5 40.9072V36.6572Z" stroke="#0B1426" strokeWidth="2"/>
<defs>
<linearGradient id="paint0_linear_680_9766" x1="37.5" y1="0.157227" x2="37.5" y2="75.1572" gradientUnits="userSpaceOnUse">
<stop stop-color="white"/>
<stop offset="1" stop-color="#E3E3E3" stop-opacity="0.86"/>
</linearGradient>
</defs>
</svg>
