<svg xmlns="http://www.w3.org/2000/svg" width="50px" height="50px" viewBox="0 0 50 50">
  <!-- Background Circle -->
  <circle cx="25" cy="25" r="25" fill="#091d54" />
  <!-- Skills Icon (a gear symbol for representation) -->
  <path d="M25 15.5a9.5 9.5 0 0 1 4.74 17.88l0.95 2.64a1 1 0 0 1-0.93 1.34h-9.52a1 1 0 0 1-0.93-1.34l0.95-2.64A9.5 9.5 0 0 1 25 15.5zm0 2a7.5 7.5 0 1 0 0 15 7.5 7.5 0 0 0 0-15zm-2.93 3.1c0.28-0.39 0.9-0.39 1.18 0l1.56 2.19a0.5 0.5 0 0 1-0.43 0.78h-3.44a0.5 0.5 0 0 1-0.43-0.78l1.56-2.19zm5.86 0c0.28-0.39 0.9-0.39 1.18 0l1.56 2.19a0.5 0.5 0 0 1-0.43 0.78h-3.44a0.5 0.5 0 0 1-0.43-0.78l1.56-2.19z" fill="none" stroke="#fff" stroke-width="2" />
</svg>
