<svg width="50" height="50" xmlns="http://www.w3.org/2000/svg">
  <!-- Outer Circle -->
  <circle cx="25" cy="25" r="25" fill="#091d54" />
  
  <!-- Skills Icon (Gear) -->
  <g transform="translate(50, 50) scale(0.3)" fill="#ffffff">
    <path d="M35.6,22.1c-0.4-2.1-1.1-4.1-2-6l4.3-6.5l-7.4-7.4l-6.5,4.3c-1.9-0.9-3.9-1.6-6-2L16.5,0h-9l-1.5,8.5
             c-2.1,0.4-4.1,1.1-6,2L0,6.7L0,14l4.3,6.5c-0.9,1.9-1.6,3.9-2,6L0,25.5v9l8.5,1.5c0.4,2.1,1.1,4.1,2,6L6.7,40L14,40
             l6.5-4.3c1.9,0.9,3.9,1.6,6,2L25.5,48h9l1.5-8.5c2.1-0.4,4.1-1.1,6-2L40,33.3L40,26L35.6,22.1z M20,29c-5,0-9-4-9-9s4-9,9-9
             s9,4,9,9S25,29,20,29z"/>
  </g>
</svg>
