<svg width="16" height="30" viewBox="0 0 16 30" fill="none" xmlns="http://www.w3.org/2000/svg">
<path d="M10.3006 9.99767V7.0186C10.3006 5.67209 10.6097 4.99535 12.759 4.99535H15.4545V0H10.9548C5.44144 0 3.62283 2.45581 3.62283 6.66279V9.99767H0V15H3.62283V30H10.3006V15H14.8436L15.4545 9.99767H10.3006ZM13.7006 13.7512H9.01395V28.7512H4.90951V13.7512H1.28668V11.2535H4.90951V6.66977C4.90951 4.75814 5.3408 3.45349 6.16025 2.62326C7.05877 1.68837 8.66173 1.25581 10.9548 1.25581H14.1679V3.75349H12.759C11.7958 3.75349 10.545 3.83721 9.7759 4.66744C9.12178 5.37209 9.02114 6.23721 9.02114 7.0186V11.2535H14.0097L13.7006 13.7512Z" fill="black"/>
</svg>
