<svg width="31" height="30" viewBox="0 0 31 30" fill="none" xmlns="http://www.w3.org/2000/svg">
<path d="M19.9077 5.39062C21.2752 5.39062 22.5867 5.93387 23.5537 6.90086C24.5207 7.86784 25.0639 9.17935 25.0639 10.5469V19.4531C25.0639 20.8206 24.5207 22.1322 23.5537 23.0991C22.5867 24.0661 21.2752 24.6094 19.9077 24.6094H11.0014C9.6339 24.6094 8.32238 24.0661 7.3554 23.0991C6.38842 22.1322 5.84517 20.8206 5.84517 19.4531V10.5469C5.84517 9.17935 6.38842 7.86784 7.3554 6.90086C8.32238 5.93387 9.6339 5.39062 11.0014 5.39062H19.9077ZM19.9077 3.51562H11.0014C9.13833 3.52119 7.35313 4.26377 6.03572 5.58118C4.71831 6.89859 3.97573 8.68378 3.97017 10.5469V19.4531C3.97573 21.3162 4.71831 23.1014 6.03572 24.4188C7.35313 25.7362 9.13833 26.4788 11.0014 26.4844H19.9077C21.7708 26.4788 23.556 25.7362 24.8734 24.4188C26.1908 23.1014 26.9334 21.3162 26.9389 19.4531V10.5469C26.9334 8.68378 26.1908 6.89859 24.8734 5.58118C23.556 4.26377 21.7708 3.52119 19.9077 3.51562Z" fill="black"/>
<path d="M21.5811 7.5C21.3155 7.5 21.0558 7.57876 20.835 7.72633C20.6141 7.8739 20.442 8.08364 20.3404 8.32904C20.2387 8.57443 20.2121 8.84446 20.2639 9.10497C20.3158 9.36548 20.4437 9.60477 20.6315 9.79259C20.8193 9.98041 21.0586 10.1083 21.3191 10.1601C21.5796 10.212 21.8496 10.1854 22.095 10.0837C22.3404 9.98206 22.5502 9.80993 22.6977 9.58908C22.8453 9.36823 22.9241 9.10858 22.9241 8.84297C22.9241 8.66661 22.8893 8.49197 22.8218 8.32904C22.7544 8.1661 22.6554 8.01805 22.5307 7.89335C22.406 7.76864 22.258 7.66972 22.095 7.60223C21.9321 7.53474 21.7575 7.5 21.5811 7.5Z" fill="black"/>
<path d="M15.5178 10.8914C16.3376 10.8909 17.1391 11.1336 17.8209 11.5887C18.5026 12.0439 19.0341 12.691 19.348 13.4483C19.662 14.2056 19.7442 15.0389 19.5844 15.8429C19.4246 16.647 19.0299 17.3855 18.4502 17.9652C17.8706 18.5448 17.132 18.9395 16.328 19.0994C15.524 19.2592 14.6906 19.1769 13.9333 18.863C13.1761 18.5491 12.5289 18.0176 12.0738 17.3358C11.6186 16.654 11.376 15.8525 11.3764 15.0328C11.3783 13.935 11.8152 12.8827 12.5915 12.1064C13.3677 11.3302 14.42 10.8932 15.5178 10.8914ZM15.5178 9.01637C14.3278 9.01869 13.1652 9.37371 12.1769 10.0366C11.1887 10.6994 10.419 11.6404 9.96536 12.7405C9.51169 13.8406 9.3943 15.0505 9.62805 16.2173C9.86179 17.3842 10.4362 18.4555 11.2786 19.296C12.1211 20.1364 13.1937 20.7083 14.3611 20.9393C15.5284 21.1704 16.7381 21.0502 17.8371 20.5939C18.9362 20.1377 19.8753 19.3659 20.5359 18.376C21.1964 17.3862 21.5488 16.2228 21.5483 15.0328C21.548 14.2416 21.3917 13.4582 21.0884 12.7275C20.785 11.9968 20.3406 11.333 19.7805 10.7742C19.2204 10.2154 18.5556 9.77256 17.8242 9.47093C17.0927 9.16929 16.309 9.01483 15.5178 9.01637Z" fill="black"/>
</svg>
