<svg width="529" height="720" viewBox="0 0 529 720" fill="none" xmlns="http://www.w3.org/2000/svg">
<path d="M374.703 -19.8049L250.119 129.871L425.869 118.858L374.703 -19.8049Z" fill="#198BCA"/>
<path d="M425.864 118.864L250.114 129.877L348.519 211.786L425.864 118.864Z" fill="#0B79B7"/>
<path d="M250.114 129.878L271.254 304.613L348.519 211.786L250.114 129.878Z" fill="#0D6394"/>
<path d="M125.529 279.554L271.254 304.613L250.114 129.878L125.529 279.554Z" fill="#0D4972"/>
<path d="M374.698 -19.7985L425.864 118.864L566.739 13.1979L374.698 -19.7985Z" fill="#139DD9"/>
<path d="M425.869 118.869L544.959 139.344L566.744 13.2026L425.869 118.869Z" fill="#26B2E3"/>
<path d="M566.74 13.1988L544.954 139.34L664.044 159.815L566.74 13.1988Z" fill="#66C6EB"/>
<path d="M260.099 645.122L456.387 678.885L354.659 531.518L260.099 645.122Z" fill="#0D6394"/>
<path d="M644.104 711.195L593.114 572.516L456.39 678.869L644.104 711.195Z" fill="#2AA9E1"/>
<path d="M473.852 552.06L456.394 678.872L593.118 572.518L473.852 552.06Z" fill="#198BCA"/>
<path d="M354.663 531.513L456.391 678.88L473.849 552.068L354.663 531.513Z" fill="#0D4972"/>
<path d="M354.656 531.515L192.897 462.334L260.096 645.119L354.656 531.515Z" fill="#0B79B7"/>
<path d="M125.529 279.553L192.905 462.322L271.255 304.612L125.529 279.553Z" fill="#66C6EB"/>
<path d="M271.26 304.617L192.911 462.327L312.925 418.11L271.26 304.617Z" fill="#139DD9"/>
<path d="M312.915 418.113L192.901 462.329L354.66 531.51L312.915 418.113Z" fill="#198BCA"/>
</svg>
