<svg width="27" height="30" viewBox="0 0 27 30" fill="none" xmlns="http://www.w3.org/2000/svg">
<path d="M17 3.3467V4.0462C16.9147 4.00562 16.8288 3.96636 16.7424 3.92843L17 3.3467ZM17 3.3467C16.0481 2.92526 15.0356 2.65665 14 2.5508V1.86H13.36V2.5508V3.14747C13.5523 3.15518 13.744 3.16882 13.9348 3.18831C14.5134 3.24739 15.0842 3.36026 15.64 3.52492V3.3467H17ZM13.002 3.81588L13.8617 3.90375C14.467 3.96562 15.0631 4.09193 15.64 4.28004V4.95412C14.7954 4.65642 13.9033 4.50171 13.0007 4.49998C11.5956 4.49728 10.2147 4.86539 8.99732 5.56713C7.77998 6.26888 6.76936 7.27941 6.0675 8.49669C5.36565 9.71396 4.99742 11.0949 5 12.5L13.002 3.81588ZM12 1.86H12.64L3 12.5C3.00321 10.022 3.92514 7.63311 5.58753 5.79539C7.24992 3.95768 9.53468 2.80163 12 2.5508V1.86Z" fill="#5E6278" stroke="#5E6278" stroke-width="2.72"/>
<path d="M23 11.5C25.2091 11.5 27 9.70914 27 7.5C27 5.29086 25.2091 3.5 23 3.5C20.7909 3.5 19 5.29086 19 7.5C19 9.70914 20.7909 11.5 23 11.5Z" fill="#FE2F2F"/>
</svg>
