<svg width="42" height="43" viewBox="0 0 42 43" fill="none" xmlns="http://www.w3.org/2000/svg">
<g clip-path="url(#clip0_3830_10324)">
<path d="M-1.43461e-05 20.7539C-1.43461e-05 14.5623 -1.43461e-05 8.36985 -1.43461e-05 2.17826C-1.43461e-05 2.07164 -1.43462e-05 1.9641 0.00182401 1.85747C0.0183692 1.13775 0.292284 0.853729 1.01016 0.850971C2.8908 0.844537 4.77052 0.848214 6.65116 0.848214C14.7693 0.848214 22.8884 0.848214 31.0066 0.848214C31.1592 0.848214 31.3127 0.845456 31.4653 0.850971C32.1372 0.873032 32.4038 1.13867 32.4056 1.81519C32.4102 3.86404 32.4074 5.91288 32.4084 7.96173C32.4084 10.5612 32.4093 13.1597 32.4084 15.7591C32.4084 16.5202 32.1427 16.9108 31.6445 16.8952C31.1767 16.8805 30.9257 16.488 30.9184 15.761C30.9141 15.3234 30.695 15.1041 30.2612 15.1028C20.9039 15.1028 11.5476 15.1028 2.19039 15.1028C1.72528 15.1028 1.49212 15.3375 1.49089 15.8069C1.49089 19.1399 1.49089 22.4728 1.49089 25.8057C1.49089 26.4354 1.49365 26.4381 2.1288 26.4381C7.86171 26.4381 13.5955 26.4381 19.3285 26.44C19.5408 26.44 19.7623 26.4345 19.9645 26.4868C20.3092 26.5769 20.5151 26.8214 20.5124 27.1882C20.5096 27.5549 20.3028 27.7958 19.9544 27.8794C19.7504 27.9281 19.5307 27.9254 19.3174 27.9254C13.6296 27.9272 7.9426 27.9272 2.25473 27.9272C1.74489 27.9272 1.48967 28.1886 1.48905 28.7113C1.48905 31.9982 1.48905 35.2852 1.48905 38.5722C1.48905 39.2018 1.49641 39.211 2.13156 39.211C8.8434 39.211 15.5552 39.211 22.2671 39.2147C22.541 39.2147 22.8195 39.2285 23.087 39.2809C23.4721 39.3563 23.6596 39.6375 23.6431 40.0135C23.6265 40.3968 23.3903 40.6256 23.0079 40.6817C22.8728 40.701 22.7331 40.6946 22.5961 40.6946C15.4256 40.6946 8.25512 40.6946 1.08462 40.6946C0.228861 40.6946 0.00182401 40.4703 0.000904832 39.6044C-0.000933524 33.3209 -1.43461e-05 27.0374 -1.43461e-05 20.753V20.7539ZM16.2005 13.6726C20.9085 13.6726 25.6156 13.6671 30.3237 13.6818C30.7814 13.6836 30.9303 13.5577 30.9276 13.0889C30.9101 9.71093 30.9184 6.33295 30.9175 2.95497C30.9175 2.34464 30.911 2.33912 30.3053 2.33912C20.9049 2.33912 11.5053 2.33912 2.1049 2.33912C1.49549 2.33912 1.49181 2.3428 1.49181 2.95037C1.49089 6.31273 1.49089 9.676 1.49181 13.0384C1.49181 13.6698 1.49457 13.6717 2.12421 13.6717C6.81661 13.6717 11.509 13.6717 16.2014 13.6717L16.2005 13.6726Z" fill="#66C6EB"/>
<path d="M22.1981 28.2435C22.1981 26.4244 22.1963 24.6054 22.1981 22.7872C22.1991 22.0041 22.4344 21.778 23.1982 21.7504C26.1377 21.6438 28.7611 20.7044 31.0057 18.7723C31.5214 18.3283 31.7907 18.3357 32.3192 18.787C34.2853 20.4645 36.5575 21.4232 39.1285 21.6741C39.4778 21.7081 39.828 21.7385 40.1782 21.7522C40.8326 21.7771 41.1001 22.0197 41.1102 22.6742C41.124 23.6062 41.1148 24.5392 41.113 25.4712C41.1102 27.7177 40.9935 29.9715 41.1305 32.2097C41.3069 35.1024 40.0311 37.1926 37.9106 38.94C36.132 40.4051 34.1714 41.5854 32.1574 42.6874C31.8753 42.8419 31.5958 42.9237 31.2897 42.7546C28.785 41.3721 26.2968 39.9704 24.2415 37.9279C22.848 36.5427 22.1016 34.925 22.1807 32.9221C22.2423 31.3659 22.1926 29.8043 22.1926 28.2453H22.1972L22.1981 28.2435ZM23.6872 28.8051H23.6826C23.6826 30.2105 23.7442 31.6196 23.6661 33.0214C23.5778 34.6042 24.2093 35.8295 25.282 36.904C26.7545 38.3793 28.5405 39.4106 30.2658 40.5421C31.2419 41.1818 31.9993 41.237 33.0022 40.5706C34.8093 39.3683 36.689 38.2782 38.1753 36.6595C38.9676 35.7964 39.5954 34.8294 39.6055 33.6179C39.6331 30.2877 39.6166 26.9566 39.6285 23.6255C39.6294 23.291 39.5081 23.1889 39.1781 23.1595C36.5272 22.926 34.1272 22.0161 32.0049 20.4066C31.7319 20.1998 31.5784 20.2034 31.3072 20.4084C29.2354 21.9747 26.8961 22.8884 24.315 23.1448C23.6302 23.2128 23.6881 23.2459 23.6872 23.8553C23.6854 25.5053 23.6872 27.1552 23.6872 28.806V28.8051Z" fill="#66C6EB"/>
<path d="M8.15125 23.5814C8.15125 22.926 8.6908 22.3966 9.35353 22.3984C10.008 22.4012 10.5512 22.938 10.5595 23.5915C10.5668 24.2239 10.0034 24.7993 9.36824 24.8076C8.69632 24.8168 8.15033 24.2671 8.15125 23.5814Z" fill="#66C6EB"/>
<path d="M3.92948 23.5824C3.93775 22.916 4.45985 22.4013 5.12717 22.3994C5.77703 22.3985 6.3414 22.9574 6.33129 23.5925C6.32118 24.2479 5.73107 24.8251 5.08672 24.8113C4.44238 24.7975 3.92121 24.2442 3.92948 23.5824Z" fill="#66C6EB"/>
<path d="M5.11065 35.232C5.77613 35.2247 6.32212 35.7431 6.33224 36.3929C6.34327 37.0226 5.78533 37.6053 5.15293 37.6265C4.48377 37.6485 3.93042 37.0998 3.9295 36.415C3.9295 35.7275 4.41575 35.2394 5.10973 35.232H5.11065Z" fill="#66C6EB"/>
<path d="M9.37377 35.231C10.0319 35.2393 10.5604 35.7733 10.5595 36.4296C10.5595 37.0482 9.96848 37.6291 9.34436 37.6245C8.66692 37.6199 8.13748 37.0675 8.15126 36.3809C8.16413 35.72 8.69266 35.2218 9.37377 35.2301V35.231Z" fill="#66C6EB"/>
<path d="M9.35537 11.5191C8.6908 11.5228 8.15308 10.9943 8.15216 10.3389C8.15124 9.65413 8.69448 9.10446 9.36732 9.1109C9.99971 9.11641 10.5696 9.69733 10.5604 10.3251C10.5512 10.9805 10.0107 11.5164 9.35537 11.5191Z" fill="#66C6EB"/>
<path d="M3.92948 10.2937C3.93775 9.63923 4.48834 9.096 5.13084 9.10887C5.77978 9.12174 6.35335 9.72472 6.33037 10.3709C6.30831 11.0015 5.76783 11.519 5.13084 11.519C4.44514 11.519 3.92121 10.9849 3.92948 10.2937Z" fill="#66C6EB"/>
<path d="M37.5475 25.9759C37.5521 26.2801 37.3664 26.4824 37.1743 26.6837C36.0143 27.8979 34.8562 29.1149 33.6962 30.3291C32.4093 31.6766 31.1225 33.0232 29.8347 34.3698C29.3007 34.9287 28.944 34.9351 28.4091 34.3827C27.7822 33.7356 27.1608 33.083 26.5431 32.4276C26.1626 32.0241 26.1258 31.6003 26.4291 31.2961C26.7481 30.9762 27.1902 31.0157 27.5965 31.4257C27.9945 31.8265 28.3888 32.2327 28.7565 32.6611C29.013 32.9589 29.1876 32.9276 29.4477 32.6546C31.6363 30.3521 33.8359 28.0615 36.0346 25.7691C36.1715 25.6266 36.3131 25.4823 36.4739 25.3702C36.7083 25.2075 36.9638 25.2166 37.2074 25.3674C37.4317 25.5062 37.5512 25.7084 37.5484 25.9759H37.5475Z" fill="#66C6EB"/>
</g>
<defs>
<clipPath id="clip0_3830_10324">
<rect width="41.147" height="42" fill="white" transform="translate(0 0.847412)"/>
</clipPath>
</defs>
</svg>
