<svg width="42" height="42" viewBox="0 0 42 42" fill="none" xmlns="http://www.w3.org/2000/svg">
<path d="M29.0013 4.78879C26.1604 2.44755 22.4204 1.51591 18.7424 2.23201C13.7908 3.19587 9.81398 7.3757 9.07151 12.3968C8.4659 16.4941 9.92154 20.5861 12.9655 23.3433C14.337 24.5855 15.1644 26.3747 15.2958 28.382C15.2984 28.4184 15.3055 28.4535 15.3134 28.4883V34.7825C15.3134 35.1291 15.5943 35.4103 15.9412 35.4103H16.5669C16.8218 37.2347 18.1628 38.6317 19.7778 38.6317H22.628C24.2431 38.6317 25.5836 37.2347 25.8385 35.4103H26.4642C26.8108 35.4103 27.092 35.1291 27.092 34.7825V28.3878C27.092 28.3866 27.0924 28.3853 27.0924 28.3837C27.0924 26.5162 27.9404 24.7128 29.4806 23.3057C32.0177 20.9879 33.4725 17.6911 33.4725 14.2613C33.4729 10.5833 31.8431 7.13044 29.0013 4.78879ZM18.9831 16.7034H18.0184C17.4864 16.7034 17.0537 16.2707 17.0537 15.7387C17.0537 15.2068 17.4864 14.774 18.0184 14.774C18.5503 14.774 18.9831 15.2068 18.9831 15.7387V16.7034ZM23.4232 15.7387C23.4232 15.2068 23.856 14.774 24.3883 14.774C24.9203 14.774 25.353 15.2068 25.353 15.7387C25.353 16.2707 24.9203 16.7034 24.3883 16.7034H23.4245L23.4232 15.7387ZM23.0453 28.9667H25.8369V34.1547H25.2622C25.261 34.1547 25.2597 34.1543 25.258 34.1543C25.2564 34.1543 25.2555 34.1547 25.2538 34.1547H17.152C17.1508 34.1547 17.1495 34.1543 17.1478 34.1543C17.1461 34.1543 17.1453 34.1547 17.1436 34.1547H16.5694V28.9667H22.582M20.2386 27.7111V17.959H22.171L22.1852 27.7111H20.2386ZM22.628 37.3761H19.7778C18.8412 37.3761 18.0548 36.5374 17.8371 35.4103H24.5683C24.3511 36.5374 23.5647 37.3761 22.628 37.3761ZM28.6339 22.379C27.0133 23.8594 26.0541 25.7327 25.8745 27.7111H23.4404L23.4266 17.959H24.3883C25.6125 17.959 26.6086 16.9629 26.6086 15.7387C26.6086 14.5145 25.6125 13.5184 24.3883 13.5184C23.1637 13.5184 22.1676 14.5145 22.1676 15.7395L22.1689 16.7034H20.2386V15.7387C20.2386 14.5145 19.2425 13.5184 18.0184 13.5184C16.7942 13.5184 15.7981 14.5145 15.7981 15.7387C15.7981 16.9629 16.7942 17.959 18.0184 17.959H18.9831V27.7111H16.4836C16.2174 25.6164 15.285 23.7497 13.808 22.4125C11.0758 19.9374 9.7692 16.2619 10.3133 12.5801C10.9792 8.07673 14.5437 4.32841 18.9818 3.46415C22.2915 2.82046 25.6523 3.65583 28.202 5.75768C30.7533 7.85994 32.2165 10.9595 32.2165 14.2617C32.2173 17.3396 30.9111 20.2986 28.6339 22.379Z" fill="#66C6EB"/>
</svg>
