<svg width="42" height="42" viewBox="0 0 42 42" fill="none" xmlns="http://www.w3.org/2000/svg">
<g clip-path="url(#clip0_3814_9930)">
<path d="M41.0609 18.9715L37.4733 17.7854C37.3254 17.0218 37.1247 16.27 36.8735 15.5401L39.3927 12.7151L39.1465 12.2086C38.7207 11.3317 38.2267 10.4791 37.6799 9.67435L37.3641 9.20983L33.6756 9.97759C33.1632 9.38875 32.6097 8.83603 32.0225 8.32363L32.7894 4.63519L32.3249 4.31935C31.5151 3.76915 30.6625 3.27607 29.7889 2.85271L29.2833 2.60827L26.46 5.12743C25.7284 4.87627 24.9766 4.67551 24.2147 4.52767L23.0286 0.940027L22.4683 0.898867C21.4956 0.828307 20.5044 0.828307 19.5317 0.898867L18.9714 0.939187L17.7853 4.52767C17.0243 4.67551 16.2717 4.87627 15.54 5.12743L12.7151 2.60827L12.2086 2.85439C11.3316 3.28027 10.479 3.77419 9.67431 4.32103L9.21063 4.63687L9.97839 8.32531C9.38955 8.83771 8.83683 9.39127 8.32443 9.97843L4.63683 9.21067L4.32099 9.67519C3.77079 10.4849 3.27771 11.3375 2.85435 12.2111L2.60991 12.7168L5.12739 15.5401C4.87623 16.2717 4.67547 17.0235 4.52763 17.7854L0.939987 18.9715L0.898827 19.5317C0.863547 20.0181 0.840027 20.5053 0.840027 21.0001C0.840027 21.4948 0.863547 21.982 0.898827 22.4684L0.939147 23.0287L4.52679 24.2147C4.67463 24.9783 4.87539 25.7301 5.12655 26.4601L2.60739 29.285L2.85351 29.7915C3.27939 30.6685 3.77331 31.5211 4.32015 32.3258L4.63599 32.7903L8.32443 32.0226C8.83683 32.6114 9.39039 33.1641 9.97755 33.6765L9.21063 37.3649L9.67515 37.6808C10.4849 38.231 11.3375 38.7241 12.2111 39.1474L12.7168 39.3919L15.5409 36.8744C16.2725 37.1255 17.0243 37.3263 17.7862 37.4741L18.9723 41.0618L19.5325 41.1021C20.0181 41.1365 20.5053 41.1601 21 41.1601C21.4948 41.1601 21.982 41.1366 22.4683 41.1013L23.0286 41.0609L24.2147 37.4733C24.9783 37.3255 25.7301 37.1247 26.46 36.8735L29.2849 39.3927L29.7915 39.1466C30.6684 38.7207 31.521 38.2268 32.3257 37.6799L32.7903 37.3641L32.0225 33.6757C32.6113 33.1633 33.1641 32.6097 33.6765 32.0226L37.3649 32.7895L37.6807 32.3249C38.2309 31.5152 38.724 30.6626 39.1474 29.789L39.3918 29.2833L36.8727 26.4601C37.1238 25.7284 37.3246 24.9758 37.4724 24.2147L41.0601 23.0287L41.1004 22.4684C41.1365 21.982 41.16 21.4948 41.16 21.0001C41.16 20.5053 41.1365 20.0181 41.1012 19.5317L41.0609 18.9715ZM39.4599 21.788L35.9865 22.9363L35.9041 23.4394C35.7437 24.4331 35.4816 25.4117 35.1271 26.3483L34.9474 26.8238L37.3817 29.5555C37.1406 30.0175 36.8769 30.4719 36.5955 30.9137L33.028 30.1712L32.7054 30.566C32.067 31.3455 31.3471 32.0654 30.5643 32.7063L30.1695 33.0289L30.9129 36.5964C30.4719 36.8769 30.0183 37.1398 29.5546 37.3834L26.8229 34.9474L26.3466 35.1289C25.4142 35.4825 24.4356 35.7429 23.4385 35.905L22.9354 35.9873L21.7871 39.4608C21.2655 39.4868 20.7321 39.4868 20.2104 39.4608L19.0621 35.9873L18.559 35.905C17.5644 35.7446 16.5858 35.4825 15.6509 35.128L15.1746 34.9474L12.4429 37.3826C11.9809 37.1415 11.5265 36.8778 11.0847 36.5964L11.8272 33.0289L11.4324 32.7063C10.6529 32.0679 9.93303 31.348 9.29211 30.5651L8.96955 30.1703L5.40207 30.9137C5.12151 30.4727 4.85859 30.0191 4.61499 29.5555L7.05099 26.8238L6.86955 26.3475C6.51591 25.4151 6.25551 24.4365 6.09339 23.4394L6.01107 22.9363L2.53767 21.788C2.52759 21.5276 2.52003 21.2647 2.52003 21.0001C2.52003 20.7355 2.52759 20.4725 2.54019 20.2121L6.01359 19.0639L6.09591 18.5607C6.25635 17.5661 6.51843 16.5875 6.87291 15.6526L7.05351 15.1763L4.61835 12.4447C4.85943 11.9827 5.12319 11.5282 5.40459 11.0864L8.97207 11.8289L9.29463 11.4341C9.93303 10.6546 10.6529 9.93475 11.4358 9.29383L11.8306 8.97127L11.0872 5.40379C11.5282 5.12323 11.9818 4.86031 12.4455 4.61671L15.1771 7.05187L15.6526 6.87211C16.5892 6.51763 17.5678 6.25639 18.5615 6.09511L19.0647 6.01279L20.2129 2.53939C20.7346 2.51335 21.268 2.51335 21.7896 2.53939L22.9379 6.01279L23.4411 6.09511C24.4356 6.25555 25.4142 6.51763 26.3491 6.87211L26.8254 7.05271L29.5571 4.61755C30.0191 4.85863 30.4735 5.12239 30.9154 5.40379L30.1728 8.97127L30.5676 9.29383C31.3471 9.93223 32.067 10.6521 32.7079 11.435L33.0305 11.8298L36.598 11.0864C36.8785 11.5274 37.1415 11.981 37.3851 12.4447L34.9491 15.1763L35.1305 15.6526C35.4841 16.585 35.7445 17.5636 35.9067 18.5607L35.989 19.0639L39.4624 20.2121C39.4725 20.4725 39.48 20.7355 39.48 21.0001C39.48 21.2647 39.4725 21.5276 39.4599 21.788Z" fill="#66C6EB"/>
<path d="M20.7556 9.24342C16.3968 9.3669 12.7403 13.0133 12.6051 17.3721C12.5244 19.9097 13.5812 22.3197 15.5014 23.9821C16.8605 25.1581 17.64 26.8053 17.64 28.5601V29.4001V32.7601H20.16V34.4401H21.84V32.7601H24.36V29.3429V28.5029C24.36 26.8229 25.1555 25.1606 26.5432 23.9434C28.3593 22.3491 29.4 20.0525 29.4 17.6401C29.4 15.3502 28.4962 13.2116 26.854 11.6156C25.2126 10.0204 23.0404 9.20226 20.7556 9.24342ZM22.68 31.0801H19.32V29.4001H22.68V31.0801ZM25.4352 22.6801C23.9064 24.0224 22.9463 25.8099 22.7279 27.7201H21.84V19.6678L24.1139 17.3939L22.9261 16.2062L21 18.1323L19.0739 16.2062L17.8861 17.3939L20.16 19.6678V27.7201H19.278C19.0722 25.8208 18.1222 24.0283 16.6001 22.712C15.0637 21.3814 14.2195 19.4545 14.2834 17.4242C14.3917 13.9382 17.3158 11.0217 20.8026 10.9234C22.6405 10.8604 24.3693 11.5433 25.683 12.8201C26.9968 14.0969 27.72 15.808 27.72 17.6401C27.72 19.5687 26.8876 21.4058 25.4352 22.6801Z" fill="#66C6EB"/>
</g>
<defs>
<clipPath id="clip0_3814_9930">
<rect width="42" height="42" fill="white"/>
</clipPath>
</defs>
</svg>
