<svg width="42" height="43" viewBox="0 0 42 43" fill="none" xmlns="http://www.w3.org/2000/svg">
<g clip-path="url(#clip0_3815_10152)">
<path d="M33.7136 37.8226C33.4928 38.5201 33.2868 39.1826 33.0721 39.8433C32.6121 41.2603 31.677 42.1621 30.1759 42.3549C28.971 42.5091 27.9308 42.1051 27.107 41.2034C26.9318 41.0115 26.8284 40.9308 26.6663 41.2104C25.8022 42.6966 23.721 43.5019 21.6432 42.1778C20.929 41.723 20.2131 41.27 19.5208 40.7836C17.755 39.5419 15.9253 39.4183 13.9851 40.3569C12.4235 41.1122 10.7866 41.2165 9.12069 40.7416C8.03494 40.4322 7.06486 39.8985 6.26829 39.0958C4.50164 37.3134 2.73674 35.5301 1.00076 33.7188C-0.0236474 32.6497 -0.268139 31.3851 0.298836 30.0032C1.42052 27.2656 2.54658 24.5297 3.6893 21.8C4.34741 20.227 5.89673 19.3043 7.53106 19.4673C9.16539 19.6303 10.4921 20.8291 10.8207 22.4695C10.961 23.1671 10.8847 23.8567 10.656 24.5359C10.0522 26.3314 9.46684 28.1331 8.86919 29.9313C8.75001 30.2906 8.70269 30.6394 8.91651 30.982C9.09879 31.2756 9.30647 31.372 9.63947 31.1713C10.1635 30.855 10.7059 30.5675 11.2493 30.2836C12.2886 29.7412 13.3936 29.6351 14.5276 29.8726C15.3408 30.0426 16.1479 30.2486 16.9506 30.4659C17.3651 30.5781 17.5736 30.94 17.4895 31.2923C17.3992 31.6708 17.089 31.8768 16.6605 31.8364C16.5597 31.8268 16.4598 31.8005 16.3608 31.7769C15.6939 31.6174 15.0253 31.464 14.3602 31.2958C13.0597 30.9663 11.9477 31.429 10.89 32.1107C10.6209 32.2842 10.876 32.378 10.9829 32.4499C11.6611 32.9056 12.3482 33.3481 13.0299 33.7994C13.6407 34.2043 13.795 34.5977 13.5084 35.0008C13.2306 35.3917 12.8424 35.3899 12.243 34.9956C11.0127 34.185 9.7753 33.3823 8.55284 32.5585C7.39698 31.7804 7.07538 30.8173 7.51003 29.4853C8.11556 27.6293 8.7395 25.7785 9.33977 23.9207C9.66401 22.9156 9.29946 21.8666 8.46258 21.2883C7.65637 20.7309 6.58201 20.7598 5.75565 21.3627C5.41564 21.6107 5.18166 21.9411 5.02217 22.3249C3.89523 25.045 2.76654 27.7642 1.64924 30.4878C1.30222 31.3343 1.41789 32.1081 2.08038 32.7811C3.74801 34.4759 5.40074 36.1856 7.0745 37.8751C8.82801 39.6444 11.18 40.0913 13.4313 39.0371C15.6536 37.9961 17.7971 38.0302 19.8985 39.3272C20.0501 39.421 20.1807 39.5077 20.2262 39.2247C20.4374 37.9233 20.9466 36.7061 21.333 35.4548C21.4443 35.0928 21.3707 34.9193 21.0254 34.7966C20.71 34.6845 20.4041 34.5416 20.1062 34.3874C19.718 34.1867 19.5883 33.8371 19.739 33.476C19.8932 33.1054 20.2665 32.9494 20.6845 33.1027C20.9851 33.2131 21.2831 33.3385 21.5696 33.4813C21.8132 33.6022 21.9385 33.5584 22.0139 33.2903C22.1234 32.8977 22.247 32.5077 22.382 32.123C23.2627 29.608 26.4612 28.9586 28.248 30.9409C28.4785 31.1967 28.5512 31.2204 28.7528 30.9093C29.9892 29.0007 32.6708 28.7904 34.2341 30.4738C34.4786 30.7367 34.5566 30.678 34.646 30.3844C34.8379 29.7578 35.0281 29.1295 35.2401 28.5091C35.7694 26.9606 37.1137 26.065 38.7454 26.1833C39.0845 26.2079 39.2528 26.1089 39.3386 25.7759C39.4622 25.2965 39.6375 24.8312 39.7742 24.3554C40.0861 23.2626 39.513 22.1435 38.4842 21.8202C37.3994 21.4793 36.2961 22.02 35.9263 23.1215C35.4022 24.6822 34.9168 26.2561 34.412 27.8238C34.1789 28.5476 33.9353 28.6922 33.1738 28.5643C31.8216 28.3373 30.4695 28.1095 29.1173 27.879C28.9307 27.8475 28.7379 27.8142 28.588 27.6862C28.347 27.4812 28.2226 27.2279 28.3435 26.9107C28.4811 26.5505 28.7554 26.3796 29.1357 26.4392C30.303 26.6215 31.472 26.8003 32.6331 27.0176C33.0134 27.0886 33.1825 27.0088 33.2973 26.6311C33.7039 25.293 34.1167 23.9549 34.5741 22.6334C35.3181 20.4855 37.7683 19.6338 39.6979 20.8238C40.902 21.5669 41.5487 23.0689 41.221 24.4596C41.0641 25.1248 40.8407 25.775 40.626 26.4252C40.5462 26.6679 40.5848 26.816 40.7811 26.9904C41.9562 28.0324 42.255 29.3223 41.7941 30.798C41.1982 32.7031 40.5252 34.5872 39.9959 36.5098C39.1739 39.4989 35.6862 40.0177 33.888 37.9575C33.8529 37.9172 33.8021 37.89 33.7136 37.8234V37.8226ZM27.6845 38.9442C27.7178 39.7487 28.0482 40.3726 28.8036 40.724C30.0558 41.3077 31.2555 40.7854 31.6884 39.4472C32.3299 37.465 32.9503 35.4767 33.5769 33.4892C33.9502 32.3062 33.4191 31.2467 32.2738 30.8795C31.1337 30.5141 30.0786 31.0697 29.6974 32.2545C29.1217 34.043 28.5521 35.8342 27.9948 37.6289C27.8624 38.0565 27.6591 38.4737 27.6845 38.9442ZM27.6793 33.2386C27.681 32.18 27.0273 31.4412 25.9109 31.2414C25.0109 31.0802 24.0645 31.6095 23.7657 32.52C23.076 34.6231 22.4223 36.7386 21.7598 38.8505C21.6774 39.1134 21.6292 39.385 21.6827 39.6689C21.8641 40.639 22.6378 41.3383 23.6132 41.4032C24.5657 41.4663 25.3457 40.9335 25.6594 39.9634C26.3087 37.954 26.9405 35.9394 27.5829 33.9273C27.6547 33.7012 27.674 33.4717 27.6793 33.2386ZM38.4948 27.61C37.6079 27.6082 36.9077 28.0473 36.6396 28.8666C35.9438 30.9969 35.2585 33.1325 34.6118 35.2777C34.2911 36.3398 34.922 37.3493 36.0227 37.6771C37.0576 37.9855 38.1434 37.4799 38.4737 36.4739C39.159 34.3856 39.832 32.293 40.4638 30.1881C40.8748 28.8184 39.924 27.6126 38.4956 27.61H38.4948Z" fill="#66C6EB"/>
<path d="M33.0467 11.6455C33.0467 12.0091 33.0546 12.3728 33.045 12.7365C33.0117 13.9309 32.0337 14.8922 30.8147 14.936C29.6168 14.979 28.5766 14.1123 28.4417 12.9398C28.3435 12.0854 28.3418 11.2266 28.4399 10.3713C28.5801 9.14007 29.601 8.29881 30.8717 8.35226C32.0801 8.40309 33.0248 9.37667 33.0476 10.5983C33.0537 10.947 33.0485 11.2967 33.0476 11.6455H33.0467ZM31.6069 11.6481C31.6069 11.2993 31.6201 10.9497 31.6034 10.6018C31.5806 10.1154 31.2389 9.79906 30.7543 9.79029C30.2618 9.78153 29.8946 10.0804 29.8788 10.5658C29.8543 11.2774 29.8561 11.9907 29.8771 12.7023C29.8911 13.1834 30.2618 13.5006 30.7403 13.4989C31.2152 13.498 31.5763 13.1729 31.6017 12.6944C31.6201 12.3465 31.6052 11.9969 31.6061 11.6481H31.6069Z" fill="#66C6EB"/>
<path d="M18.414 4.6883C18.414 5.02305 18.4184 5.3578 18.414 5.69168C18.3938 6.91414 17.4571 7.88772 16.2495 7.94556C14.9657 8.00778 13.9422 7.1525 13.8028 5.89498C13.7064 5.0248 13.7152 4.15112 13.8177 3.28357C13.9457 2.19343 15.0463 1.31011 16.1715 1.36444C17.3694 1.42228 18.3483 2.3354 18.407 3.46759C18.428 3.87333 18.4105 4.28169 18.4105 4.68918C18.4122 4.68918 18.4131 4.68918 18.4149 4.68918L18.414 4.6883ZM16.9716 4.69181C16.9716 4.69181 16.9733 4.69181 16.9742 4.69181C16.9742 4.34303 16.9742 3.99426 16.9742 3.64461C16.9742 3.61569 16.9725 3.58677 16.9689 3.55785C16.9164 3.10831 16.5623 2.79721 16.1058 2.79897C15.6422 2.80072 15.2671 3.1048 15.2505 3.55698C15.2251 4.28257 15.2242 5.01078 15.247 5.73725C15.2619 6.21922 15.6317 6.51629 16.1277 6.50753C16.6009 6.49964 16.94 6.2017 16.9681 5.73813C16.9882 5.39023 16.9725 5.04058 16.9725 4.69181H16.9716Z" fill="#66C6EB"/>
<path d="M21.2515 25.0038C21.2515 24.6691 21.2463 24.3334 21.2515 23.9987C21.2717 22.7438 22.3119 21.7352 23.5676 21.7474C24.826 21.7606 25.8364 22.7359 25.8601 23.9794C25.8741 24.6927 25.8732 25.4078 25.8609 26.1211C25.839 27.376 24.8435 28.3277 23.5659 28.3303C22.2821 28.3329 21.2839 27.39 21.2533 26.1404C21.2436 25.7618 21.2515 25.3824 21.2515 25.0038ZM24.4229 25.0459C24.4229 24.6971 24.4369 24.3475 24.4194 23.9996C24.3949 23.515 24.0426 23.1898 23.5659 23.1846C23.0874 23.1793 22.7106 23.4992 22.6966 23.9768C22.6755 24.6883 22.6738 25.4017 22.6966 26.1141C22.7115 26.6066 23.0602 26.894 23.5676 26.8914C24.0671 26.8888 24.3949 26.5926 24.4203 26.0939C24.4378 25.746 24.4238 25.3964 24.4229 25.0476V25.0459Z" fill="#66C6EB"/>
<path d="M36.9077 4.73994C36.9077 5.9922 36.9095 7.24445 36.9068 8.49758C36.9051 9.08471 36.6457 9.41946 36.2084 9.41508C35.779 9.4107 35.4819 9.06368 35.4784 8.49495C35.4679 6.42685 35.4723 4.35875 35.4723 2.29065C35.4723 1.78063 35.4522 1.26974 35.4881 0.762353C35.5293 0.177851 36.0139 -0.145509 36.4818 0.0630539C36.8245 0.215533 36.9112 0.50384 36.9095 0.851737C36.9042 2.14781 36.9077 3.44388 36.9077 4.73994Z" fill="#66C6EB"/>
<path d="M8.5467 4.64977C8.5467 3.39752 8.54408 2.14527 8.54758 0.893012C8.54933 0.322531 8.78506 0.0263369 9.23198 0.0114395C9.66663 -0.00258149 9.97071 0.309386 9.97334 0.85533C9.98474 3.43257 9.98386 6.00981 9.9751 8.58705C9.97334 9.07078 9.64473 9.41254 9.24513 9.41605C8.83589 9.41955 8.55021 9.09181 8.54758 8.58092C8.54145 7.27083 8.54583 5.95986 8.54583 4.64977H8.5467Z" fill="#66C6EB"/>
<path d="M24.2529 7.48372C24.2529 8.32849 24.2564 9.01289 24.2503 9.69729C24.2485 9.89972 24.2345 10.1057 24.1977 10.3046C24.1293 10.67 23.8796 10.8672 23.5221 10.8716C23.1645 10.8759 22.9218 10.6796 22.8228 10.3247C22.7553 10.0811 22.7719 9.83312 22.7719 9.586C22.7711 8.81396 22.7684 8.04193 22.7719 7.2699C22.7728 7.03768 22.7281 6.9036 22.4442 6.99912C22.0814 7.12268 21.8167 6.95004 21.6362 6.64859C21.4531 6.34276 21.5328 6.0527 21.7677 5.81083C22.1734 5.39196 22.5756 4.96694 23.0085 4.57786C23.4888 4.14671 24.1267 4.37981 24.2091 5.0239C24.3213 5.89233 24.2266 6.76952 24.2529 7.48284V7.48372Z" fill="#66C6EB"/>
<path d="M16.8261 12.8151C16.8261 13.5872 16.8314 14.3601 16.8244 15.1321C16.8191 15.6912 16.5632 15.9953 16.1181 16.0014C15.6492 16.0084 15.3916 15.7017 15.389 15.1163C15.3855 14.2129 15.3846 13.3094 15.389 12.4059C15.3898 12.1763 15.4056 12.0089 15.0674 12.129C14.7387 12.2455 14.4224 12.1456 14.2392 11.8179C14.0605 11.498 14.128 11.1913 14.3733 10.9355C14.7466 10.5455 15.1322 10.1678 15.5152 9.78748C15.7465 9.55788 16.0068 9.4203 16.3424 9.55964C16.6842 9.70072 16.82 9.97764 16.8226 10.3229C16.8296 11.1537 16.8244 11.9844 16.8244 12.8151C16.8244 12.8151 16.8253 12.8151 16.8261 12.8151Z" fill="#66C6EB"/>
<path d="M31.4588 3.62015C31.4588 4.39043 31.4641 5.16158 31.4571 5.93186C31.4518 6.51461 31.1889 6.82483 30.7262 6.81782C30.2644 6.81168 30.0234 6.50497 30.0217 5.91258C30.019 5.01086 30.0164 4.10913 30.0234 3.20828C30.0252 2.96203 30.0164 2.82007 29.6931 2.94363C29.382 3.06193 29.0796 2.96729 28.8921 2.66847C28.6984 2.36001 28.7352 2.04541 28.9797 1.78427C29.3574 1.38029 29.7544 0.994708 30.1461 0.604748C30.3766 0.375153 30.6351 0.238448 30.9716 0.374277C31.3142 0.513611 31.4527 0.787897 31.4553 1.13317C31.4632 1.96216 31.458 2.79115 31.458 3.62015C31.458 3.62015 31.4588 3.62015 31.4597 3.62015H31.4588Z" fill="#66C6EB"/>
<path d="M24.2765 16.8936C24.2765 17.6788 24.2818 18.4648 24.2748 19.25C24.2695 19.8029 23.969 20.1666 23.5439 20.1587C23.1102 20.1508 22.8411 19.8038 22.8385 19.2333C22.8341 18.3167 22.8324 17.4001 22.8403 16.4843C22.842 16.2372 22.8131 16.1364 22.5292 16.2626C22.2111 16.4037 21.9166 16.2872 21.7282 16.0032C21.5311 15.7062 21.5424 15.3881 21.7975 15.1226C22.2006 14.7019 22.6168 14.2953 23.0304 13.8843C23.2591 13.6574 23.5317 13.5811 23.8305 13.7108C24.1469 13.8475 24.2722 14.12 24.2739 14.4504C24.2774 15.2654 24.2748 16.0795 24.2748 16.8945H24.2765V16.8936Z" fill="#66C6EB"/>
<path d="M7.01662 10.1844C7.01662 10.811 7.02276 11.4376 7.01399 12.0641C7.00698 12.5715 6.72919 12.8931 6.31206 12.9028C5.90107 12.9124 5.58823 12.5855 5.58385 12.0834C5.57158 10.8014 5.57158 9.51843 5.58385 8.23638C5.58823 7.75616 5.88355 7.45471 6.29016 7.4512C6.71605 7.4477 7.00786 7.76317 7.01399 8.26092C7.02276 8.90238 7.01574 9.54296 7.01574 10.1844H7.01662Z" fill="#66C6EB"/>
<path d="M38.436 10.1171C38.436 9.5195 38.4299 8.92273 38.4369 8.32509C38.4439 7.78352 38.7155 7.45666 39.1467 7.45052C39.5778 7.44439 39.8688 7.77213 39.8723 8.30844C39.8802 9.56157 39.8802 10.8138 39.8723 12.0669C39.8697 12.5612 39.57 12.8986 39.1633 12.9056C38.7567 12.9126 38.4465 12.5752 38.4386 12.0845C38.4281 11.429 38.436 10.7735 38.4351 10.118L38.436 10.1171Z" fill="#66C6EB"/>
<path d="M31.4842 21.5468C31.4842 21.9394 31.5307 22.3302 31.4728 22.7237C31.4185 23.0891 31.2248 23.3108 30.8524 23.3441C30.4633 23.3783 30.1636 23.1995 30.1067 22.8209C29.9813 21.9841 29.9884 21.1367 30.1049 20.2989C30.1575 19.923 30.4581 19.7188 30.8375 19.753C31.2126 19.7863 31.4553 20.0246 31.4781 20.412C31.5009 20.7888 31.4834 21.1682 31.4834 21.5468H31.4842Z" fill="#66C6EB"/>
<path d="M9.97422 15.7684C9.97422 16.1181 9.99263 16.4686 9.96897 16.8156C9.93654 17.2984 9.64823 17.578 9.23198 17.571C8.81836 17.564 8.55284 17.2678 8.54758 16.7797C8.54057 16.1102 8.5397 15.4407 8.54758 14.7712C8.55372 14.2848 8.82538 13.9711 9.22322 13.9614C9.62019 13.9509 9.93654 14.2559 9.96809 14.7212C9.99175 15.0691 9.97247 15.4196 9.97247 15.7684H9.97422Z" fill="#66C6EB"/>
<path d="M16.7499 22.7772C16.7499 23.1409 16.7621 23.5054 16.7464 23.8682C16.7288 24.2608 16.4563 24.5448 16.0918 24.5553C15.7036 24.5667 15.4187 24.3625 15.3723 23.99C15.2698 23.1672 15.2663 22.3347 15.3741 21.5118C15.424 21.1298 15.7921 20.894 16.1426 20.9545C16.5203 21.0193 16.7376 21.2524 16.7481 21.6424C16.7586 22.0201 16.7507 22.3995 16.7507 22.7772H16.7499Z" fill="#66C6EB"/>
<path d="M36.906 15.7544C36.906 16.118 36.9165 16.4826 36.9034 16.8454C36.8893 17.2555 36.644 17.5307 36.2864 17.5692C35.9026 17.6095 35.5635 17.3826 35.5135 16.9619C35.4215 16.1811 35.4434 15.3925 35.5021 14.6108C35.5319 14.2138 35.9052 13.9369 36.2566 13.9623C36.6273 13.9886 36.8885 14.2804 36.9025 14.7072C36.9139 15.0559 36.9051 15.4056 36.9051 15.7544H36.906Z" fill="#66C6EB"/>
<path d="M17.4527 29.6229C17.1232 29.5905 16.8787 29.438 16.7665 29.1103C16.6578 28.7922 16.7516 28.5091 17.0215 28.347C17.5937 28.0026 18.18 27.6766 18.782 27.3875C19.1194 27.2253 19.4463 27.3322 19.6513 27.6661C19.8441 27.9798 19.8152 28.3198 19.5278 28.531C18.9301 28.9692 18.2597 29.2943 17.585 29.6019C17.5473 29.6194 17.5 29.6168 17.4527 29.6238V29.6229Z" fill="#66C6EB"/>
<path d="M7.01665 5.59974C7.01139 6.13078 6.74324 6.4559 6.30683 6.46028C5.85816 6.46466 5.57774 6.12202 5.57862 5.5717C5.58037 5.024 5.86868 4.6761 6.31384 4.68574C6.75813 4.69538 7.02191 5.0389 7.01665 5.59974Z" fill="#66C6EB"/>
<path d="M38.4369 5.59451C38.4317 5.03805 38.7024 4.69191 39.1459 4.6849C39.577 4.67876 39.8653 5.01439 39.8741 5.53229C39.8846 6.11329 39.6042 6.4682 39.1423 6.46031C38.7068 6.45242 38.4413 6.12731 38.436 5.59451H38.4369Z" fill="#66C6EB"/>
<path d="M8.5458 11.8408C8.54317 11.265 8.80694 10.9277 9.25561 10.9329C9.69552 10.9382 9.9812 11.301 9.97945 11.8522C9.97857 12.3578 9.67274 12.7171 9.24597 12.7153C8.81132 12.7136 8.54842 12.3841 8.5458 11.8408Z" fill="#66C6EB"/>
<path d="M36.9077 11.8259C36.906 12.3885 36.6632 12.7057 36.2277 12.7145C35.7851 12.7241 35.4767 12.3569 35.4767 11.8215C35.4767 11.2852 35.7878 10.918 36.2286 10.932C36.6623 10.946 36.9086 11.2712 36.9077 11.8259Z" fill="#66C6EB"/>
<path d="M7.0175 15.0313C7.0175 15.5974 6.74496 15.9234 6.28052 15.9129C5.83973 15.9032 5.58122 15.5808 5.57771 15.0374C5.57509 14.5046 5.88618 14.1296 6.32171 14.1445C6.75548 14.1585 7.0175 14.4924 7.0175 15.0322V15.0313Z" fill="#66C6EB"/>
<path d="M39.8749 15.0341C39.8749 15.6019 39.6024 15.9244 39.1353 15.9121C38.6919 15.9007 38.4378 15.5817 38.4369 15.0358C38.4369 14.4881 38.7331 14.1306 39.1765 14.1455C39.6068 14.1595 39.8758 14.5021 39.8749 15.0341Z" fill="#66C6EB"/>
<path d="M16.7534 18.8259C16.7499 19.392 16.5107 19.6812 16.0497 19.6759C15.6019 19.6707 15.3233 19.342 15.3224 18.8198C15.3215 18.2913 15.6309 17.9066 16.0594 17.9058C16.4984 17.904 16.7569 18.2475 16.7534 18.8268V18.8259Z" fill="#66C6EB"/>
<path d="M31.4763 17.6165C31.4763 18.1668 31.224 18.498 30.7989 18.5086C30.3704 18.5191 30.0506 18.1388 30.0462 17.613C30.0418 17.0749 30.3415 16.7279 30.8016 16.7393C31.2564 16.7498 31.4763 17.0355 31.4763 17.6165Z" fill="#66C6EB"/>
</g>
<defs>
<clipPath id="clip0_3815_10152">
<rect width="42" height="42.8474" fill="white"/>
</clipPath>
</defs>
</svg>
