<svg width="53" height="42" viewBox="0 0 53 42" fill="none" xmlns="http://www.w3.org/2000/svg">
<g clip-path="url(#clip0_3815_10206)">
<path d="M0.0403213 17.4832C0.0403213 14.615 0.0381983 12.2457 0.0413828 9.87531C0.0413828 9.11739 0.181503 8.9295 0.908643 8.6811C5.3426 7.16844 9.77762 5.65896 14.2105 4.14418C14.5619 4.02423 14.8941 4.02741 15.2455 4.1463C19.6954 5.6664 24.1474 7.18012 28.5973 8.69915C29.3403 8.95285 29.4677 9.18851 29.4475 10.2978C29.3976 13.1225 29.4104 15.9461 29.4433 18.7708C29.4624 20.4119 29.439 22.0541 29.3945 23.6941C29.2129 30.3371 24.9563 36.15 18.6477 38.3855C17.498 38.7932 16.3378 39.17 15.1829 39.5638C14.943 39.6456 14.7009 39.6933 14.4557 39.6084C12.2732 38.8462 9.99948 38.3049 8.0017 37.0799C3.48495 34.3104 0.812045 30.3085 0.161334 25.0401C-0.168798 22.3683 0.12312 19.6699 0.0403213 17.4832ZM27.747 17.203C27.747 15.0449 27.7374 12.8868 27.7555 10.7288C27.7587 10.3254 27.6217 10.1354 27.2396 10.0069C23.5359 8.76072 19.8355 7.50176 16.1393 6.23325C15.7051 6.08357 15.5735 6.1876 15.5788 6.63875C15.5958 8.10682 15.5862 9.5749 15.5841 11.043C15.5841 11.785 15.2689 12.2191 14.7338 12.2266C14.2116 12.234 13.8708 11.7776 13.8602 11.0525C13.8581 10.8933 13.8602 10.7341 13.8602 10.5749C13.8602 9.24796 13.8528 7.92106 13.8623 6.59522C13.8655 6.20777 13.7445 6.06765 13.3592 6.22582C13.0651 6.34577 12.7615 6.44343 12.4601 6.54639C9.11099 7.68115 5.75978 8.81379 2.41175 9.9528C2.05508 10.0738 1.6793 10.1364 1.68674 10.6948C1.74618 15.098 1.56997 19.5043 1.77803 23.9054C1.99882 28.5729 4.12292 32.2341 7.86477 34.9855C9.50269 36.1903 11.3964 36.8304 13.3029 37.4419C13.8294 37.6106 13.857 37.5937 13.8592 37.0056C13.8623 35.6436 13.8613 34.2817 13.8602 32.9198C13.8602 32.6714 13.8602 32.423 13.9632 32.1895C14.1139 31.8487 14.3761 31.6545 14.7508 31.6704C15.1181 31.6874 15.3973 31.8763 15.5088 32.2341C15.5703 32.4315 15.5799 32.6512 15.5809 32.8603C15.5873 34.2042 15.5841 35.5492 15.5852 36.8931C15.5852 37.3955 15.8315 37.5632 16.324 37.3962C16.8261 37.2242 17.325 37.0448 17.8271 36.8729C23.8629 34.8114 27.7512 29.368 27.747 22.9872C27.7459 21.0595 27.747 19.1307 27.747 17.203Z" fill="#66C6EB"/>
<path d="M37.1966 1.75475C33.5885 1.75475 29.9794 1.75156 26.3713 1.75475C24.9626 1.75581 24.1431 2.49144 23.9595 3.90113C23.8767 4.53486 23.5328 4.87561 23.0222 4.8289C22.4957 4.78007 22.1942 4.33848 22.2536 3.69945C22.45 1.54987 24.1676 0.0372105 26.4562 0.0340259C32.5588 0.0265953 38.6615 0.0244723 44.7642 0.0372105C46.124 0.040395 47.4912 -0.086987 48.8436 0.117886C50.8063 0.415111 52.181 2.0318 52.2054 4.02852C52.2203 5.23122 52.2192 6.43391 52.2054 7.63661C52.1799 9.81485 50.4953 11.5918 48.315 11.6067C42.9904 11.6438 37.6669 11.6226 32.3423 11.6184C31.7107 11.6184 31.2744 11.2256 31.2946 10.7309C31.3147 10.2129 31.7351 9.90083 32.4495 9.89977C37.4726 9.89658 42.4968 9.89764 47.5199 9.89764C47.7672 9.89764 48.0156 9.90083 48.2629 9.89552C49.5399 9.86686 50.4613 8.95608 50.4815 7.66952C50.4996 6.48487 50.4932 5.29915 50.4836 4.1145C50.472 2.66022 49.5803 1.76111 48.1292 1.75899C44.485 1.75156 40.8419 1.75687 37.1977 1.75687L37.1966 1.75475Z" fill="#66C6EB"/>
<path d="M37.2369 41.998C33.5577 41.998 29.8774 42.0054 26.1982 41.9948C24.6951 41.9906 23.5561 41.3112 22.7822 40.0257C22.4744 39.514 22.5508 39.0353 22.9659 38.7667C23.3714 38.5045 23.8958 38.6309 24.1888 39.1181C24.7195 39.9992 25.5103 40.3473 26.5018 40.3473C33.631 40.3452 40.7601 40.3357 47.8893 40.3548C49.4125 40.359 50.5823 39.4355 50.4953 37.7763C50.439 36.718 50.49 35.6544 50.4847 34.5929C50.4762 33.0515 49.6227 32.1981 48.0835 32.197C42.4755 32.1938 36.8675 32.197 31.2606 32.1917C30.9442 32.1917 30.6184 32.18 30.3126 32.1078C29.888 32.007 29.6407 31.7045 29.6736 31.2554C29.7055 30.8096 29.9815 30.5559 30.4199 30.4911C30.5589 30.471 30.7022 30.4805 30.8434 30.4805C36.5745 30.4805 42.3067 30.4784 48.0379 30.4816C50.5324 30.4827 52.216 32.1545 52.2022 34.6406C52.1948 36.0004 52.3444 37.3719 52.1258 38.719C51.8052 40.6934 50.2108 41.998 48.2215 42.0001C44.5593 42.0044 40.8981 42.0012 37.2359 42.0001L37.2369 41.998Z" fill="#66C6EB"/>
<path d="M40.3536 26.8107C37.754 26.8107 35.1533 26.8107 32.5536 26.8107C32.3594 26.8107 32.1598 26.8192 31.973 26.7799C31.5558 26.6929 31.3297 26.3957 31.3053 25.9912C31.2819 25.5985 31.5038 25.3225 31.8732 25.1834C32.1609 25.0751 32.4644 25.091 32.7659 25.091C37.8251 25.091 42.8832 25.091 47.9424 25.091C48.4031 25.091 48.8681 25.107 49.2863 24.8649C50.0262 24.4372 50.4805 23.8247 50.4837 22.9383C50.4879 21.7356 50.4954 20.5329 50.4858 19.3302C50.4741 17.8664 49.5612 16.9524 48.09 16.9481C44.6942 16.9386 41.2973 16.9439 37.9015 16.9439C36.115 16.9439 34.3285 16.9439 32.5419 16.9428C32.3657 16.9428 32.1853 16.9513 32.0133 16.9205C31.5696 16.8431 31.318 16.5543 31.3063 16.118C31.2957 15.703 31.5271 15.4036 31.939 15.3124C32.2298 15.2476 32.5356 15.2306 32.8339 15.2306C37.8039 15.2264 42.775 15.2221 47.745 15.2327C48.6696 15.2349 49.5761 15.3474 50.3797 15.8919C51.5516 16.6849 52.1694 17.7836 52.2055 19.1869C52.2363 20.4246 52.2278 21.6634 52.2076 22.9011C52.1726 25.0751 50.4359 26.798 48.2641 26.8086C45.6283 26.8213 42.9926 26.8118 40.3579 26.8118L40.3536 26.8107Z" fill="#66C6EB"/>
<path d="M33.0609 36.2593C33.0513 35.5215 33.6532 34.9048 34.391 34.8942C35.1202 34.8836 35.7476 35.4982 35.7518 36.2285C35.7561 36.9631 35.1468 37.5915 34.4207 37.6032C33.6999 37.6148 33.0705 36.9917 33.0609 36.2593Z" fill="#66C6EB"/>
<path d="M27.4285 36.2211C27.4349 35.4568 28.0177 34.8889 28.7766 34.9069C29.5229 34.925 30.1301 35.5438 30.112 36.2667C30.094 36.9885 29.456 37.6042 28.7352 37.5968C28.0039 37.5883 27.4221 36.9769 27.4285 36.2211Z" fill="#66C6EB"/>
<path d="M45.6887 22.3609C44.951 22.3577 44.3247 21.742 44.3321 21.0276C44.3406 20.3047 44.9669 19.6805 45.6898 19.6763C46.4063 19.672 47.0177 20.2983 47.0177 21.0372C47.0177 21.8195 46.4711 22.3651 45.6887 22.3609Z" fill="#66C6EB"/>
<path d="M41.3854 36.2455C41.3854 36.9811 40.7708 37.6032 40.0468 37.6042C39.3388 37.6042 38.7029 36.9641 38.6997 36.2455C38.6955 35.512 39.2984 34.9154 40.0521 34.9059C40.7994 34.8974 41.3875 35.4865 41.3864 36.2455H41.3854Z" fill="#66C6EB"/>
<path d="M47.0189 36.2359C47.021 36.9864 46.4286 37.5978 45.6983 37.5967C44.9744 37.5957 44.346 36.9768 44.3353 36.2539C44.3247 35.5448 44.9553 34.9164 45.6856 34.9069C46.4435 34.8973 47.0167 35.4695 47.0189 36.2359Z" fill="#66C6EB"/>
<path d="M34.4175 4.48176C35.1489 4.48919 35.7582 5.11124 35.7508 5.84156C35.7434 6.56976 35.1256 7.1727 34.3868 7.17164C33.6564 7.17164 33.0535 6.55384 33.0599 5.81396C33.0652 5.08258 33.6862 4.47433 34.4175 4.48176Z" fill="#66C6EB"/>
<path d="M45.6835 4.47958C46.4255 4.46684 47.0168 5.06023 47.0189 5.81815C47.02 6.592 46.4584 7.1684 45.7016 7.17052C44.9712 7.17265 44.3418 6.55697 44.3365 5.83514C44.3312 5.11861 44.9553 4.49125 45.6835 4.47852V4.47958Z" fill="#66C6EB"/>
<path d="M40.0266 4.48177C40.7601 4.47328 41.3779 5.07729 41.3853 5.80867C41.3928 6.55598 40.8026 7.16741 40.068 7.1706C39.3313 7.17378 38.7103 6.57403 38.6965 5.84582C38.6827 5.12399 39.3016 4.48921 40.0266 4.48071V4.48177Z" fill="#66C6EB"/>
<path d="M41.3854 21.0308C41.3917 21.7982 40.8185 22.364 40.0372 22.3608C39.2836 22.3577 38.6859 21.7547 38.6966 21.0074C38.7061 20.3079 39.3282 19.6879 40.0298 19.6805C40.7676 19.672 41.379 20.2813 41.3854 21.0308Z" fill="#66C6EB"/>
<path d="M28.7406 7.17066C28.0251 7.17066 27.436 6.57727 27.4286 5.84801C27.4201 5.09221 28.006 4.48821 28.7544 4.48078C29.4709 4.47335 30.1227 5.12087 30.1163 5.83209C30.1099 6.55604 29.4773 7.17172 28.7417 7.17066H28.7406Z" fill="#66C6EB"/>
<path d="M34.4176 22.3619C33.6448 22.3683 33.0567 21.794 33.062 21.0371C33.0663 20.2983 33.6873 19.6752 34.4155 19.6795C35.115 19.6837 35.7403 20.3026 35.753 21.0011C35.7657 21.7473 35.1702 22.3545 34.4187 22.3609L34.4176 22.3619Z" fill="#66C6EB"/>
<path d="M13.8613 25.0559C13.8613 24.2248 13.8507 23.3936 13.8666 22.5624C13.873 22.2344 13.7626 22.0603 13.4441 21.9319C11.7977 21.2674 10.8625 19.7324 11.0674 18.086C11.285 16.3281 12.5259 15.0787 14.3209 14.8102C15.9748 14.5628 17.7708 15.7411 18.2496 17.3886C18.7814 19.2176 17.946 21.1251 16.2263 21.8311C15.6977 22.0487 15.5629 22.3204 15.5746 22.8469C15.6064 24.332 15.5862 25.8181 15.5852 27.3042C15.5852 27.4454 15.5894 27.5877 15.5799 27.7288C15.5406 28.2819 15.2147 28.6386 14.7434 28.6481C14.2551 28.6577 13.8846 28.2883 13.8708 27.7119C13.8496 26.8276 13.8655 25.9434 13.8655 25.0591H13.8613V25.0559ZM16.7146 18.4682C16.7168 17.3557 15.8559 16.5075 14.7253 16.5075C13.632 16.5075 12.7276 17.4013 12.7297 18.4777C12.7318 19.5743 13.6192 20.4797 14.702 20.4904C15.8113 20.501 16.7114 19.5955 16.7136 18.4671L16.7146 18.4682Z" fill="#66C6EB"/>
</g>
<defs>
<clipPath id="clip0_3815_10206">
<rect width="52.2468" height="42" fill="white"/>
</clipPath>
</defs>
</svg>
