<svg width="24" height="25" viewBox="0 0 24 25" fill="none" xmlns="http://www.w3.org/2000/svg">
<path d="M22 17.42V20.42C22.0011 20.6985 21.9441 20.9742 21.8325 21.2293C21.7209 21.4845 21.5573 21.7136 21.3521 21.9019C21.1469 22.0901 20.9046 22.2335 20.6408 22.3227C20.3769 22.4119 20.0974 22.4451 19.82 22.42C16.7428 22.0856 13.787 21.0341 11.19 19.35C8.77383 17.8147 6.72534 15.7662 5.19 13.35C3.49998 10.7412 2.44824 7.77099 2.12 4.68C2.09501 4.40346 2.12788 4.12476 2.2165 3.86162C2.30513 3.59849 2.44757 3.35669 2.63477 3.15162C2.82196 2.94655 3.04981 2.78271 3.30379 2.67052C3.55778 2.55833 3.83234 2.50026 4.11 2.5H7.11C7.59531 2.49522 8.06579 2.66708 8.43376 2.98353C8.80173 3.29998 9.04208 3.73944 9.11 4.22C9.23662 5.18006 9.47145 6.12272 9.81 7.03C9.94455 7.38792 9.97366 7.77691 9.89391 8.15088C9.81415 8.52484 9.62886 8.86811 9.36 9.14L8.09 10.41C9.51356 12.9135 11.5865 14.9864 14.09 16.41L15.36 15.14C15.6319 14.8711 15.9752 14.6858 16.3491 14.6061C16.7231 14.5263 17.1121 14.5555 17.47 14.69C18.3773 15.0285 19.3199 15.2634 20.28 15.39C20.7658 15.4585 21.2094 15.7032 21.5265 16.0775C21.8437 16.4518 22.0122 16.9296 22 17.42Z" stroke="white" stroke-linecap="round" stroke-linejoin="round"/>
</svg>
