<svg width="75" height="76" viewBox="0 0 75 76" fill="none" xmlns="http://www.w3.org/2000/svg">
<circle cx="37.5" cy="37.6572" r="37.5" fill="url(#paint0_linear_680_9764)"/>
<circle cx="37.5" cy="35.6343" r="3.75" stroke="white" strokeWidth="2" stroke-linecap="round"/>
<circle cx="37.5" cy="38.1343" r="11.25" stroke="white" strokeWidth="2"/>
<path d="M44.7256 46.6673C44.8846 46.58 44.9597 46.3911 44.8925 46.2228C44.4105 45.0149 43.482 43.9511 42.2268 43.1758C40.8707 42.3383 39.2093 41.8843 37.5 41.8843C35.7908 41.8843 34.1293 42.3383 32.7732 43.1758C31.518 43.9511 30.5895 45.0149 30.1075 46.2228C30.0403 46.3911 30.1154 46.58 30.2744 46.6673V46.6673C34.7746 49.138 40.2254 49.138 44.7256 46.6673V46.6673Z" fill="white"/>
<defs>
<linearGradient id="paint0_linear_680_9764" x1="37.5" y1="0.157227" x2="37.5" y2="75.1572" gradientUnits="userSpaceOnUse">
<stop stop-color="#325A3E"/>
<stop offset="1" stop-color="#3C9856"/>
</linearGradient>
</defs>
</svg>
