<svg width="23" height="23" viewBox="0 0 23 23" fill="none" xmlns="http://www.w3.org/2000/svg">
<path d="M11.7709 0.145996C6.58045 0.145996 1.94976 3.87675 0.863985 8.95698C0.321522 11.4954 0.686953 14.1946 1.89719 16.4915C3.06197 18.702 4.97153 20.4885 7.25619 21.501C9.63262 22.5544 12.3609 22.7379 14.8586 22.0196C17.2683 21.3268 19.4049 19.8062 20.8595 17.7651C23.9009 13.4979 23.4943 7.50406 19.9161 3.68011C17.8193 1.43921 14.8404 0.145996 11.7709 0.145996ZM12.3734 5.95595L15.4878 9.07064C16.2652 9.84811 15.0595 11.0538 14.2821 10.2761L12.7178 8.71146V15.9456C12.7178 16.4617 12.2867 16.8925 11.7707 16.8925C11.2546 16.8925 10.8235 16.4617 10.8235 15.9456V8.67537L9.25242 10.2093C8.46757 10.9762 7.27295 9.75945 8.0615 8.98937L11.1753 5.94885C11.5089 5.62263 12.0432 5.62576 12.3734 5.95595Z" fill="#325A3E"/>
</svg>
