<svg width="28" height="28" viewBox="0 0 28 28" fill="none" xmlns="http://www.w3.org/2000/svg">
<path d="M9.13538 26.8042H2.95065C2.65708 26.8042 2.37554 26.6876 2.16796 26.48C1.96038 26.2724 1.84376 25.9909 1.84376 25.6973V19.5126C1.84325 19.3688 1.8711 19.2264 1.92571 19.0935C1.98031 18.9605 2.06061 18.8396 2.16199 18.7377L18.7653 2.13441C18.8683 2.02983 18.9911 1.94678 19.1265 1.89009C19.2619 1.83339 19.4072 1.8042 19.554 1.8042C19.7008 1.8042 19.8461 1.83339 19.9815 1.89009C20.1169 1.94678 20.2396 2.02983 20.3426 2.13441L26.5135 8.30532C26.6181 8.40831 26.7012 8.53108 26.7579 8.66648C26.8146 8.80187 26.8438 8.94719 26.8438 9.09398C26.8438 9.24076 26.8146 9.38608 26.7579 9.52148C26.7012 9.65687 26.6181 9.77964 26.5135 9.88263L9.91021 26.486C9.80832 26.5873 9.68744 26.6676 9.55449 26.7222C9.42153 26.7768 9.27912 26.8047 9.13538 26.8042Z" stroke="#212429" stroke-width="2" stroke-linecap="round" stroke-linejoin="round"/>
<path d="M15.1265 5.77344L22.8747 13.5217" stroke="#212429" stroke-width="2" stroke-linecap="round" stroke-linejoin="round"/>
<path d="M19.0004 9.64771L5.71777 22.9304" stroke="#212429" stroke-width="2" stroke-linecap="round" stroke-linejoin="round"/>
<path d="M9.52294 26.7349L1.91309 19.125" stroke="#212429" stroke-width="2" stroke-linecap="round" stroke-linejoin="round"/>
</svg>
