<svg width="36" height="36" viewBox="0 0 36 36" fill="none" xmlns="http://www.w3.org/2000/svg">
<rect x="0.0201416" y="0.201172" width="35" height="35" rx="10" fill="#325A3E" fill-opacity="0.07"/>
<path d="M24.8153 15.8743C24.692 15.5047 24.3801 15.2396 24.0021 15.1818L20.1649 14.607L18.4376 10.9404C18.266 10.5771 17.9147 10.3513 17.5205 10.3513C17.1262 10.3513 16.775 10.5771 16.6033 10.9404L14.9012 14.5938L11.0388 15.1818C10.6608 15.2396 10.3495 15.5047 10.2256 15.8743C10.0991 16.2539 10.1925 16.6655 10.4697 16.9485L13.2632 19.8076L12.6033 23.8375C12.5377 24.2402 12.7004 24.6345 13.0291 24.866C13.3451 25.0902 13.7515 25.1122 14.0896 24.9258L17.4963 23.0232L20.9513 24.9258C21.2905 25.1122 21.6958 25.0891 22.0118 24.866C22.3405 24.6345 22.5038 24.2402 22.4376 23.8375L21.7766 19.8024L24.5712 16.9485C24.8484 16.6655 24.9419 16.2539 24.8153 15.8743Z" fill="#325A3E"/>
</svg>
