<svg width="84" height="83" viewBox="0 0 84 83" fill="none" xmlns="http://www.w3.org/2000/svg">
<g opacity="0.5">
<g filter="url(#filter0_f_479_11258)">
<path d="M55.7633 42.157L51.8255 27.231C50.3972 21.817 46.8224 19.3895 42.122 20.6312L26.2024 24.8366C21.425 26.0986 19.575 29.9593 21.0033 35.3732L24.9411 50.2991C26.3924 55.8004 29.8821 58.1553 34.6595 56.8932L50.5792 52.6877C55.2795 51.4461 57.2146 47.6582 55.7633 42.157Z" fill="#FF624D"/>
</g>
</g>
<path d="M63.9229 23.3383H41.3094C33.0687 23.3383 28.3997 28.0072 28.3997 36.2479V58.8397C28.3997 67.0803 33.0687 71.7493 41.3094 71.7493H63.9229C72.1636 71.7493 76.8108 67.0803 76.8108 58.8397V36.2479C76.8108 28.0072 72.1636 23.3383 63.9229 23.3383Z" fill="#FFAC95" fill-opacity="0.35" stroke="url(#paint0_linear_479_11258)" strokeWidth="2" stroke-linecap="round" stroke-linejoin="round"/>
<path d="M23.0541 18.9339L44.9426 13.0793C52.919 10.9458 58.6284 14.2534 60.7655 22.2151L61.0771 23.3762H41.3131C33.056 23.3762 28.3777 28.0462 28.3777 36.2887V58.8857C28.3777 61.831 28.9751 64.3202 30.1196 66.3031C25.0161 65.9197 21.3733 62.567 19.7651 56.5758L13.9063 34.7488C11.7692 26.7872 15.0777 21.0675 23.0541 18.9339Z" fill="url(#paint1_linear_479_11258)"/>
<g opacity="0.5">
<g filter="url(#filter1_f_479_11258)">
<path d="M60.9688 23.3383H41.2835C33.0594 23.3383 28.3997 28.0084 28.3997 36.2511V58.8485C28.3997 61.7938 28.9947 64.2831 30.1347 66.266C31.8065 66.3921 33.6358 66.197 35.602 65.669L57.4033 59.8142C65.3479 57.6807 68.6225 51.9664 66.4939 44.0046L60.9688 23.3383Z" fill="url(#paint2_linear_479_11258)"/>
</g>
</g>
<path fillRule="evenodd" clipRule="evenodd" d="M53.5017 33.6256C52.3463 33.6256 51.395 34.5436 51.395 35.68V60.6396C51.395 61.7543 52.3463 62.6722 53.5017 62.6722C54.6795 62.6722 55.6309 61.7543 55.6309 60.6396V35.68C55.6309 34.5436 54.6795 33.6256 53.5017 33.6256ZM42.004 41.4924C40.8487 41.4924 39.8973 42.3925 39.8973 43.507V60.0739C39.8973 61.167 40.8487 62.0671 42.004 62.0671C43.1819 62.0671 44.1333 61.167 44.1333 60.0739V43.507C44.1333 42.3925 43.1819 41.4924 42.004 41.4924ZM62.2874 52.6304C62.2874 51.4903 63.2388 50.5695 64.4168 50.5695C65.572 50.5695 66.5234 51.4903 66.5234 52.6304V60.6332C66.5234 61.7514 65.572 62.6722 64.3941 62.6722C63.2388 62.6722 62.2874 61.7514 62.2874 60.6332V52.6304Z" fill="url(#paint3_linear_479_11258)"/>
<defs>
<filter id="filter0_f_479_11258" x="0.532928" y="0.312622" width="75.7032" height="76.9135" filterUnits="userSpaceOnUse" color-interpolation-filters="sRGB">
<feFlood flood-opacity="0" result="BackgroundImageFix"/>
<feBlend mode="normal" in="SourceGraphic" in2="BackgroundImageFix" result="shape"/>
<feGaussianBlur stdDeviation="10" result="effect1_foregroundBlur_479_11258"/>
</filter>
<filter id="filter1_f_479_11258" x="12.3997" y="7.33826" width="70.7288" height="74.9648" filterUnits="userSpaceOnUse" color-interpolation-filters="sRGB">
<feFlood flood-opacity="0" result="BackgroundImageFix"/>
<feBlend mode="normal" in="SourceGraphic" in2="BackgroundImageFix" result="shape"/>
<feGaussianBlur stdDeviation="8" result="effect1_foregroundBlur_479_11258"/>
</filter>
<linearGradient id="paint0_linear_479_11258" x1="4869.5" y1="23.3383" x2="28.3997" y2="4864.44" gradientUnits="userSpaceOnUse">
<stop stop-color="white" stop-opacity="0.25"/>
<stop offset="1" stop-color="white" stop-opacity="0"/>
</linearGradient>
<linearGradient id="paint1_linear_479_11258" x1="2985.17" y1="2928.35" x2="-161.551" y2="5652.38" gradientUnits="userSpaceOnUse">
<stop stop-color="#FFA78F"/>
<stop offset="1" stop-color="#F23E2C"/>
</linearGradient>
<linearGradient id="paint2_linear_479_11258" x1="2196.51" y1="2459.29" x2="-776.671" y2="3768.26" gradientUnits="userSpaceOnUse">
<stop stop-color="#FFA78F"/>
<stop offset="1" stop-color="#F23E2C"/>
</linearGradient>
<linearGradient id="paint3_linear_479_11258" x1="-325.346" y1="2167.81" x2="882.685" y2="4647.56" gradientUnits="userSpaceOnUse">
<stop stop-color="white"/>
<stop offset="1" stop-color="white" stop-opacity="0.2"/>
</linearGradient>
</defs>
</svg>
