<svg width="6" height="10" viewBox="0 0 6 10" fill="none" xmlns="http://www.w3.org/2000/svg">
<path d="M5.46836 4.58906L1.71836 0.839062C1.55974 0.680579 1.32872 0.618636 1.11218 0.676672C0.895524 0.734708 0.726432 0.903793 0.668396 1.12046C0.61036 1.33698 0.672303 1.56799 0.830785 1.72664L4.14329 5.03285L0.830785 8.33907C0.712482 8.45639 0.645935 8.61613 0.645935 8.78285C0.645935 8.94957 0.712482 9.1093 0.830785 9.22664C0.948114 9.34494 1.10785 9.41149 1.27457 9.41149C1.44129 9.41149 1.60102 9.34494 1.71836 9.22664L5.46836 5.47664C5.58666 5.35931 5.65321 5.19957 5.65321 5.03285C5.65321 4.86613 5.58666 4.7064 5.46836 4.58906Z" fill="#325A3E"/>
</svg>
