<svg width="6" height="10" viewBox="0 0 6 10" fill="none" xmlns="http://www.w3.org/2000/svg">
<path d="M1.06634 4.58906L4.81634 0.839062C4.97496 0.680579 5.20598 0.618636 5.42252 0.676672C5.63917 0.734708 5.80827 0.903793 5.8663 1.12046C5.92434 1.33698 5.8624 1.56799 5.70391 1.72664L2.39141 5.03285L5.70391 8.33907C5.82222 8.45639 5.88876 8.61613 5.88876 8.78285C5.88876 8.94957 5.82222 9.1093 5.70391 9.22664C5.58658 9.34494 5.42685 9.41149 5.26013 9.41149C5.09341 9.41149 4.93368 9.34494 4.81634 9.22664L1.06634 5.47664C0.948039 5.35931 0.881492 5.19957 0.881492 5.03285C0.881492 4.86613 0.948035 4.7064 1.06634 4.58906Z" fill="#325A3E"/>
</svg>
