<svg width="30" height="30" viewBox="0 0 30 30" fill="none" xmlns="http://www.w3.org/2000/svg">
<path d="M20.6831 26.367C20.5677 26.367 20.4534 26.3443 20.3467 26.3002C20.24 26.2561 20.1431 26.1913 20.0614 26.1097L9.22804 15.2758C9.06327 15.1109 8.9707 14.8874 8.9707 14.6544C8.9707 14.4213 9.06327 14.1978 9.22804 14.033L20.0614 3.199C20.143 3.11736 20.2399 3.05259 20.3465 3.00839C20.4532 2.9642 20.5675 2.94143 20.6829 2.94141C20.7983 2.94138 20.9126 2.96409 21.0193 3.00824C21.1259 3.05238 21.2229 3.11711 21.3045 3.19871C21.3861 3.28031 21.4509 3.37719 21.4951 3.48382C21.5393 3.59046 21.5621 3.70475 21.5621 3.82018C21.5621 3.93561 21.5394 4.04991 21.4953 4.15657C21.4511 4.26322 21.3864 4.36013 21.3048 4.44177L11.0925 14.6541L21.3048 24.8664C21.4278 24.9893 21.5116 25.1459 21.5455 25.3165C21.5795 25.487 21.562 25.6638 21.4955 25.8245C21.4289 25.9851 21.3162 26.1224 21.1716 26.219C21.027 26.3155 20.857 26.367 20.6831 26.367Z" fill="white"/>
</svg>
