<svg width="30" height="30" viewBox="0 0 30 30" fill="none" xmlns="http://www.w3.org/2000/svg">
<path d="M9.31689 26.367C9.43233 26.367 9.54665 26.3443 9.65332 26.3002C9.75998 26.2561 9.85691 26.1913 9.93857 26.1097L20.772 15.2758C20.9367 15.1109 21.0293 14.8874 21.0293 14.6544C21.0293 14.4213 20.9367 14.1978 20.772 14.033L9.93857 3.199C9.85697 3.11736 9.76008 3.05259 9.65345 3.00839C9.54682 2.9642 9.43252 2.94143 9.3171 2.94141C9.20167 2.94138 9.08736 2.96409 8.98071 3.00824C8.87406 3.05238 8.77714 3.11711 8.6955 3.19871C8.61386 3.28031 8.54909 3.37719 8.5049 3.48382C8.4607 3.59046 8.43793 3.70475 8.43791 3.82018C8.43788 3.93561 8.46059 4.04991 8.50474 4.15657C8.54888 4.26322 8.61361 4.36013 8.69521 4.44177L18.9075 14.6541L8.69521 24.8664C8.57221 24.9893 8.48844 25.1459 8.45449 25.3165C8.42055 25.487 8.43795 25.6638 8.50451 25.8245C8.57106 25.9851 8.68378 26.1224 8.82839 26.219C8.97299 26.3155 9.143 26.367 9.31689 26.367Z" fill="white"/>
</svg>
