<?xml version="1.0" encoding="utf-8"?>
<!-- Generator: Adobe Illustrator 27.9.3, SVG Export Plug-In . SVG Version: 9.03 Build 53313)  -->
<svg version="1.1" id="Layer_1" xmlns="http://www.w3.org/2000/svg" xmlns:xlink="http://www.w3.org/1999/xlink" x="0px" y="0px"
	 viewBox="0 0 53 53" style="enable-background:new 0 0 53 53;" xml:space="preserve">
<style type="text/css">
	.st0{fill:#FFFFFF;}
	.st1{display:none;}
	.st2{display:inline;fill:#FFFFFF;}
</style>
<g>
	<path class="st0" d="M50,51.5c-0.6-0.4-1-0.9-1.5-1.4c-7.9-7.9-15.8-15.8-23.7-23.7c-0.1-0.1-0.2-0.2-0.3-0.3
		c-0.1,0.2-0.1,0.4-0.1,0.6c0,5.7,0,11.4,0,17.1c0,1.1-0.3,1.4-1.5,1.4c-0.5,0-1,0-1.6,0c-0.5,0-0.9-0.2-1.2-0.6
		c-2.7-3.1-5.4-6.2-8-9.4c-0.3-0.3-0.6-0.4-1-0.4c-2,0-4.1,0-6.1,0c-1.3,0-1.6-0.4-1.6-1.6c0-4.6,0-9.2,0-13.8
		c0-1.1,0.4-1.5,1.5-1.5c2.1,0,4.2,0,6.3,0c0.4,0,0.6-0.1,0.8-0.4c0.5-0.6,1-1.2,1.5-1.7c0.3-0.3,0.3-0.5,0-0.8
		C10.4,12,7.1,8.7,3.8,5.4C3.1,4.6,2.2,3.9,1.6,3c0-0.5-0.2-1.1,0.1-1.4c0.2-0.2,0.9,0,1.4,0c0.5,0.3,0.9,0.8,1.3,1.2
		C19.9,18.3,35.4,33.9,51,49.4c0.2,0.2,0.4,0.4,0.5,0.6c0,0.4,0,0.8,0,1.3c0,0.2,0,0.2-0.2,0.2C50.9,51.5,50.5,51.5,50,51.5z
		 M22.3,33.4c0-3,0-6,0-9c0-0.4-0.1-0.6-0.4-0.9c-2-2-4-4-6-6c-0.3-0.3-0.5-0.3-0.7,0c-0.6,0.8-1.3,1.5-1.9,2.2
		c-0.3,0.4-0.7,0.5-1.2,0.5c-2,0-3.9,0-5.9,0c-0.4,0-0.6,0.1-0.6,0.5c0,3.8,0,7.6,0,11.4c0,0.4,0.1,0.5,0.5,0.5c2,0,3.9,0,5.9,0
		c0.5,0,0.9,0.2,1.2,0.5c2.7,3.2,5.4,6.3,8.1,9.5c0.2,0.2,0.3,0.4,0.6,0.3c0.3-0.1,0.2-0.4,0.2-0.6C22.3,39.5,22.3,36.4,22.3,33.4z"
		/>
	<path class="st0" d="M49.5,27.4c0,3.8-1.3,8-3.8,11.8c-0.2,0.3-0.4,0.6-0.9,0.7c-0.5,0.1-0.9-0.1-1.1-0.5c-0.3-0.4-0.2-0.9,0-1.3
		c0.7-1.1,1.3-2.2,1.8-3.3c0.9-2.1,1.5-4.3,1.6-6.6c0.4-6.8-1.9-12.5-6.9-17.1c-0.5-0.5-1-0.8-1.6-1.3c-0.6-0.5-0.7-1.1-0.3-1.6
		c0.4-0.5,1.1-0.6,1.6-0.2c4.6,3.4,7.5,7.9,8.8,13.4C49.3,23.1,49.5,24.9,49.5,27.4z"/>
	<path class="st0" d="M41.2,26.4c-0.1,2.5-0.5,4.7-1.6,6.7c-0.3,0.5-0.7,0.8-1.2,0.7c-0.5-0.1-0.8-0.5-0.9-1c-0.1-0.4,0.1-0.7,0.3-1
		c0.5-1.1,0.9-2.3,1.1-3.5c0.5-3.7-0.5-7-2.9-9.9c-0.8-0.9-1.7-1.7-2.6-2.3c-0.3-0.2-0.6-0.5-0.6-0.9c0-0.4,0.1-0.8,0.4-1.1
		c0.4-0.3,0.9-0.3,1.3,0c1.3,0.8,2.4,1.7,3.3,2.9c1.9,2.2,3,4.8,3.4,7.7C41.1,25.4,41.1,26,41.2,26.4z"/>
	<path class="st0" d="M24.5,13.2c0,1.4,0,2.7,0,4.1c0,0.8-0.5,1.3-1.1,1.3c-0.7,0-1.1-0.5-1.1-1.3c0-2.2,0-4.5,0-6.7
		c0-0.2,0.1-0.5-0.2-0.6c-0.3-0.1-0.5,0.1-0.6,0.3c-0.8,0.9-1.5,1.8-2.3,2.7c-0.5,0.6-1.1,0.6-1.6,0.2c-0.5-0.4-0.5-1.1,0-1.6
		c1-1.1,1.9-2.3,2.9-3.4c0.2-0.3,0.5-0.4,0.9-0.4c0.6,0,1.2,0,1.8,0c1.1,0,1.4,0.3,1.4,1.4C24.5,10.5,24.5,11.9,24.5,13.2z"/>
	<path class="st0" d="M32.7,25.6c0,0.8-0.4,1.2-0.9,1.3c-0.6,0.1-1.1-0.2-1.2-0.8c-0.2-1.2-0.8-2.1-1.7-2.8
		c-0.4-0.4-0.4-1.1-0.1-1.5c0.4-0.5,1-0.5,1.5-0.1c0.9,0.7,1.5,1.5,2,2.5C32.5,24.6,32.7,25.1,32.7,25.6z"/>
</g>
<g class="st1">
	<path class="st2" d="M24.6,26.5c0,6,0,12,0,18c0,0.2,0,0.4,0,0.6c-0.1,0.5-0.5,0.8-1,0.8c-0.7,0-1.5,0-2.2,0
		c-0.3,0-0.6-0.1-0.8-0.4c-1.9-2.3-3.9-4.5-5.8-6.8c-1-1.1-1.9-2.2-2.9-3.4c-0.1-0.2-0.3-0.2-0.5-0.2c-2.3,0-4.7,0-7,0
		c-0.8,0-1.3-0.5-1.3-1.3c0-4.9,0-9.8,0-14.8c0-0.8,0.5-1.3,1.3-1.3c2.3,0,4.7,0,7,0c0.2,0,0.4-0.1,0.5-0.2c2.7-3.2,5.4-6.3,8.1-9.5
		c0.2-0.2,0.4-0.4,0.6-0.7C20.7,7.2,21,7,21.3,7.1c0.7,0,1.4,0,2,0c0.6,0,1.2,0.4,1.2,1.2c0,1.3,0,2.6,0,3.9
		C24.6,16.9,24.6,21.7,24.6,26.5z M22.4,26.5c0-5.6,0-11.2,0-16.9c0-0.1,0-0.2,0-0.2c0-0.1,0-0.1-0.1-0.1c-0.2,0-0.4,0-0.6,0.2
		c-2.9,3.4-5.8,6.8-8.7,10.2c-0.3,0.3-0.6,0.5-1,0.5c-2.2,0-4.3,0-6.5,0c-0.2,0-0.3,0.1-0.3,0.3c0,4.1,0,8.2,0,12.3
		c0,0.3,0.1,0.3,0.3,0.3c2.1,0,4.3,0,6.4,0c0.5,0,0.8,0.2,1.1,0.5c0.7,0.9,1.5,1.8,2.2,2.6c2.1,2.5,4.3,5,6.4,7.5
		c0.2,0.2,0.4,0.2,0.6,0.2c0.2,0,0.1-0.3,0.1-0.4C22.4,37.7,22.4,32.1,22.4,26.5z"/>
	<path class="st2" d="M49.5,26.5c-0.1,5.7-1.9,10.9-5.6,15.3c-1.2,1.4-2.6,2.7-4.1,3.8c-0.5,0.4-1.1,0.4-1.5,0
		c-0.5-0.5-0.5-1.3,0.1-1.8c0.4-0.3,0.8-0.6,1.2-1c2.1-1.8,3.8-3.9,5.1-6.3c1.2-2.2,1.9-4.5,2.3-7c0.2-1.4,0.3-2.9,0.2-4.3
		c-0.2-3.1-1-6-2.4-8.8c-1.6-3-3.7-5.5-6.4-7.5c-0.3-0.2-0.5-0.5-0.5-0.8c0-0.5,0.1-0.8,0.6-1.1C38.8,7,39.3,7,39.6,7.3
		c0.6,0.4,1.1,0.9,1.7,1.3c1.9,1.7,3.5,3.6,4.8,5.7c1.5,2.6,2.6,5.3,3,8.3C49.4,23.9,49.4,25.2,49.5,26.5z"/>
	<path class="st2" d="M40.8,26.5c-0.1,4.4-1.7,8.1-4.9,11.1c-0.7,0.6-1.4,1.2-2.2,1.7c-0.7,0.4-1.5,0.1-1.7-0.6
		c-0.1-0.5,0-1,0.5-1.3c0.6-0.4,1.3-0.9,1.8-1.4c1.8-1.7,3-3.6,3.7-6c0.3-1.1,0.5-2.3,0.5-3.5c0-3.1-1-5.8-2.9-8.2
		c-0.9-1.1-1.9-2-3.1-2.7c-0.4-0.2-0.6-0.5-0.6-1c0-0.9,0.9-1.4,1.7-1c0.6,0.4,1.2,0.8,1.8,1.3c2.7,2.3,4.3,5.2,5,8.6
		C40.8,24.6,40.8,25.5,40.8,26.5z"/>
	<path class="st2" d="M32.2,26.5c0,2.1-0.9,3.9-2.6,5.2c-0.4,0.3-0.8,0.4-1.3,0.1c-0.4-0.2-0.6-0.6-0.6-1.1c0-0.4,0.3-0.6,0.6-0.9
		c0.6-0.4,1-1,1.3-1.6c0.8-1.8,0.3-3.8-1.3-5c-0.4-0.3-0.7-0.7-0.5-1.3c0.2-0.8,1.1-1.1,1.7-0.6c1.1,0.8,1.8,1.8,2.2,3
		C32.1,25,32.2,25.7,32.2,26.5z"/>
</g>
</svg>
