<svg width="46" height="46" viewBox="0 0 46 46" fill="none" xmlns="http://www.w3.org/2000/svg">
<path fillRule="evenodd" clipRule="evenodd" d="M5.07978 5.44013C3.9082 6.6117 3.9082 8.49732 3.9082 12.2686V33.7686C3.9082 37.5398 3.9082 39.4254 5.07978 40.597C6.25135 41.7686 8.13697 41.7686 11.9082 41.7686H33.4082C37.1794 41.7686 39.0651 41.7686 40.2366 40.597C41.4082 39.4254 41.4082 37.5398 41.4082 33.7686V12.2686C41.4082 8.76735 41.4082 6.8914 40.4707 5.7032V32.3936C39.3328 32.3936 38.7638 32.3936 38.2331 32.2444C37.9277 32.1587 37.6337 32.0369 37.3571 31.8816C36.8764 31.6118 36.4741 31.2095 35.6695 30.4048L32.9866 27.722C31.6533 26.3886 30.9866 25.722 30.1582 25.722C29.3298 25.722 28.6631 26.3886 27.3298 27.722L24.747 30.3047C23.8006 31.2511 23.3274 31.7243 22.8064 31.624C22.2854 31.5236 22.0218 30.9085 21.4945 29.6783L19.3605 24.699C18.3061 22.2386 17.7788 21.0084 16.7368 20.8077C15.6947 20.607 14.7483 21.5534 12.8555 23.4462L6.7207 29.5811V4.56455C6.03825 4.73677 5.51071 5.00919 5.07978 5.44013ZM11.9082 4.26855L33.45 4.26855C33.4361 4.26855 33.4222 4.26855 33.4082 4.26855H11.9082Z" fill="#325A3E"/>
<path d="M11.9082 5.26855H33.4082C35.3221 5.26855 36.6569 5.27068 37.664 5.40608C38.6424 5.53762 39.1605 5.77822 39.5295 6.14723C39.8985 6.51625 40.1391 7.03435 40.2707 8.01271C40.4061 9.01985 40.4082 10.3547 40.4082 12.2686V33.7686C40.4082 35.6824 40.4061 37.0173 40.2707 38.0244C40.1391 39.0028 39.8985 39.5209 39.5295 39.8899C39.1605 40.2589 38.6424 40.4995 37.664 40.631C36.6569 40.7664 35.3221 40.7686 33.4082 40.7686H11.9082C9.99431 40.7686 8.6595 40.7664 7.65236 40.631C6.674 40.4995 6.1559 40.2589 5.78688 39.8899C5.41787 39.5209 5.17727 39.0028 5.04573 38.0244C4.91033 37.0173 4.9082 35.6824 4.9082 33.7686V12.2686C4.9082 10.3547 4.91033 9.01985 5.04573 8.01271C5.17727 7.03435 5.41787 6.51625 5.78688 6.14723C6.1559 5.77822 6.674 5.53762 7.65236 5.40608C8.6595 5.27068 9.99432 5.26855 11.9082 5.26855Z" stroke="#325A3E" strokeWidth="2"/>
<circle cx="28.2832" cy="17.3936" r="3.75" fill="#325A3E"/>
</svg>
